<?xml version="1.0" encoding="utf-8"?>
<!-- Generator: Adobe Illustrator 22.1.0, SVG Export Plug-In . SVG Version: 6.00 Build 0)  -->
<svg version="1.1" id="Layer_1" xmlns="http://www.w3.org/2000/svg" xmlns:xlink="http://www.w3.org/1999/xlink" x="0px" y="0px"
	 viewBox="0 0 190.8 652.6" style="enable-background:new 0 0 190.8 652.6;" xml:space="preserve">
<style type="text/css">
	.st0{fill:#D8C7C3;}
	.st1{fill:#FFFFFF;}
	.st2{fill:#678186;}
	.st3{fill:#020202;}
	.st4{fill:#56B746;}
	.st5{fill:#FFFCE3;}
	.st6{opacity:0.8;enable-background:new    ;}
	.st7{fill:#006E94;}
	.st8{fill:#2EABE1;fill-opacity:0.72;}
	.st9{fill:#00A29A;fill-opacity:0.68;}
	.st10{fill:#1D1D1B;}
</style>
<title>haritalar</title>
<g>
	<g id="Layer_1_1_">
		<rect x="0.3" y="499" class="st0" width="190.1" height="153.2"/>
		<rect x="1.1" y="0.6" class="st1" width="189.3" height="501.6"/>
		<path class="st0" d="M116.8,36.6c0,0,0.5-1.3,3.3-6.6s4.8-4.3,4.8-9.3s-1-3.8,3.3-6.5s3.8-9.3,4.3-13.7c0.1-1.2,58.1,0,58.1,0
			v501.9H0.3V292.5l10.3-10.3l62.8-46.3l39.9-123.1L116.8,36.6z"/>
		<path class="st2" d="M143.6,311.4c0,0-4.4-96.7,24.7-93.2c0.9,0.1,3.3,2.7,3.5,3.9c0.4,2.5-0.2,5.1-1.6,7.2
			c-1.3,2-1.3,7.3-1.6,12.5s1,25.7-0.9,28.8c-0.4,0.4-0.5,1.1-0.4,1.6c0.3,0.6,0.1,1.3-0.5,1.7c0,0,0,0-0.1,0
			c-0.5,0.9-0.1,2,0.8,2.4c0,0,0,0,0.1,0c0,0,0.8,3.2-1.4,4.3c0,0-1.8,0.8-2,3.5c0,0-3.1,3-3.8-1.4c0,0-1.3-2.7-4.3-0.8
			c0,0-0.4,0.3-0.5,2s-0.5,0.5-0.8,1.2s0.1,3,0,3.4s-1.7,1.8-0.1,2.8s2.8-0.2,3.6,1.7s0.9,3.4,3.6,3.8s4.3,1.6,4.2,4.9
			s0.6,9.1-1.4,11.5s-1.7,4.2-7.6,6.1s-6.3,2.1-8.8-2S143.8,313.6,143.6,311.4"/>
		<path class="st3" d="M152.1,321c-1.6,0-2.5-1-4.1-3.5c-0.8-1.4-1.9-2.6-3.2-3.5c-1-0.5-1.6-1.5-1.7-2.6l0,0
			c-0.4-12.9-0.2-25.8,0.6-38.6c1.9-27.1,6.8-44.5,14.4-51.6c2.7-2.7,6.4-3.9,10.2-3.5c1.3,0.1,3.7,3,3.9,4.3
			c0.4,2.6-0.2,5.3-1.6,7.5c-0.9,1.5-1.1,5.3-1.3,9.3c0,1-0.1,2-0.2,3c-0.1,1.6,0,4.9,0,8.6c0.2,10.3,0.3,18.3-1,20.4l-0.1,0.1
			c-0.3,0.3-0.3,0.7-0.3,1.1c0.4,0.8,0.1,1.8-0.7,2.2c-0.1,0.3-0.3,1,0.7,1.7l0.2,0.1l0.1,0.2c0,0.1,0.9,3.6-1.7,4.8
			c-0.1,0-1.5,0.7-1.7,3.1v0.2l-0.1,0.1c-0.2,0.1-1.6,1.5-3,1c-0.9-0.3-1.4-1.2-1.7-2.7c-0.3-0.5-0.7-0.9-1.3-1.1
			c-0.8-0.2-1.6,0-2.2,0.5l0,0c-0.2,0.5-0.3,1.1-0.3,1.6c0,0.8-0.1,1.1-0.4,1.3c-0.1,0.1-0.3,0.2-0.4,0.1c-0.1,0.6-0.1,1.2,0,1.9
			c0.1,0.5,0.1,0.9,0,1.4c-0.1,0.2-0.2,0.3-0.3,0.5c-0.2,0.3-0.6,0.8-0.5,1.2c0.1,0.2,0.3,0.4,0.5,0.5c0.5,0.3,1,0.4,1.6,0.4
			c1-0.1,1.9,0.5,2.3,1.5c0.2,0.4,0.3,0.7,0.4,1c0.5,1.4,0.9,2.2,2.8,2.5c3.3,0.5,4.7,2.2,4.6,5.4c0,0.8,0,1.6,0,2.6
			c0.1,3.2,0.1,7.2-1.5,9.2c-0.4,0.5-0.8,1-1.1,1.6c-1.1,1.7-2,3.2-6.7,4.6l-0.4,0.1C155.3,320.4,153.7,320.8,152.1,321z
			 M144.1,311.3c0.1,0.9,0.5,1.2,1.3,1.9c1.4,1,2.5,2.3,3.4,3.8c2.3,3.7,2.4,3.6,7.8,1.9l0.4-0.1c4.3-1.4,5.1-2.6,6.1-4.2
			c0.4-0.6,0.8-1.2,1.2-1.7c1.4-1.7,1.3-5.5,1.3-8.5c0-1,0-1.9,0-2.7c0.1-2.7-1-3.9-3.8-4.4c-2.5-0.4-3-1.7-3.5-3.1
			c-0.1-0.3-0.3-0.6-0.4-1c-0.4-0.8-0.7-0.9-1.4-0.9c-0.7,0-1.4-0.2-2-0.6c-0.5-0.2-0.8-0.7-0.9-1.2c-0.1-0.7,0.2-1.5,0.7-2
			c0.1-0.1,0.1-0.2,0.1-0.2s0-0.6-0.1-1c-0.1-0.8-0.1-1.6,0.1-2.4c0.1-0.3,0.4-0.5,0.7-0.6c0-0.2,0-0.3,0-0.5
			c0.1-1.8,0.5-2.3,0.8-2.4c0.9-0.6,2-0.9,3-0.6c0.8,0.3,1.5,0.9,1.9,1.6v0.1c0.1,0.8,0.4,1.8,1,2s1.4-0.4,1.8-0.7
			c0.1-1.6,0.9-3,2.3-3.7c1.6-0.7,1.3-2.9,1.2-3.5c-1-0.6-1.4-1.9-0.8-3l0.1-0.1l0.1-0.1c0.4-0.2,0.5-0.6,0.4-0.9c0,0,0,0,0-0.1
			v-0.1c-0.2-0.7,0-1.4,0.4-2c1.2-2.1,1-12.3,0.8-19.8c-0.1-3.8-0.1-7,0-8.7c0.1-1,0.1-2,0.2-3c0.2-4.3,0.4-8,1.5-9.7
			c1.3-2,1.9-4.4,1.5-6.8c-0.2-1.2-2.4-3.5-3.1-3.5c-3.5-0.4-6.9,0.8-9.4,3.2C141.1,238.4,144.1,310.1,144.1,311.3z"/>
		<path class="st4" d="M115.1,36.6h4.7c0,0,1.2,3.3,3.3,2.9c1.8-0.2,3.4-1.3,4.2-2.9l9.7,0.3c0,0,1.5,2.2,3,2s9.1,0,9.1,0
			s1.8,1.8,4.8-0.5c0,0,3.5-3.1,6.1-3.4c0,0,2.7-0.5,3-5.2l1.2-13.3c0,0,0.4-4.8,2.4-4.9s5.1-0.7,6.8,3c0,0,1.3,2.1,5.6,1.6
			s4,1.6,4,3.1s-0.4,2.3,1.2,2.8s0.5,3.7-0.9,3.5s-3.3,2.2-3.1,5.4s1.1,6.8-0.9,7.9s-3.6-0.3-3,5.3s-0.2,13.3,0.2,18
			c0.2,3.2,0.8,6.4,1.8,9.4c0.4,1,1.7,0.9,1.4,9.6s0.8,8.2,2.7,8.3s2.2,3.4-0.1,3.5s-5-0.7-7.1,2.8s-5.3,2.6-4.6,8.7
			s-0.3,27.7-0.3,27.7l-0.1,19.9c0.4,3.8,0.2,7.7-0.5,11.5c-1.2,6.3-2.5,11.3-3.1,14.4s-0.9,4.6-0.1,6.9c0.8,2.3,1.4,2.3,1.4,7.8
			s0.3,19.8,0.3,19.8s1,6.1-1.7,6.1c0,0-4,0.4-8,4.5c-1.5,1.8-2.3,4-2.3,6.3c0.1,3.7,0.2,6.2-4.3,5.8l-1,16.9c0,0,0.3,5.1-1.8,6
			s-0.7,19.3-0.5,22.1s-2,25.3-5.1,31.3s-6.8,14.3-7.8,20.7s-5.8,21-7.5,25.2s-6.2,24.2-6.9,27.1s-6.8,15.8-8,24.9
			s-4.2,12.4-5.7,22.1S97,464.1,96.2,465.5s-15.8,36.7-15.8,36.7h-5.7c1.6-7.6,1.2-15.5-1.2-22.9c0,0-3.8-7.4-3.1-13.7
			s0.7-10.1-1.1-13.2c-4.5-9.1-8.5-18.4-11.9-28c-3.3-9.7-8-17.9-15.3-43.2s-13.2-42-15-46.3s-11.6-35.2-13.7-40.5s-2.9-7.4-2.9-7.4
			s-1.8-4.3,2.6-8.7s18.5-21.8,22.6-26.8s16.6-25.3,18.9-29.8s14.6-32.3,17.7-40.3c3.2-8,13.8-41.1,14.8-53.7s1.8-16.3,2-19.4
			s5.3-11,4.4-15.7s-0.7-9,2.8-17.8c0,0,2.1-5.3,8.6-2.4c0,0,4.9,1.8,6.8-10.7c0,0-4.7,1.9-4.3-7c0,0,3.5,0.4,3.9-5.9
			c0,0-0.3-4.8,1.3-6.6C113.9,40.6,114.8,38.6,115.1,36.6z"/>
		<path class="st5" d="M84.2,178.7c0,2.4-1.9,4.3-4.3,4.3c-2.4,0-4.3-1.9-4.3-4.3c0-2.4,1.9-4.3,4.3-4.3c0,0,0,0,0,0
			C82.2,174.4,84.2,176.3,84.2,178.7z"/>
		<circle class="st5" cx="101.9" cy="77.1" r="4.3"/>
		<circle class="st5" cx="39.6" cy="256.9" r="4.3"/>
		<circle class="st5" cx="126.4" cy="201.2" r="4.3"/>
		<circle class="st5" cx="126.4" cy="221.5" r="4.3"/>
		<circle class="st5" cx="123" cy="235.7" r="4.3"/>
		<path class="st5" d="M56,369.1h6.2v1.5h-4.4v2h3.8v1.5h-3.8v3.6H56V369.1z"/>
		<path class="st5" d="M65,377.7h-1.8v-8.6H65V377.7z M63.3,366.7h1.5v1.4h-1.5L63.3,366.7z"/>
		<path class="st5" d="M66.7,369.1h1.8v7.1h4.3v1.6h-6.1V369.1z"/>
		<path class="st5" d="M75.7,377.7h-1.8v-8.6h1.8V377.7z M74,366.7h1.5v1.4H74L74,366.7z"/>
		<path class="st5" d="M78.7,375.1c0,0.3,0.1,0.6,0.3,0.9c0.4,0.4,1,0.6,1.5,0.5c0.4,0,0.7,0,1.1-0.1c0.5-0.1,0.8-0.5,0.8-1
			c0-0.3-0.1-0.5-0.4-0.7c-0.4-0.2-0.8-0.3-1.2-0.4l-0.9-0.2c-0.7-0.1-1.3-0.3-1.9-0.7c-0.6-0.4-0.9-1.1-0.9-1.9
			c0-0.7,0.3-1.4,0.9-1.9c0.7-0.6,1.6-0.8,2.5-0.8c0.8,0,1.7,0.2,2.4,0.7c0.7,0.5,1,1.3,1,2.1h-1.7c0-0.5-0.3-0.9-0.7-1.1
			c-0.3-0.1-0.7-0.2-1.1-0.2c-0.4,0-0.8,0.1-1.1,0.3c-0.3,0.2-0.4,0.5-0.4,0.8c0,0.3,0.2,0.6,0.4,0.7c0.4,0.2,0.8,0.3,1.1,0.4
			l1.5,0.4c0.5,0.1,1,0.3,1.5,0.6c0.5,0.4,0.8,1.1,0.8,1.8c0,0.8-0.3,1.5-0.9,2c-0.7,0.6-1.7,0.8-2.6,0.8c-1,0.1-1.9-0.2-2.7-0.8
			c-0.7-0.5-1-1.3-1-2.1L78.7,375.1z"/>
		<path class="st5" d="M91.6,369.1v1.5h-2.6v7.1h-1.8v-7.1h-2.6v-1.5H91.6z"/>
		<path class="st5" d="M94.4,377.7h-1.8v-8.6h1.8V377.7z M92.7,366.7h1.5v1.4h-1.5V366.7z"/>
		<path class="st5" d="M96,369.1h1.9l3.4,6v-6h1.7v8.6h-1.8l-3.5-6.1v6.1H96V369.1z"/>
		<path class="st5" d="M81.8,196.8h2.9c0.4,0,0.8,0.1,1.2,0.2c0.6,0.3,0.9,0.9,0.9,1.5c0,0.3-0.1,0.7-0.2,1
			c-0.2,0.3-0.4,0.5-0.7,0.6c0.2,0.1,0.4,0.2,0.6,0.4c0.2,0.2,0.2,0.5,0.2,0.8v0.9c0,0.2,0,0.4,0.1,0.5c0,0.2,0.1,0.3,0.3,0.4v0.1
			H86c0-0.1-0.1-0.1-0.1-0.2c0-0.2,0-0.3,0-0.5l-0.1-1.1c0-0.3-0.2-0.7-0.5-0.8c-0.2-0.1-0.5-0.1-0.8-0.1h-1.9v2.8h-0.9L81.8,196.8z
			 M84.7,199.8c0.4,0,0.7-0.1,1-0.3c0.3-0.2,0.4-0.6,0.4-0.9c0-0.4-0.2-0.7-0.5-0.9c-0.2-0.1-0.5-0.1-0.7-0.1h-2.1v2.2L84.7,199.8z"
			/>
		<path class="st5" d="M90.7,200.4c0.2,0,0.3-0.1,0.4-0.2c0-0.1,0-0.2,0-0.3c0-0.2-0.1-0.5-0.3-0.6c-0.2-0.1-0.5-0.2-0.8-0.2
			c-0.3,0-0.7,0.1-0.9,0.3c-0.1,0.2-0.2,0.4-0.2,0.5h-0.7c0-0.5,0.2-0.9,0.6-1.2c0.4-0.2,0.8-0.4,1.3-0.4c0.5,0,0.9,0.1,1.3,0.3
			c0.3,0.2,0.6,0.6,0.5,1v2.7c0,0.1,0,0.1,0.1,0.2c0.1,0.1,0.1,0.1,0.2,0.1h0.1h0.1v0.6l-0.3,0.1h-0.3c-0.2,0-0.5-0.1-0.6-0.3
			c-0.1-0.1-0.1-0.3-0.1-0.4c-0.2,0.2-0.4,0.4-0.7,0.5c-0.3,0.2-0.7,0.2-1,0.2c-0.4,0-0.8-0.1-1.1-0.4c-0.3-0.3-0.4-0.6-0.4-1
			c0-0.4,0.1-0.7,0.4-1c0.3-0.3,0.7-0.4,1.1-0.5L90.7,200.4z M89.1,202.5c0.2,0.1,0.4,0.2,0.6,0.2c0.3,0,0.6-0.1,0.8-0.2
			c0.4-0.2,0.7-0.6,0.7-1v-0.6c-0.1,0.1-0.2,0.1-0.4,0.2l-0.4,0.1l-0.5,0.1c-0.2,0-0.4,0.1-0.6,0.2c-0.2,0.1-0.4,0.4-0.4,0.6
			C88.8,202.2,88.9,202.4,89.1,202.5L89.1,202.5z"/>
		<path class="st5" d="M93.3,198.5h0.8v0.7c0.1-0.2,0.3-0.4,0.5-0.5c0.3-0.2,0.6-0.3,0.9-0.3c0.3,0,0.6,0.1,0.9,0.3
			c0.1,0.1,0.3,0.3,0.4,0.5c0.3-0.5,0.8-0.8,1.4-0.8c0.5-0.1,1,0.2,1.3,0.7c0.1,0.3,0.2,0.7,0.2,1v3.1h-0.8V200
			c0-0.2-0.1-0.5-0.2-0.6c-0.2-0.1-0.4-0.2-0.6-0.2c-0.3,0-0.6,0.1-0.8,0.3c-0.2,0.3-0.4,0.6-0.3,1v2.7H96v-3.1c0-0.2,0-0.5-0.1-0.7
			c-0.1-0.2-0.4-0.4-0.7-0.3c-0.3,0-0.6,0.1-0.8,0.3c-0.3,0.4-0.4,0.8-0.4,1.3v2.5h-0.8L93.3,198.5z"/>
		<path class="st5" d="M103.4,200.4c0.2,0,0.3-0.1,0.4-0.2c0-0.1,0-0.2,0-0.3c0-0.2-0.1-0.5-0.3-0.6c-0.2-0.1-0.5-0.2-0.8-0.2
			c-0.3,0-0.7,0.1-0.9,0.3c-0.1,0.2-0.2,0.4-0.2,0.5h-0.7c0-0.5,0.2-0.9,0.6-1.2c0.4-0.2,0.8-0.4,1.3-0.4c0.5,0,0.9,0.1,1.4,0.3
			c0.3,0.2,0.5,0.6,0.5,1v2.7c0,0.1,0,0.1,0,0.2c0.1,0.1,0.1,0.1,0.2,0.1h0.3h0.1v0.6l-0.3,0.1h-0.3c-0.2,0-0.5-0.1-0.6-0.3
			c-0.1-0.1-0.1-0.3-0.1-0.4c-0.2,0.2-0.4,0.4-0.7,0.5c-0.3,0.2-0.7,0.2-1,0.2c-0.4,0-0.8-0.1-1.1-0.4c-0.3-0.3-0.4-0.6-0.4-1
			c0-0.4,0.1-0.7,0.4-1c0.3-0.3,0.7-0.4,1.1-0.5L103.4,200.4z M101.7,202.5c0.2,0.1,0.4,0.2,0.6,0.2c0.3,0,0.6-0.1,0.8-0.2
			c0.4-0.2,0.7-0.6,0.7-1v-0.6c-0.1,0.1-0.2,0.1-0.4,0.2c-0.1,0-0.3,0.1-0.4,0.1l-0.5,0.1c-0.2,0-0.4,0.1-0.6,0.2
			c-0.2,0.1-0.4,0.4-0.4,0.6C101.5,202.2,101.6,202.4,101.7,202.5L101.7,202.5z"/>
		<path class="st5" d="M106,196.8h0.8v6.5H106V196.8z"/>
		<path class="st5" d="M108.1,196.8h0.8v6.5h-0.8V196.8z"/>
		<path class="st5" d="M112.7,200.4c0.2,0,0.3-0.1,0.4-0.2c0.1-0.3,0-0.7-0.2-0.9c-0.2-0.1-0.5-0.2-0.8-0.2c-0.3,0-0.7,0.1-0.9,0.3
			c-0.1,0.2-0.2,0.4-0.2,0.5h-0.7c0-0.5,0.2-0.9,0.6-1.2c0.4-0.2,0.8-0.4,1.3-0.4c0.5,0,0.9,0.1,1.4,0.3c0.3,0.2,0.5,0.6,0.5,1v2.7
			c0,0.1,0,0.1,0.1,0.2c0.1,0.1,0.1,0.1,0.2,0.1h0.1h0.1v0.6l-0.3,0.1h-0.3c-0.2,0-0.5-0.1-0.6-0.3c-0.1-0.1-0.1-0.3-0.1-0.4
			c-0.2,0.2-0.4,0.4-0.7,0.5c-0.3,0.2-0.7,0.2-1,0.2c-0.4,0-0.8-0.1-1.1-0.4c-0.3-0.3-0.4-0.6-0.4-1c0-0.4,0.1-0.7,0.4-1
			c0.3-0.3,0.7-0.4,1.1-0.5L112.7,200.4z M111,202.5c0.2,0.1,0.4,0.2,0.6,0.2c0.3,0,0.6-0.1,0.8-0.2c0.4-0.2,0.7-0.6,0.7-1v-0.6
			c-0.1,0.1-0.2,0.1-0.4,0.2c-0.1,0-0.3,0.1-0.4,0.1l-0.5,0.1c-0.2,0-0.4,0.1-0.6,0.2c-0.2,0.1-0.4,0.4-0.4,0.6
			C110.7,202.2,110.8,202.4,111,202.5z"/>
		<path class="st5" d="M115.3,196.8h0.8v2.4c0.1-0.2,0.3-0.4,0.5-0.5c0.3-0.2,0.6-0.3,0.9-0.3c0.6-0.1,1.1,0.2,1.4,0.7
			c0.1,0.3,0.2,0.7,0.2,1.1v3h-0.8v-3c0-0.3,0-0.5-0.1-0.8c-0.2-0.3-0.5-0.4-0.8-0.4c-0.3,0-0.6,0.1-0.9,0.3
			c-0.3,0.4-0.5,0.8-0.4,1.3v2.5h-0.8L115.3,196.8z"/>
		<path class="st5" d="M92.4,217.8h0.9v3.2l3.2-3.2h1.2l-2.8,2.6l2.8,3.9h-1.1l-2.3-3.3l-1.1,1v2.3h-0.9L92.4,217.8z"/>
		<path class="st5" d="M99.2,219.5v3.1c0,0.2,0,0.4,0.1,0.6c0.1,0.3,0.4,0.5,0.8,0.4c0.5,0,0.9-0.3,1.1-0.7c0.1-0.4,0.2-0.7,0.2-1.1
			v-2.3h0.8v4.7h-0.8v-0.7c-0.1,0.2-0.2,0.3-0.4,0.5c-0.3,0.3-0.7,0.4-1.1,0.4c-0.5,0.1-1.1-0.2-1.4-0.7c-0.1-0.3-0.2-0.7-0.2-1
			v-3.2L99.2,219.5z"/>
		<path class="st5" d="M106.1,219.7c0.2,0.1,0.3,0.3,0.5,0.5v-2.4h0.8v6.5h-0.7v-0.7c-0.2,0.3-0.4,0.5-0.6,0.6
			c-0.3,0.1-0.6,0.2-0.9,0.2c-0.5,0-1-0.2-1.4-0.7c-0.4-0.5-0.6-1.1-0.6-1.8c0-0.6,0.2-1.3,0.5-1.8
			C104.2,219.5,105.2,219.2,106.1,219.7L106.1,219.7z M104.3,223.2c0.2,0.3,0.6,0.5,1,0.5c0.4,0,0.7-0.2,0.9-0.5
			c0.3-0.4,0.4-0.9,0.4-1.4c0-0.5-0.1-0.9-0.4-1.3c-0.2-0.3-0.5-0.4-0.9-0.4c-0.4,0-0.8,0.1-1,0.5c-0.3,0.4-0.4,0.9-0.4,1.4
			C103.9,222.4,104,222.8,104.3,223.2z"/>
		<path class="st5" d="M109.4,219.5v3.1c0,0.2,0,0.4,0.1,0.6c0.1,0.3,0.4,0.4,0.8,0.4c0.5,0,0.9-0.3,1.1-0.7
			c0.1-0.4,0.2-0.7,0.2-1.1v-2.3h0.8v4.7h-0.8v-0.7c-0.1,0.2-0.2,0.3-0.4,0.5c-0.3,0.2-0.7,0.4-1.1,0.4c-0.5,0.1-1.1-0.2-1.4-0.7
			c-0.1-0.3-0.2-0.7-0.2-1v-3.2L109.4,219.5z M109.4,217.9h0.8v0.9h-0.8V217.9z M110.8,217.9h0.8v0.9h-0.8V217.9z"/>
		<path class="st5" d="M114.1,222.8c0,0.2,0.1,0.4,0.2,0.6c0.3,0.3,0.7,0.4,1.1,0.4c0.3,0,0.5-0.1,0.8-0.2c0.2-0.1,0.4-0.3,0.3-0.6
			c0-0.2-0.1-0.4-0.3-0.5c-0.2-0.1-0.5-0.2-0.7-0.2l-0.6-0.2c-0.3-0.1-0.6-0.2-0.9-0.3c-0.3-0.2-0.5-0.5-0.5-0.9
			c0-0.4,0.2-0.8,0.5-1.1c0.4-0.3,0.8-0.4,1.3-0.4c0.6-0.1,1.2,0.2,1.6,0.6c0.2,0.2,0.3,0.5,0.3,0.9h-0.8c0-0.2-0.1-0.3-0.2-0.5
			c-0.3-0.2-0.6-0.4-1-0.3c-0.2,0-0.5,0-0.7,0.2c-0.1,0.1-0.2,0.3-0.2,0.5c0,0.2,0.1,0.4,0.3,0.5c0.2,0.1,0.3,0.2,0.5,0.2l0.5,0.1
			c0.4,0.1,0.8,0.2,1.2,0.4c0.3,0.2,0.5,0.6,0.5,1c0,0.4-0.2,0.8-0.5,1.1c-0.4,0.3-0.9,0.5-1.5,0.5c-0.5,0.1-1.1-0.1-1.5-0.5
			c-0.3-0.3-0.5-0.7-0.5-1.2L114.1,222.8z"/>
		<path class="st5" d="M69,231.6h2.8c0.6-0.1,1.2,0.2,1.6,0.7c0.2,0.3,0.3,0.6,0.3,0.9c0,0.4-0.1,0.7-0.4,1
			c-0.1,0.2-0.3,0.3-0.5,0.4c0.3,0.1,0.5,0.2,0.7,0.4c0.3,0.3,0.5,0.7,0.4,1.2c0,0.4-0.1,0.8-0.4,1.1c-0.5,0.5-1.2,0.8-1.9,0.8H69
			V231.6z M71.5,234.4c0.3,0,0.6,0,0.9-0.2c0.3-0.2,0.5-0.5,0.5-0.9c0-0.4-0.2-0.7-0.5-0.9c-0.3-0.1-0.6-0.1-0.9-0.1h-1.6v2H71.5z
			 M71.8,237.4c0.4,0,0.9-0.1,1.2-0.5c0.1-0.2,0.2-0.5,0.2-0.7c0-0.4-0.2-0.8-0.6-1c-0.3-0.1-0.6-0.1-0.9-0.1h-1.8v2.3H71.8z"/>
		<path class="st5" d="M77.9,233.5c0.3,0.1,0.5,0.3,0.7,0.6c0.2,0.3,0.3,0.5,0.3,0.8c0.1,0.3,0.1,0.7,0.1,1h-3.4
			c0,0.4,0.1,0.8,0.3,1.1c0.2,0.3,0.6,0.5,1,0.4c0.4,0,0.7-0.1,1-0.4c0.1-0.2,0.2-0.3,0.3-0.5H79c0,0.2-0.1,0.4-0.2,0.6
			c-0.1,0.2-0.2,0.4-0.4,0.5c-0.2,0.2-0.5,0.4-0.9,0.5c-0.2,0.1-0.4,0.1-0.6,0.1c-0.6,0-1.1-0.2-1.5-0.6c-0.4-0.5-0.7-1.1-0.6-1.8
			c0-0.7,0.2-1.3,0.6-1.8c0.4-0.5,1-0.7,1.6-0.7C77.3,233.2,77.7,233.3,77.9,233.5z M78.2,235.3c0-0.3-0.1-0.6-0.2-0.8
			c-0.2-0.4-0.6-0.6-1.1-0.6c-0.3,0-0.7,0.1-0.9,0.4c-0.2,0.3-0.4,0.6-0.4,1H78.2z"/>
		<path class="st5" d="M83.1,233.4h0.9c-0.1,0.3-0.4,1-0.7,2.1c-0.3,0.8-0.5,1.5-0.7,2c-0.3,0.8-0.6,1.5-1,2.2
			c-0.2,0.3-0.6,0.4-1,0.4h-0.3l-0.2,0v-0.7l0.3,0.1h0.2c0.1,0,0.2,0,0.3-0.1c0.1,0,0.1-0.1,0.2-0.2c0.1-0.1,0.1-0.2,0.2-0.4
			c0.1-0.2,0.2-0.4,0.2-0.5l-1.7-4.9h0.9l1.3,3.8L83.1,233.4z"/>
		<path class="st5" d="M84.9,232.1h0.8v1.3h0.8v0.6h-0.8v3.1c0,0.1,0.1,0.3,0.2,0.3c0.1,0,0.2,0.1,0.3,0h0.1h0.1v0.6
			c-0.1,0-0.2,0.1-0.3,0.1h-0.3c-0.3,0-0.6-0.1-0.8-0.3c-0.1-0.2-0.2-0.5-0.2-0.7V234h-0.6v-0.6h0.6L84.9,232.1z"/>
		<path class="st5" d="M88.1,233.4v3.1c0,0.2,0,0.4,0.1,0.6c0.1,0.3,0.4,0.5,0.8,0.4c0.5,0,0.9-0.3,1.1-0.7c0.1-0.3,0.2-0.7,0.2-1.1
			v-2.3H91v4.7h-0.8v-0.7c-0.1,0.2-0.2,0.3-0.4,0.5c-0.3,0.3-0.7,0.4-1.1,0.4c-0.5,0.1-1.1-0.2-1.4-0.7c-0.1-0.3-0.2-0.7-0.2-1v-3.1
			H88.1z"/>
		<path class="st5" d="M92.4,231.6h0.8v6.5h-0.8V231.6z"/>
		<path class="st5" d="M94.5,231.6h0.8v6.5h-0.8V231.6z"/>
		<path class="st5" d="M99.1,235.2c0.2,0,0.3-0.1,0.4-0.2c0-0.1,0.1-0.2,0.1-0.3c0-0.2-0.1-0.5-0.3-0.6c-0.3-0.1-0.5-0.2-0.8-0.2
			c-0.3,0-0.7,0.1-0.9,0.3c-0.1,0.2-0.2,0.4-0.2,0.6h-0.7c0-0.5,0.2-0.9,0.6-1.2c0.4-0.2,0.8-0.4,1.3-0.3c0.5,0,0.9,0.1,1.3,0.3
			c0.4,0.2,0.6,0.6,0.5,1v2.7c0,0.1,0,0.1,0.1,0.2c0.1,0.1,0.1,0.1,0.2,0.1h0.1h0.1v0.6l-0.3,0.1h-0.3c-0.2,0-0.5-0.1-0.6-0.3
			c-0.1-0.1-0.1-0.3-0.1-0.4c-0.2,0.2-0.4,0.4-0.7,0.5c-0.3,0.2-0.7,0.2-1,0.2c-0.4,0-0.8-0.1-1.1-0.4c-0.5-0.6-0.5-1.4,0-2
			c0.3-0.2,0.7-0.4,1.1-0.4L99.1,235.2z M97.4,237.4c0.2,0.1,0.4,0.2,0.6,0.2c0.3,0,0.6-0.1,0.8-0.2c0.4-0.2,0.7-0.6,0.7-1v-0.6
			c-0.1,0.1-0.2,0.1-0.4,0.1c-0.1,0-0.3,0.1-0.4,0.1l-0.5,0.1c-0.2,0-0.4,0.1-0.6,0.2c-0.2,0.1-0.4,0.4-0.4,0.7
			C97.2,237,97.3,237.2,97.4,237.4z"/>
		<path class="st5" d="M101.7,231.6h0.8v2.4c0.1-0.2,0.3-0.4,0.5-0.5c0.3-0.2,0.6-0.3,0.9-0.3c0.6-0.1,1.1,0.2,1.4,0.7
			c0.1,0.3,0.2,0.7,0.2,1.1v3h-0.8v-3c0-0.3,0-0.5-0.1-0.8c-0.2-0.3-0.5-0.4-0.8-0.4c-0.3,0-0.6,0.1-0.9,0.3
			c-0.3,0.3-0.5,0.8-0.4,1.3v2.5h-0.8V231.6z"/>
		<path class="st5" d="M106.8,231.6h0.8v0.9h-0.8V231.6z M106.8,233.4h0.8v4.7h-0.8V233.4z"/>
		<path class="st5" d="M108.9,233.4h0.8v0.7c0.1-0.2,0.3-0.4,0.5-0.5c0.3-0.2,0.6-0.3,0.9-0.3c0.3,0,0.6,0.1,0.9,0.3
			c0.1,0.1,0.3,0.3,0.4,0.5c0.2-0.2,0.4-0.4,0.6-0.6c0.2-0.1,0.5-0.2,0.8-0.2c0.5-0.1,1,0.2,1.3,0.7c0.1,0.3,0.2,0.7,0.2,1v3.1h-0.8
			v-3.3c0-0.2-0.1-0.5-0.2-0.6c-0.2-0.1-0.4-0.2-0.6-0.2c-0.3,0-0.6,0.1-0.8,0.3c-0.2,0.3-0.4,0.6-0.3,1v2.7h-0.8V235
			c0-0.2,0-0.5-0.1-0.7c-0.1-0.2-0.4-0.4-0.7-0.3c-0.3,0-0.6,0.1-0.8,0.4c-0.3,0.4-0.4,0.8-0.4,1.3v2.5h-0.8L108.9,233.4z"/>
		<path d="M148.8,459.4h4.5v0.8h-3.6v2h3.2v0.8h-3.2v2.9h-0.9V459.4z"/>
		<path d="M154.1,459.4h0.8v0.9h-0.8V459.4z M154.1,461.1h0.8v4.7h-0.8V461.1z"/>
		<path d="M156.3,459.4h0.8v6.5h-0.8V459.4z"/>
		<path d="M158.3,459.4h0.8v0.9h-0.8V459.4z M158.3,461.1h0.8v4.7h-0.8V461.1z"/>
		<path d="M160.9,464.4c0,0.2,0.1,0.4,0.2,0.6c0.3,0.3,0.7,0.4,1.1,0.4c0.3,0,0.5-0.1,0.8-0.2c0.2-0.1,0.3-0.3,0.3-0.6
			c0-0.2-0.1-0.4-0.3-0.5c-0.2-0.1-0.4-0.2-0.7-0.2l-0.6-0.2c-0.3-0.1-0.6-0.2-0.9-0.3c-0.3-0.2-0.5-0.5-0.5-0.9
			c0-0.4,0.2-0.8,0.5-1.1c0.4-0.3,0.8-0.4,1.3-0.4c0.6-0.1,1.2,0.2,1.6,0.6c0.2,0.2,0.3,0.5,0.3,0.9h-0.8c0-0.2-0.1-0.3-0.2-0.5
			c-0.3-0.2-0.6-0.4-1-0.3c-0.2,0-0.5,0-0.7,0.2c-0.2,0.1-0.2,0.3-0.2,0.5c0,0.2,0.1,0.4,0.3,0.5c0.2,0.1,0.3,0.2,0.5,0.2l0.5,0.1
			c0.4,0.1,0.8,0.2,1.2,0.4c0.3,0.2,0.5,0.6,0.5,1c0,0.4-0.2,0.8-0.5,1.1c-0.4,0.3-0.9,0.5-1.5,0.5c-0.5,0.1-1.1-0.1-1.5-0.5
			c-0.3-0.3-0.5-0.7-0.5-1.2L160.9,464.4z"/>
		<path d="M165.2,459.8h0.8v1.3h0.8v0.7H166v3.1c0,0.1,0.1,0.3,0.2,0.3c0.1,0,0.2,0.1,0.3,0h0.3v0.6l-0.3,0.1h-0.3
			c-0.3,0-0.6-0.1-0.8-0.3c-0.1-0.2-0.2-0.5-0.2-0.7v-3.1h-0.6v-0.7h0.6L165.2,459.8z"/>
		<path d="M167.6,459.4h0.8v0.9h-0.8V459.4z M167.6,461.1h0.8v4.7h-0.8V461.1z"/>
		<path d="M169.7,461.1h0.8v0.7c0.2-0.2,0.4-0.4,0.7-0.6c0.3-0.1,0.6-0.2,0.8-0.2c0.6-0.1,1.1,0.2,1.4,0.7c0.1,0.3,0.2,0.7,0.2,1.1
			v3h-0.8v-3c0-0.2,0-0.5-0.1-0.7c-0.1-0.3-0.4-0.5-0.8-0.4c-0.2,0-0.3,0-0.5,0.1c-0.4,0.1-0.7,0.5-0.8,0.9c0,0.2-0.1,0.5-0.1,0.7
			v2.5h-0.8V461.1z"/>
		<path d="M45,173.3v0.8h-2.2v5.7h-0.9V174h-2.2v-0.8H45z"/>
		<path d="M47.7,175.2c0.3,0.1,0.5,0.3,0.7,0.6c0.2,0.3,0.3,0.5,0.3,0.8c0.1,0.3,0.1,0.7,0.1,1h-3.4c0,0.4,0.1,0.8,0.3,1.2
			c0.2,0.3,0.6,0.5,1,0.4c0.4,0,0.7-0.1,1-0.4c0.1-0.2,0.2-0.3,0.3-0.6h0.8c0,0.2-0.1,0.4-0.2,0.6c-0.1,0.2-0.2,0.4-0.4,0.5
			c-0.2,0.2-0.6,0.4-0.9,0.5c-0.2,0.1-0.4,0.1-0.6,0.1c-0.6,0-1.1-0.2-1.5-0.6c-0.4-0.5-0.6-1.1-0.6-1.8c0-0.7,0.2-1.3,0.6-1.8
			c0.4-0.5,1-0.7,1.6-0.7C47.1,174.9,47.4,175,47.7,175.2z M48,177c0-0.3-0.1-0.6-0.2-0.8c-0.2-0.4-0.6-0.6-1.1-0.6
			c-0.3,0-0.7,0.1-0.9,0.4c-0.3,0.3-0.4,0.6-0.4,1L48,177z"/>
		<path d="M49.9,173.3h0.8v6.5h-0.8V173.3z"/>
		<path d="M56.1,173.3h1l2.3,6.5h-1l-0.7-1.9h-2.5l-0.7,1.9h-0.9L56.1,173.3z M57.5,177.1l-1-2.9l-1,2.9H57.5z"/>
		<path d="M60.4,175l1.3,3.8L63,175h0.9l-1.8,4.7h-0.8l-1.7-4.7H60.4z"/>
		<path d="M64.6,173.3h0.8v0.9h-0.8V173.3z M64.6,175h0.8v4.7h-0.8V175z"/>
		<path d="M67.1,175l1.3,3.8l1.3-3.8h0.9l-1.8,4.7h-0.8l-1.7-4.7H67.1z"/>
		<path d="M8.6,249.7c0.7,0.4,1.1,1,1.2,1.8H8.9c-0.1-0.4-0.3-0.8-0.6-1c-0.4-0.2-0.8-0.3-1.2-0.3c-0.6,0-1.1,0.2-1.5,0.7
			c-0.4,0.6-0.7,1.3-0.6,2c0,0.7,0.1,1.3,0.5,1.9c0.4,0.5,1,0.8,1.6,0.7c0.5,0,1-0.2,1.4-0.5c0.4-0.4,0.6-1,0.6-1.6H7v-0.7h2.8v3.5
			H9.3l-0.2-0.8c-0.2,0.3-0.5,0.5-0.8,0.7c-0.4,0.2-0.9,0.3-1.4,0.3c-0.7,0-1.5-0.2-2-0.8c-0.6-0.7-0.9-1.6-0.9-2.5
			c0-0.9,0.3-1.9,0.9-2.6c0.5-0.6,1.3-0.9,2.1-0.9C7.5,249.4,8.1,249.5,8.6,249.7z"/>
		<path d="M13.8,253.1c0.2,0,0.3-0.1,0.4-0.2c0-0.1,0-0.2,0-0.3c0-0.2-0.1-0.5-0.3-0.6c-0.3-0.1-0.5-0.2-0.8-0.2
			c-0.3,0-0.7,0.1-0.9,0.3c-0.1,0.2-0.2,0.4-0.2,0.5h-0.7c0-0.5,0.2-0.9,0.6-1.2c0.4-0.2,0.8-0.4,1.3-0.4c0.5,0,0.9,0.1,1.3,0.3
			c0.3,0.2,0.5,0.6,0.5,1v2.7c0,0.1,0,0.1,0,0.2c0.1,0.1,0.1,0.1,0.2,0.1h0.1h0.1v0.6l-0.3,0.1h-0.3c-0.2,0-0.5-0.1-0.6-0.3
			c-0.1-0.1-0.1-0.3-0.1-0.4c-0.2,0.2-0.4,0.4-0.7,0.5c-0.3,0.2-0.7,0.2-1,0.2c-0.4,0-0.8-0.1-1.1-0.4c-0.3-0.3-0.4-0.6-0.4-1
			c0-0.4,0.1-0.7,0.4-1c0.3-0.3,0.7-0.4,1.1-0.5L13.8,253.1z M12.2,255.3c0.2,0.1,0.4,0.2,0.6,0.2c0.3,0,0.6-0.1,0.8-0.2
			c0.4-0.2,0.7-0.6,0.7-1v-0.6c-0.1,0.1-0.2,0.1-0.4,0.2c-0.1,0-0.3,0.1-0.4,0.1l-0.5,0.1c-0.2,0-0.4,0.1-0.6,0.2
			c-0.2,0.1-0.4,0.4-0.4,0.6C11.9,254.9,12,255.1,12.2,255.3z"/>
		<path d="M16,255.4l2.8-3.4h-2.6v-0.7h3.7v0.6l-2.8,3.4H20v0.7h-4V255.4z"/>
		<path d="M20.6,255.4l2.8-3.4h-2.6v-0.7h3.7v0.6l-2.8,3.4h2.9v0.7h-3.9V255.4z"/>
		<path d="M28.5,251.4c0.3,0.1,0.5,0.3,0.7,0.6c0.2,0.3,0.3,0.5,0.3,0.8c0.1,0.3,0.1,0.7,0.1,1h-3.4c0,0.4,0.1,0.8,0.3,1.2
			c0.2,0.3,0.6,0.5,1,0.4c0.4,0,0.7-0.1,1-0.4c0.1-0.2,0.2-0.3,0.3-0.5h0.8c0,0.2-0.1,0.4-0.2,0.6c-0.1,0.2-0.2,0.4-0.4,0.5
			c-0.2,0.2-0.6,0.4-0.9,0.5c-0.2,0.1-0.4,0.1-0.6,0.1c-0.6,0-1.1-0.2-1.5-0.6c-0.4-0.5-0.7-1.1-0.6-1.8c0-0.7,0.2-1.3,0.6-1.8
			c0.4-0.5,1-0.7,1.6-0.7C27.9,251.2,28.2,251.3,28.5,251.4z M28.8,253.3c0-0.3-0.1-0.6-0.2-0.8c-0.2-0.4-0.6-0.6-1.1-0.6
			c-0.3,0-0.7,0.1-0.9,0.4c-0.2,0.3-0.4,0.6-0.4,1H28.8z"/>
		<path d="M72.1,70.7H73v2.7h3.3v-2.7h0.9v6.5h-0.9v-3H73v3h-0.9L72.1,70.7z"/>
		<path d="M81.1,74.3c0.2,0,0.3-0.1,0.4-0.2c0-0.1,0.1-0.2,0.1-0.3c0-0.2-0.1-0.5-0.3-0.6c-0.3-0.1-0.5-0.2-0.8-0.2
			c-0.3,0-0.7,0.1-0.9,0.3c-0.1,0.2-0.2,0.4-0.2,0.6h-0.7c0-0.5,0.2-0.9,0.6-1.2c0.4-0.2,0.8-0.3,1.3-0.3c0.5,0,0.9,0.1,1.4,0.3
			c0.3,0.2,0.5,0.6,0.5,1v2.7c0,0.1,0,0.1,0.1,0.2c0.1,0.1,0.1,0.1,0.2,0.1h0.1h0.1v0.6l-0.3,0.1h-0.3c-0.2,0-0.5-0.1-0.6-0.3
			c-0.1-0.1-0.1-0.3-0.1-0.4c-0.2,0.2-0.4,0.4-0.7,0.6c-0.3,0.2-0.7,0.2-1,0.2c-0.4,0-0.8-0.1-1.1-0.4c-0.5-0.6-0.5-1.4,0-2
			c0.3-0.3,0.7-0.4,1.1-0.4L81.1,74.3z M79.4,76.4c0.2,0.1,0.4,0.2,0.6,0.2c0.3,0,0.6-0.1,0.8-0.2c0.4-0.2,0.7-0.6,0.7-1.1v-0.6
			c-0.1,0.1-0.2,0.1-0.4,0.1L80.6,75L80.1,75c-0.2,0-0.4,0.1-0.6,0.2c-0.2,0.1-0.4,0.4-0.4,0.7C79.1,76.1,79.2,76.3,79.4,76.4z"/>
		<path d="M86.6,72.4h0.9l-0.8,2.1c-0.3,0.8-0.5,1.5-0.7,2c-0.3,0.8-0.6,1.5-1,2.2c-0.2,0.3-0.6,0.5-1,0.4h-0.3L83.5,79v-0.7
			l0.3,0.1H84c0.1,0,0.2,0,0.3-0.1c0.1,0,0.1-0.1,0.2-0.2c0,0,0.1-0.1,0.2-0.4s0.1-0.4,0.2-0.5l-1.7-4.9H84l1.3,3.8L86.6,72.4z"/>
		<path d="M88.6,71c0.3-0.3,0.7-0.5,1.1-0.4H90v0.8h-0.3c-0.3,0-0.4,0.1-0.4,0.2c-0.1,0.3-0.1,0.7-0.1,1H90v0.6h-0.8v4.1h-0.8V73
			h-0.7v-0.6h0.7v-0.7C88.4,71.4,88.5,71.2,88.6,71z"/>
		<path d="M93.3,74.3c0.2,0,0.3-0.1,0.4-0.2c0-0.1,0.1-0.2,0.1-0.3c0-0.2-0.1-0.5-0.3-0.6c-0.3-0.1-0.5-0.2-0.8-0.2
			c-0.3,0-0.7,0.1-0.9,0.3c-0.1,0.2-0.2,0.4-0.2,0.6h-0.7c0-0.5,0.2-0.9,0.6-1.2c0.4-0.2,0.8-0.4,1.3-0.3c0.5,0,0.9,0.1,1.4,0.3
			c0.3,0.2,0.5,0.6,0.5,1v2.7c0,0.1,0,0.1,0.1,0.2c0,0,0.1,0.1,0.2,0.1h0.1H95v0.6l-0.3,0.1h-0.3c-0.2,0-0.5-0.1-0.6-0.3
			c-0.1-0.1-0.1-0.3-0.1-0.4c-0.2,0.2-0.4,0.4-0.7,0.6c-0.3,0.2-0.7,0.2-1,0.2c-0.4,0-0.8-0.1-1.1-0.4c-0.5-0.6-0.5-1.4,0-2
			c0.3-0.2,0.7-0.4,1.1-0.4L93.3,74.3z M91.7,76.4c0.2,0.1,0.4,0.2,0.6,0.2c0.3,0,0.6-0.1,0.8-0.2c0.4-0.2,0.7-0.6,0.7-1.1v-0.6
			c-0.1,0.1-0.2,0.1-0.4,0.1L92.9,75L92.4,75c-0.2,0-0.4,0.1-0.6,0.2c-0.2,0.1-0.4,0.4-0.4,0.7C91.4,76.1,91.5,76.3,91.7,76.4z"/>
		<path class="st4" d="M146.1,462.6c0,3.5-2.8,6.3-6.3,6.3c-3.5,0-6.3-2.8-6.3-6.3c0-3.5,2.8-6.3,6.3-6.3c0,0,0,0,0,0
			C143.2,456.3,146.1,459.1,146.1,462.6C146.1,462.6,146.1,462.6,146.1,462.6z"/>
		<path class="st3" d="M190.8,652.6H0V0h190.8V652.6z M0.7,651.8h189.4V0.8H0.7V651.8z"/>
		<path d="M6.9,13.1v-0.7c0.5,0,0.9-0.1,1.3-0.3c0.3-0.2,0.5-0.6,0.6-1h0.7v7H8.5v-5L6.9,13.1z"/>
		<path d="M12.9,16.3c0,0.4,0.2,0.8,0.6,1c0.2,0.1,0.4,0.2,0.6,0.2c0.4,0,0.8-0.2,1.1-0.5c0.4-0.6,0.6-1.4,0.6-2.1
			c-0.2,0.3-0.4,0.5-0.7,0.7c-0.3,0.1-0.6,0.2-0.9,0.2c-0.6,0-1.2-0.2-1.6-0.6c-0.4-0.4-0.6-1-0.5-1.6c0-0.6,0.2-1.2,0.6-1.7
			c0.4-0.5,1.1-0.8,1.7-0.7c0.9,0,1.7,0.5,2.1,1.3c0.2,0.6,0.3,1.2,0.3,1.9c0,0.8-0.1,1.5-0.4,2.3c-0.3,1-1.2,1.7-2.2,1.7
			c-0.6,0-1.1-0.2-1.6-0.5c-0.3-0.3-0.6-0.8-0.6-1.3H12.9z M15.2,14.6c0.3-0.3,0.5-0.8,0.4-1.2c0-0.4-0.1-0.8-0.4-1.2
			c-0.3-0.3-0.6-0.4-1-0.4c-0.4,0-0.7,0.1-1,0.4c-0.3,0.3-0.4,0.7-0.4,1.2c0,0.4,0.1,0.8,0.3,1.1c0.3,0.3,0.7,0.4,1.1,0.4
			C14.6,14.9,15,14.8,15.2,14.6L15.2,14.6z"/>
		<path d="M18.2,13.1v-0.7c0.5,0,0.9-0.1,1.3-0.3c0.3-0.2,0.5-0.6,0.6-1h0.7v7h-0.9v-5L18.2,13.1z"/>
		<path d="M28.2,11.1v0.8c-0.3,0.4-0.6,0.7-0.9,1.1c-0.4,0.6-0.7,1.1-1,1.8c-0.3,0.5-0.5,1.1-0.7,1.7c-0.1,0.3-0.2,0.9-0.4,1.6h-1
			c0.2-1.4,0.7-2.8,1.5-4c0.4-0.7,0.9-1.4,1.4-2h-3.8v-0.9L28.2,11.1z"/>
		<path d="M29,14.8h2.4v0.9H29V14.8z"/>
		<path d="M35.9,10.8h1V18h-1V10.8z M35.9,9.2h0.9v1h-0.9L35.9,9.2z"/>
		<path d="M38.9,16.3c0,0.2,0.1,0.5,0.2,0.7c0.3,0.3,0.7,0.5,1.2,0.4c0.3,0,0.6-0.1,0.9-0.2c0.2-0.1,0.4-0.4,0.4-0.7
			c0-0.2-0.1-0.4-0.3-0.5c-0.2-0.1-0.5-0.2-0.8-0.3l-0.7-0.2c-0.4-0.1-0.7-0.2-1-0.4c-0.4-0.2-0.6-0.6-0.6-1c0-0.5,0.2-0.9,0.5-1.2
			c0.4-0.3,0.9-0.5,1.5-0.5c0.7-0.1,1.3,0.2,1.8,0.7c0.2,0.3,0.3,0.6,0.3,1h-0.8c0-0.2-0.1-0.4-0.2-0.5c-0.3-0.3-0.7-0.4-1.1-0.3
			c-0.3,0-0.5,0.1-0.8,0.2c-0.2,0.1-0.3,0.3-0.3,0.5c0,0.2,0.1,0.4,0.3,0.6c0.2,0.1,0.4,0.2,0.6,0.2l0.6,0.1
			c0.4,0.1,0.9,0.2,1.3,0.4c0.3,0.2,0.5,0.6,0.5,1.1c0,0.5-0.2,0.9-0.5,1.2c-0.5,0.4-1,0.6-1.6,0.5c-0.6,0.1-1.2-0.1-1.7-0.5
			c-0.3-0.4-0.5-0.8-0.5-1.3L38.9,16.3z"/>
		<path d="M43.5,12.8h0.8v0.9c0.1-0.3,0.3-0.5,0.5-0.7c0.2-0.2,0.6-0.4,0.9-0.4h0.1h0.2v0.9h-0.2h-0.1c-0.4,0-0.7,0.1-1,0.4
			c-0.2,0.3-0.4,0.6-0.4,1v3h-0.9L43.5,12.8z"/>
		<path d="M49.8,14.8c0.2,0,0.3-0.1,0.4-0.3c0.1-0.4,0-0.8-0.3-1c-0.3-0.1-0.6-0.2-0.9-0.2c-0.4,0-0.7,0.1-1,0.4
			c-0.1,0.2-0.2,0.4-0.2,0.6H47c0-0.5,0.2-1,0.6-1.3c0.4-0.3,0.9-0.4,1.4-0.4c0.5,0,1,0.1,1.5,0.3c0.4,0.2,0.6,0.6,0.6,1.1v3
			c0,0.1,0,0.2,0.1,0.2c0.1,0.1,0.1,0.1,0.2,0.1h0.1h0.2v0.7l-0.3,0.1H51c-0.3,0-0.5-0.1-0.7-0.3c-0.1-0.1-0.1-0.3-0.2-0.5
			c-0.2,0.3-0.5,0.5-0.8,0.6c-0.3,0.2-0.7,0.3-1.1,0.3c-0.4,0-0.9-0.1-1.2-0.4c-0.3-0.3-0.5-0.7-0.5-1.1c0-0.4,0.1-0.8,0.5-1.1
			c0.3-0.3,0.8-0.5,1.2-0.5L49.8,14.8z M47.9,17.2c0.2,0.1,0.4,0.2,0.7,0.2c0.3,0,0.6-0.1,0.9-0.2c0.5-0.2,0.7-0.7,0.7-1.2v-0.7
			c-0.1,0.1-0.3,0.1-0.4,0.2c-0.2,0-0.3,0.1-0.5,0.1l-0.5,0.1c-0.3,0-0.5,0.1-0.7,0.2c-0.3,0.1-0.4,0.4-0.4,0.7
			C47.6,16.9,47.7,17.1,47.9,17.2z"/>
		<path d="M52.6,10.8h0.9v1h-0.9V10.8z M52.6,12.8h0.9V18h-0.9V12.8z"/>
		<path d="M55,10.8h0.9V18H55V10.8z"/>
		<path d="M57.4,12.9c0.2,0,0.3-0.1,0.4-0.3c0.1-0.2,0.1-0.4,0.1-0.6V12c0,0,0,0,0-0.1h-0.5v-1.1h1v1c0,0.4-0.1,0.7-0.3,1.1
			c-0.2,0.3-0.5,0.5-0.8,0.5L57.4,12.9z"/>
		<path d="M59.6,10.8h0.9v1h-0.9V10.8z M59.6,12.8h0.9V18h-0.9V12.8z"/>
		<path d="M61.9,12.8h0.8v0.8c0.2-0.3,0.5-0.5,0.8-0.7c0.3-0.1,0.6-0.2,0.9-0.2c0.6-0.1,1.2,0.2,1.5,0.8c0.2,0.4,0.2,0.8,0.2,1.2V18
			h-0.9v-3.3c0-0.3,0-0.5-0.1-0.8c-0.2-0.3-0.5-0.5-0.9-0.5c-0.2,0-0.3,0-0.5,0.1c-0.2,0.1-0.5,0.2-0.6,0.4
			c-0.1,0.1-0.2,0.3-0.3,0.5c-0.1,0.3-0.1,0.5-0.1,0.8V18h-0.9V12.8z"/>
		<path d="M6.6,22.8h0.8V27l2.3-2.2h1.1l-2,1.9l2.1,3.3H9.8l-1.7-2.7L7.4,28v2H6.6V22.8z"/>
		<path d="M12.6,24.8v3.5c0,0.2,0,0.5,0.1,0.7c0.2,0.3,0.5,0.5,0.8,0.5c0.5,0,1-0.3,1.2-0.8c0.1-0.4,0.2-0.8,0.2-1.2v-2.6h0.9V30H15
			v-0.8c-0.1,0.2-0.2,0.4-0.4,0.5c-0.3,0.3-0.8,0.4-1.2,0.4c-0.6,0.1-1.2-0.2-1.5-0.7c-0.2-0.3-0.2-0.7-0.2-1.1v-3.6H12.6z"/>
		<path d="M17.4,24.8h0.8v0.9c0.1-0.3,0.3-0.5,0.5-0.7c0.2-0.2,0.6-0.4,0.9-0.4h0.1h0.2v0.9h-0.1h-0.1c-0.4,0-0.7,0.1-1,0.4
			c-0.2,0.3-0.4,0.6-0.4,1v3h-0.9L17.4,24.8z"/>
		<path d="M21.7,24.8v3.5c0,0.2,0,0.5,0.1,0.7c0.2,0.3,0.5,0.5,0.8,0.5c0.5,0,1-0.3,1.2-0.8c0.1-0.4,0.2-0.8,0.2-1.2v-2.6h0.9V30H24
			v-0.8c-0.1,0.2-0.2,0.4-0.4,0.5c-0.3,0.3-0.8,0.4-1.2,0.4c-0.6,0.1-1.2-0.2-1.5-0.7c-0.1-0.3-0.2-0.7-0.2-1.1v-3.6H21.7z"/>
		<path d="M26.5,22.8h0.9V30h-0.9V22.8z"/>
		<path d="M29.6,24.8v3.5c0,0.2,0,0.5,0.1,0.7c0.2,0.3,0.5,0.5,0.8,0.5c0.5,0,1-0.3,1.2-0.8c0.1-0.4,0.2-0.8,0.2-1.2v-2.6h0.9V30H32
			v-0.8c-0.1,0.2-0.2,0.4-0.4,0.5c-0.3,0.3-0.8,0.4-1.2,0.4c-0.6,0-1.1-0.2-1.4-0.7c-0.2-0.3-0.3-0.7-0.3-1.1v-3.6H29.6z"/>
		<path d="M34.9,28.3c0,0.2,0.1,0.5,0.2,0.7c0.3,0.3,0.7,0.5,1.2,0.4c0.3,0,0.6-0.1,0.9-0.2c0.2-0.1,0.4-0.4,0.4-0.7
			c0-0.2-0.1-0.4-0.3-0.5c-0.2-0.1-0.5-0.2-0.8-0.3l-0.7-0.2c-0.3-0.1-0.7-0.2-1-0.4c-0.4-0.2-0.6-0.6-0.6-1c0-0.5,0.2-0.9,0.6-1.2
			c0.4-0.3,0.9-0.5,1.4-0.5c0.7-0.1,1.3,0.2,1.8,0.7c0.2,0.3,0.3,0.6,0.3,1h-0.8c0-0.2-0.1-0.4-0.2-0.5c-0.3-0.3-0.7-0.4-1.1-0.3
			c-0.3,0-0.5,0.1-0.8,0.2c-0.2,0.1-0.3,0.3-0.3,0.5c0,0.2,0.1,0.4,0.3,0.5c0.2,0.1,0.4,0.2,0.6,0.2l0.6,0.1
			c0.4,0.1,0.9,0.2,1.3,0.4c0.3,0.2,0.5,0.6,0.5,1.1c0,0.5-0.2,0.9-0.5,1.2c-0.4,0.4-0.9,0.5-1.5,0.5l-0.3,0.4
			c0.1,0,0.2-0.1,0.4-0.1c0.2,0,0.4,0.1,0.6,0.2c0.2,0.1,0.2,0.4,0.2,0.6c0,0.2-0.1,0.5-0.3,0.6c-0.3,0.2-0.6,0.3-0.9,0.3
			c-0.2,0-0.4,0-0.5-0.1l-0.4-0.1l0.2-0.4l0.3,0.1c0.1,0,0.2,0,0.4,0c0.1,0,0.2,0,0.3,0c0.2-0.1,0.3-0.2,0.3-0.4
			c0-0.1,0-0.2-0.1-0.3c-0.1-0.1-0.2-0.1-0.3-0.1h-0.2l-0.2,0.1l-0.2-0.2l0.5-0.7c-0.5,0-1-0.2-1.3-0.5c-0.4-0.4-0.5-0.9-0.6-1.4
			H34.9z"/>
		<path d="M40.4,24.8v3.5c0,0.2,0,0.5,0.1,0.7c0.2,0.3,0.5,0.5,0.8,0.5c0.5,0,1-0.3,1.2-0.8c0.1-0.4,0.2-0.8,0.2-1.2v-2.6h0.9V30
			h-0.8v-0.8c-0.1,0.2-0.2,0.4-0.4,0.5c-0.3,0.3-0.8,0.4-1.2,0.4c-0.6,0.1-1.2-0.2-1.5-0.7c-0.2-0.3-0.2-0.7-0.2-1.1v-3.6H40.4z"/>
		<path d="M45.2,24.8H46v0.8c0.2-0.3,0.5-0.5,0.8-0.7c0.3-0.1,0.6-0.2,0.9-0.2c0.6-0.1,1.2,0.2,1.5,0.8c0.2,0.4,0.2,0.8,0.2,1.2V30
			h-0.9v-3.3c0-0.3,0-0.5-0.1-0.8c-0.2-0.3-0.5-0.5-0.8-0.5c-0.2,0-0.3,0-0.5,0.1c-0.3,0.1-0.5,0.2-0.6,0.4
			c-0.1,0.2-0.2,0.3-0.3,0.5C46.1,26.7,46,27,46,27.3V30h-0.9L45.2,24.8z"/>
		<path d="M53.7,24.9c0.2,0.1,0.4,0.3,0.5,0.5v-2.6h0.8V30h-0.8v-0.7c-0.2,0.3-0.4,0.5-0.7,0.7c-0.3,0.2-0.7,0.2-1,0.2
			c-0.6,0-1.1-0.3-1.5-0.7c-0.5-0.6-0.7-1.3-0.6-2c0-0.7,0.2-1.4,0.6-2c0.4-0.6,1-0.9,1.7-0.8C53,24.6,53.4,24.7,53.7,24.9z
			 M51.7,28.9c0.2,0.4,0.7,0.6,1.1,0.6c0.4,0,0.8-0.2,1-0.5c0.3-0.4,0.4-1,0.4-1.5c0-0.5-0.1-1-0.4-1.5c-0.2-0.3-0.6-0.5-1-0.5
			c-0.4,0-0.8,0.2-1.1,0.5c-0.3,0.4-0.4,1-0.4,1.5C51.4,28,51.5,28.4,51.7,28.9L51.7,28.9z"/>
		<path d="M59.3,26.8c0.2,0,0.3-0.1,0.4-0.3c0.1-0.4,0-0.8-0.3-1c-0.3-0.1-0.6-0.2-0.9-0.2c-0.4,0-0.7,0.1-1,0.4
			c-0.1,0.2-0.2,0.4-0.2,0.6h-0.8c0-0.5,0.2-1,0.6-1.3c0.4-0.3,0.9-0.4,1.4-0.4c0.5,0,1,0.1,1.5,0.3c0.4,0.2,0.6,0.6,0.6,1.1v3
			c0,0.1,0,0.2,0.1,0.2c0.1,0.1,0.1,0.1,0.2,0.1H61h0.2v0.7l-0.3,0.1h-0.3c-0.3,0-0.5-0.1-0.7-0.3c-0.1-0.1-0.1-0.3-0.2-0.5
			c-0.2,0.3-0.5,0.5-0.8,0.6c-0.3,0.2-0.7,0.3-1.1,0.3c-0.4,0-0.9-0.1-1.2-0.4c-0.3-0.3-0.5-0.7-0.5-1.1c0-0.4,0.1-0.8,0.4-1.1
			c0.3-0.3,0.8-0.5,1.2-0.5L59.3,26.8z M57.5,29.2c0.2,0.1,0.4,0.2,0.7,0.2c0.3,0,0.6-0.1,0.9-0.2c0.5-0.2,0.8-0.7,0.7-1.2v-0.7
			c-0.1,0.1-0.3,0.1-0.4,0.2l-0.5,0.1l-0.5,0.1c-0.2,0-0.5,0.1-0.7,0.2c-0.3,0.1-0.4,0.4-0.4,0.7C57.2,28.9,57.3,29.1,57.5,29.2z"/>
		<path d="M62.2,24.8H63v0.8c0.2-0.3,0.5-0.5,0.8-0.7c0.3-0.1,0.6-0.2,0.9-0.2c0.6-0.1,1.2,0.2,1.5,0.8c0.2,0.4,0.2,0.8,0.2,1.2V30
			h-0.9v-3.3c0-0.3,0-0.5-0.1-0.8c-0.2-0.3-0.5-0.5-0.9-0.5c-0.2,0-0.3,0-0.5,0.1c-0.5,0.2-0.8,0.5-0.9,1c0,0.3-0.1,0.5-0.1,0.8v2.7
			h-0.9L62.2,24.8z"/>
		<path d="M10.4,37.3c0.5,0.5,0.8,1.3,0.7,2c0,0.7-0.2,1.5-0.6,2.1C10,42,9.3,42.3,8.6,42.3c-0.6,0-1.3-0.2-1.7-0.7
			c-0.5-0.6-0.7-1.3-0.6-2c0-0.8,0.2-1.5,0.7-2.1c0.4-0.5,1.1-0.8,1.8-0.8C9.3,36.6,9.9,36.9,10.4,37.3z M9.8,40.8
			c0.2-0.5,0.3-1,0.3-1.5c0-0.4-0.1-0.8-0.2-1.2c-0.2-0.5-0.7-0.8-1.3-0.7c-0.5,0-0.9,0.2-1.2,0.6c-0.3,0.5-0.4,1-0.4,1.5
			c0,0.5,0.1,1,0.4,1.4c0.3,0.4,0.7,0.6,1.2,0.6C9.1,41.5,9.6,41.2,9.8,40.8L9.8,40.8z M7.5,35h0.9v1H7.5V35z M9.1,35H10v1H9.1
			L9.1,35z"/>
		<path d="M12.3,36.8h0.8v0.8c0.2-0.3,0.5-0.5,0.8-0.7c0.3-0.1,0.6-0.2,0.9-0.2c0.6-0.1,1.2,0.2,1.5,0.8c0.2,0.4,0.2,0.8,0.2,1.2V42
			h-0.9v-3.3c0-0.3,0-0.5-0.1-0.8c-0.2-0.3-0.5-0.5-0.8-0.5c-0.2,0-0.3,0-0.5,0.1c-0.2,0.1-0.5,0.2-0.6,0.4
			c-0.1,0.1-0.2,0.3-0.3,0.5c-0.1,0.3-0.1,0.5-0.1,0.8V42h-0.9V36.8z"/>
		<path d="M21.4,37.1c0.4,0.4,0.7,0.9,0.7,1.5h-0.9c0-0.3-0.2-0.6-0.3-0.8c-0.2-0.2-0.6-0.4-0.9-0.3c-0.5,0-1,0.3-1.2,0.8
			c-0.2,0.4-0.2,0.9-0.2,1.3c0,0.5,0.1,0.9,0.3,1.3c0.2,0.4,0.6,0.6,1.1,0.5c0.3,0,0.6-0.1,0.9-0.3c0.2-0.3,0.4-0.6,0.4-0.9H22
			c0,1.1-1,2-2.1,2c0,0-0.1,0-0.1,0c-0.6,0-1.2-0.3-1.6-0.8c-0.4-0.5-0.6-1.2-0.6-1.9c0-0.8,0.2-1.5,0.7-2.1c0.4-0.5,1-0.8,1.7-0.8
			C20.4,36.6,20.9,36.7,21.4,37.1z"/>
		<path d="M26.2,36.9c0.3,0.2,0.6,0.4,0.8,0.7c0.2,0.3,0.3,0.6,0.3,0.9c0.1,0.4,0.1,0.8,0.1,1.2h-3.8c0,0.5,0.1,0.9,0.4,1.3
			c0.3,0.3,0.7,0.5,1.1,0.5c0.4,0,0.8-0.1,1.1-0.4c0.2-0.2,0.3-0.4,0.3-0.6h0.9c0,0.2-0.1,0.4-0.2,0.6c-0.1,0.2-0.3,0.4-0.4,0.6
			c-0.3,0.3-0.6,0.5-1,0.5c-0.2,0.1-0.5,0.1-0.7,0.1c-0.6,0-1.2-0.2-1.7-0.7c-0.5-0.6-0.7-1.3-0.7-2c0-0.7,0.2-1.5,0.7-2.1
			c0.4-0.5,1.1-0.8,1.8-0.8C25.5,36.7,25.9,36.8,26.2,36.9z M26.5,38.9c0-0.3-0.1-0.6-0.3-0.9c-0.2-0.4-0.7-0.7-1.2-0.6
			c-0.4,0-0.7,0.2-1,0.4c-0.3,0.3-0.4,0.7-0.4,1.1H26.5z"/>
		<rect x="84.9" y="537.6" width="3.8" height="15.2"/>
		<rect x="90" y="537.6" class="st4" width="25.4" height="15.2"/>
		<rect x="86.1" y="598" width="2.6" height="15.2"/>
		<rect x="90" y="598" class="st4" width="76.9" height="15.2"/>
		<rect x="88.6" y="529.6" class="st1" width="1.4" height="35.1"/>
		<rect x="79.1" y="528.2" class="st1" width="20.3" height="1.4"/>
		<path d="M82,522.8l-2.1-3.2v3.2h-0.5v-4H80l2.2,3.3v-3.3h0.5v4H82z"/>
		<path d="M86.5,518.8H87v2.6c0,0.9-0.7,1.5-1.6,1.5s-1.6-0.7-1.6-1.5v-2.6h0.5v2.6c0,0.6,0.4,1,0.9,1.1c0,0,0.1,0,0.1,0
			c0.6,0,1-0.4,1.1-0.9c0,0,0-0.1,0-0.1L86.5,518.8z M84.6,518.4v-0.6h0.5v0.6H84.6z M85.7,518.4v-0.6h0.5v0.6H85.7z"/>
		<path d="M88.2,522.8v-4h2.3v0.4h-1.8v1.4h1.6v0.4h-1.6v1.8L88.2,522.8z"/>
		<path d="M94,518.8h0.5v2.6c-0.1,0.9-0.8,1.5-1.7,1.4c-0.8-0.1-1.4-0.7-1.4-1.4v-2.6h0.5v2.6c0,0.6,0.4,1,0.9,1.1c0,0,0.1,0,0.1,0
			c0.6,0,1-0.4,1.1-0.9c0,0,0-0.1,0-0.1V518.8z"/>
		<path d="M98,519.9c0-0.7-0.6-0.8-1-0.8s-0.9,0.2-0.9,0.6c0,1.1,2.4,0.4,2.4,2c0,0.7-0.5,1.1-1.5,1.1c-0.7,0.1-1.4-0.4-1.5-1.2
			c0,0,0,0,0-0.1H96c0,0.6,0.5,0.8,1,0.8s1-0.2,1-0.7c0-1.1-2.4-0.4-2.4-2c0-0.8,0.7-1.1,1.4-1.1c0.7-0.1,1.3,0.4,1.4,1.1
			c0,0,0,0.1,0,0.1L98,519.9z"/>
		<rect x="88.6" y="590.7" class="st1" width="1.4" height="33.2"/>
		<rect x="77.4" y="589.3" class="st1" width="24.3" height="1.4"/>
		<path d="M78.5,587v-3.6h-1.3v-0.4h3.1v0.4H79v3.6L78.5,587z"/>
		<path d="M80.7,585c0.1-1,1-1.8,2.1-1.7c1,0.1,1.8,1,1.7,2.1c-0.1,1-0.9,1.7-1.9,1.7c-1,0-1.8-0.8-1.9-1.8
			C80.7,585.2,80.7,585.1,80.7,585z M84,585c0-1-0.5-1.6-1.4-1.6s-1.4,0.6-1.4,1.6s0.5,1.6,1.4,1.6S84,586,84,585L84,585z"/>
		<path d="M85.6,587v-4h1.4c0.9,0,1.4,0.4,1.4,1.2c0,0.7-0.5,1.3-1.2,1.3c-0.1,0-0.1,0-0.2,0h-0.9v1.5H85.6z M86.9,585
			c0.6,0,0.9-0.3,0.9-0.8s-0.4-0.8-1-0.8H86v1.6H86.9z"/>
		<path d="M91.7,587l-0.9-1.7h-0.9v1.7h-0.5v-4h1.4c0.9,0,1.4,0.4,1.4,1.1c0,0.5-0.3,1-0.8,1.1l0.9,1.8H91.7z M90.8,584.9
			c0.5,0,0.9-0.3,0.9-0.8s-0.3-0.7-0.9-0.7h-0.8v1.5L90.8,584.9z"/>
		<path d="M96,587l-0.4-1.1h-1.8l-0.4,1.1h-0.5l1.6-4H95l1.6,4H96z M94.7,583.5l-0.8,2h1.5L94.7,583.5z"/>
		<path d="M99.9,587l-1.5-1.9l-0.4,0.5v1.4h-0.5v-4H98v1.9l1.8-1.9h0.6l-1.6,1.8l1.8,2.2H99.9z"/>
		<path d="M96.2,558.3c0-0.4-0.3-0.6-0.7-0.6c-0.7,0-1.1,0.5-1.1,1.7c0.3-0.4,0.7-0.6,1.2-0.6c0.7,0,1.2,0.5,1.3,1.2
			c0,0.1,0,0.1,0,0.2c0,0.7-0.6,1.3-1.3,1.3c0,0-0.1,0-0.1,0c-1,0-1.5-0.8-1.5-1.9c0-1.5,0.7-2.2,1.6-2.2c0.7,0,1.2,0.3,1.2,0.9
			H96.2z M95.4,561.2c0.5,0,0.9-0.3,0.9-0.8c0,0,0-0.1,0-0.1c0-0.5-0.3-1-0.9-1c-0.4,0-0.9,0.2-1.1,0.6
			C94.4,560.6,94.7,561.2,95.4,561.2L95.4,561.2z"/>
		<path d="M98.5,557.9l-0.1,1.3c0.3-0.2,0.6-0.3,0.9-0.3c0.7,0,1.2,0.5,1.3,1.1c0,0.1,0,0.1,0,0.2c0,0.7-0.6,1.3-1.3,1.3
			c-0.1,0-0.1,0-0.2,0c-0.7,0.1-1.3-0.4-1.4-1c0-0.1,0-0.1,0-0.2h0.5c0,0.4,0.3,0.8,0.7,0.9c0.1,0,0.1,0,0.2,0
			c0.5,0.1,0.9-0.3,1-0.7c0-0.1,0-0.2,0-0.3c0.1-0.5-0.2-0.9-0.7-1c-0.1,0-0.1,0-0.2,0c-0.3,0-0.7,0.1-0.9,0.4h-0.4l0.2-2.1h2.2v0.4
			L98.5,557.9z"/>
		<path d="M101.5,559.5c0-1.3,0.6-2.1,1.6-2.1s1.6,0.8,1.6,2.1s-0.6,2.1-1.6,2.1S101.5,560.8,101.5,559.5z M104.3,559.5
			c0-1-0.4-1.6-1.1-1.6s-1.1,0.6-1.1,1.6s0.4,1.6,1.1,1.6S104.3,560.5,104.3,559.5z"/>
		<path d="M105.7,561.5v-0.8h0.5v0.8H105.7z"/>
		<path d="M107,559.5c0-1.3,0.6-2.1,1.6-2.1s1.6,0.8,1.6,2.1s-0.6,2.1-1.6,2.1S107,560.8,107,559.5z M109.8,559.5
			c0-1-0.4-1.6-1.1-1.6s-1.1,0.6-1.1,1.6s0.4,1.6,1.1,1.6S109.8,560.5,109.8,559.5L109.8,559.5z"/>
		<path d="M111.3,559.5c0-1.3,0.6-2.1,1.6-2.1s1.6,0.8,1.6,2.1s-0.6,2.1-1.6,2.1S111.3,560.8,111.3,559.5z M114,559.5
			c0-1-0.4-1.6-1.1-1.6s-1.1,0.6-1.1,1.6s0.4,1.6,1.1,1.6S114,560.5,114,559.5L114,559.5z"/>
		<path d="M115.5,559.5c0-1.3,0.6-2.1,1.6-2.1s1.6,0.8,1.6,2.1s-0.6,2.1-1.6,2.1S115.5,560.8,115.5,559.5z M118.3,559.5
			c0-1-0.4-1.6-1.1-1.6s-1.1,0.6-1.1,1.6s0.4,1.6,1.1,1.6S118.3,560.5,118.3,559.5L118.3,559.5z"/>
		<path d="M62.9,561.5v-0.9h-2v-0.4l1.8-2.7h0.7v2.7H64v0.4h-0.6v0.9L62.9,561.5z M62.9,557.9l-1.6,2.3h1.6V557.9z"/>
		<path d="M65.1,561.5c0.4-1.3,1-2.5,1.8-3.6h-2.2v-0.4h2.8v0.4c-0.8,1.1-1.4,2.3-1.8,3.6H65.1z"/>
		<path d="M67.6,561.5v-0.8h0.5v0.8H67.6z"/>
		<path d="M69,559.5c0-1.3,0.6-2.1,1.6-2.1s1.6,0.8,1.6,2.1s-0.6,2.1-1.6,2.1S69,560.8,69,559.5z M71.8,559.5c0-1-0.4-1.6-1.1-1.6
			s-1.1,0.6-1.1,1.6s0.4,1.6,1.1,1.6S71.8,560.5,71.8,559.5L71.8,559.5z"/>
		<path d="M73.2,559.5c0-1.3,0.6-2.1,1.6-2.1s1.6,0.8,1.6,2.1s-0.6,2.1-1.6,2.1S73.2,560.8,73.2,559.5z M76,559.5
			c0-1-0.4-1.6-1.1-1.6s-1.1,0.6-1.1,1.6s0.4,1.6,1.1,1.6S76,560.5,76,559.5L76,559.5z"/>
		<path d="M77.4,559.5c0-1.3,0.6-2.1,1.6-2.1s1.6,0.8,1.6,2.1s-0.6,2.1-1.6,2.1S77.4,560.8,77.4,559.5z M80.2,559.5
			c0-1-0.4-1.6-1.1-1.6s-1.1,0.6-1.1,1.6s0.4,1.6,1.1,1.6S80.2,560.5,80.2,559.5z"/>
		<path d="M76.6,619c0-0.5,0.5-0.9,1-0.9c0.5,0,0.9,0.5,0.9,1c0,0.5-0.4,0.9-0.9,0.9c-0.5,0-0.9-0.3-0.9-0.8
			C76.6,619.1,76.6,619,76.6,619z M78.1,619c0-0.4-0.2-0.6-0.5-0.6s-0.5,0.2-0.5,0.6s0.2,0.7,0.5,0.7S78.1,619.3,78.1,619z
			 M77.6,622l2.4-4.2h0.4L78,622L77.6,622z M79.4,621c0-0.5,0.4-0.9,0.9-0.9c0.5,0,0.9,0.4,0.9,0.9c0,0.5-0.4,0.9-0.9,0.9
			c-0.5,0-0.9-0.3-0.9-0.8C79.4,621.1,79.4,621.1,79.4,621L79.4,621z M80.8,621c0-0.4-0.2-0.7-0.5-0.7s-0.5,0.3-0.5,0.7
			s0.2,0.6,0.5,0.6S80.8,621.5,80.8,621L80.8,621z"/>
		<path d="M83.3,622v-3.5l-1.1,0.5v-0.5l1.1-0.6h0.5v4H83.3z"/>
		<path d="M94.8,619c0-0.5,0.4-0.9,0.9-0.9c0.5,0,0.9,0.4,0.9,0.9s-0.4,0.9-0.9,0.9C95.2,619.9,94.8,619.5,94.8,619z M96.2,619
			c0-0.4-0.2-0.6-0.5-0.6s-0.5,0.2-0.5,0.6s0.2,0.7,0.5,0.7S96.2,619.3,96.2,619z M95.8,622l2.4-4.2h0.4l-2.4,4.2H95.8z M97.5,621
			c0-0.5,0.4-0.9,0.9-0.9c0.5,0,0.9,0.4,0.9,0.9s-0.4,0.9-0.9,0.9C97.9,622,97.5,621.5,97.5,621z M98.9,621c0-0.4-0.2-0.7-0.5-0.7
			s-0.5,0.3-0.5,0.7s0.2,0.6,0.5,0.6S99,621.5,98.9,621L98.9,621z"/>
		<path d="M100.8,621.1c0,0.4,0.3,0.6,0.8,0.6c0.7,0,1.1-0.5,1.1-1.7c-0.3,0.4-0.7,0.6-1.2,0.6c-0.7,0-1.2-0.5-1.3-1.1
			c0-0.1,0-0.1,0-0.2c0-0.7,0.6-1.3,1.3-1.3c0,0,0.1,0,0.1,0c1,0,1.5,0.8,1.5,1.9c0,1.5-0.7,2.2-1.6,2.2c-0.7,0-1.2-0.3-1.2-1
			L100.8,621.1z M101.6,618.3c-0.5,0-0.9,0.3-0.9,0.8c0,0,0,0.1,0,0.1c0,0.5,0.3,0.9,0.8,0.9c0.4,0,0.9-0.2,1.1-0.6
			C102.6,618.9,102.3,618.3,101.6,618.3z"/>
		<path d="M104.7,621.1c0,0.4,0.3,0.6,0.8,0.6c0.7,0,1.1-0.5,1.1-1.7c-0.3,0.4-0.7,0.6-1.2,0.6c-0.7,0-1.2-0.5-1.3-1.1
			c0-0.1,0-0.1,0-0.2c0-0.7,0.6-1.3,1.3-1.3c0,0,0.1,0,0.1,0c1,0,1.5,0.8,1.5,1.9c0,1.5-0.7,2.2-1.6,2.2c-0.7,0-1.2-0.3-1.2-1
			L104.7,621.1z M105.5,618.3c-0.5,0-0.9,0.3-0.9,0.8c0,0,0,0.1,0,0.1c0,0.5,0.3,0.9,0.8,0.9c0.4,0,0.9-0.2,1.1-0.6
			C106.5,618.9,106.1,618.3,105.5,618.3z"/>
		<path class="st3" d="M73.5,51.7H0V0h73.6L73.5,51.7z M0.7,51h72.1V0.8H0.7V51z"/>
		<path class="st6" d="M105.1,163.8c0,0,1.1,0.5,2-1.5c0.9-2,1.5-1.1,2,0.8c0.5,1.8-0.3,2.3-1.2,2.3S103.6,164.4,105.1,163.8z"/>
		<path class="st6" d="M109.5,167.4c0,0,0.2,0.5,1.1-0.1c0.9-0.5,0.8,0,0.4,0.8s-0.8,0.8-1.1,0.6S108.9,167.3,109.5,167.4z"/>
		<path class="st6" d="M110.7,151c-0.1,0.4,0.4,0.5,0.9,0.6c0.4,0.1,0.8,0,1.1-0.3c0.1,0,0.3,0,0.4,0.1l-1.3,1.9
			c-0.9,1.4-3.4,0.4-3-1c0.2-0.5,0.5-1,0.9-1.3c0.3-0.1,0.7-0.1,1-0.1C110.7,150.9,110.7,151,110.7,151z"/>
		<path class="st6" d="M110.8,159.1c0-0.3-0.5-0.5-0.7-0.3c-0.2,0.2-0.4,0.5-0.5,0.8c-0.1,0.3-0.3,0.6-0.7,0.7
			c0.5,0.3,1.1,0.6,1.6,0.3c0.2-0.2,0.4-0.5,0.5-0.8c0.2-0.3,0.5-0.6,0.8-0.5c0-0.2-0.2-0.4-0.4-0.5c-0.3-0.1-0.7,0-0.9,0.3"/>
		<path class="st6" d="M116.1,147.4c-0.2-0.2-0.6-0.3-0.9-0.3c-0.4,0.1-0.5,0.5-0.7,0.8c0,0.1,0,0.1,0,0.2c0,0.1,0.1,0.2,0.2,0.2
			c0.1,0,0.5,0.2,0.6,0s0-0.2,0.1-0.3c0.2-0.3,0.7,0.1,1-0.1c0.1-0.2,0-0.4-0.1-0.4c0,0,0,0,0,0c-0.2-0.1-0.4-0.1-0.5,0
			c-0.1-0.1-0.1-0.2,0-0.2"/>
		<g>
			<path class="st7" d="M11.2,617.1c3.8,0,6.8,3,6.8,6.8c0,3.8-3,6.8-6.8,6.8c-3.8,0-6.8-3-6.8-6.8l0,0
				C4.4,620.2,7.5,617.1,11.2,617.1z"/>
			<path class="st8" d="M11.2,624.6c3.8,0,6.8,3,6.8,6.8c0,3.8-3,6.8-6.8,6.8c-3.8,0-6.8-3-6.8-6.8l0,0
				C4.4,627.7,7.5,624.6,11.2,624.6z"/>
			<path class="st9" d="M11.2,632.7c3.8,0,6.8,3,6.8,6.8c0,3.8-3,6.8-6.8,6.8c-3.8,0-6.8-3-6.8-6.8l0,0
				C4.4,635.8,7.5,632.7,11.2,632.7z"/>
			<path class="st1" d="M7.5,636.6h0.8l0.2,0.9c0.3-0.2,0.6-0.3,0.9-0.3c0.6,0,1.1,0.2,1.5,0.7c0.4,0.5,0.6,1.2,0.5,1.8v0.3v0.2
				c0.1,0.1,0.3,0.2,0.4,0.2c0.2,0,0.3-0.3,0.3-0.9v-1c0-0.5,0.1-1,0.4-1.5c0.3-0.4,0.8-0.5,1.2-0.5c0.6,0,1.3,0.3,1.6,0.9
				c0.4,0.7,0.6,1.6,0.6,2.5c0,0.7-0.1,1.3-0.4,1.9c-0.3,0.4-0.7,0.7-1.2,0.7c-0.3,0-0.6-0.1-0.9-0.3c-0.3-0.3-0.4-0.6-0.5-1
				c-0.1,0.2-0.2,0.3-0.3,0.4c-0.3,0.2-0.7,0.2-1.1,0c-0.2-0.2-0.3-0.4-0.4-0.6c-0.1,0.3-0.4,0.6-0.6,0.7c-0.3,0.2-0.6,0.3-1,0.3
				c-0.6,0-1.1-0.2-1.5-0.6c-0.4-0.5-0.6-1.1-0.5-1.8c0-0.2,0-0.4,0-0.6c0-0.2,0.1-0.4,0.1-0.4L7.5,636.6z M14.2,641.1
				c0.2,0,0.4-0.1,0.5-0.3c0.1-0.3,0.2-0.6,0.2-0.9c0-0.5-0.1-0.9-0.2-1.3c-0.1-0.3-0.4-0.5-0.7-0.5c-0.2,0-0.4,0.1-0.4,0.3
				c-0.1,0.3-0.1,0.6-0.1,0.9v0.8c0,0.3,0.1,0.5,0.2,0.7C13.7,641,13.9,641.1,14.2,641.1z M9.4,640.5c0.3,0,0.5-0.1,0.8-0.2
				c0.2-0.2,0.3-0.4,0.3-0.7c0-0.3-0.1-0.5-0.3-0.7c-0.2-0.2-0.5-0.2-0.8-0.2c-0.7,0-1.1,0.3-1.1,0.9S8.7,640.5,9.4,640.5z"/>
			<path class="st1" d="M13.9,629.2v4.6h-0.9l-3.7-2.7v2.5H8v-4.4h1l3.6,2.6v-2.7L13.9,629.2z"/>
			<path class="st1" d="M13,623c0-0.3-0.1-0.7-0.2-1H14c0.2,0.5,0.3,1,0.3,1.5c0,0.5-0.1,1-0.5,1.4c-0.4,0.3-0.9,0.5-1.5,0.4H9.5
				v0.8H8.8l-0.5-0.9L7,624.7v-1h1.3v-1.6h1.2v1.6h2.8c0.2,0,0.4-0.1,0.5-0.2C12.9,623.4,13,623.2,13,623z"/>
		</g>
		<g>
			<path class="st10" d="M7.6,594.6c0.1,2.3,1.9,4.1,4.2,4c0,0,0,0,0,0c2.1,0.1,3.9-1.6,3.9-3.7c0,0,0-0.1,0-0.1
				c0-1.7-1.2-3.2-2.9-3.5l-0.1,0.2c0.8,0.4,1.3,1.2,1.3,2.1c0,1.3-1,2.3-3,2.4v-4.7c-1.8-0.1-3.4,1.3-3.5,3.2
				C7.6,594.5,7.6,594.6,7.6,594.6z M10.7,593.7v2.2c-1.7,0-2.8-0.7-2.8-1.3S8.7,593.7,10.7,593.7z"/>
			<path class="st10" d="M14.1,585.3c0,1.5-1.2,2.4-3.4,2.4c-1.8,0-2.8-0.6-2.8-1.2s1.1-0.8,1.7-1c0.5-0.1,0.8-0.6,0.8-1.1
				c0.1-0.5-0.3-1-0.9-1.1c0,0-0.1,0-0.1,0c-0.8,0-1.7,0.9-1.7,2.8c-0.1,2.3,1.7,4.2,4,4.3c0.1,0,0.2,0,0.3,0
				c2.1,0.1,3.8-1.5,3.9-3.6c0-0.1,0-0.1,0-0.2c0-1.7-1.2-3.2-2.9-3.5l-0.1,0.2C13.6,583.7,14.1,584.5,14.1,585.3z"/>
			<path class="st10" d="M7.4,576.4c0.2,1.1,1,2.1,2.1,2.3H7.7v0.1l1,3.7h0.2c0-0.5,0.2-1.1,1.2-1.1h5.9v-0.1l-1-3.7h-0.2
				c0,0.5-0.3,0.9-0.8,1h-3.7c-0.7-0.2-1-0.4-1-0.8s0.7-0.8,0.7-1.5c-0.1-0.7-0.6-1.2-1.3-1.1C8,575.3,7.5,575.8,7.4,576.4
				L7.4,576.4z"/>
			<path class="st10" d="M13.5,568.1h-3.3c-1.6,0-2.6,1.1-2.6,3.4s0.8,3.2,1.8,3.2c0.6,0,1-0.4,1.1-0.9c0,0,0-0.1,0-0.1
				c0-0.6-0.4-1.1-1-1.2c-0.8-0.3-1.6-0.1-1.6-0.8c0-0.5,0.4-0.7,1.5-0.7h1.5c0.9,3.4,1.9,4.3,3.1,4.3c1,0,1.8-0.8,1.8-1.8
				c0-0.1,0-0.1,0-0.2c0-0.9-0.4-1.7-1.1-2.4h1.1v-0.1l-1-3.7h-0.2C14.7,567.5,14.5,568.1,13.5,568.1z M14.6,571.6
				c0,0.5-0.4,1-1.3,1c-1,0-2-0.7-2.2-1.8h2.6c0.2,0,0.4,0,0.6,0C14.5,571,14.6,571.3,14.6,571.6L14.6,571.6z"/>
			<path class="st10" d="M14.2,599.4c-0.2,0.1-0.3,0.1-0.5,0.1h-4c-1.1-0.1-2,0.7-2.1,1.7c0,0.1,0,0.2,0,0.3c0.1,1,0.6,2,1.4,2.6
				c-0.9,0.2-1.5,1.1-1.4,2c0.1,1,0.6,2,1.4,2.6H7.7v0.1l1,3.7h0.2c0-0.5,0.2-1.1,1.2-1.1h5.9v-0.1l-1-3.7h-0.2
				c0.1,0.4-0.1,0.8-0.5,0.9c-0.2,0.1-0.3,0.1-0.5,0.1H9.3c-0.3-0.3-0.5-0.6-0.5-1c0-0.5,0.4-0.8,1.2-0.8h4.5v-0.1l-1-3.7h-0.2
				c0.1,0.4-0.1,0.8-0.5,0.9c-0.1,0.1-0.3,0.1-0.5,0.1h-3c-0.3-0.2-0.5-0.6-0.6-1c0-0.5,0.4-0.9,1.2-0.9h5.8v-0.1l-1-3.7h-0.2
				C14.7,598.9,14.5,599.3,14.2,599.4z"/>
		</g>
	</g>
</g>
</svg>
