<?xml version="1.0" encoding="utf-8"?>
<!-- Generator: Adobe Illustrator 22.1.0, SVG Export Plug-In . SVG Version: 6.00 Build 0)  -->
<svg version="1.1" id="Layer_1" xmlns="http://www.w3.org/2000/svg" xmlns:xlink="http://www.w3.org/1999/xlink" x="0px" y="0px"
	 viewBox="0 0 189.7 652.3" style="enable-background:new 0 0 189.7 652.3;" xml:space="preserve">
<style type="text/css">
	.st0{fill:#FFFFFF;}
	.st1{fill:#D8C7C3;}
	.st2{fill:#678186;}
	.st3{fill:#020202;}
	.st4{fill:#56B746;}
	.st5{opacity:0.8;enable-background:new    ;}
	.st6{fill:#FFFCE3;}
	.st7{fill:#006E94;}
	.st8{fill:#2EABE1;fill-opacity:0.72;}
	.st9{fill:#00A29A;fill-opacity:0.68;}
	.st10{fill:#1D1D1B;}
</style>
<title>haritalar</title>
<g>
	<g id="Layer_1_1_">
		<rect x="-0.8" y="0.7" class="st0" width="189.3" height="501.6"/>
		<path class="st1" d="M188.5,499.1V0.7c0,0-57.7-1.2-57.8,0c-0.5,4.4,0,10.9-4.2,13.7c-4.3,2.8-3.3,1.5-3.3,6.5s-2,4-4.8,9.3
			s-3.3,6.6-3.3,6.6l-3.5,76.2l-39.8,123L9.4,282.1l-10.3,10.3v209.9h0.3v150.1h190.1V499.1H188.5z"/>
		<path class="st2" d="M141.7,311.4c0,0-4.4-96.7,24.7-93.2c0.9,0.1,3.2,2.7,3.5,3.9c0.4,2.5-0.2,5.1-1.6,7.2
			c-1.3,2-1.3,7.3-1.6,12.5s1,25.7-0.9,28.8c-0.4,0.4-0.5,1.1-0.4,1.6c0.3,0.6,0.1,1.4-0.5,1.7c0,0,0,0,0,0c-0.5,0.9-0.1,2,0.8,2.4
			c0,0,0,0,0.1,0c0,0,0.8,3.2-1.4,4.3c0,0-1.8,0.8-2,3.5c0,0-3.1,3-3.8-1.4c0,0-1.3-2.7-4.3-0.8c0,0-0.4,0.3-0.5,2s-0.5,0.5-0.8,1.2
			s0.1,3,0,3.4s-1.7,1.8-0.1,2.8s2.8-0.2,3.6,1.7s0.9,3.4,3.6,3.8s4.3,1.6,4.2,4.9s0.6,9.1-1.4,11.5s-1.7,4.2-7.6,6.1
			s-6.3,2.1-8.8-2S141.8,313.7,141.7,311.4"/>
		<path class="st3" d="M150.2,321.1c-1.6,0-2.5-1-4.1-3.5c-0.8-1.4-1.9-2.6-3.2-3.5c-1-0.5-1.6-1.5-1.7-2.6l0,0
			c-0.5-12.9-0.2-25.8,0.6-38.6c1.9-27.1,6.8-44.5,14.4-51.6c2.7-2.7,6.4-4,10.2-3.5c1.3,0.1,3.6,3,3.9,4.3c0.4,2.6-0.2,5.3-1.6,7.5
			c-0.9,1.5-1.1,5.3-1.3,9.3c-0.1,1-0.1,2-0.2,3c-0.1,1.6,0,4.9,0,8.6c0.2,10.3,0.3,18.3-1,20.4l-0.1,0.1c-0.2,0.3-0.3,0.7-0.3,1.1
			c0.4,0.8,0.1,1.8-0.6,2.2c-0.1,0.3-0.3,1,0.7,1.7l0.2,0.1l0.1,0.2c0,0.1,0.9,3.6-1.7,4.8c-0.1,0-1.5,0.7-1.7,3.1v0.2l-0.1,0.1
			c-0.2,0.1-1.6,1.5-3,1c-0.9-0.3-1.4-1.2-1.7-2.7c-0.3-0.5-0.7-0.9-1.3-1.1c-0.8-0.2-1.6,0-2.2,0.5l0,0c-0.2,0.5-0.3,1.1-0.3,1.6
			c0,0.8-0.1,1.1-0.4,1.3c-0.1,0.1-0.3,0.2-0.4,0.1c-0.1,0.6-0.1,1.2,0,1.9c0.1,0.5,0.1,0.9,0,1.4c-0.1,0.2-0.2,0.3-0.3,0.5
			c-0.2,0.3-0.6,0.8-0.5,1.2c0.1,0.2,0.3,0.4,0.5,0.5c0.5,0.3,1,0.4,1.6,0.4c1-0.1,1.9,0.5,2.3,1.5c0.2,0.4,0.3,0.7,0.4,1
			c0.5,1.4,0.9,2.2,2.8,2.5c3.3,0.5,4.7,2.2,4.6,5.4c0,0.8,0,1.6,0,2.6c0.1,3.2,0.1,7.2-1.5,9.2c-0.4,0.5-0.8,1-1.1,1.6
			c-1.1,1.7-2,3.2-6.7,4.6l-0.4,0.1C153.4,320.5,151.8,320.9,150.2,321.1z M142.2,311.4c0.1,0.9,0.5,1.2,1.3,1.9
			c1.4,1,2.5,2.3,3.4,3.8c2.3,3.7,2.4,3.6,7.8,1.9l0.4-0.1c4.3-1.4,5.1-2.6,6.1-4.2c0.4-0.6,0.8-1.2,1.2-1.7
			c1.4-1.7,1.3-5.5,1.3-8.5c0-1,0-1.9,0-2.7c0.1-2.7-1-3.9-3.8-4.4c-2.5-0.4-3-1.7-3.5-3.1c-0.1-0.3-0.3-0.6-0.4-1
			c-0.4-0.8-0.7-0.9-1.4-0.9c-0.7,0-1.4-0.2-2-0.6c-0.5-0.2-0.8-0.7-0.9-1.2c-0.1-0.7,0.2-1.5,0.7-2c0.1-0.1,0.1-0.2,0.1-0.2
			s0-0.6-0.1-1c-0.1-0.8-0.1-1.6,0-2.4c0.1-0.3,0.4-0.5,0.7-0.6c0-0.2,0-0.3,0-0.5c0.1-1.8,0.5-2.3,0.8-2.4c0.9-0.6,2-0.9,3-0.6
			c0.8,0.3,1.5,0.9,1.9,1.6v0.1c0.1,0.8,0.4,1.8,1,2s1.4-0.4,1.8-0.7c0.1-1.6,0.9-3,2.3-3.7c1.6-0.7,1.3-2.9,1.2-3.5
			c-1-0.6-1.4-1.9-0.8-3l0.1-0.1l0.1-0.1c0.4-0.1,0.5-0.6,0.4-0.9c0,0,0-0.1,0-0.1v-0.1c-0.2-0.7,0-1.4,0.4-2
			c1.2-2.1,1-12.3,0.8-19.8c-0.1-3.8-0.1-7,0-8.7c0.1-1,0.1-2,0.2-3c0.2-4.3,0.4-8,1.5-9.7c1.3-2,1.9-4.4,1.5-6.8
			c-0.2-1.2-2.4-3.5-3.1-3.5c-3.5-0.4-6.9,0.8-9.4,3.2C139.1,238.4,142.1,310.2,142.2,311.4z"/>
		<path class="st4" d="M113.2,36.7h4.7c0,0,1.2,3.3,3.3,2.9c1.8-0.2,3.4-1.3,4.2-2.9l9.7,0.3c0,0,1.5,2.2,3,2s9.1,0,9.1,0
			s1.8,1.8,4.8-0.5c0,0,3.5-3.1,6.1-3.4c0,0,2.7-0.5,3-5.2l1.2-13.3c0,0,0.4-4.8,2.4-4.9s5.1-0.7,6.8,3c0,0,1.3,2.1,5.6,1.6
			s4,1.6,4,3.1s-0.4,2.3,1.2,2.8s0.5,3.7-0.9,3.5s-3.3,2.2-3.1,5.4s1.1,6.8-0.9,7.9s-3.6-0.3-3,5.3s-0.2,13.3,0.2,18
			c0.2,3.2,0.8,6.4,1.9,9.4c0.4,1,1.7,0.9,1.4,9.6s0.8,8.2,2.7,8.3s2.2,3.4-0.1,3.5s-5-0.7-7.1,2.8s-5.3,2.6-4.6,8.7
			s-0.3,27.8-0.3,27.8l-0.1,19.9c0.4,3.8,0.2,7.7-0.5,11.5c-1.2,6.3-2.5,11.3-3.1,14.4s-0.9,4.6-0.1,6.9c0.8,2.3,1.4,2.2,1.4,7.7
			s0.3,19.8,0.3,19.8s1,6.1-1.7,6.1c0,0-4,0.4-8,4.5c-1.5,1.8-2.2,4-2.3,6.3c0.1,3.7,0.2,6.2-4.3,5.8l-1,16.9c0,0,0.3,5.1-1.8,6
			s-0.7,19.3-0.5,22.1s-2,25.3-5.1,31.3s-6.8,14.3-7.8,20.7s-5.8,21-7.5,25.2c-1.7,4.2-6.2,24.2-6.9,27.1s-6.8,15.8-8,24.9
			s-4.2,12.4-5.7,22.1s-10.8,32.8-11.6,34.3s-15.8,36.7-15.8,36.7h-5.7c1.6-7.6,1.2-15.5-1.2-22.9c0,0-3.8-7.4-3.1-13.7
			s0.7-10.1-1.1-13.2c-4.5-9.1-8.5-18.4-11.9-28c-3.3-9.7-8-17.9-15.3-43.2s-13.2-42-15-46.3s-11.6-35.2-13.7-40.5S8.7,287,8.7,287
			s-1.7-4.3,2.6-8.7s18.5-21.8,22.6-26.8s16.6-25.3,18.9-29.8s14.6-32.3,17.8-40.3c3.2-8,13.8-41.1,14.8-53.7s1.8-16.3,2-19.4
			s5.3-11,4.4-15.7s-0.7-9,2.8-17.8c0,0,2.1-5.3,8.6-2.4c0,0,4.9,1.8,6.8-10.7c0,0-4.7,1.9-4.3-7c0,0,3.5,0.4,3.9-5.9
			c0,0-0.3-4.8,1.3-6.6C112,40.6,112.8,38.7,113.2,36.7z"/>
		<path d="M114.6,486.4h1l1.9,3.1l1.9-3.1h1l-2.4,3.9v2.6H117v-2.6L114.6,486.4z"/>
		<path d="M122.9,490c0.2,0,0.3-0.1,0.4-0.2c0-0.1,0.1-0.2,0.1-0.3c0-0.2-0.1-0.5-0.3-0.6c-0.3-0.1-0.5-0.2-0.8-0.2
			c-0.3,0-0.7,0.1-0.9,0.3c-0.1,0.2-0.2,0.4-0.2,0.5h-0.7c0-0.5,0.2-0.9,0.6-1.2c0.4-0.2,0.8-0.3,1.3-0.3c0.5,0,0.9,0.1,1.4,0.3
			c0.3,0.2,0.5,0.6,0.5,1v2.7c0,0.1,0,0.1,0,0.2c0,0,0.1,0.1,0.2,0.1h0.1h0.1v0.6c-0.1,0-0.2,0.1-0.3,0.1H124
			c-0.2,0-0.5-0.1-0.6-0.3c-0.1-0.1-0.1-0.3-0.1-0.4c-0.2,0.2-0.4,0.4-0.7,0.5c-0.3,0.2-0.7,0.2-1,0.2c-0.4,0-0.8-0.1-1.1-0.4
			c-0.3-0.3-0.4-0.6-0.4-1c0-0.4,0.1-0.7,0.4-1c0.3-0.3,0.7-0.4,1.1-0.4L122.9,490z M121.3,492.1c0.2,0.1,0.4,0.2,0.6,0.2
			c0.3,0,0.6-0.1,0.8-0.2c0.4-0.2,0.7-0.6,0.6-1v-0.7c-0.1,0.1-0.2,0.1-0.4,0.2c-0.1,0-0.3,0.1-0.4,0.1l-0.5,0.1
			c-0.2,0-0.4,0.1-0.6,0.2c-0.2,0.1-0.4,0.4-0.4,0.7C121,491.8,121.1,492,121.3,492.1z"/>
		<path d="M125.5,486.3h0.8v2.4c0.1-0.2,0.3-0.4,0.5-0.5c0.3-0.2,0.6-0.3,0.9-0.3c0.6-0.1,1.1,0.2,1.4,0.7c0.1,0.3,0.2,0.7,0.2,1.1
			v3h-0.8v-3c0-0.3,0-0.5-0.1-0.8c-0.2-0.3-0.5-0.4-0.8-0.4c-0.3,0-0.6,0.1-0.9,0.3c-0.3,0.4-0.5,0.8-0.4,1.3v2.5h-0.8V486.3z"/>
		<path d="M131.4,488.1v3.1c0,0.2,0,0.4,0.1,0.6c0.1,0.3,0.5,0.5,0.8,0.4c0.5,0,0.9-0.3,1.1-0.7c0.1-0.3,0.2-0.7,0.2-1.1v-2.3h0.8
			v4.7h-0.8v-0.7c-0.1,0.2-0.2,0.3-0.4,0.5c-0.3,0.2-0.7,0.4-1.1,0.4c-0.5,0.1-1.1-0.2-1.4-0.7c-0.1-0.3-0.2-0.7-0.2-1v-3.2
			L131.4,488.1z"/>
		<path d="M138.3,488.3c0.2,0.1,0.3,0.3,0.5,0.5v-2.4h0.8v6.5h-0.7v-0.7c-0.2,0.3-0.4,0.5-0.6,0.6c-0.3,0.1-0.6,0.2-0.9,0.2
			c-0.5,0-1-0.2-1.4-0.7c-0.4-0.5-0.6-1.1-0.6-1.8c0-0.6,0.2-1.3,0.5-1.8c0.3-0.5,0.9-0.8,1.5-0.8C137.7,488,138,488.1,138.3,488.3z
			 M136.5,491.8c0.2,0.3,0.6,0.5,1,0.5c0.4,0,0.7-0.2,0.9-0.5c0.3-0.4,0.4-0.9,0.4-1.3c0-0.5-0.1-0.9-0.4-1.3
			c-0.2-0.3-0.5-0.4-0.9-0.4c-0.4,0-0.8,0.2-1,0.5c-0.3,0.4-0.4,0.9-0.4,1.3C136.1,491,136.3,491.4,136.5,491.8L136.5,491.8z"/>
		<path d="M140.8,486.4h0.8v0.9h-0.8V486.4z M140.8,488.1h0.8v4.7h-0.8V488.1z"/>
		<path d="M145.6,486.8h0.8v1.3h0.8v0.7h-0.8v3.1c0,0.1,0,0.3,0.2,0.3c0.1,0,0.2,0,0.3,0h0.1h0.2v0.6c-0.1,0-0.2,0-0.3,0.1h-0.3
			c-0.3,0-0.6-0.1-0.8-0.3c-0.1-0.2-0.2-0.5-0.2-0.7v-3.1H145v-0.7h0.6L145.6,486.8z"/>
		<path d="M151.5,488.6c0.4,0.5,0.7,1.1,0.6,1.8c0,0.7-0.2,1.3-0.6,1.9c-0.4,0.5-1,0.8-1.7,0.8c-0.6,0-1.1-0.2-1.5-0.7
			c-0.4-0.5-0.6-1.1-0.6-1.8c0-0.7,0.2-1.4,0.6-1.9c0.4-0.5,1-0.7,1.6-0.7C150.5,488,151.1,488.2,151.5,488.6z M151,491.7
			c0.2-0.4,0.3-0.9,0.3-1.3c0-0.4-0.1-0.7-0.2-1.1c-0.2-0.4-0.7-0.7-1.1-0.7c-0.4,0-0.8,0.2-1,0.5c-0.2,0.4-0.3,0.9-0.3,1.3
			c0,0.4,0.1,0.9,0.3,1.3c0.2,0.3,0.6,0.5,1,0.5C150.4,492.4,150.8,492.1,151,491.7L151,491.7z"/>
		<path d="M153.1,488.1h0.8v0.6c0.1-0.2,0.3-0.4,0.5-0.5c0.3-0.2,0.6-0.3,0.9-0.3c0.5,0,1,0.2,1.4,0.6c0.4,0.5,0.6,1.1,0.6,1.8
			c0.1,0.8-0.2,1.6-0.8,2.2c-0.3,0.3-0.8,0.4-1.2,0.4c-0.3,0-0.6-0.1-0.9-0.2c-0.2-0.1-0.3-0.3-0.5-0.5v2.4h-0.8L153.1,488.1z
			 M156.1,491.8c0.3-0.4,0.4-0.9,0.4-1.4c0-0.3,0-0.7-0.2-1c-0.2-0.6-0.9-0.9-1.5-0.7c-0.3,0.1-0.6,0.4-0.7,0.7
			c-0.1,0.4-0.2,0.7-0.2,1.1c0,0.3,0,0.6,0.2,0.9c0.2,0.5,0.6,0.8,1.1,0.7C155.5,492.2,155.8,492.1,156.1,491.8L156.1,491.8z"/>
		<path d="M158.3,488.1h0.8v0.8c0.1-0.2,0.3-0.4,0.5-0.6c0.2-0.2,0.5-0.3,0.8-0.3h0.1h0.2v0.8h-0.3c-0.4,0-0.7,0.1-0.9,0.4
			c-0.2,0.2-0.3,0.6-0.3,0.9v2.7h-0.8L158.3,488.1z"/>
		<path d="M163.9,490c0.2,0,0.3-0.1,0.4-0.2c0-0.1,0.1-0.2,0.1-0.3c0-0.2-0.1-0.5-0.3-0.6c-0.3-0.1-0.5-0.2-0.8-0.2
			c-0.3,0-0.7,0.1-0.9,0.3c-0.1,0.2-0.2,0.4-0.2,0.5h-0.7c0-0.5,0.2-0.9,0.6-1.2c0.4-0.2,0.8-0.3,1.3-0.3c0.5,0,0.9,0.1,1.4,0.3
			c0.3,0.2,0.5,0.6,0.5,1v2.7c0,0.1,0,0.1,0,0.2c0,0,0.1,0.1,0.2,0.1h0.1h0.1v0.6c-0.1,0-0.2,0.1-0.3,0.1H165
			c-0.2,0-0.5-0.1-0.6-0.3c-0.1-0.1-0.1-0.3-0.1-0.4c-0.2,0.2-0.4,0.4-0.7,0.5c-0.3,0.2-0.7,0.2-1,0.2c-0.4,0-0.8-0.1-1.1-0.4
			c-0.3-0.3-0.4-0.6-0.4-1c0-0.4,0.1-0.7,0.4-1c0.3-0.3,0.7-0.4,1.1-0.4L163.9,490z M162.2,492.1c0.2,0.1,0.4,0.2,0.6,0.2
			c0.3,0,0.6-0.1,0.8-0.2c0.4-0.2,0.7-0.6,0.6-1v-0.7c-0.1,0.1-0.2,0.1-0.4,0.2c-0.1,0-0.3,0.1-0.4,0.1l-0.5,0.1
			c-0.2,0-0.4,0.1-0.6,0.2c-0.2,0.1-0.4,0.4-0.4,0.7C161.9,491.8,162,492,162.2,492.1z"/>
		<path d="M166.4,486.4h0.8v3.8l2-2h1l-1.8,1.8l1.9,3h-1l-1.5-2.4l-0.6,0.6v1.8h-0.8L166.4,486.4z"/>
		<path d="M171,486.4h0.8v6.5H171V486.4z"/>
		<path d="M175.6,490c0.2,0,0.3-0.1,0.4-0.2c0-0.1,0.1-0.2,0.1-0.3c0-0.2-0.1-0.5-0.3-0.6c-0.3-0.1-0.5-0.2-0.8-0.2
			c-0.3,0-0.7,0.1-0.9,0.3c-0.1,0.2-0.2,0.4-0.2,0.5h-0.7c0-0.5,0.2-0.9,0.6-1.2c0.4-0.2,0.8-0.4,1.3-0.3c0.5,0,0.9,0.1,1.4,0.3
			c0.3,0.2,0.5,0.6,0.5,1v2.7c0,0.1,0,0.1,0.1,0.2c0,0,0.1,0.1,0.2,0.1h0.1h0.1v0.6c-0.1,0-0.2,0.1-0.3,0.1h-0.3
			c-0.2,0-0.5-0.1-0.6-0.3c-0.1-0.1-0.1-0.3-0.1-0.4c-0.2,0.2-0.4,0.4-0.7,0.5c-0.3,0.2-0.7,0.2-1,0.2c-0.4,0-0.8-0.1-1.1-0.4
			c-0.5-0.6-0.5-1.4,0-2c0.3-0.3,0.7-0.4,1.1-0.4L175.6,490z M174,492.1c0.2,0.1,0.4,0.2,0.6,0.2c0.3,0,0.6-0.1,0.8-0.2
			c0.4-0.2,0.7-0.6,0.7-1v-0.7c-0.1,0.1-0.2,0.1-0.4,0.2l-0.4,0.1l-0.5,0.1c-0.2,0-0.4,0.1-0.6,0.2c-0.2,0.1-0.4,0.4-0.4,0.7
			C173.7,491.8,173.8,492,174,492.1z"/>
		<path d="M178.2,488.1h0.8v0.8c0.1-0.2,0.3-0.4,0.4-0.6c0.2-0.2,0.5-0.3,0.8-0.3h0.1h0.2v0.8h-0.3c-0.4,0-0.7,0.1-0.9,0.4
			c-0.2,0.2-0.3,0.6-0.3,0.9v2.7h-0.8L178.2,488.1z"/>
		<path d="M181.5,488.1h0.8v4.7h-0.8V488.1z"/>
		<path class="st5" d="M112.5,489.6c0,3.5-2.8,6.3-6.3,6.3s-6.3-2.8-6.3-6.3c0-3.5,2.8-6.3,6.3-6.3c0,0,0,0,0,0
			C109.7,483.3,112.5,486.2,112.5,489.6L112.5,489.6z"/>
		<path d="M115.3,469h4.5v0.8h-3.6v2h3.2v0.8h-3.2v2.9h-0.9V469z"/>
		<path d="M120.7,469h0.8v0.9h-0.8V469z M120.7,470.8h0.8v4.7h-0.8V470.8z"/>
		<path d="M122.8,469h0.8v6.5h-0.8V469z"/>
		<path d="M124.8,469h0.8v0.9h-0.8V469z M124.8,470.8h0.8v4.7h-0.8V470.8z"/>
		<path d="M127.4,474c0,0.2,0.1,0.4,0.2,0.6c0.3,0.3,0.7,0.4,1.1,0.4c0.3,0,0.5-0.1,0.8-0.2c0.2-0.1,0.3-0.3,0.3-0.6
			c0-0.2-0.1-0.4-0.3-0.5c-0.2-0.1-0.5-0.2-0.7-0.2l-0.6-0.2c-0.3-0.1-0.6-0.2-0.9-0.3c-0.3-0.2-0.5-0.5-0.5-0.9
			c0-0.4,0.2-0.8,0.5-1.1c0.4-0.3,0.8-0.4,1.3-0.4c0.6-0.1,1.2,0.2,1.6,0.6c0.2,0.2,0.3,0.5,0.3,0.8h-0.8c0-0.2-0.1-0.3-0.2-0.5
			c-0.3-0.2-0.6-0.4-1-0.3c-0.2,0-0.5,0-0.7,0.2c-0.2,0.1-0.2,0.3-0.2,0.5c0,0.2,0.1,0.4,0.3,0.5c0.2,0.1,0.3,0.2,0.5,0.2l0.5,0.1
			c0.4,0.1,0.8,0.2,1.2,0.4c0.3,0.2,0.5,0.6,0.5,1c0,0.4-0.2,0.8-0.5,1.1c-0.4,0.3-0.9,0.5-1.5,0.5c-0.5,0.1-1.1-0.1-1.5-0.5
			c-0.3-0.3-0.5-0.7-0.5-1.2L127.4,474z"/>
		<path d="M131.7,469.4h0.8v1.3h0.8v0.7h-0.8v3.1c0,0.1,0.1,0.3,0.2,0.3c0.1,0,0.2,0.1,0.3,0h0.3v0.6l-0.3,0c-0.1,0-0.2,0-0.3,0
			c-0.3,0-0.6-0.1-0.8-0.3c-0.1-0.2-0.2-0.5-0.2-0.7v-3.1H131v-0.7h0.6L131.7,469.4z"/>
		<path d="M134.1,469h0.8v0.9h-0.8V469z M134.1,470.8h0.8v4.7h-0.8V470.8z"/>
		<path d="M136.2,470.8h0.8v0.7c0.2-0.2,0.4-0.4,0.7-0.6c0.3-0.1,0.5-0.2,0.8-0.2c0.6-0.1,1.1,0.2,1.4,0.7c0.1,0.3,0.2,0.7,0.2,1.1
			v3h-0.8v-3c0-0.2,0-0.5-0.1-0.7c-0.1-0.3-0.4-0.5-0.8-0.4c-0.2,0-0.3,0-0.5,0c-0.2,0.1-0.4,0.2-0.6,0.4c-0.1,0.1-0.2,0.3-0.3,0.5
			c0,0.2-0.1,0.5-0.1,0.7v2.5h-0.8L136.2,470.8z"/>
		<path class="st4" d="M112.6,472.3c0,3.5-2.8,6.3-6.3,6.3c-3.5,0-6.3-2.8-6.3-6.3c0-3.5,2.8-6.3,6.3-6.3c0,0,0,0,0,0
			C109.8,466,112.6,468.8,112.6,472.3z"/>
		<path class="st3" d="M189.7,652.7H-0.4V0h190.1V652.7z M0.3,651.9h188.6V0.8H0.3V651.9z"/>
		<path d="M9.3,11.8v-0.7c0.5,0,0.9-0.1,1.3-0.3c0.3-0.2,0.5-0.6,0.6-1h0.7v7h-0.9v-5L9.3,11.8z"/>
		<path d="M15.3,15c0,0.4,0.2,0.8,0.6,1c0.2,0.1,0.4,0.2,0.6,0.2c0.4,0,0.8-0.2,1.1-0.5c0.4-0.6,0.6-1.4,0.6-2.1
			c-0.2,0.3-0.4,0.5-0.7,0.7c-0.3,0.1-0.6,0.2-0.9,0.2c-0.6,0-1.2-0.2-1.6-0.6c-0.4-0.4-0.6-1-0.6-1.6c0-0.6,0.2-1.2,0.6-1.7
			c0.4-0.5,1.1-0.8,1.7-0.7c0.9-0.1,1.8,0.5,2.1,1.4c0.2,0.6,0.3,1.3,0.3,1.9c0,0.8-0.1,1.5-0.4,2.3c-0.3,1-1.1,1.7-2.2,1.7
			c-0.6,0-1.1-0.1-1.5-0.5c-0.4-0.4-0.5-0.8-0.5-1.3L15.3,15z M17.6,13.3c0.3-0.3,0.5-0.8,0.4-1.2c0-0.4-0.1-0.8-0.4-1.2
			c-0.3-0.3-0.6-0.4-1-0.4c-0.4,0-0.7,0.1-1,0.4c-0.5,0.7-0.5,1.6,0,2.2c0.3,0.3,0.7,0.4,1.1,0.4C17,13.6,17.3,13.5,17.6,13.3z"/>
		<path d="M23,16.7V15h-3.1v-0.9l3.2-4.4h0.7v4.5h1V15h-1v1.7H23z M23,14.3v-3.2l-2.3,3.2H23z"/>
		<path d="M29.9,10.3c0.3,0.4,0.5,0.8,0.5,1.3h-0.9c0-0.2-0.1-0.5-0.3-0.7c-0.2-0.3-0.6-0.5-1-0.4c-0.5,0-0.9,0.3-1.2,0.7
			c-0.3,0.6-0.5,1.3-0.5,2c0.2-0.3,0.5-0.5,0.8-0.7c0.3-0.1,0.6-0.2,0.9-0.2c0.6,0,1.1,0.2,1.5,0.6c0.5,0.4,0.7,1,0.7,1.7
			c0,0.6-0.2,1.2-0.6,1.7C29.4,16.7,28.7,17,28,17c-0.6,0-1.3-0.3-1.7-0.7c-0.5-0.7-0.8-1.6-0.7-2.5c0-0.8,0.1-1.5,0.4-2.3
			c0.2-1,1.2-1.8,2.2-1.7C28.9,9.6,29.5,9.9,29.9,10.3z M29.2,15.7c0.2-0.3,0.4-0.7,0.3-1.1c0-0.4-0.1-0.7-0.3-1
			c-0.3-0.3-0.7-0.5-1.1-0.5c-0.4,0-0.7,0.1-1,0.4c-0.3,0.3-0.5,0.7-0.4,1.1c0,0.4,0.1,0.8,0.4,1.1c0.3,0.3,0.7,0.5,1.1,0.4
			C28.6,16.2,29,16,29.2,15.7z"/>
		<path class="st6" d="M54.5,368.2h6.2v1.5h-4.4v2h3.8v1.5h-3.8v3.6h-1.8V368.2z"/>
		<path class="st6" d="M63.5,376.8h-1.8v-8.6h1.8V376.8z M61.9,365.8h1.5v1.4h-1.5L61.9,365.8z"/>
		<path class="st6" d="M65.2,368.1H67v7.1h4.3v1.5h-6.1L65.2,368.1z"/>
		<path class="st6" d="M74.2,376.8h-1.8v-8.6h1.8V376.8z M72.5,365.8H74v1.4h-1.5V365.8z"/>
		<path class="st6" d="M77.2,374.1c0,0.3,0.1,0.6,0.3,0.9c0.4,0.4,1,0.6,1.5,0.5c0.4,0,0.7,0,1.1-0.1c0.5-0.1,0.8-0.5,0.8-1
			c0-0.3-0.1-0.5-0.4-0.7c-0.4-0.2-0.8-0.3-1.2-0.4l-0.9-0.2c-0.7-0.1-1.3-0.3-1.9-0.7c-0.6-0.4-0.9-1.1-0.9-1.9
			c0-0.7,0.3-1.4,0.9-1.9c0.7-0.6,1.6-0.8,2.5-0.8c0.8,0,1.7,0.2,2.4,0.7c0.7,0.5,1,1.3,1,2.1h-1.7c0-0.5-0.3-0.9-0.7-1.1
			c-0.3-0.2-0.7-0.2-1.1-0.2c-0.4,0-0.8,0.1-1.1,0.3c-0.3,0.2-0.4,0.5-0.4,0.8c0,0.3,0.2,0.6,0.4,0.7c0.4,0.2,0.8,0.3,1.1,0.4
			l1.5,0.4c0.5,0.1,1,0.3,1.5,0.6c0.5,0.4,0.8,1.1,0.8,1.8c0,0.8-0.3,1.5-0.9,2c-0.7,0.6-1.7,0.8-2.6,0.8c-1,0.1-1.9-0.2-2.7-0.8
			c-0.7-0.5-1-1.3-1-2.1L77.2,374.1z"/>
		<path class="st6" d="M90.1,368.1v1.5h-2.6v7.1h-1.8v-7.1h-2.6v-1.5H90.1z"/>
		<path class="st6" d="M92.8,376.8H91v-8.6h1.8L92.8,376.8z M91.2,365.8h1.5v1.4h-1.5V365.8z"/>
		<path class="st6" d="M94.5,368.1h1.9l3.4,6v-6h1.7v8.6h-1.8l-3.5-6.1v6.1h-1.7V368.1z"/>
		<path d="M43.5,172.3v0.8h-2.2v5.7h-0.9v-5.7h-2.2v-0.8H43.5z"/>
		<path d="M46.2,174.2c0.3,0.1,0.5,0.3,0.7,0.6c0.2,0.3,0.3,0.5,0.3,0.8c0.1,0.3,0.1,0.7,0.1,1h-3.4c0,0.4,0.1,0.8,0.3,1.1
			c0.2,0.3,0.6,0.5,1,0.4c0.4,0,0.7-0.1,1-0.4c0.1-0.2,0.2-0.4,0.3-0.6h0.8c0,0.2-0.1,0.4-0.2,0.6c-0.1,0.2-0.2,0.4-0.4,0.5
			c-0.2,0.2-0.6,0.4-0.9,0.5c-0.2,0-0.4,0.1-0.6,0.1c-0.6,0-1.1-0.2-1.5-0.6c-0.4-0.5-0.6-1.1-0.6-1.8c0-0.7,0.2-1.3,0.6-1.8
			c0.4-0.5,1-0.7,1.6-0.7C45.6,174,45.9,174.1,46.2,174.2z M46.5,176.1c0-0.3-0.1-0.6-0.2-0.8c-0.2-0.4-0.6-0.6-1.1-0.6
			c-0.3,0-0.7,0.1-0.9,0.4c-0.2,0.3-0.4,0.6-0.4,1H46.5z"/>
		<path d="M48.4,172.3h0.8v6.5h-0.8V172.3z"/>
		<path d="M54.6,172.3h1l2.3,6.5h-1l-0.7-1.9h-2.5l-0.7,1.9h-0.9L54.6,172.3z M56,176.1l-1-2.9l-1,2.9H56z"/>
		<path d="M58.9,174.1l1.3,3.8l1.3-3.8h0.9l-1.8,4.7h-0.8l-1.7-4.7H58.9z"/>
		<path d="M63.1,172.3h0.8v0.9h-0.8V172.3z M63.1,174.1h0.8v4.7h-0.8V174.1z"/>
		<path d="M65.6,174.1l1.3,3.8l1.3-3.8H69l-1.8,4.7h-0.8l-1.7-4.7H65.6z"/>
		<path d="M7.1,248.8c0.6,0.4,1.1,1,1.2,1.8H7.4c-0.1-0.4-0.3-0.8-0.6-1c-0.4-0.2-0.8-0.3-1.2-0.3c-0.6,0-1.1,0.2-1.5,0.7
			c-0.4,0.6-0.7,1.3-0.6,2c0,0.7,0.1,1.3,0.5,1.9c0.4,0.5,1,0.8,1.6,0.7c0.5,0,1-0.2,1.4-0.5c0.4-0.4,0.6-1,0.6-1.6h-2v-0.7h2.8v3.5
			H7.8l-0.2-0.8c-0.2,0.3-0.5,0.5-0.8,0.7c-0.4,0.2-0.9,0.3-1.4,0.3c-0.7,0-1.5-0.2-2-0.7c-0.6-0.7-0.9-1.6-0.9-2.6
			c0-0.9,0.3-1.9,0.9-2.6c0.5-0.6,1.3-0.9,2.1-0.9C6.1,248.4,6.6,248.5,7.1,248.8z"/>
		<path d="M12.3,252.2c0.2,0,0.3-0.1,0.4-0.2c0-0.1,0-0.2,0-0.3c0-0.2-0.1-0.5-0.3-0.6c-0.3-0.1-0.5-0.2-0.8-0.2
			c-0.3,0-0.7,0.1-0.9,0.3c-0.1,0.2-0.2,0.4-0.2,0.6H9.8c0-0.5,0.2-0.9,0.6-1.2c0.4-0.2,0.8-0.4,1.3-0.3c0.5,0,0.9,0.1,1.3,0.3
			c0.3,0.2,0.5,0.6,0.5,1v2.7c0,0.1,0,0.1,0,0.2c0.1,0.1,0.1,0.1,0.2,0.1h0.1h0.2v0.6l-0.3,0.1h-0.3c-0.2,0-0.5-0.1-0.6-0.3
			c-0.1-0.1-0.1-0.3-0.1-0.4c-0.2,0.2-0.4,0.4-0.7,0.5c-0.3,0.2-0.7,0.2-1,0.2c-0.4,0-0.8-0.1-1.1-0.4c-0.5-0.6-0.5-1.4,0-2
			c0.3-0.2,0.7-0.4,1.1-0.4L12.3,252.2z M10.6,254.3c0.2,0.1,0.4,0.2,0.6,0.2c0.3,0,0.6-0.1,0.8-0.2c0.4-0.2,0.7-0.6,0.7-1v-0.6
			c-0.1,0.1-0.2,0.1-0.4,0.1c-0.1,0-0.3,0.1-0.4,0.1l-0.5,0.1c-0.2,0-0.4,0.1-0.6,0.2c-0.2,0.1-0.4,0.4-0.4,0.7
			C10.4,254,10.5,254.2,10.6,254.3L10.6,254.3z"/>
		<path d="M14.5,254.4l2.8-3.4h-2.6v-0.7h3.7v0.6l-2.8,3.4h2.9v0.7h-3.9V254.4z"/>
		<path d="M19.1,254.4l2.8-3.4h-2.6v-0.7H23v0.6l-2.8,3.4H23v0.7h-3.9V254.4z"/>
		<path d="M27,250.4c0.3,0.1,0.5,0.3,0.7,0.6c0.2,0.3,0.3,0.5,0.3,0.8c0.1,0.3,0.1,0.7,0.1,1h-3.5c0,0.4,0.1,0.8,0.3,1.1
			c0.2,0.3,0.6,0.5,1,0.4c0.4,0,0.7-0.1,1-0.4c0.1-0.2,0.2-0.4,0.3-0.6H28c0,0.2-0.1,0.4-0.2,0.6c-0.1,0.2-0.2,0.4-0.4,0.5
			c-0.2,0.2-0.5,0.4-0.9,0.5c-0.2,0-0.4,0.1-0.6,0.1c-0.6,0-1.1-0.2-1.5-0.6c-0.4-0.5-0.7-1.1-0.6-1.8c0-0.7,0.2-1.3,0.6-1.8
			c0.4-0.5,1-0.7,1.6-0.7C26.4,250.2,26.7,250.3,27,250.4z M27.3,252.3c0-0.3-0.1-0.6-0.2-0.8c-0.2-0.4-0.6-0.6-1.1-0.6
			c-0.3,0-0.7,0.1-0.9,0.4c-0.2,0.3-0.4,0.6-0.4,1H27.3z"/>
		<path class="st5" d="M77.3,236.3c0,0-1.7-1.5-3.8,1.4c0,0-1.6,2.4,0,2.4c0.9,0.9,2.4,0.8,3.3-0.1c0.2-0.2,0.4-0.5,0.5-0.7
			C77.8,238.4,77.8,237.3,77.3,236.3z"/>
		<path class="st5" d="M79.7,292.1c1.7,0,3.3-0.4,4.7-1.3c2.2-1.5,3.5,6.2,0.6,6.3s-0.1-1-4.3-1.5C77.7,295.3,79.7,292.1,79.7,292.1
			z"/>
		<path class="st5" d="M37.7,264.4c0,0,1.2,0.6,2.2-1.6s1.7-1.2,2.2,0.8s-0.3,2.5-1.3,2.5S36,265.1,37.7,264.4z"/>
		<path class="st5" d="M64.5,255.9c0,0-0.7-1.6,1-1.6c1.7,0,2.9-0.3,3.5-1.7c0.4-1.1,2.5,0.9,1.4,3.3S64.5,255.9,64.5,255.9z"/>
		<path class="st5" d="M62.8,234.5c0,0,1.3-3,2.2-0.5s-0.8,3.6-1.1,3.7c-0.4,0.1-3.8,0.4-2.8-1.9C61.1,235.8,62.8,235.3,62.8,234.5z
			"/>
		<path class="st5" d="M82.2,222c0,0-4.2-2.3-4.5,0.8s-1.1,3.5,0.9,3.1s3.4,0,4.1-1S82.2,222,82.2,222z"/>
		<path class="st5" d="M70.1,223c0,0-0.1-2.1,1.1-2.4s1.6,1.5,1.4,3.7s-3.1,1.4-3.9,1.1S68.9,222.4,70.1,223z"/>
		<path class="st5" d="M67.3,216.3c0,0-0.7-3.4,0.6-3.4s1.5,0.4,1.5,3s0.3,3.3-1.1,3.8c0,0-2,0.5-1.7-1.7
			C67.1,217.6,67.5,216.9,67.3,216.3z"/>
		<path class="st5" d="M70.6,190.4c0,0-0.5-1.9,1.8-2.8s1.9-2.1,2.4-2.7s4.1-1.3,4.2,1.6s-1,3,0.3,4.8s-0.8,1.9-1.3,2.6
			s-0.4,2.9,0.7,3.3s0.4,2.1,0.3,2.6s0.9-0.1,1.1,0.8s-0.7,2.4,4.9,2.8c0,0,3.1-0.3,3.4,1.2s-1.1,1.9-2.9,2s-5.1-1.6-5.1,0
			s1,1.3,1.8,1.5s1.1,2.8-1.6,3.4c0,0-0.7,0.6-0.5,2.6s-1.1,2.6-3.4,2.8s-4.1,0.6-3.6-3.5s2.2-0.2,1.7-4.4s1.3-7.9-0.8-8.6
			s-3-0.6-1.3-5.7c0,0,1.8-3.6,0.6-4C72.4,190.2,71.5,190.2,70.6,190.4z"/>
		<path class="st5" d="M74.8,174.2c0,0-0.7-3.3,1.9-2.4s9,1.1,9.9-0.1s1.8-5.9-0.7-6.4s-2.1,0.8-2.2,1.7c-0.1,0.8-2.4,3.6-3.2-1.3
			c0,0-0.3-1.6-3.4-0.5l5.1-18.3l2.7-10.6c0,0,0-4.8,1.8-5.8s3.8-1.2,2.9-3.5c-0.8-2.3-2.9-2.8-1.4-4.4s2.3-0.1,2.9,0.6
			s6,1.9,5.4-4.7c0,0,0-2.3-3.1-2.9s-3.3-2-2.6-2.6s3.5-0.2,4.7-0.3s1.1-2.7-0.7-2.8s-5.4,0.8-6-0.3s-0.3-3.9,0.7-4s5.3,1.5,7.7,0
			s-0.5-1.5,3.7-1.6c0,0,6.7,0.5,7.8-0.4c0,0,0.5-1,3.3-1.4v-4c0,0-0.5-2.6,2.9-2.3v-3.7c0,0-2.9,1.6-2.7-4.4c0,0-0.4-5.1-2.9-5.6
			c0,0-0.8-2.3-2.4-0.6s-4.8,1.5-4.7-3.2s1-5.7,2.7-6s5.8-3.8,5.5-7.6s4.3-2.4,4-0.8s-0.6,3.5,0.5,4.6s3-0.1,3.2,2.8
			s-2.7-0.4-3.3,1.6s-0.8,1.8,0.2,3.3s1.7,1.1,0.4,5.5s0.9,2.9,1.8,4.4s0.8,4.3,3.6,4.4s6.2-1.5,6.2,2.7s0.9,2.8,1.5,3
			c0.6,0.3,0.9,4.2-1.7,4.2c-2.6,0-4.3-2-5.8-0.1s0.9,4-1,4.5s-1.6-2.1-1.5-4.7c0,0-2.5-1.5-2.7,0.5s-3.1,3.9-3.3,7.2
			s-1.9,4.2-2.8,0s-6,0.4-7.8,0s-2,1.8-1.9,3.8s3.7,2.5,4.4,5.3s0.3,6.3-1.9,7.6s-7.8,2.4-7.6,4.8c0.2,2.3,0.3,3,4.2,3.3
			s2,3.4,0.6,3.5c-1.4,0.1-4-1.2-4,1.9c0,3.1-0.7,5.6-4.3,3.3s-4.2-0.8-4.4,1.2c-0.3,1.9-0.1,4.1,3.3,3.3s5.3-1,5.4,2.5
			s0.7,5.8-3.1,6.3c-3.8,0.4-2.3-1.8-2.4-3.3s-2.3-0.8-2.3,0.3c0,1.2-3.5-0.3-3.1,2.8c0.4,3.1-0.7,4.9,1.1,4.9s6.7-1.6,6.3,3
			c-0.3,3.2-0.3,6.4-0.2,9.7c0,0,0.6,3.5-2.6,7.8s-5.1,1-5.1,0.4c0-0.6-0.2-2.8-3.4-2.3c-3.3,0.4-5.9-2.9-5.9-2.9L74.8,174.2z"/>
		<path class="st5" d="M173.7,16.7c0,0,0.6,5.2,0,6.3s-3.8-0.2-4.3,1.6s-1.6,0.7-1.8,1.8s0.8,4.8,3.8,1.4s3.1,0.7,6.8-5.3l0.3-5.4
			L173.7,16.7z"/>
		<path class="st5" d="M164.6,24c0,0,1.9-0.8,1.3,2.9s-2.8,1.7-2.8,1.3S164.6,24,164.6,24z"/>
		<path class="st5" d="M119.5,38.6c0,0-1.2,3.7,1.2,4.8s6.5,0.1,6.5-1.2s-0.2-2.3-3.6-2.2s-0.4-1.2-0.4-1.2L119.5,38.6z"/>
		<path class="st5" d="M174.4,43.4c0,0-2.6,0.5-3.2-1.2s-5-2.7-4.8,0s2.1,0.9,2.3,1.5s1.5,2.2-0.6,4.9s-3.3,5.9-6,3.2
			s-3.8,0.3-3.3,1.4s1.5,0.5,1.2,4.3s4,1.8,4.5-0.4s2.1,0.4,3.5-2s1.2-5.1,4-4.5s2.3-0.3,2.4-1S174.4,43.4,174.4,43.4z"/>
		<path class="st5" d="M158.7,66.9c0,0,0.6-5,3.6-1.1v6.4l-3.6,0.6V66.9z"/>
		<path class="st5" d="M119.2,53.4c0,0,1.4,0.8,2-1.4c0,0,4.5,0.9,5.1,0c0,0,1.7-3.8-3.5-2.3c0,0-3.3-1.2-3.8,1.7
			S119.2,53.4,119.2,53.4z"/>
		<path class="st5" d="M136,96.2c0,0,3.5-0.8,3.3,4.2s0.9,7.6-2.2,7.8s-6.3-4.2-6-6.3S135.5,96.2,136,96.2z"/>
		<path class="st5" d="M164.8,102.1c2.5,0,4.6-1.4,4.3-7.8s-2.4-8.9-4.3-8.9s-5.3-0.8-6.6,0.4s-5.6-0.6-6.2,1.7s-4.2,1.6-3.7-0.3
			s-1.1-5.9-3.7-4.8c0,0-0.8,8.3,0,8.8s3.3-0.8,3.7,1.7s-1.8,2.5-2.6,2.7s-0.3,4.7-0.3,5.6s-1-0.2-1.1,2.4s1.1,2.8,2.4,2.7
			s2.5,2.2,2.5,3.7s-1.4,1-2.2,0.8l-0.8-0.2l0,0c0,0-1.8-1.4-2-0.5s-1.7-1.8-3,0c-0.8,1-0.7,2.4,0.2,3.3c0.5,0.4,1.1,0.6,1.8,0.6
			c2.1-0.1,6,2.7,7,4.6s1,3.3,4.6,2.4c0,0-0.1-3.7,1.6-2.8c1.2,0.6,2.1,1.7,2.5,3c0.5,1.1,2.3,2.1,5.1,1.6s0.5-6.3,0.5-6.3
			s-8.3-2.2-12.6-8.4c0,0,0.5-5.4-0.3-6s-3.8,1-3.4-2.4s2.9-1.3,4.1-1.4c1.7-0.1,2.9-1.6,2.8-3.3c0-0.3-0.1-0.6-0.2-0.9
			c0,0-2.1-0.6-0.7-1.7c0.4-0.9,1.5-1.4,2.5-1.1c2,0.3,3.9-1.1,4.5,3.5S161.6,102.1,164.8,102.1z"/>
		<path class="st5" d="M158,78.7c0,0,1.4-5.3,4.3-1.1v4.6H158V78.7z"/>
		<path class="st5" d="M156.2,127.9c0,0-1.3-1.8,3.8-1.8c0.3-0.7,1-1.2,1.8-1.1c1.5,0,3.4,2.3,1.7,5.7c0,0-3.4,0.8-3.4-0.8
			C160.2,128.1,155.5,131,156.2,127.9z"/>
		<path d="M70.6,69.7h0.9v2.7h3.3v-2.7h0.9v6.5h-0.9v-3h-3.3v3h-0.9V69.7z"/>
		<path d="M79.5,73.3c0.2,0,0.3-0.1,0.4-0.2c0-0.1,0.1-0.2,0.1-0.3c0-0.2-0.1-0.5-0.3-0.6c-0.3-0.1-0.5-0.2-0.8-0.2
			c-0.3,0-0.7,0.1-0.9,0.3c-0.1,0.2-0.2,0.4-0.2,0.6H77c0-0.5,0.2-0.9,0.6-1.2c0.4-0.2,0.8-0.4,1.3-0.4c0.5,0,0.9,0.1,1.4,0.3
			c0.3,0.2,0.5,0.6,0.5,1v2.7c0,0.1,0,0.1,0.1,0.2c0.1,0.1,0.1,0.1,0.2,0.1h0.1h0.1v0.6L81,76.3h-0.3c-0.2,0-0.5-0.1-0.6-0.3
			C80,75.9,80,75.7,80,75.6c-0.2,0.2-0.4,0.4-0.7,0.6c-0.3,0.2-0.7,0.2-1,0.2c-0.4,0-0.8-0.1-1.1-0.4c-0.3-0.3-0.4-0.6-0.4-1
			c0-0.4,0.1-0.7,0.4-1c0.3-0.3,0.7-0.4,1.1-0.4L79.5,73.3z M77.9,75.4c0.2,0.1,0.4,0.2,0.6,0.2c0.3,0,0.6-0.1,0.8-0.2
			c0.4-0.2,0.7-0.6,0.7-1.1v-0.6c-0.1,0.1-0.2,0.1-0.4,0.2L79.1,74l-0.5,0.1c-0.2,0-0.4,0.1-0.6,0.2c-0.2,0.1-0.4,0.4-0.4,0.7
			C77.6,75.1,77.7,75.3,77.9,75.4z"/>
		<path d="M85,71.4h0.9l-0.8,2.1c-0.3,0.8-0.5,1.5-0.7,2c-0.3,0.8-0.6,1.5-1,2.2c-0.2,0.3-0.6,0.4-1,0.4h-0.3L82,78v-0.7l0.3,0.1
			h0.2c0.1,0,0.2,0,0.3-0.1c0.1,0,0.1-0.1,0.2-0.2l0.2-0.4c0.1-0.2,0.1-0.4,0.2-0.5l-1.6-4.9h0.9l1.3,3.8L85,71.4z"/>
		<path d="M87.1,70c0.3-0.3,0.7-0.5,1.1-0.4h0.1h0.2v0.7h-0.3c-0.3,0-0.4,0.1-0.4,0.2c-0.1,0.3-0.1,0.7-0.1,1h0.8v0.6h-0.8v4.1h-0.8
			v-4.1h-0.7v-0.6h0.7v-0.7C86.9,70.5,86.9,70.3,87.1,70z"/>
		<path d="M91.8,73.3c0.2,0,0.3-0.1,0.4-0.2c0-0.1,0.1-0.2,0.1-0.3c0-0.2-0.1-0.5-0.3-0.6c-0.2-0.1-0.5-0.2-0.8-0.2
			c-0.3,0-0.7,0.1-0.9,0.3c-0.1,0.2-0.2,0.4-0.2,0.6h-0.7c0-0.5,0.2-0.9,0.6-1.2c0.4-0.2,0.8-0.4,1.3-0.4c0.5,0,0.9,0.1,1.4,0.3
			c0.3,0.2,0.5,0.6,0.5,1v2.7c0,0.1,0,0.1,0.1,0.2c0.1,0.1,0.1,0.1,0.2,0.1h0.1h0.1v0.6l-0.3,0.1H93c-0.2,0-0.5-0.1-0.6-0.3
			c-0.1-0.1-0.1-0.3-0.1-0.4c-0.2,0.2-0.4,0.4-0.7,0.6c-0.3,0.2-0.7,0.2-1,0.2c-0.4,0-0.8-0.1-1.1-0.4c-0.3-0.3-0.4-0.6-0.4-1
			c0-0.4,0.1-0.7,0.4-1c0.3-0.3,0.7-0.4,1.1-0.4L91.8,73.3z M90.2,75.4c0.2,0.1,0.4,0.2,0.6,0.2c0.3,0,0.6-0.1,0.8-0.2
			c0.4-0.2,0.7-0.6,0.7-1.1v-0.6c-0.1,0.1-0.2,0.1-0.4,0.2L91.4,74l-0.5,0.1c-0.2,0-0.4,0.1-0.6,0.2c-0.2,0.1-0.4,0.4-0.4,0.7
			C89.9,75.1,90,75.3,90.2,75.4z"/>
		<path class="st6" d="M80.3,197.8h2.9c0.4,0,0.8,0.1,1.2,0.2c0.6,0.3,0.9,0.9,0.9,1.5c0,0.3-0.1,0.7-0.2,0.9
			c-0.2,0.3-0.4,0.5-0.7,0.6c0.2,0.1,0.4,0.2,0.6,0.4c0.2,0.2,0.2,0.5,0.2,0.8v0.9c0,0.2,0,0.4,0.1,0.5c0,0.2,0.1,0.3,0.3,0.4v0.1
			h-1.1c0-0.1-0.1-0.1-0.1-0.2c0-0.2,0-0.3,0-0.5l-0.1-1.1c0-0.3-0.2-0.7-0.5-0.9c-0.2-0.1-0.5-0.1-0.8-0.1h-1.9v2.8h-0.9
			L80.3,197.8z M83.2,200.8c0.4,0,0.7-0.1,1-0.2c0.3-0.2,0.4-0.6,0.4-0.9c0-0.4-0.2-0.7-0.5-0.9c-0.2-0.1-0.5-0.1-0.7-0.1h-2.1v2.2
			H83.2z"/>
		<path class="st6" d="M89.2,201.4c0.2,0,0.3-0.1,0.4-0.2c0-0.1,0.1-0.2,0.1-0.3c0-0.2-0.1-0.5-0.3-0.6c-0.3-0.1-0.5-0.2-0.8-0.2
			c-0.3,0-0.7,0.1-0.9,0.3c-0.1,0.2-0.2,0.4-0.2,0.6h-0.7c0-0.5,0.2-0.9,0.6-1.2c0.4-0.2,0.8-0.4,1.3-0.3c0.5,0,0.9,0.1,1.3,0.3
			c0.4,0.2,0.6,0.6,0.5,1v2.7c0,0.1,0,0.1,0.1,0.2c0,0,0.1,0.1,0.2,0.1h0.1h0.1v0.6c-0.1,0-0.2,0.1-0.3,0.1h-0.3
			c-0.2,0-0.5-0.1-0.6-0.3c-0.1-0.1-0.1-0.3-0.1-0.4c-0.2,0.2-0.4,0.4-0.7,0.5c-0.3,0.2-0.7,0.2-1,0.2c-0.4,0-0.8-0.1-1.1-0.4
			c-0.3-0.3-0.4-0.6-0.4-1c0-0.4,0.1-0.7,0.4-1c0.3-0.2,0.7-0.4,1.1-0.4L89.2,201.4z M87.6,203.6c0.2,0.1,0.4,0.2,0.6,0.2
			c0.3,0,0.6-0.1,0.8-0.2c0.4-0.2,0.7-0.6,0.7-1v-0.6c-0.1,0.1-0.2,0.1-0.4,0.1l-0.4,0.1l-0.5,0.1c-0.2,0-0.4,0.1-0.6,0.2
			c-0.2,0.1-0.4,0.4-0.4,0.7C87.3,203.3,87.4,203.5,87.6,203.6L87.6,203.6z"/>
		<path class="st6" d="M91.8,199.6h0.8v0.7c0.1-0.2,0.3-0.4,0.5-0.5c0.3-0.2,0.6-0.3,0.9-0.3c0.3,0,0.6,0.1,0.9,0.3
			c0.1,0.1,0.3,0.3,0.4,0.5c0.2-0.2,0.4-0.4,0.6-0.6c0.2-0.1,0.5-0.2,0.8-0.2c0.5-0.1,1,0.2,1.3,0.7c0.1,0.3,0.2,0.7,0.2,1v3.1h-0.8
			V201c0-0.2-0.1-0.4-0.3-0.6c-0.2-0.1-0.4-0.2-0.6-0.2c-0.3,0-0.6,0.1-0.8,0.3c-0.2,0.3-0.4,0.6-0.3,1v2.7h-0.8v-3.1
			c0-0.2,0-0.5-0.1-0.7c-0.1-0.2-0.4-0.4-0.7-0.3c-0.3,0-0.6,0.1-0.8,0.4c-0.3,0.4-0.4,0.8-0.4,1.3v2.5h-0.8L91.8,199.6z"/>
		<path class="st6" d="M101.9,201.4c0.2,0,0.3-0.1,0.4-0.2c0-0.1,0-0.2,0-0.3c0-0.2-0.1-0.5-0.3-0.6c-0.3-0.1-0.5-0.2-0.8-0.2
			c-0.3,0-0.7,0.1-0.9,0.3c-0.1,0.2-0.2,0.4-0.2,0.6h-0.7c0-0.5,0.2-0.9,0.6-1.2c0.4-0.2,0.8-0.4,1.3-0.3c0.5,0,0.9,0.1,1.4,0.3
			c0.3,0.2,0.5,0.6,0.5,1v2.7c0,0.1,0,0.1,0.1,0.2c0,0,0.1,0.1,0.2,0.1h0.1h0.1v0.6c-0.1,0-0.2,0.1-0.3,0.1H103
			c-0.2,0-0.5-0.1-0.6-0.3c-0.1-0.1-0.1-0.3-0.1-0.4c-0.2,0.2-0.4,0.4-0.7,0.5c-0.3,0.2-0.7,0.2-1,0.2c-0.4,0-0.8-0.1-1.1-0.4
			c-0.5-0.6-0.5-1.4,0-2c0.3-0.2,0.7-0.4,1.1-0.4L101.9,201.4z M100.2,203.6c0.2,0.1,0.4,0.2,0.6,0.2c0.3,0,0.6-0.1,0.8-0.2
			c0.4-0.2,0.7-0.6,0.7-1v-0.6c-0.1,0.1-0.2,0.1-0.4,0.1l-0.4,0.1l-0.5,0.1c-0.2,0-0.4,0.1-0.6,0.2c-0.2,0.1-0.4,0.4-0.4,0.7
			C100,203.3,100.1,203.5,100.2,203.6L100.2,203.6z"/>
		<path class="st6" d="M104.5,197.8h0.8v6.5h-0.8V197.8z"/>
		<path class="st6" d="M106.6,197.8h0.8v6.5h-0.8V197.8z"/>
		<path class="st6" d="M111.2,201.4c0.2,0,0.3-0.1,0.4-0.2c0-0.1,0.1-0.2,0.1-0.3c0-0.2-0.1-0.5-0.3-0.6c-0.3-0.1-0.5-0.2-0.8-0.2
			c-0.3,0-0.7,0.1-0.9,0.3c-0.1,0.2-0.2,0.4-0.2,0.6h-0.7c0-0.5,0.2-0.9,0.6-1.2c0.4-0.2,0.8-0.3,1.3-0.3c0.5,0,0.9,0.1,1.4,0.3
			c0.3,0.2,0.5,0.6,0.5,1v2.7c0,0.1,0,0.1,0.1,0.2c0,0,0.1,0.1,0.2,0.1h0.1h0.1v0.6l-0.3,0.1h-0.3c-0.2,0-0.5-0.1-0.6-0.3
			c-0.1-0.1-0.1-0.3-0.1-0.4c-0.2,0.2-0.4,0.4-0.7,0.5c-0.3,0.2-0.7,0.2-1,0.2c-0.4,0-0.8-0.1-1.1-0.4c-0.5-0.6-0.5-1.4,0-2
			c0.3-0.3,0.7-0.4,1.1-0.4L111.2,201.4z M109.5,203.6c0.2,0.1,0.4,0.2,0.6,0.2c0.3,0,0.6-0.1,0.8-0.2c0.4-0.2,0.7-0.6,0.7-1v-0.6
			c-0.1,0.1-0.2,0.1-0.4,0.1c-0.1,0-0.3,0.1-0.4,0.1l-0.5,0.1c-0.2,0-0.4,0.1-0.6,0.2c-0.2,0.1-0.4,0.4-0.4,0.7
			C109.3,203.3,109.4,203.5,109.5,203.6L109.5,203.6z"/>
		<path class="st6" d="M113.7,197.8h0.8v2.4c0.1-0.2,0.3-0.4,0.5-0.5c0.3-0.2,0.6-0.3,1-0.3c0.6-0.1,1.1,0.2,1.4,0.7
			c0.1,0.3,0.2,0.7,0.2,1.1v3h-0.8v-3c0-0.3,0-0.5-0.1-0.8c-0.2-0.3-0.5-0.4-0.8-0.4c-0.3,0-0.6,0.1-0.9,0.3
			c-0.3,0.3-0.5,0.8-0.4,1.3v2.5h-0.8L113.7,197.8z"/>
		<path class="st6" d="M90.9,218.8h0.9v3.2l3.2-3.2h1.2l-2.8,2.6l2.8,3.9h-1.1l-2.3-3.2l-1.1,1v2.3h-0.9L90.9,218.8z"/>
		<path class="st6" d="M97.7,220.6v3.1c0,0.2,0,0.4,0.1,0.6c0.1,0.3,0.4,0.5,0.8,0.4c0.5,0,0.9-0.3,1.1-0.7c0.1-0.3,0.2-0.7,0.2-1.1
			v-2.3h0.8v4.7h-0.8v-0.7c-0.1,0.2-0.2,0.3-0.4,0.5c-0.3,0.3-0.7,0.4-1.1,0.4c-0.5,0.1-1.1-0.2-1.4-0.7c-0.1-0.3-0.2-0.7-0.2-1
			v-3.2L97.7,220.6z"/>
		<path class="st6" d="M104.5,220.7c0.2,0.1,0.3,0.3,0.5,0.5v-2.4h0.8v6.5H105v-0.6c-0.2,0.3-0.4,0.5-0.6,0.6
			c-0.3,0.1-0.6,0.2-0.9,0.2c-0.5,0-1-0.2-1.4-0.7c-0.4-0.5-0.6-1.1-0.6-1.8c0-0.6,0.2-1.3,0.5-1.8c0.3-0.5,0.9-0.8,1.5-0.8
			C103.9,220.5,104.3,220.6,104.5,220.7z M102.8,224.3c0.2,0.3,0.6,0.5,1,0.5c0.4,0,0.7-0.2,0.9-0.5c0.3-0.4,0.4-0.9,0.4-1.4
			c0-0.5-0.1-0.9-0.4-1.3c-0.2-0.3-0.5-0.4-0.9-0.4c-0.4,0-0.8,0.1-1,0.5c-0.3,0.4-0.4,0.9-0.4,1.3
			C102.4,223.4,102.5,223.9,102.8,224.3z"/>
		<path class="st6" d="M107.8,220.6v3.1c0,0.2,0,0.4,0.1,0.6c0.1,0.3,0.4,0.5,0.8,0.4c0.5,0,0.9-0.3,1.1-0.7
			c0.1-0.3,0.2-0.7,0.2-1.1v-2.3h0.8v4.7H110v-0.7c-0.1,0.2-0.2,0.3-0.4,0.5c-0.3,0.2-0.7,0.4-1.1,0.4c-0.5,0.1-1.1-0.2-1.4-0.7
			c-0.1-0.3-0.2-0.7-0.2-1v-3.2L107.8,220.6z M107.8,218.9h0.8v0.9h-0.8V218.9z M109.3,218.9h0.8v0.9h-0.8V218.9z"/>
		<path class="st6" d="M112.6,223.8c0,0.2,0.1,0.4,0.2,0.6c0.3,0.3,0.7,0.4,1.1,0.4c0.3,0,0.5-0.1,0.8-0.2c0.2-0.1,0.4-0.3,0.3-0.6
			c0-0.2-0.1-0.4-0.3-0.5c-0.2-0.1-0.5-0.2-0.7-0.2l-0.6-0.2c-0.3-0.1-0.6-0.2-0.9-0.3c-0.3-0.2-0.5-0.5-0.5-0.9
			c0-0.4,0.2-0.8,0.5-1.1c0.4-0.3,0.8-0.4,1.3-0.4c0.6-0.1,1.2,0.2,1.6,0.6c0.2,0.2,0.3,0.5,0.3,0.9h-0.8c0-0.2-0.1-0.3-0.2-0.5
			c-0.3-0.2-0.6-0.4-1-0.3c-0.2,0-0.5,0-0.7,0.2c-0.2,0.2-0.3,0.5-0.1,0.8c0.1,0.1,0.1,0.1,0.2,0.2c0.2,0.1,0.3,0.2,0.5,0.2l0.5,0.1
			c0.4,0.1,0.8,0.2,1.2,0.4c0.3,0.2,0.5,0.6,0.5,1c0,0.4-0.2,0.8-0.5,1.1c-0.4,0.3-0.9,0.5-1.5,0.5c-0.5,0.1-1.1-0.1-1.5-0.5
			c-0.3-0.3-0.5-0.7-0.5-1.2L112.6,223.8z"/>
		<path class="st6" d="M67.2,233.9H70c0.6-0.1,1.2,0.2,1.6,0.7c0.2,0.3,0.3,0.6,0.3,0.9c0,0.4-0.1,0.7-0.4,1
			c-0.1,0.2-0.3,0.3-0.5,0.4c0.3,0.1,0.5,0.2,0.8,0.4c0.3,0.3,0.5,0.7,0.4,1.2c0,0.4-0.1,0.8-0.4,1.1c-0.5,0.5-1.2,0.8-1.9,0.8h-2.8
			L67.2,233.9z M69.6,236.6c0.3,0,0.6,0,0.9-0.1c0.3-0.2,0.5-0.5,0.5-0.9c0-0.4-0.2-0.7-0.5-0.9c-0.3-0.1-0.6-0.1-0.9-0.1H68v2H69.6
			z M69.9,239.6c0.4,0,0.9-0.1,1.2-0.5c0.1-0.2,0.2-0.5,0.2-0.7c0.1-0.4-0.2-0.9-0.6-1c-0.3-0.1-0.6-0.1-0.9-0.1H68v2.3L69.9,239.6z
			"/>
		<path class="st6" d="M76.1,235.8c0.3,0.1,0.5,0.3,0.7,0.6c0.2,0.3,0.3,0.5,0.3,0.8c0.1,0.3,0.1,0.7,0.1,1h-3.4
			c0,0.4,0.1,0.8,0.3,1.1c0.2,0.3,0.6,0.5,1,0.4c0.4,0,0.7-0.1,1-0.4c0.1-0.2,0.2-0.4,0.3-0.6h0.8c0,0.2-0.1,0.4-0.2,0.6
			c-0.1,0.2-0.2,0.4-0.4,0.5c-0.2,0.2-0.6,0.4-0.9,0.5c-0.2,0-0.4,0.1-0.6,0.1c-0.6,0-1.1-0.2-1.5-0.6c-0.4-0.5-0.6-1.1-0.6-1.8
			c0-0.7,0.2-1.3,0.6-1.8c0.4-0.5,1-0.7,1.6-0.7C75.5,235.5,75.8,235.6,76.1,235.8z M76.4,237.6c0-0.3-0.1-0.6-0.2-0.8
			c-0.2-0.4-0.6-0.6-1.1-0.6c-0.3,0-0.7,0.1-0.9,0.4c-0.3,0.3-0.4,0.6-0.4,1H76.4z"/>
		<path class="st6" d="M81.2,235.6h0.9c-0.1,0.3-0.4,1-0.7,2.1c-0.3,0.8-0.5,1.5-0.7,2c-0.3,0.8-0.6,1.5-1,2.2
			c-0.2,0.3-0.6,0.5-1,0.4h-0.3l-0.2,0v-0.7l0.3,0.1h0.2c0.1,0,0.2,0,0.3-0.1c0.1,0,0.1-0.1,0.2-0.2l0.1-0.4l0.2-0.5l-1.7-4.9h0.9
			l1.3,3.8L81.2,235.6z"/>
		<path class="st6" d="M83,234.3h0.8v1.3h0.8v0.6h-0.8v3.1c0,0.1,0.1,0.3,0.2,0.3c0.1,0,0.2,0.1,0.3,0h0.1h0.2v0.6
			c-0.1,0-0.2,0-0.3,0.1H84c-0.3,0-0.6-0.1-0.8-0.3c-0.1-0.2-0.2-0.5-0.2-0.7v-3.1h-0.6v-0.6H83V234.3z"/>
		<path class="st6" d="M86.2,235.6v3.1c0,0.2,0,0.4,0.1,0.6c0.1,0.3,0.4,0.4,0.8,0.4c0.5,0,0.9-0.3,1.1-0.7c0.1-0.3,0.2-0.7,0.2-1.1
			v-2.3h0.8v4.7h-0.8v-0.7c-0.1,0.2-0.2,0.3-0.4,0.5c-0.3,0.2-0.7,0.4-1.1,0.4c-0.5,0.1-1.1-0.2-1.4-0.7c-0.1-0.3-0.2-0.7-0.2-1
			v-3.2L86.2,235.6z"/>
		<path class="st6" d="M90.6,233.9h0.8v6.5h-0.8V233.9z"/>
		<path class="st6" d="M92.7,233.9h0.8v6.5h-0.8V233.9z"/>
		<path class="st6" d="M97.2,237.5c0.2,0,0.3-0.1,0.4-0.2c0-0.1,0-0.2,0-0.3c0-0.2-0.1-0.5-0.3-0.6c-0.3-0.1-0.5-0.2-0.8-0.2
			c-0.3,0-0.7,0.1-0.9,0.3c-0.1,0.2-0.2,0.4-0.2,0.5h-0.7c0-0.5,0.2-0.9,0.6-1.2c0.4-0.2,0.8-0.4,1.3-0.3c0.5,0,0.9,0.1,1.4,0.3
			c0.3,0.2,0.5,0.6,0.5,1v2.7c0,0.1,0,0.1,0.1,0.2c0,0,0.1,0.1,0.2,0.1h0.1h0.1v0.6c-0.1,0-0.2,0.1-0.3,0.1h-0.3
			c-0.2,0-0.5-0.1-0.6-0.3c-0.1-0.1-0.1-0.3-0.1-0.4c-0.2,0.2-0.4,0.4-0.7,0.5c-0.3,0.2-0.7,0.2-1,0.2c-0.4,0-0.8-0.1-1.1-0.4
			c-0.5-0.6-0.5-1.4,0-2c0.3-0.2,0.7-0.4,1.1-0.4L97.2,237.5z M95.6,239.6c0.2,0.1,0.4,0.2,0.6,0.2c0.3,0,0.6-0.1,0.8-0.2
			c0.4-0.2,0.7-0.6,0.7-1V238c-0.1,0.1-0.2,0.1-0.4,0.1l-0.4,0.1l-0.5,0.1c-0.2,0-0.4,0.1-0.6,0.2c-0.2,0.1-0.4,0.4-0.4,0.7
			C95.3,239.3,95.4,239.5,95.6,239.6z"/>
		<path class="st6" d="M99.8,233.9h0.8v2.4c0.1-0.2,0.3-0.4,0.5-0.5c0.3-0.2,0.6-0.3,1-0.3c0.6-0.1,1.1,0.2,1.4,0.7
			c0.1,0.3,0.2,0.7,0.2,1.1v3h-0.8v-3c0-0.3,0-0.5-0.1-0.8c-0.2-0.3-0.5-0.4-0.8-0.4c-0.3,0-0.6,0.1-0.9,0.3
			c-0.3,0.3-0.5,0.8-0.4,1.3v2.5h-0.8L99.8,233.9z"/>
		<path class="st6" d="M104.9,233.9h0.8v0.9h-0.8V233.9z M104.9,235.7h0.8v4.7h-0.8V235.7z"/>
		<path class="st6" d="M107,235.6h0.8v0.7c0.1-0.2,0.3-0.4,0.5-0.5c0.3-0.2,0.6-0.3,0.9-0.3c0.3,0,0.6,0.1,0.9,0.3
			c0.1,0.1,0.3,0.3,0.4,0.5c0.2-0.2,0.4-0.4,0.6-0.6c0.2-0.1,0.5-0.2,0.8-0.2c0.5-0.1,1,0.2,1.3,0.7c0.1,0.3,0.2,0.7,0.2,1v3.1h-0.8
			v-3.3c0-0.2-0.1-0.5-0.2-0.6c-0.2-0.1-0.4-0.2-0.6-0.2c-0.3,0-0.6,0.1-0.8,0.3c-0.2,0.3-0.4,0.6-0.3,1v2.7h-0.8v-3.1
			c0-0.2,0-0.5-0.1-0.7c-0.1-0.2-0.4-0.4-0.7-0.3c-0.3,0-0.6,0.1-0.8,0.4c-0.3,0.3-0.4,0.8-0.4,1.3v2.5H107V235.6z"/>
		<circle class="st6" cx="32.9" cy="262.1" r="4.3"/>
		<circle class="st6" cx="125.4" cy="203.3" r="4.3"/>
		<circle class="st6" cx="125.4" cy="223.6" r="4.3"/>
		<circle class="st6" cx="122.1" cy="237.8" r="4.3"/>
		<path class="st6" d="M82,179.5c0,2.4-1.9,4.3-4.3,4.3s-4.3-1.9-4.3-4.3c0-2.4,1.9-4.3,4.3-4.3c0,0,0,0,0,0
			C80.1,175.1,82,177.1,82,179.5z"/>
		<circle class="st6" cx="100" cy="77.2" r="4.3"/>
		<path class="st3" d="M42.4,24.1H-0.4v-24h42.8V24.1z M0.4,23.3h41.3V0.8H0.3L0.4,23.3z"/>
		<rect x="78.3" y="532" class="st0" width="1.4" height="35.1"/>
		<rect x="68.8" y="530.6" class="st0" width="20.3" height="1.4"/>
		<path d="M72,527.5l-2.1-3.2v3.2h-0.5v-4h0.6l2.2,3.3v-3.3h0.5v4H72z"/>
		<path d="M76.4,523.5h0.5v2.6c-0.1,0.9-0.8,1.5-1.7,1.4c-0.8-0.1-1.4-0.7-1.4-1.4v-2.6h0.5v2.6c0,0.6,0.4,1,0.9,1.1
			c0,0,0.1,0,0.1,0c0.6,0,1-0.4,1.1-0.9c0,0,0-0.1,0-0.1V523.5z M74.5,523.2v-0.6H75v0.6H74.5z M75.6,523.2v-0.6h0.5v0.6H75.6z"/>
		<path d="M78.1,527.5v-4h2.3v0.4h-1.8v1.4h1.6v0.4h-1.6v1.8L78.1,527.5z"/>
		<path d="M84,523.5h0.5v2.6c-0.1,0.9-0.8,1.5-1.7,1.4c-0.8-0.1-1.4-0.7-1.4-1.4v-2.6h0.5v2.6c0,0.6,0.5,1.1,1.1,1.1
			c0.6,0,1.1-0.5,1.1-1.1c0,0,0,0,0,0V523.5z"/>
		<path d="M87.9,524.6c0-0.7-0.6-0.8-1-0.8S86,524,86,524.5c0,1.1,2.4,0.4,2.4,2c0,0.7-0.5,1.1-1.5,1.1c-0.7,0.1-1.4-0.4-1.5-1.2
			c0,0,0,0,0-0.1h0.5c0,0.6,0.5,0.8,1.1,0.8s1-0.2,1-0.7c0-1.1-2.4-0.4-2.4-2c0-0.8,0.7-1.1,1.4-1.1c0.7-0.1,1.3,0.4,1.4,1.1
			c0,0,0,0,0,0.1L87.9,524.6z"/>
		<rect x="78.3" y="593.1" class="st0" width="1.4" height="33.2"/>
		<rect x="67.1" y="591.7" class="st0" width="24.3" height="1.4"/>
		<path d="M68.2,589.4v-3.6h-1.3v-0.4H70v0.4h-1.3v3.6H68.2z"/>
		<path d="M70.4,587.4c0.1-1,1-1.8,2.1-1.7c1,0.1,1.8,1,1.7,2.1c-0.1,1-0.9,1.7-1.9,1.7c-1,0-1.8-0.8-1.9-1.8
			C70.4,587.6,70.4,587.5,70.4,587.4z M73.6,587.4c0-1-0.5-1.6-1.4-1.6s-1.4,0.6-1.4,1.6s0.5,1.6,1.4,1.6S73.6,588.4,73.6,587.4z"/>
		<path d="M75.2,589.4v-4h1.4c0.9,0,1.4,0.4,1.4,1.2c0,0.7-0.5,1.2-1.2,1.3c-0.1,0-0.1,0-0.2,0h-0.9v1.5H75.2z M76.6,587.5
			c0.4,0.1,0.9-0.2,0.9-0.7c0-0.1,0-0.1,0-0.2c0-0.6-0.4-0.8-1-0.8h-0.8v1.6L76.6,587.5z"/>
		<path d="M81.4,589.4l-0.9-1.7h-0.9v1.7H79v-4h1.4c0.9,0,1.4,0.4,1.4,1.1c0,0.5-0.3,1-0.8,1.1l0.9,1.8H81.4z M80.4,587.4
			c0.5,0,0.9-0.3,0.9-0.8s-0.3-0.7-0.9-0.7h-0.8v1.5L80.4,587.4z"/>
		<path d="M85.7,589.4l-0.4-1.1h-1.8l-0.4,1.1h-0.5l1.6-4h0.6l1.6,4H85.7z M84.4,585.9l-0.8,2h1.5L84.4,585.9z"/>
		<path d="M89.6,589.4l-1.5-1.9l-0.4,0.4v1.4h-0.5v-4h0.5v1.9l1.8-1.9h0.6l-1.6,1.8l1.8,2.2H89.6z"/>
		<rect x="63.1" y="540" class="st5" width="15.2" height="15.2"/>
		<polygon class="st4" points="133.7,540 121.2,540 107.1,540 103.6,540 79.7,540 79.7,555.2 103.6,555.2 107.1,555.2 121.2,555.2 
			133.7,555.2 143.7,555.2 143.7,540 		"/>
		<rect x="69.7" y="600" class="st5" width="8.6" height="15.2"/>
		<rect x="79.7" y="600" class="st4" width="92.1" height="15.2"/>
		<path d="M85.8,563.2v-3.5l-1.1,0.5v-0.5l1.1-0.5h0.5v4H85.8z"/>
		<path d="M87.9,563.2v-0.8h0.5v0.8L87.9,563.2z"/>
		<path d="M90.2,561.3v-0.4h0.4c0.6,0,1-0.2,1-0.8s-0.3-0.6-0.8-0.6c-0.4-0.1-0.8,0.2-0.9,0.6c0,0.1,0,0.1,0,0.2h-0.5
			c0-0.7,0.6-1.2,1.2-1.2c0,0,0.1,0,0.1,0c0.8,0,1.3,0.4,1.3,1c0,0.5-0.3,0.9-0.8,0.9c0.5,0.1,0.9,0.5,0.9,1c0,0.7-0.6,1.2-1.4,1.2
			c-0.6,0-1.4-0.3-1.4-1.2h0.5c0,0.6,0.4,0.8,0.9,0.8s0.9-0.3,0.9-0.8s-0.5-0.8-1.1-0.8L90.2,561.3z"/>
		<path d="M93.1,561.2c0-1.3,0.6-2.1,1.6-2.1s1.6,0.8,1.6,2.1s-0.6,2.1-1.6,2.1S93.1,562.5,93.1,561.2z M95.9,561.2
			c0-1-0.4-1.6-1.1-1.6s-1.1,0.6-1.1,1.6s0.4,1.6,1.1,1.6S95.9,562.2,95.9,561.2z"/>
		<path d="M97.3,561.2c0-1.3,0.6-2.1,1.6-2.1s1.6,0.8,1.6,2.1s-0.6,2.1-1.6,2.1S97.3,562.5,97.3,561.2z M100.1,561.2
			c0-1-0.4-1.6-1.1-1.6s-1.1,0.6-1.1,1.6s0.4,1.6,1.1,1.6S100.1,562.2,100.1,561.2z"/>
		<path d="M101.5,563.2v-0.8h0.5v0.8L101.5,563.2z"/>
		<path d="M102.8,561.2c0-1.3,0.6-2.1,1.6-2.1s1.6,0.8,1.6,2.1s-0.6,2.1-1.6,2.1S102.8,562.5,102.8,561.2z M105.6,561.2
			c0-1-0.4-1.6-1.1-1.6s-1.1,0.6-1.1,1.6s0.4,1.6,1.1,1.6S105.6,562.2,105.6,561.2z"/>
		<path d="M107,561.2c0-1.3,0.6-2.1,1.6-2.1s1.6,0.8,1.6,2.1s-0.6,2.1-1.6,2.1S107,562.5,107,561.2z M109.8,561.2
			c0-1-0.4-1.6-1.1-1.6s-1.1,0.6-1.1,1.6s0.4,1.6,1.1,1.6S109.8,562.2,109.8,561.2L109.8,561.2z"/>
		<path d="M111.3,561.2c0-1.3,0.6-2.1,1.6-2.1s1.6,0.8,1.6,2.1s-0.6,2.1-1.6,2.1S111.3,562.5,111.3,561.2z M114.1,561.2
			c0-1-0.4-1.6-1.1-1.6s-1.1,0.6-1.1,1.6s0.4,1.6,1.1,1.6S114,562.2,114.1,561.2L114.1,561.2z"/>
		<path d="M50.2,563.2v-0.9h-2v-0.4l1.8-2.7h0.7v2.7h0.6v0.4h-0.6v0.9L50.2,563.2z M50.2,559.6l-1.6,2.3h1.6V559.6z"/>
		<path d="M52.1,561.2c0-1.3,0.6-2.1,1.7-2.1s1.6,0.8,1.6,2.1s-0.6,2.1-1.6,2.1S52.1,562.5,52.1,561.2z M54.9,561.2
			c0-1-0.4-1.6-1.1-1.6s-1.1,0.6-1.1,1.6s0.4,1.6,1.1,1.6S54.9,562.2,54.9,561.2z"/>
		<path d="M56.4,561.2c0-1.3,0.6-2.1,1.7-2.1s1.6,0.8,1.6,2.1s-0.6,2.1-1.6,2.1S56.4,562.5,56.4,561.2z M59.2,561.2
			c0-1-0.4-1.6-1.1-1.6s-1.1,0.6-1.1,1.6s0.4,1.6,1.1,1.6S59.2,562.2,59.2,561.2z"/>
		<path d="M60.5,563.2v-0.8H61v0.8L60.5,563.2z"/>
		<path d="M61.9,561.2c0-1.3,0.6-2.1,1.7-2.1c1,0,1.6,0.8,1.6,2.1s-0.6,2.1-1.6,2.1C62.6,563.3,61.9,562.5,61.9,561.2z M64.7,561.2
			c0-1-0.4-1.6-1.1-1.6c-0.7,0-1.1,0.6-1.1,1.6s0.4,1.6,1.1,1.6C64.3,562.9,64.7,562.2,64.7,561.2z"/>
		<path d="M66.1,561.2c0-1.3,0.6-2.1,1.6-2.1s1.6,0.8,1.6,2.1s-0.6,2.1-1.6,2.1S66.1,562.5,66.1,561.2z M68.9,561.2
			c0-1-0.4-1.6-1.1-1.6s-1.1,0.6-1.1,1.6s0.4,1.6,1.1,1.6S68.9,562.2,68.9,561.2z"/>
		<path d="M70.4,561.2c0-1.3,0.6-2.1,1.6-2.1s1.6,0.8,1.6,2.1s-0.6,2.1-1.6,2.1S70.4,562.5,70.4,561.2z M73.1,561.2
			c0-1-0.4-1.6-1.1-1.6s-1.1,0.6-1.1,1.6s0.4,1.6,1.1,1.6S73.1,562.2,73.1,561.2z"/>
		<path d="M66.4,620.1c0-0.5,0.4-0.9,0.9-0.9c0.5,0,0.9,0.4,0.9,0.9s-0.4,0.9-0.9,0.9C66.8,621,66.4,620.6,66.4,620.1z M67.8,620.1
			c0-0.4-0.2-0.6-0.5-0.6s-0.5,0.2-0.5,0.6s0.2,0.7,0.5,0.7S67.8,620.5,67.8,620.1z M67.3,623.2l2.3-4.2H70l-2.4,4.2H67.3z
			 M69.1,622.2c0-0.5,0.5-0.9,1-0.9c0.5,0,0.9,0.5,0.9,1c0,0.5-0.4,0.9-0.9,0.9c-0.5,0-0.9-0.3-0.9-0.8
			C69.1,622.3,69.1,622.3,69.1,622.2L69.1,622.2z M70.5,622.2c0-0.4-0.2-0.7-0.5-0.7s-0.5,0.3-0.5,0.7s0.2,0.6,0.5,0.6
			S70.5,622.6,70.5,622.2L70.5,622.2z"/>
		<path d="M74.1,620c0-0.4-0.3-0.6-0.7-0.6c-0.7,0-1.1,0.5-1.1,1.7c0.3-0.4,0.7-0.6,1.2-0.6c0.7,0,1.2,0.5,1.3,1.2
			c0,0.1,0,0.1,0,0.2c0,0.7-0.6,1.3-1.3,1.3c0,0-0.1,0-0.1,0c-1,0-1.5-0.8-1.5-1.9c0-1.5,0.7-2.2,1.6-2.2c0.7,0,1.2,0.3,1.2,0.9
			H74.1z M73.3,622.8c0.5,0,0.9-0.3,0.9-0.8c0,0,0-0.1,0-0.1c0-0.5-0.3-1-0.8-1c-0.4,0-0.9,0.2-1.1,0.6
			C72.3,622.3,72.6,622.8,73.3,622.8z"/>
		<path d="M83.5,620.1c0-0.5,0.5-0.9,1-0.9c0.5,0,0.9,0.5,0.9,1c0,0.5-0.4,0.9-0.9,0.9c-0.5,0-0.9-0.3-0.9-0.8
			C83.5,620.2,83.5,620.2,83.5,620.1z M84.9,620.1c0-0.4-0.2-0.6-0.5-0.6s-0.5,0.2-0.5,0.6s0.2,0.7,0.5,0.7S84.9,620.5,84.9,620.1z
			 M84.5,623.2l2.4-4.2h0.4l-2.4,4.2H84.5z M86.2,622.2c0-0.5,0.5-0.9,1-0.9c0.5,0,0.9,0.5,0.9,1c0,0.5-0.4,0.9-0.9,0.9
			c-0.5,0-0.9-0.3-0.9-0.8C86.2,622.3,86.2,622.3,86.2,622.2L86.2,622.2z M87.7,622.2c0-0.4-0.2-0.7-0.5-0.7s-0.5,0.3-0.5,0.7
			s0.2,0.6,0.5,0.6S87.7,622.6,87.7,622.2L87.7,622.2z"/>
		<path d="M89.5,622.3c0,0.4,0.3,0.6,0.8,0.6c0.7,0,1.1-0.5,1.1-1.7c-0.3,0.4-0.7,0.6-1.2,0.6c-0.7,0-1.2-0.5-1.3-1.1
			c0-0.1,0-0.1,0-0.2c0-0.7,0.6-1.3,1.3-1.3c0,0,0.1,0,0.1,0c1,0,1.5,0.8,1.5,1.9c0,1.5-0.7,2.2-1.6,2.2c-0.7,0-1.2-0.3-1.2-0.9
			L89.5,622.3z M90.3,619.5c-0.5,0-0.9,0.3-0.9,0.8c0,0,0,0.1,0,0.1c0,0.5,0.3,0.9,0.8,0.9c0.4,0,0.9-0.2,1.1-0.6
			C91.3,620.1,91,619.5,90.3,619.5z"/>
		<path d="M94.8,623.2v-0.9h-2v-0.4l1.8-2.7h0.7v2.7h0.6v0.4h-0.6v0.9L94.8,623.2z M94.8,619.6l-1.6,2.3h1.6V619.6z"/>
		<g>
			<path class="st7" d="M12.7,617.2c3.8,0,6.8,3,6.8,6.8c0,3.8-3,6.8-6.8,6.8c-3.8,0-6.8-3-6.8-6.8l0,0
				C5.9,620.3,8.9,617.2,12.7,617.2z"/>
			<path class="st8" d="M12.7,624.7c3.8,0,6.8,3,6.8,6.8c0,3.8-3,6.8-6.8,6.8c-3.8,0-6.8-3-6.8-6.8l0,0
				C5.9,627.7,8.9,624.7,12.7,624.7z"/>
			<path class="st9" d="M12.7,632.8c3.8,0,6.8,3,6.8,6.8c0,3.8-3,6.8-6.8,6.8c-3.8,0-6.8-3-6.8-6.8l0,0
				C5.9,635.8,8.9,632.8,12.7,632.8z"/>
			<path class="st0" d="M9,636.6h0.8l0.2,0.9c0.3-0.2,0.6-0.3,0.9-0.3c0.6,0,1.1,0.2,1.5,0.7c0.4,0.5,0.6,1.2,0.5,1.8v0.3v0.2
				c0.1,0.1,0.2,0.2,0.4,0.2c0.2,0,0.3-0.3,0.3-0.9v-1c0-0.5,0.1-1,0.4-1.5c0.3-0.4,0.8-0.5,1.2-0.5c0.6,0,1.3,0.3,1.6,0.9
				c0.4,0.7,0.6,1.6,0.6,2.5c0,0.7-0.1,1.3-0.4,1.9c-0.3,0.4-0.7,0.7-1.2,0.7c-0.3,0-0.6-0.1-0.9-0.3c-0.3-0.3-0.4-0.6-0.5-1
				c-0.1,0.2-0.2,0.3-0.3,0.4c-0.1,0.1-0.3,0.2-0.5,0.2c-0.2,0-0.4-0.1-0.6-0.2c-0.2-0.2-0.3-0.4-0.4-0.6c-0.1,0.3-0.4,0.6-0.6,0.7
				c-0.3,0.2-0.6,0.3-1,0.3c-0.6,0-1.1-0.2-1.5-0.6c-0.4-0.5-0.6-1.1-0.5-1.8c0-0.2,0-0.4,0-0.6c0-0.2,0-0.4,0.1-0.4L9,636.6z
				 M15.7,641.2c0.2,0,0.4-0.1,0.5-0.3c0.1-0.3,0.2-0.6,0.2-0.9c0-0.5-0.1-0.9-0.2-1.3c-0.1-0.3-0.4-0.5-0.7-0.5
				c-0.2,0-0.4,0.1-0.5,0.3c-0.1,0.3-0.1,0.6-0.1,0.9v0.8c0,0.3,0.1,0.5,0.2,0.7C15.2,641.1,15.4,641.2,15.7,641.2L15.7,641.2z
				 M10.9,640.6c0.3,0,0.5-0.1,0.8-0.2c0.2-0.2,0.3-0.4,0.3-0.7c0-0.3-0.1-0.5-0.3-0.7c-0.2-0.2-0.5-0.2-0.8-0.2
				c-0.7,0-1.1,0.3-1.1,0.9S10.2,640.6,10.9,640.6L10.9,640.6z"/>
			<path class="st0" d="M15.3,629.2v4.6h-0.9l-3.7-2.7v2.5H9.5v-4.4h1l3.6,2.6v-2.7L15.3,629.2z"/>
			<path class="st0" d="M14.4,623.1c0-0.3-0.1-0.7-0.2-1h1.2c0.2,0.5,0.3,1,0.3,1.5c0,0.5-0.1,1-0.5,1.4c-0.4,0.3-0.9,0.5-1.4,0.4
				h-2.8v0.8h-0.7l-0.5-0.9l-1.2-0.5v-1h1.2v-1.6h1.2v1.6h2.8c0.2,0,0.4-0.1,0.5-0.2C14.4,623.5,14.5,623.3,14.4,623.1z"/>
		</g>
		<g>
			<path class="st10" d="M9.1,594.7c0.1,2.3,1.9,4.1,4.2,4c0,0,0,0,0,0c2.1,0.1,3.9-1.6,3.9-3.7c0,0,0-0.1,0-0.1
				c0-1.7-1.2-3.2-2.9-3.5v0.2c0.8,0.4,1.3,1.2,1.3,2.1c0,1.3-1,2.3-3,2.4v-4.7c-1.8-0.1-3.4,1.3-3.5,3.1
				C9.1,594.6,9.1,594.6,9.1,594.7z M12.2,593.8v2.2c-1.8,0-2.8-0.7-2.8-1.3S10.2,593.8,12.2,593.8z"/>
			<path class="st10" d="M15.5,585.4c0,1.5-1.2,2.4-3.4,2.4c-1.8,0-2.8-0.6-2.8-1.2s1.1-0.8,1.7-1c0.5-0.1,0.8-0.6,0.8-1.1
				c0.1-0.5-0.3-1-0.9-1.1c0,0-0.1,0-0.1,0c-0.8,0-1.7,0.9-1.7,2.8c-0.1,2.3,1.7,4.2,4,4.3c0.1,0,0.2,0,0.3,0
				c2.1,0.1,3.8-1.5,3.9-3.6c0-0.1,0-0.1,0-0.2c0-1.7-1.2-3.2-2.8-3.5l-0.1,0.2C15.1,583.8,15.6,584.6,15.5,585.4z"/>
			<path class="st10" d="M8.9,576.5c0.2,1.1,1,2.1,2.1,2.3H9.2v0.1l1,3.7h0.2c0-0.5,0.2-1.1,1.2-1.1h5.9v-0.1l-1-3.7h-0.2
				c0,0.5-0.3,0.9-0.8,1h-3.7c-0.7-0.2-1.1-0.4-1.1-0.8s0.7-0.8,0.7-1.5c0-0.6-0.5-1.2-1.1-1.2c0,0-0.1,0-0.1,0
				c-0.6,0-1.2,0.5-1.2,1.1C8.9,576.4,8.9,576.5,8.9,576.5z"/>
			<path class="st10" d="M15,568.1h-3.3c-1.6,0-2.6,1.1-2.6,3.4s0.8,3.2,1.8,3.2c0.6,0,1-0.4,1.1-0.9c0,0,0-0.1,0-0.1
				c0-0.6-0.4-1.1-0.9-1.2c-0.8-0.3-1.6-0.1-1.6-0.8c0-0.5,0.4-0.7,1.5-0.7h1.4c0.9,3.4,1.9,4.3,3.1,4.3c1,0,1.8-0.8,1.8-1.8
				c0-0.1,0-0.1,0-0.2c0-0.9-0.4-1.7-1-2.4h1.1v-0.1l-1-3.7h-0.2C16.2,567.6,16,568.1,15,568.1z M16.1,571.7c0,0.5-0.4,1-1.3,1
				c-1,0-2-0.7-2.2-1.8h2.6c0.2,0,0.4,0,0.6,0C16,571.1,16.1,571.4,16.1,571.7L16.1,571.7z"/>
			<path class="st10" d="M15.7,599.5c-0.2,0.1-0.3,0.1-0.5,0.1h-4c-1.1-0.1-2,0.7-2.1,1.7c0,0.1,0,0.2,0,0.3c0.1,1,0.6,2,1.4,2.6
				c-0.9,0.2-1.5,1.1-1.4,2c0,1,0.5,2,1.3,2.6H9.2v0.1l1,3.7h0.2c0-0.5,0.2-1.1,1.2-1.1h5.8v-0.1l-1-3.7h-0.2c0,0.4-0.1,0.7-0.5,0.9
				c-0.2,0.1-0.3,0.1-0.5,0.1h-4.4c-0.3-0.3-0.4-0.6-0.5-1c0-0.5,0.4-0.8,1.2-0.8H16v-0.1l-1-3.7h-0.2c0.1,0.4-0.1,0.8-0.5,0.9
				c-0.2,0.1-0.3,0.1-0.5,0.1h-3c-0.3-0.2-0.5-0.6-0.6-1c0-0.5,0.4-0.9,1.2-0.9h5.8v-0.1l-1-3.7h-0.2C16.2,599,16,599.3,15.7,599.5z
				"/>
		</g>
	</g>
</g>
</svg>
