<?xml version="1.0" encoding="utf-8"?>
<!-- Generator: Adobe Illustrator 22.1.0, SVG Export Plug-In . SVG Version: 6.00 Build 0)  -->
<svg version="1.1" id="Layer_1" xmlns="http://www.w3.org/2000/svg" xmlns:xlink="http://www.w3.org/1999/xlink" x="0px" y="0px"
	 viewBox="0 0 190.8 652.8" style="enable-background:new 0 0 190.8 652.8;" xml:space="preserve">
<style type="text/css">
	.st0{fill:#FFFFFF;}
	.st1{fill:#D8C7C3;}
	.st2{fill:#678186;}
	.st3{fill:#020202;}
	.st4{fill:#56B746;}
	.st5{opacity:0.8;enable-background:new    ;}
	.st6{fill:#FFFCE3;}
	.st7{fill:#006E94;}
	.st8{fill:#2EABE1;fill-opacity:0.72;}
	.st9{fill:#00A29A;fill-opacity:0.68;}
	.st10{fill:#1D1D1B;}
</style>
<title>haritalar</title>
<g>
	<g id="Layer_1_1_">
		<rect x="0.3" y="0.5" class="st0" width="189.3" height="501.6"/>
		<path class="st1" d="M132.4,0.5c-0.5,4.4,0,10.9-4.3,13.7s-3.3,1.5-3.3,6.5s-2,4-4.8,9.3s-3.3,6.6-3.3,6.6l-3.5,76.2l-39.9,123
			L10.6,282L0.3,292.2v360.2h190.1V0.5C190.5,0.5,132.5-0.7,132.4,0.5z"/>
		<path class="st2" d="M142.8,311.3c0,0-4.4-96.7,24.7-93.2c0.9,0.1,3.3,2.7,3.5,3.9c0.4,2.5-0.2,5.1-1.6,7.2
			c-1.3,2-1.3,7.3-1.6,12.5s1,25.7-0.9,28.8c-0.4,0.4-0.5,1.1-0.4,1.6c0.3,0.6,0.1,1.3-0.5,1.7c0,0,0,0-0.1,0
			c-0.5,0.9-0.1,2,0.8,2.4c0,0,0,0,0.1,0c0,0,0.8,3.2-1.4,4.3c0,0-1.8,0.8-2,3.5c0,0-3.1,3-3.8-1.4c0,0-1.3-2.7-4.3-0.8
			c0,0-0.4,0.3-0.5,2s-0.5,0.5-0.8,1.2s0.1,3,0,3.4s-1.7,1.8-0.1,2.8s2.8-0.2,3.7,1.7s0.9,3.4,3.6,3.8s4.3,1.6,4.2,4.9
			s0.6,9.1-1.4,11.5s-1.7,4.2-7.6,6.1s-6.3,2.1-8.8-2S143,313.6,142.8,311.3"/>
		<path class="st3" d="M151.3,320.9c-1.6,0-2.5-1-4.1-3.5c-0.8-1.4-1.9-2.6-3.2-3.5c-1-0.5-1.6-1.5-1.7-2.6l0,0
			c-0.5-12.9-0.2-25.8,0.6-38.6c1.9-27.1,6.8-44.5,14.4-51.6c2.7-2.7,6.4-3.9,10.2-3.5c1.3,0.2,3.7,3,3.9,4.3
			c0.4,2.6-0.2,5.3-1.6,7.5c-0.9,1.5-1.1,5.3-1.3,9.3c-0.1,1-0.1,2-0.2,3c-0.1,1.6,0,4.9,0,8.6c0.2,10.3,0.3,18.3-1,20.4l-0.1,0.1
			c-0.3,0.3-0.3,0.7-0.3,1.1c0.4,0.8,0.1,1.8-0.7,2.2c-0.1,0.3-0.3,1,0.7,1.7l0.2,0.1l0.1,0.2c0,0.1,0.9,3.6-1.7,4.8
			c-0.1,0-1.5,0.7-1.7,3.1v0.2l-0.1,0.1c-0.2,0.1-1.6,1.5-3,1c-0.9-0.3-1.4-1.2-1.7-2.7c-0.3-0.5-0.7-0.9-1.3-1.1
			c-0.8-0.2-1.6,0-2.2,0.5l0,0c-0.2,0.5-0.3,1.1-0.3,1.6c0,0.8-0.1,1.1-0.4,1.3c-0.1,0.1-0.3,0.2-0.4,0.2c-0.1,0.6-0.1,1.2,0,1.9
			c0.1,0.5,0.1,0.9,0,1.4c-0.1,0.2-0.2,0.3-0.3,0.5c-0.2,0.3-0.6,0.8-0.5,1.2c0.1,0.2,0.3,0.4,0.5,0.5c0.5,0.3,1,0.4,1.6,0.4
			c1-0.1,1.9,0.5,2.3,1.5c0.2,0.4,0.3,0.7,0.4,1c0.5,1.4,0.9,2.2,2.8,2.5c3.3,0.5,4.7,2.2,4.6,5.4c0,0.8,0,1.6,0,2.6
			c0.1,3.2,0.1,7.2-1.5,9.2c-0.4,0.5-0.8,1-1.1,1.6c-1.1,1.7-2,3.2-6.7,4.6l-0.4,0.1C154.5,320.3,152.9,320.8,151.3,320.9z
			 M143.3,311.3c0.1,0.9,0.5,1.2,1.3,1.9c1.4,1,2.5,2.3,3.4,3.8c2.3,3.7,2.4,3.7,7.8,1.9l0.4-0.1c4.3-1.4,5.1-2.6,6.1-4.2
			c0.4-0.6,0.8-1.1,1.2-1.7c1.4-1.7,1.3-5.5,1.3-8.5c0-1,0-1.9,0-2.7c0.1-2.7-1-3.9-3.8-4.4c-2.5-0.4-3-1.7-3.5-3.1
			c-0.1-0.3-0.3-0.6-0.4-1c-0.4-0.8-0.7-0.9-1.4-0.9c-0.7,0-1.4-0.2-2-0.6c-0.5-0.2-0.8-0.7-0.9-1.2c-0.1-0.7,0.2-1.5,0.7-2
			c0.1-0.1,0.1-0.1,0.2-0.2c0-0.1,0-0.6-0.1-1c-0.1-0.8-0.1-1.6,0-2.4c0.1-0.3,0.4-0.5,0.7-0.6c0-0.2,0-0.3,0-0.5
			c0.1-1.8,0.5-2.3,0.8-2.4c0.9-0.6,2-0.9,3.1-0.6c0.9,0.3,1.6,0.9,2,1.7v0.1c0.1,0.8,0.4,1.8,1,2s1.4-0.4,1.8-0.7
			c0.1-1.6,0.9-3,2.3-3.7c1.6-0.7,1.3-2.9,1.2-3.5c-1-0.6-1.4-1.9-0.8-3l0.1-0.1l0.1-0.1c0.4-0.2,0.5-0.6,0.4-1c0,0,0,0,0,0v-0.1
			c-0.2-0.7,0-1.5,0.4-2c1.2-2.1,1-12.3,0.8-19.8c-0.1-3.8-0.1-7,0-8.7c0.1-1,0.1-2,0.2-3c0.2-4.3,0.4-8,1.5-9.7
			c1.3-2,1.9-4.4,1.5-6.8c-0.2-1.2-2.4-3.5-3.1-3.5c-3.5-0.5-6.9,0.7-9.4,3.1C140.3,238.3,143.3,310.1,143.3,311.3z"/>
		<path class="st4" d="M114.3,36.5h4.7c0,0,1.2,3.3,3.3,2.9c1.8-0.2,3.4-1.3,4.2-2.9l9.7,0.3c0,0,1.5,2.2,3,2s9.1,0,9.1,0
			s1.8,1.8,4.8-0.5c0,0,3.5-3.1,6.1-3.4c0,0,2.7-0.5,3-5.2l1.2-13.3c0,0,0.4-4.8,2.4-4.9s5.1-0.7,6.8,3c0,0,1.3,2.1,5.6,1.6
			s4,1.6,4,3.1s-0.4,2.3,1.2,2.8s0.5,3.7-0.9,3.5s-3.3,2.2-3.1,5.4s1.1,6.8-0.9,7.9s-3.6-0.3-3,5.3s-0.2,13.3,0.2,18
			c0.2,3.2,0.8,6.4,1.9,9.4c0.4,1,1.7,0.9,1.4,9.6s0.8,8.2,2.7,8.3s2.2,3.4-0.1,3.5s-5-0.7-7.1,2.8s-5.3,2.6-4.6,8.7
			s-0.3,27.7-0.3,27.7l-0.1,19.9c0.4,3.8,0.2,7.7-0.5,11.5c-1.2,6.3-2.5,11.3-3.1,14.4s-0.9,4.6-0.1,6.9c0.8,2.3,1.4,2.3,1.4,7.8
			s0.3,19.8,0.3,19.8s1,6.1-1.7,6.1c0,0-4,0.4-8,4.5c-1.5,1.8-2.3,4-2.3,6.3c0.1,3.7,0.2,6.2-4.3,5.8l-1,16.9c0,0,0.3,5.1-1.8,6
			s-0.7,19.3-0.5,22.1s-2,25.3-5.1,31.3s-6.8,14.3-7.8,20.7s-5.8,21-7.5,25.2s-6.2,24.2-6.9,27.1s-6.8,15.8-8,24.9
			s-4.2,12.4-5.7,22.1S96.2,464,95.4,465.4s-15.8,36.7-15.8,36.7H74c1.6-7.6,1.2-15.5-1.2-22.9c0,0-3.8-7.4-3.1-13.7
			s0.7-10.1-1.1-13.2c-4.5-9.1-8.5-18.4-11.9-28c-3.3-9.7-8-17.9-15.3-43.2s-13.2-42-15-46.3s-11.6-35.3-13.7-40.6s-2.9-7.4-2.9-7.4
			s-1.8-4.3,2.6-8.7s18.5-21.8,22.6-26.8c4.1-5,16.6-25.2,18.9-29.8s14.6-32.3,17.8-40.3s13.8-41.1,14.8-53.7s1.8-16.3,2-19.4
			s5.3-11,4.4-15.7s-0.7-9,2.8-17.8c0,0,2.1-5.3,8.6-2.4c0,0,4.9,1.8,6.8-10.7c0,0-4.7,1.9-4.3-7c0,0,3.5,0.4,3.9-5.9
			c0,0-0.3-4.8,1.3-6.6C113.1,40.5,114,38.6,114.3,36.5z"/>
		<path class="st5" d="M141.1,39v3c0,0,13-1.5,14,0s0,9.8,0,9.8s-6.6-0.3-6.8,4c-0.2,4.3,1,6.3-1.2,7.8c-2.2,1.5-1.8,5.6-2.5,7.3
			s-4.3,3.6-1.8,8.7c1.9,0.8,3.4,2.3,4,4.3c1,3.3,3.5,9-2,9s-11.3,3.3-14.9,4.5c0,0,0.4-4-4.3-6c0.1-4.6-1.9-8.9-5.5-11.8
			c0,0-0.9-7.2-5.2-11.3c0,0,1.9-3.4-3.1-7.6c0,0-4-2.5-1.8-8.8c0,0-0.6,2.9-3.4,2.9c0,0-1.3,7.6,4,7.3c0,0,0.3,10.9-7.1,10.3
			c0,0-8.5-5-11.3,15.5c0,0,0.7,3.6,0.9,5.8s-1.9,8.2-3.9,12.4s-2.1,13.5-2.3,17.8c-0.2,3.5-4.7,22.8-5.6,28.1s-6.7,21.4-6.7,21.4
			L64.8,198l-6.7,14.4c0,0,2.9-0.7,6.2,3c3.2,3.8,6.7,4.3,7.2,6s-12.7,20-12.7,20s-4.5,2.5-2.3,10.9c0,0-0.3,7.1-4,4.5
			c-2.3,2.9-6,4.5-9.8,4.1l-11,19.3c0,0,4.3-0.3,0,5.8c0,0-5.7,7.8-3.1,12.8c0,0,2.3,9.8,6.6,15.8c0,0,5.8,10.8,5.8,13.3v3
			c0,2.3-2.3,6.3-2.3,8.8c0,0-3.2,4-10.1,1.6l19.4,60.3l12.2,31.7l7.3,15.8l2,4.5c0.9,2.6,1.2,5.4,1,8.2c-0.3,2.5-0.4,5.1-0.3,7.7
			c0.4,2.1,0.9,4.1,1.6,6c0.9,2,1.6,4,2.3,6.1c0.7,2.7,1.1,5.4,1.3,8.2c0.3,4,0.1,8.1-0.8,12c-0.1,0.5,5,0.1,5,0.1l12.5-30.2
			c0,0,3-5.5,8.8-20.5c0,0,1.3-4.1,4.4-15c1.1-3.8,1.4-7.3,2.1-9.6c0,0,1.8-5,3.6-10.2c1.4-7.7,3.4-15.2,6-22.5
			c2.7-6.9,4.6-14.1,5.7-21.5c0,0,2.4-7,7.6-23.5c1.8-5.2,3.3-10.5,4.4-15.8c0.4-3,1-5.9,1.9-8.8c1.1-3.7,3.9-7.8,5.1-11.1
			c0,0,3.8-4.5,6-31.5c0,0-0.1-17.6-0.1-22.6c0-5-9,11.6-7.6,23.1c0,0,0.6,5.5-6,5.6s-42.7,4.8-57.3,1.8c0,0-2.4-0.6,0-14
			c0,0,3.7-12,0-19.1c-3.7-7.1-8.1-9.4-7.3-15s-2.4-4.1-1.3-8.6s5.3-2,6.3-7.4s-1.9-6.5,4.5-8.6s18.8-9.6,15.9-12.4
			s-10.7-2.5-12.8-5.9s4.3-7.5,5.8-9s7.5-3.6,6-13s0.2-11,2.6-14.6s6-7.5,6-20.6s0.8-8.9,3-12.4c2.3-3.5,4.3-3.4,5.1-14
			c0,0,0.5-4.3,6.5-5.4s8.6-7.4,12.4-7.1c3.1,0.6,5.6,3.1,6.1,6.3c0,0,0.3,1.8,4.5,1.1c0,0,1.9-1,6,4.9c0.7,1,1.8,1.6,3,1.6
			c0,0,2,0.8,2,5c0,0-1,5.9,6,6.8c0,0,1.3,0.6,0,2.6c0,0-1.3,1.4,4.3,3c0,0,3.8,6.7,7.8-1.7l0.2-29.8c0,0-1.5-2,4-5.6
			c0,0,1.8-3.3,4.8-3.3c0,0,4.2,0.1,4.2-1.5c0-1.1,0.4-1.5-2.9-1.9c0,0-1.5-0.2-1.1-15.8c0,0-3.4,0.2-3.4-16.8c0-10.6,0-12.2,0-12.2
			s-2.3-4,1.9-5.8s2-6.6,1.8-8.4s0.6-4.6,3.3-5.3s1.4-3.4-0.1-3.9s1.6-4.3-2.4-5s-3.7,1.6-8.8-3.4c-4.3-4.2-7.7,0.8-7.6,3.5
			c-0.2,5.4-0.6,10.7-1.3,16c-0.6,2.4-6.1,2.9-8.1,5.4s-3.1,2-5.5,0.9C145.5,37.7,141.1,39,141.1,39z"/>
		<path class="st3" d="M80,502.4h-6.6l0.2-0.6c1.6-7.5,1.2-15.3-1.2-22.6c-0.1-0.2-3.9-7.6-3.1-13.9c0.7-5.8,0.8-9.7-1-12.9
			c-4.5-9.1-8.5-18.5-12-28.1c-1-3-2.2-5.8-3.5-9.1c-4.6-11.1-8.5-22.5-11.8-34.1c-7-23.9-13-41.5-15-46.3c-1-2.3-4.2-12-7.2-21.4
			c-2.8-8.6-5.5-16.7-6.5-19.2c-2.1-5.3-2.9-7.4-2.9-7.4c-0.1-0.2-1.8-4.7,2.7-9.2c3.9-3.9,15.9-18.6,21-24.9l1.5-1.9
			c4.1-5,16.6-25.3,18.9-29.8s14.5-32.1,17.7-40.3c3.4-8.5,13.7-41.1,14.7-53.5c0.7-8.4,1.2-12.8,1.6-15.8c0.2-1.5,0.3-2.6,0.4-3.6
			c0.4-1.9,1-3.7,1.8-5.4c1.4-3.3,3.1-7.4,2.6-10.2c-0.9-4.6-0.7-9,2.8-18c0.6-1.4,1.8-2.5,3.2-3.1c2-0.7,4.2-0.5,6.1,0.4l0,0
			c0.6,0.1,1.3,0,1.9-0.4c1.3-0.8,3.1-3.1,4.1-9.2c-0.8,0.1-1.5-0.1-2.2-0.5c-1.5-1.1-2.1-3.4-2-7.2v-0.5l0.5,0.1
			c0.6,0,1.2-0.2,1.6-0.6c1-0.8,1.6-2.5,1.8-4.8c0-0.1-0.2-5,1.4-6.9c1.2-1.5,2.1-3.4,2.4-5.3v-0.4h5.5l0.1,0.3c0,0,1.1,2.9,2.7,2.6
			c1.6-0.2,3.1-1.2,3.8-2.6l0.1-0.3l10.2,0.3l0.1,0.2c0.4,0.5,1.6,1.9,2.5,1.8c1.5-0.2,8.8,0,9.1,0h0.2l0.1,0.1
			c0.1,0.1,1.6,1.5,4.1-0.5c0.1-0.1,3.6-3.2,6.3-3.5c0.1,0,2.3-0.5,2.6-4.7l1.2-13.3c0-0.5,0.5-5.3,2.9-5.4h0.6c2-0.1,5-0.3,6.6,3.3
			c0,0,1.2,1.8,5.1,1.3c1.8-0.2,3,0,3.8,0.7c0.7,0.7,1,1.7,0.8,2.7v0.2c0,0.3,0,0.6,0,0.8c-0.1,1-0.1,1.2,0.8,1.5s1.3,1.1,1.1,2.3
			s-1.1,2.3-2.2,2.2c-0.4,0-0.8,0.2-1.1,0.5c-1.1,1.2-1.6,2.8-1.4,4.4c0,0.7,0.1,1.4,0.2,2.1c0.3,2.7,0.5,5.3-1.4,6.3
			c-0.5,0.2-0.9,0.4-1.4,0.5c-1.1,0.3-1.7,0.5-1.3,4.3c0.3,3.5,0.3,7,0.2,10.5c-0.1,2.8-0.1,5.4,0,7.5c0.2,3.2,0.8,6.3,1.9,9.3
			c0.1,0.1,0.1,0.3,0.2,0.4c0.6,0.8,1.4,2.1,1.2,9.4c-0.1,4.5,0.1,6.8,0.7,7.4c0.2,0.3,0.6,0.3,1.2,0.3h0.3c1.2,0.1,2.1,1.1,2,2.3
			c0,1.2-0.8,2.1-2,2.2c0,0,0,0-0.1,0c-0.4,0-0.8,0-1.2,0c-1.9,0-3.9-0.1-5.5,2.5c-0.6,1-1.5,1.9-2.4,2.6c-1.5,1.2-2.5,2-2.1,5.8
			c0.8,6.1-0.2,26.9-0.3,27.8l-0.1,19.9c0.4,3.9,0.2,7.8-0.5,11.6c-0.7,3.7-1.5,7.1-2.1,9.8c-0.4,1.8-0.8,3.4-1,4.7l-0.1,0.3
			c-0.5,2.8-0.8,4.2,0,6.3c0.2,0.5,0.3,0.9,0.5,1.2c0.6,1.4,1,2.3,1,6.7c0,5.4,0.3,19.7,0.3,19.8c0.1,0.4,0.7,4.3-0.7,5.9
			c-0.4,0.4-0.9,0.7-1.5,0.7c-2.9,0.6-5.6,2.1-7.6,4.4c-1.3,1.7-2.1,3.7-2.1,5.9c0.1,2.5,0.1,4.3-1.1,5.4c-0.9,0.7-2.1,1-3.2,0.9
			l-1,16.4c0,0.5,0.3,5.4-2,6.4c-0.4,0.2-1.5,2.4-0.3,20.6l0.1,1c0.2,2.7-1.9,25.4-5.1,31.5c-2,3.8-6.7,13.4-7.7,20.5
			c-0.9,6.2-5.7,20.8-7.5,25.3c-1.3,3.2-4.2,15.8-5.8,22.6c-0.5,2.1-0.9,3.7-1.1,4.4c-0.2,0.9-0.9,2.5-1.8,4.8
			c-2.1,5.4-5.3,13.7-6.2,20c-0.5,3.8-1.5,7.4-2.8,11c-1.3,3.6-2.3,7.3-2.9,11.1c-1.5,9.8-10.7,32.8-11.6,34.4
			c-0.6,1.1-10.6,24.4-15.7,36.6L80,502.4z M74.6,501.4h4.7c1.6-3.7,14.8-35,15.6-36.4c0.6-1.1,10-24.3,11.5-34.1
			c0.6-3.8,1.6-7.6,2.9-11.3c1.3-3.5,2.2-7.1,2.7-10.8c0.9-6.5,4.1-14.8,6.3-20.3c0.9-2.2,1.5-3.9,1.7-4.7s0.6-2.3,1.1-4.4
			c1.7-7.3,4.6-19.5,5.9-22.7c1.8-4.5,6.6-18.9,7.5-25.1c1.1-7.3,5.8-17,7.8-20.8c3.1-5.9,5.2-28.4,5-31l-0.1-1
			c-1.2-18.2-0.3-21.1,0.9-21.6c1.4-0.6,1.5-4.3,1.4-5.5l1-17.5l0.5,0c1.4,0.1,2.4,0,2.9-0.5c0.9-0.8,0.8-2.5,0.8-4.6
			c0-2.4,0.8-4.8,2.4-6.7c4.1-4.2,8.1-4.6,8.3-4.7c0.3,0,0.6-0.1,0.8-0.3c0.9-1.1,0.6-4.1,0.4-5.2c0-0.2-0.3-14.5-0.3-19.9
			c0-4.3-0.3-5-0.9-6.3c-0.1-0.4-0.3-0.8-0.5-1.3c-0.9-2.4-0.6-4,0-6.8l0.1-0.3c0.2-1.3,0.6-2.9,1-4.7c0.6-2.7,1.4-6,2.1-9.7
			c0.7-3.7,0.9-7.6,0.5-11.4l0.1-20c0-0.2,1-21.7,0.3-27.7c-0.5-4.3,0.9-5.4,2.4-6.7c0.9-0.6,1.6-1.4,2.2-2.3c1.9-3.1,4.4-3,6.4-3
			c0.4,0,0.8,0,1.1,0c0.6,0,1.1-0.5,1.1-1.1c0,0,0-0.1,0-0.1c0.1-0.6-0.4-1.2-1-1.3H181c-0.7,0.1-1.4-0.1-1.9-0.6
			c-0.7-0.8-1.1-2.4-1-8.2c0.2-7-0.6-8.1-1-8.8c-0.1-0.2-0.2-0.4-0.3-0.6c-1.1-3.1-1.8-6.3-2-9.6c-0.1-2.1-0.1-4.8,0-7.6
			c0.2-3.5,0.1-6.9-0.1-10.4c-0.4-4.2,0.3-4.9,2.1-5.4c0.4-0.1,0.8-0.2,1.2-0.4c1.3-0.7,1.1-3,0.8-5.3c-0.1-0.7-0.1-1.4-0.2-2.1
			c-0.2-1.9,0.5-3.8,1.8-5.2c0.5-0.5,1.2-0.8,1.9-0.7c0.4,0,0.9-0.6,1.1-1.4c0-0.2,0.1-1-0.4-1.1c-1.7-0.4-1.6-1.4-1.6-2.5
			c0-0.2,0-0.5,0-0.7v-0.2c0.1-0.7-0.1-1.4-0.5-1.9c-0.5-0.4-1.5-0.6-3-0.4c-4.5,0.5-6-1.7-6.1-1.8c-1.4-3.1-3.8-2.9-5.7-2.8h-0.6
			c-1.2,0.1-1.8,3-1.9,4.5l-1.1,13.3c-0.4,5-3.3,5.6-3.4,5.6c-2.4,0.3-5.8,3.3-5.8,3.3c-2.7,2.2-4.7,1-5.3,0.6c-1.1,0-7.5-0.2-8.8,0
			c-1.5,0.2-2.9-1.4-3.3-2l-9.1-0.3c-0.9,1.6-2.5,2.7-4.4,2.9c-2.1,0.4-3.3-2-3.7-2.9h-3.9c-0.4,2-1.3,3.8-2.6,5.4
			c-1.1,1.3-1.2,4.9-1.1,6.2c-0.2,2.7-0.9,4.6-2.1,5.6c-0.5,0.4-1.1,0.7-1.8,0.8c-0.1,3.8,0.8,5.3,1.6,5.8c0.6,0.4,1.3,0.5,2,0.2
			l0.8-0.3l-0.1,0.9c-0.8,5.7-2.4,9.3-4.7,10.6c-0.8,0.5-1.8,0.7-2.7,0.4c-1.6-0.9-3.6-1-5.3-0.4c-1.2,0.5-2.1,1.4-2.6,2.6
			c-3.4,8.8-3.6,13.1-2.7,17.5c0.6,3-1.1,7.1-2.7,10.8c-0.8,1.6-1.4,3.3-1.7,5.1c-0.1,1.1-0.2,2.2-0.4,3.7
			c-0.4,2.9-0.9,7.4-1.6,15.7c-1,12.5-11.4,45.3-14.8,53.8c-3.2,8.2-15.5,35.9-17.8,40.4s-14.9,24.9-19,29.9l-1.5,1.9
			c-5.6,6.8-17.2,21.1-21.1,25s-2.5,8.1-2.5,8.1s0.8,2.1,2.9,7.4c1,2.5,3.7,10.7,6.5,19.3c3.1,9.4,6.2,19,7.2,21.3
			c2,4.8,8.1,22.4,15,46.4c3.3,11.6,7.2,22.9,11.8,34c1.3,3.3,2.5,6.2,3.5,9.2c3.4,9.5,7.4,18.8,11.9,27.9c1.9,3.3,1.9,7.4,1.2,13.4
			s3,13.3,3,13.4C75.6,486.1,76.1,493.9,74.6,501.4L74.6,501.4z"/>
		<path class="st3" d="M190.8,652.8H0V0.2h190.8V652.8z M0.7,652h189.4V0.9H0.7V652z"/>
		<path d="M114.7,489.6h1l1.9,3.1l1.9-3.1h1l-2.4,3.8v2.6h-0.9v-2.6L114.7,489.6z"/>
		<path d="M123.1,493.2c0.2,0,0.3-0.1,0.4-0.2c0-0.1,0.1-0.2,0.1-0.3c0-0.2-0.1-0.5-0.3-0.6c-0.3-0.1-0.5-0.2-0.8-0.2
			c-0.3,0-0.7,0.1-0.9,0.3c-0.1,0.2-0.2,0.4-0.2,0.5h-0.7c0-0.5,0.2-0.9,0.6-1.2c0.4-0.2,0.8-0.3,1.3-0.3c0.5,0,0.9,0.1,1.4,0.3
			c0.3,0.2,0.5,0.6,0.5,1v2.7c0,0.1,0,0.1,0,0.2c0.1,0.1,0.1,0.1,0.2,0.1h0.1h0.1v0.6l-0.3,0.1h-0.3c-0.2,0-0.5-0.1-0.6-0.3
			c-0.1-0.1-0.1-0.3-0.1-0.4c-0.2,0.2-0.4,0.4-0.7,0.5c-0.3,0.2-0.7,0.2-1,0.2c-0.4,0-0.8-0.1-1.1-0.4c-0.3-0.3-0.4-0.6-0.4-1
			c0-0.4,0.1-0.7,0.4-1c0.3-0.3,0.7-0.4,1.1-0.5L123.1,493.2z M121.4,495.3c0.2,0.1,0.4,0.2,0.6,0.2c0.3,0,0.6-0.1,0.8-0.2
			c0.4-0.2,0.7-0.6,0.7-1v-0.6c-0.1,0.1-0.2,0.1-0.4,0.2c-0.1,0-0.3,0.1-0.4,0.1l-0.5,0.1c-0.2,0-0.4,0.1-0.6,0.2
			c-0.2,0.1-0.4,0.4-0.4,0.7C121.2,495,121.3,495.2,121.4,495.3L121.4,495.3z"/>
		<path d="M125.7,489.6h0.8v2.4c0.1-0.2,0.3-0.4,0.5-0.5c0.3-0.2,0.6-0.3,0.9-0.3c0.6-0.1,1.1,0.2,1.4,0.7c0.1,0.3,0.2,0.7,0.2,1.1
			v3h-0.8v-3c0-0.3,0-0.5-0.1-0.8c-0.2-0.3-0.5-0.4-0.8-0.4c-0.3,0-0.6,0.1-0.9,0.3c-0.3,0.3-0.5,0.8-0.4,1.3v2.5h-0.8L125.7,489.6z
			"/>
		<path d="M131.6,491.3v3.1c0,0.2,0,0.4,0.1,0.6c0.1,0.3,0.4,0.5,0.8,0.4c0.5,0,0.9-0.3,1.1-0.7c0.1-0.3,0.2-0.7,0.2-1.1v-2.3h0.8
			v4.7h-0.8v-0.7c-0.1,0.2-0.2,0.3-0.4,0.5c-0.3,0.3-0.7,0.4-1.1,0.4c-0.5,0.1-1.1-0.2-1.4-0.7c-0.1-0.3-0.2-0.7-0.2-1v-3.2
			L131.6,491.3z"/>
		<path d="M138.4,491.5c0.2,0.1,0.3,0.3,0.5,0.5v-2.4h0.8v6.5H139v-0.6c-0.2,0.3-0.4,0.5-0.6,0.6c-0.3,0.1-0.6,0.2-0.9,0.2
			c-0.5,0-1-0.2-1.4-0.7c-0.4-0.5-0.6-1.1-0.6-1.8c0-0.6,0.2-1.3,0.5-1.8C136.6,491.3,137.7,491.1,138.4,491.5L138.4,491.5z
			 M136.7,495c0.2,0.3,0.6,0.5,1,0.5c0.4,0,0.7-0.2,0.9-0.5c0.3-0.4,0.4-0.9,0.4-1.4c0-0.5-0.1-0.9-0.4-1.3
			c-0.2-0.3-0.6-0.4-0.9-0.4c-0.4,0-0.8,0.2-1,0.5c-0.3,0.4-0.4,0.9-0.4,1.3C136.3,494.2,136.4,494.6,136.7,495z"/>
		<path d="M141,489.6h0.8v0.9H141V489.6z M141,491.4h0.8v4.7H141V491.4z"/>
		<path d="M145.8,490h0.8v1.3h0.8v0.6h-0.8v3.1c0,0.1,0.1,0.3,0.2,0.3c0.1,0,0.2,0,0.3,0h0.3v0.6c-0.1,0-0.2,0.1-0.3,0.1h-0.3
			c-0.3,0-0.6-0.1-0.8-0.3c-0.1-0.2-0.2-0.5-0.2-0.7v-3.1h-0.6v-0.6h0.6V490z"/>
		<path d="M151.6,491.8c0.4,0.5,0.7,1.1,0.6,1.8c0,0.7-0.2,1.3-0.6,1.9c-0.4,0.5-1.1,0.8-1.7,0.7c-0.6,0-1.1-0.2-1.5-0.7
			c-0.4-0.5-0.6-1.1-0.6-1.8c0-0.7,0.2-1.4,0.6-1.9c0.4-0.5,1-0.7,1.6-0.7C150.7,491.2,151.2,491.4,151.6,491.8z M151.1,494.9
			c0.2-0.4,0.3-0.9,0.3-1.3c0-0.4-0.1-0.7-0.2-1.1c-0.2-0.4-0.7-0.7-1.1-0.7c-0.4,0-0.8,0.2-1.1,0.5c-0.2,0.4-0.3,0.9-0.3,1.3
			c0,0.4,0.1,0.9,0.3,1.3c0.2,0.3,0.6,0.5,1,0.5C150.5,495.6,150.9,495.4,151.1,494.9z"/>
		<path d="M153.3,491.4h0.8v0.6c0.1-0.2,0.3-0.4,0.5-0.5c0.3-0.2,0.6-0.3,0.9-0.3c0.5,0,1,0.2,1.4,0.6c0.4,0.5,0.6,1.1,0.6,1.8
			c0.1,0.8-0.2,1.6-0.8,2.2c-0.3,0.3-0.8,0.4-1.2,0.4c-0.3,0-0.6-0.1-0.9-0.2c-0.2-0.1-0.3-0.3-0.5-0.5v2.4h-0.8L153.3,491.4z
			 M156.3,495c0.3-0.4,0.4-0.9,0.4-1.4c0-0.3,0-0.7-0.2-1c-0.2-0.5-0.6-0.8-1.1-0.8c-0.5,0-1,0.3-1.1,0.8c-0.1,0.4-0.2,0.7-0.2,1.1
			c0,0.3,0,0.6,0.2,0.9c0.3,0.6,1,0.9,1.6,0.6C156,495.3,156.1,495.2,156.3,495L156.3,495z"/>
		<path d="M158.4,491.3h0.8v0.8c0.1-0.2,0.3-0.4,0.4-0.6c0.2-0.2,0.5-0.3,0.8-0.3h0.3v0.8h-0.1h-0.1c-0.3,0-0.7,0.1-0.9,0.4
			c-0.2,0.2-0.3,0.6-0.3,0.9v2.7h-0.8L158.4,491.3z"/>
		<path d="M164,493.2c0.2,0,0.3-0.1,0.4-0.2c0-0.1,0.1-0.2,0.1-0.3c0-0.2-0.1-0.5-0.3-0.6c-0.3-0.1-0.5-0.2-0.8-0.2
			c-0.3,0-0.7,0.1-0.9,0.3c-0.1,0.2-0.2,0.4-0.2,0.5h-0.7c0-0.5,0.2-0.9,0.6-1.2c0.4-0.2,0.8-0.3,1.3-0.3c0.5,0,0.9,0.1,1.4,0.3
			c0.3,0.2,0.5,0.6,0.5,1v2.7c0,0.1,0,0.1,0.1,0.2c0.1,0.1,0.1,0.1,0.2,0.1h0.1h0.1v0.6l-0.3,0.1h-0.3c-0.2,0-0.5-0.1-0.6-0.3
			c-0.1-0.1-0.1-0.3-0.1-0.4c-0.2,0.2-0.4,0.4-0.7,0.5c-0.3,0.2-0.7,0.2-1,0.2c-0.4,0-0.8-0.1-1.1-0.4c-0.3-0.3-0.4-0.6-0.4-1
			c0-0.4,0.1-0.7,0.4-1c0.3-0.3,0.7-0.4,1.1-0.5L164,493.2z M162.3,495.3c0.2,0.1,0.4,0.2,0.6,0.2c0.3,0,0.6-0.1,0.8-0.2
			c0.4-0.2,0.7-0.6,0.7-1v-0.6c-0.1,0.1-0.2,0.1-0.4,0.2c-0.1,0-0.3,0.1-0.4,0.1l-0.5,0.1c-0.2,0-0.4,0.1-0.6,0.2
			c-0.2,0.1-0.4,0.4-0.4,0.7C162.1,495,162.2,495.2,162.3,495.3L162.3,495.3z"/>
		<path d="M166.6,489.6h0.8v3.8l2-2h1l-1.8,1.8l1.9,3h-1l-1.4-2.4l-0.6,0.6v1.8h-0.8L166.6,489.6z"/>
		<path d="M171.2,489.6h0.8v6.5h-0.8L171.2,489.6z"/>
		<path d="M175.8,493.2c0.2,0,0.3-0.1,0.4-0.2c0-0.1,0.1-0.2,0.1-0.3c0-0.2-0.1-0.5-0.3-0.6c-0.3-0.1-0.5-0.2-0.8-0.2
			c-0.3,0-0.7,0.1-0.9,0.3c-0.1,0.2-0.2,0.4-0.2,0.5h-0.7c0-0.5,0.2-0.9,0.6-1.2c0.4-0.2,0.8-0.3,1.3-0.3c0.5,0,0.9,0.1,1.3,0.3
			c0.4,0.2,0.6,0.6,0.5,1v2.7c0,0.1,0,0.1,0.1,0.2c0.1,0.1,0.1,0.1,0.2,0.1h0.1h0.1v0.6l-0.3,0.1H177c-0.2,0-0.5-0.1-0.6-0.3
			c-0.1-0.1-0.1-0.3-0.1-0.4c-0.2,0.2-0.4,0.4-0.7,0.5c-0.3,0.2-0.7,0.2-1,0.2c-0.4,0-0.8-0.1-1.1-0.4c-0.3-0.3-0.4-0.6-0.4-1
			c0-0.4,0.1-0.7,0.4-1c0.3-0.3,0.7-0.4,1.1-0.5L175.8,493.2z M174.1,495.3c0.2,0.1,0.4,0.2,0.6,0.2c0.3,0,0.6-0.1,0.8-0.2
			c0.4-0.2,0.7-0.6,0.7-1v-0.6c-0.1,0.1-0.2,0.1-0.4,0.2c-0.1,0-0.3,0.1-0.4,0.1l-0.5,0.1c-0.2,0-0.4,0.1-0.6,0.2
			c-0.2,0.1-0.4,0.4-0.4,0.7C173.9,495,174,495.2,174.1,495.3L174.1,495.3z"/>
		<path d="M178.4,491.3h0.8v0.8c0.1-0.2,0.3-0.4,0.4-0.6c0.2-0.2,0.5-0.3,0.8-0.3h0.3v0.8h-0.1h-0.1c-0.3,0-0.7,0.1-0.9,0.4
			c-0.2,0.2-0.3,0.6-0.3,0.9v2.7h-0.8L178.4,491.3z"/>
		<path d="M181.7,491.4h0.8v4.7h-0.8V491.4z"/>
		<path class="st5" d="M112.7,492.9c0,3.5-2.8,6.3-6.3,6.3c-3.5,0-6.3-2.8-6.3-6.3c0-3.5,2.8-6.3,6.3-6.3c0,0,0,0,0,0
			C109.8,486.5,112.7,489.4,112.7,492.9z"/>
		<path d="M115.4,472.3h4.5v0.8h-3.6v2h3.2v0.8h-3.2v2.9h-0.9V472.3z"/>
		<path d="M120.8,472.3h0.8v0.9h-0.8V472.3z M120.8,474h0.8v4.7h-0.8V474z"/>
		<path d="M122.9,472.3h0.8v6.5h-0.8V472.3z"/>
		<path d="M125,472.3h0.8v0.9H125V472.3z M125,474h0.8v4.7H125V474z"/>
		<path d="M127.6,477.2c0,0.2,0.1,0.4,0.2,0.6c0.3,0.3,0.7,0.4,1.1,0.4c0.3,0,0.5-0.1,0.8-0.2c0.2-0.1,0.4-0.3,0.4-0.6
			c0-0.2-0.1-0.4-0.3-0.5c-0.2-0.1-0.5-0.2-0.7-0.2l-0.6-0.2c-0.3-0.1-0.6-0.2-0.9-0.3c-0.3-0.2-0.5-0.5-0.5-0.9
			c0-0.4,0.2-0.8,0.5-1.1c0.4-0.3,0.8-0.4,1.3-0.4c0.6-0.1,1.2,0.2,1.6,0.6c0.2,0.2,0.3,0.5,0.3,0.8h-0.8c0-0.2-0.1-0.3-0.2-0.5
			c-0.3-0.2-0.6-0.4-1-0.3c-0.2,0-0.5,0-0.7,0.2c-0.3,0.2-0.4,0.5-0.2,0.8c0.1,0.1,0.2,0.2,0.3,0.2c0.2,0.1,0.3,0.2,0.5,0.2l0.5,0.1
			c0.4,0.1,0.8,0.2,1.2,0.4c0.3,0.2,0.5,0.6,0.5,1c0,0.4-0.2,0.8-0.5,1.1c-0.4,0.3-0.9,0.5-1.5,0.5c-0.5,0.1-1.1-0.1-1.5-0.5
			c-0.3-0.3-0.5-0.7-0.5-1.2L127.6,477.2z"/>
		<path d="M131.8,472.7h0.8v1.3h0.8v0.6h-0.8v3.1c0,0.1,0.1,0.3,0.2,0.3c0.1,0,0.2,0,0.3,0h0.1h0.1v0.6c-0.1,0-0.2,0.1-0.3,0.1h-0.3
			c-0.3,0-0.6-0.1-0.8-0.3c-0.1-0.2-0.2-0.5-0.2-0.7v-3.1h-0.6V474h0.6V472.7z"/>
		<path d="M134.3,472.3h0.8v0.9h-0.8V472.3z M134.3,474h0.8v4.7h-0.8V474z"/>
		<path d="M136.4,474h0.8v0.7c0.2-0.2,0.4-0.4,0.7-0.6c0.3-0.1,0.5-0.2,0.8-0.2c0.6-0.1,1.1,0.2,1.4,0.7c0.1,0.3,0.2,0.7,0.2,1.1v3
			h-0.8v-3c0-0.2,0-0.5-0.1-0.7c-0.1-0.3-0.4-0.5-0.8-0.4c-0.2,0-0.3,0-0.5,0.1c-0.2,0.1-0.4,0.2-0.6,0.4c-0.1,0.1-0.2,0.3-0.3,0.5
			c0,0.2-0.1,0.5-0.1,0.7v2.5h-0.8L136.4,474z"/>
		<path class="st4" d="M112.8,475.5c0,3.5-2.8,6.3-6.3,6.3c-3.5,0-6.3-2.8-6.3-6.3c0-3.5,2.8-6.3,6.3-6.3c0,0,0,0,0,0
			C109.9,469.2,112.8,472,112.8,475.5C112.8,475.5,112.8,475.5,112.8,475.5z"/>
		<path class="st6" d="M54.9,368.1H61v1.5h-4.4v2h3.8v1.5h-3.8v3.6h-1.8L54.9,368.1z"/>
		<path class="st6" d="M63.8,376.7H62V368h1.8V376.7z M62.2,365.7h1.5v1.4h-1.5V365.7z"/>
		<path class="st6" d="M65.5,368h1.8v7.1h4.3v1.5h-6.1V368z"/>
		<path class="st6" d="M74.5,376.7h-1.8V368h1.8V376.7z M72.9,365.7h1.5v1.4h-1.5V365.7z"/>
		<path class="st6" d="M77.5,374c0,0.3,0.1,0.6,0.3,0.9c0.4,0.4,1,0.6,1.5,0.5c0.4,0,0.7,0,1.1-0.1c0.5-0.1,0.8-0.5,0.8-1
			c0-0.3-0.1-0.5-0.4-0.7c-0.4-0.2-0.8-0.3-1.2-0.4l-0.9-0.2c-0.7-0.1-1.3-0.3-1.9-0.7c-0.6-0.4-0.9-1.1-0.9-1.9
			c0-0.7,0.3-1.4,0.9-1.9c0.7-0.6,1.6-0.8,2.5-0.8c0.8,0,1.7,0.2,2.4,0.7c0.7,0.5,1,1.3,1,2.1h-1.7c0-0.5-0.3-0.9-0.7-1.1
			c-0.3-0.2-0.7-0.2-1.1-0.2c-0.4,0-0.8,0.1-1.1,0.3c-0.3,0.2-0.4,0.5-0.4,0.8c0,0.3,0.2,0.6,0.4,0.7c0.4,0.2,0.7,0.3,1.1,0.4
			l1.5,0.4c0.5,0.1,1,0.3,1.5,0.6c0.5,0.4,0.8,1.1,0.8,1.8c0,0.8-0.3,1.5-0.9,2c-0.7,0.6-1.7,0.8-2.6,0.8c-1,0.1-1.9-0.2-2.7-0.8
			c-0.7-0.5-1-1.3-1-2.1L77.5,374z"/>
		<path class="st6" d="M90.5,368v1.5h-2.6v7.1h-1.8v-7.1h-2.6V368H90.5z"/>
		<path class="st6" d="M93.2,376.7h-1.8V368h1.8V376.7z M91.5,365.7H93v1.4h-1.5V365.7z"/>
		<path class="st6" d="M94.8,368h1.9l3.4,6v-6h1.7v8.6H100l-3.5-6.1v6.1h-1.7L94.8,368z"/>
		<path d="M43.8,172.2v0.8h-2.2v5.7h-0.9V173h-2.2v-0.8H43.8z"/>
		<path d="M46.5,174.1c0.3,0.1,0.5,0.3,0.7,0.6c0.2,0.3,0.3,0.5,0.3,0.8c0.1,0.3,0.1,0.7,0.1,1h-3.4c0,0.4,0.1,0.8,0.3,1.1
			c0.2,0.3,0.6,0.5,1,0.4c0.4,0,0.7-0.1,1-0.4c0.1-0.2,0.2-0.3,0.3-0.6h0.8c0,0.2-0.1,0.4-0.2,0.6c-0.1,0.2-0.2,0.4-0.4,0.5
			c-0.2,0.2-0.6,0.4-0.9,0.5c-0.2,0.1-0.4,0.1-0.6,0.1c-0.6,0-1.1-0.2-1.5-0.6c-0.4-0.5-0.6-1.1-0.6-1.8c0-0.7,0.2-1.3,0.6-1.8
			c0.4-0.5,1-0.7,1.6-0.7C45.9,173.8,46.3,173.9,46.5,174.1z M46.8,175.9c0-0.3-0.1-0.6-0.2-0.8c-0.2-0.4-0.6-0.6-1.1-0.6
			c-0.3,0-0.7,0.1-0.9,0.4c-0.2,0.3-0.4,0.6-0.4,1L46.8,175.9z"/>
		<path d="M48.7,172.2h0.8v6.4h-0.8V172.2z"/>
		<path d="M54.9,172.2h1l2.3,6.4h-1l-0.7-1.9H54l-0.7,1.9h-0.9L54.9,172.2z M56.3,176l-1-2.9l-1,2.9H56.3z"/>
		<path d="M59.2,174l1.3,3.8l1.3-3.8h0.9l-1.8,4.7h-0.8l-1.7-4.7H59.2z"/>
		<path d="M63.4,172.2h0.8v0.9h-0.8L63.4,172.2z M63.4,174h0.8v4.7h-0.8L63.4,174z"/>
		<path d="M65.9,174l1.3,3.8l1.3-3.8h0.9l-1.8,4.7h-0.8L65,174H65.9z"/>
		<path d="M7.4,248.7c0.6,0.4,1.1,1,1.2,1.8H7.7c-0.1-0.4-0.3-0.8-0.6-1c-0.4-0.2-0.8-0.3-1.2-0.3c-0.6,0-1.1,0.2-1.5,0.7
			c-0.4,0.6-0.7,1.3-0.6,2c0,0.7,0.1,1.3,0.5,1.9c0.4,0.5,1,0.8,1.6,0.7c0.5,0,1-0.2,1.4-0.5c0.4-0.4,0.6-1,0.6-1.6h-2v-0.7h2.8v3.5
			H8.1l-0.2-0.8c-0.2,0.3-0.5,0.5-0.8,0.7c-0.4,0.2-0.9,0.3-1.4,0.3c-0.7,0-1.4-0.2-1.9-0.7c-0.6-0.7-0.9-1.6-0.9-2.6
			c0-0.9,0.3-1.9,0.9-2.6c0.5-0.6,1.3-0.9,2.1-0.9C6.4,248.3,7,248.4,7.4,248.7z"/>
		<path d="M12.7,252.1c0.2,0,0.3-0.1,0.4-0.2c0-0.1,0-0.2,0-0.3c0-0.2-0.1-0.5-0.3-0.6c-0.3-0.1-0.5-0.2-0.8-0.2
			c-0.3,0-0.7,0.1-0.9,0.3c-0.1,0.2-0.2,0.4-0.2,0.5h-0.7c0-0.5,0.2-0.9,0.6-1.2c0.4-0.2,0.8-0.3,1.3-0.3c0.5,0,0.9,0.1,1.3,0.3
			c0.3,0.2,0.5,0.6,0.5,1v2.7c0,0.1,0,0.1,0,0.2c0.1,0.1,0.1,0.1,0.2,0.1h0.1h0.1v0.6l-0.3,0.1h-0.3c-0.2,0-0.5-0.1-0.6-0.3
			c-0.1-0.1-0.1-0.3-0.1-0.4c-0.2,0.2-0.4,0.4-0.7,0.5c-0.3,0.2-0.7,0.2-1,0.2c-0.4,0-0.8-0.1-1.1-0.4c-0.3-0.3-0.4-0.6-0.4-1
			c0-0.4,0.1-0.7,0.4-1c0.3-0.3,0.7-0.4,1.1-0.5L12.7,252.1z M11,254.2c0.2,0.1,0.4,0.2,0.6,0.2c0.3,0,0.6-0.1,0.8-0.2
			c0.4-0.2,0.7-0.6,0.7-1v-0.6c-0.1,0.1-0.2,0.1-0.4,0.1c-0.1,0-0.3,0.1-0.4,0.1l-0.5,0.1c-0.2,0-0.4,0.1-0.6,0.2
			c-0.2,0.1-0.4,0.4-0.4,0.7C10.7,253.9,10.8,254.1,11,254.2z"/>
		<path d="M14.9,254.3l2.8-3.4h-2.6v-0.7h3.7v0.6l-2.7,3.4h2.9v0.7h-4V254.3z"/>
		<path d="M19.5,254.3l2.8-3.4h-2.6v-0.7h3.7v0.6l-2.8,3.4h2.9v0.7h-3.9V254.3z"/>
		<path d="M27.3,250.4c0.3,0.1,0.5,0.3,0.7,0.6c0.2,0.3,0.3,0.5,0.3,0.8c0.1,0.3,0.1,0.7,0.1,1H25c0,0.4,0.1,0.8,0.3,1.1
			c0.2,0.3,0.6,0.5,1,0.4c0.4,0,0.7-0.1,1-0.4c0.1-0.2,0.2-0.3,0.3-0.5h0.8c0,0.2-0.1,0.4-0.2,0.6c-0.3,0.5-0.7,0.9-1.3,1
			c-0.2,0.1-0.4,0.1-0.6,0.1c-0.6,0-1.1-0.2-1.5-0.6c-0.4-0.5-0.7-1.1-0.6-1.8c0-0.7,0.2-1.3,0.6-1.8c0.4-0.5,1-0.7,1.6-0.7
			C26.7,250.1,27,250.2,27.3,250.4z M27.6,252.2c0-0.3-0.1-0.6-0.2-0.8c-0.2-0.4-0.6-0.6-1.1-0.6c-0.3,0-0.7,0.1-0.9,0.4
			c-0.3,0.3-0.4,0.6-0.4,1H27.6z"/>
		<path class="st6" d="M84.2,180.4c0,2.4-1.9,4.3-4.3,4.3c-2.4,0-4.3-1.9-4.3-4.3c0-2.4,1.9-4.3,4.3-4.3c0,0,0,0,0,0
			C82.3,176.1,84.2,178,84.2,180.4z"/>
		<circle class="st6" cx="102.1" cy="78.1" r="4.3"/>
		<circle class="st6" cx="35.1" cy="263" r="4.3"/>
		<circle class="st6" cx="127.6" cy="204.2" r="4.3"/>
		<circle class="st6" cx="127.6" cy="224.5" r="4.3"/>
		<circle class="st6" cx="124.2" cy="238.7" r="4.3"/>
		<path class="st6" d="M82.6,198.7h2.9c0.4,0,0.8,0.1,1.2,0.2c0.6,0.3,0.9,0.9,0.9,1.5c0,0.3-0.1,0.7-0.2,1
			c-0.2,0.3-0.4,0.5-0.7,0.6c0.2,0.1,0.4,0.2,0.6,0.4c0.2,0.2,0.2,0.5,0.2,0.8v0.9c0,0.2,0,0.4,0.1,0.5c0,0.2,0.1,0.3,0.3,0.4v0.1
			h-1.1c0-0.1-0.1-0.1-0.1-0.2c0-0.1,0-0.3-0.1-0.5v-1.1c0-0.3-0.2-0.7-0.5-0.9c-0.2-0.1-0.5-0.1-0.8-0.1h-1.9v2.8h-0.9L82.6,198.7z
			 M85.5,201.7c0.3,0,0.7-0.1,0.9-0.2c0.3-0.2,0.4-0.6,0.4-0.9c0-0.4-0.2-0.7-0.5-0.9c-0.2-0.1-0.5-0.1-0.7-0.1h-2.1v2.2H85.5z"/>
		<path class="st6" d="M91.6,202.3c0.2,0,0.3-0.1,0.4-0.2c0-0.1,0.1-0.2,0.1-0.3c0-0.2-0.1-0.5-0.3-0.6c-0.3-0.1-0.5-0.2-0.8-0.2
			c-0.3,0-0.7,0.1-0.9,0.3c-0.1,0.2-0.2,0.4-0.2,0.5h-0.7c0-0.5,0.2-0.9,0.6-1.2c0.4-0.2,0.8-0.3,1.3-0.3c0.5,0,0.9,0.1,1.3,0.3
			c0.4,0.2,0.6,0.6,0.5,1v2.7c0,0.1,0,0.1,0,0.2c0.1,0.1,0.1,0.1,0.2,0.1h0.1h0.1v0.6l-0.3,0.1h-0.3c-0.2,0-0.5-0.1-0.6-0.3
			c-0.1-0.1-0.1-0.3-0.1-0.4c-0.2,0.2-0.4,0.4-0.7,0.5c-0.3,0.2-0.7,0.2-1,0.2c-0.4,0-0.8-0.1-1.1-0.4c-0.3-0.3-0.4-0.6-0.4-1
			c0-0.4,0.1-0.7,0.4-1c0.3-0.3,0.7-0.4,1.1-0.5L91.6,202.3z M89.9,204.5c0.2,0.1,0.4,0.2,0.6,0.2c0.3,0,0.6-0.1,0.8-0.2
			c0.4-0.2,0.7-0.6,0.7-1.1v-0.6c-0.1,0.1-0.2,0.1-0.4,0.1c-0.1,0-0.3,0.1-0.4,0.1l-0.5,0.1c-0.2,0-0.4,0.1-0.6,0.2
			c-0.2,0.1-0.4,0.4-0.4,0.7C89.7,204.1,89.7,204.3,89.9,204.5L89.9,204.5z"/>
		<path class="st6" d="M94.1,200.5h0.8v0.7c0.1-0.2,0.3-0.4,0.5-0.5c0.3-0.2,0.6-0.3,0.9-0.3c0.3,0,0.6,0.1,0.9,0.3
			c0.1,0.1,0.3,0.3,0.4,0.5c0.2-0.2,0.4-0.4,0.6-0.6c0.2-0.1,0.5-0.2,0.8-0.2c0.5-0.1,1,0.2,1.3,0.7c0.1,0.3,0.2,0.7,0.2,1v3.1h-0.8
			v-3.3c0-0.2-0.1-0.5-0.2-0.6c-0.2-0.1-0.4-0.2-0.6-0.2c-0.3,0-0.6,0.1-0.8,0.3c-0.2,0.3-0.4,0.6-0.3,1v2.7h-0.8v-3.1
			c0-0.2,0-0.5-0.1-0.7c-0.1-0.2-0.4-0.4-0.7-0.3c-0.3,0-0.6,0.1-0.8,0.4c-0.3,0.4-0.4,0.8-0.4,1.3v2.5h-0.8L94.1,200.5z"/>
		<path class="st6" d="M104.2,202.3c0.2,0,0.3-0.1,0.4-0.2c0-0.1,0.1-0.2,0.1-0.3c0-0.2-0.1-0.5-0.3-0.6c-0.3-0.1-0.5-0.2-0.8-0.2
			c-0.3,0-0.7,0.1-0.9,0.3c-0.1,0.2-0.2,0.4-0.2,0.5h-0.7c0-0.5,0.2-0.9,0.6-1.2c0.4-0.2,0.8-0.3,1.3-0.3c0.5,0,0.9,0.1,1.4,0.3
			c0.3,0.2,0.5,0.6,0.5,1v2.7c0,0.1,0,0.1,0.1,0.2c0.1,0.1,0.1,0.1,0.2,0.1h0.1h0.1v0.6l-0.3,0.1h-0.3c-0.2,0-0.5-0.1-0.6-0.3
			c-0.1-0.1-0.1-0.3-0.1-0.4c-0.2,0.2-0.4,0.4-0.7,0.5c-0.3,0.2-0.7,0.2-1,0.2c-0.4,0-0.8-0.1-1.1-0.4c-0.3-0.3-0.4-0.6-0.4-1
			c0-0.4,0.1-0.7,0.4-1c0.3-0.3,0.7-0.4,1.1-0.5L104.2,202.3z M102.6,204.5c0.2,0.1,0.4,0.2,0.6,0.2c0.3,0,0.6-0.1,0.8-0.2
			c0.4-0.2,0.7-0.6,0.7-1v-0.6c-0.1,0.1-0.2,0.1-0.4,0.1c-0.1,0-0.3,0.1-0.4,0.1l-0.5,0.1c-0.2,0-0.4,0.1-0.6,0.2
			c-0.2,0.1-0.4,0.4-0.4,0.7C102.3,204.1,102.4,204.3,102.6,204.5L102.6,204.5z"/>
		<path class="st6" d="M106.8,198.7h0.8v6.5h-0.8V198.7z"/>
		<path class="st6" d="M108.9,198.7h0.8v6.5h-0.8V198.7z"/>
		<path class="st6" d="M113.5,202.3c0.2,0,0.3-0.1,0.4-0.2c0-0.1,0.1-0.2,0.1-0.3c0-0.2-0.1-0.5-0.3-0.6c-0.3-0.1-0.5-0.2-0.8-0.2
			c-0.3,0-0.7,0.1-0.9,0.3c-0.1,0.2-0.2,0.4-0.2,0.5H111c0-0.5,0.2-0.9,0.6-1.2c0.4-0.2,0.8-0.3,1.3-0.3c0.5,0,0.9,0.1,1.4,0.3
			c0.3,0.2,0.5,0.6,0.5,1v2.7c0,0.1,0,0.1,0.1,0.2c0.1,0.1,0.1,0.1,0.2,0.1h0.1h0.1v0.6l-0.3,0.1h-0.3c-0.2,0-0.5-0.1-0.6-0.3
			c-0.1-0.1-0.1-0.3-0.1-0.4c-0.2,0.2-0.4,0.4-0.7,0.5c-0.3,0.2-0.7,0.2-1,0.2c-0.4,0-0.8-0.1-1.1-0.4c-0.3-0.3-0.4-0.6-0.4-1
			c0-0.4,0.1-0.7,0.4-1c0.3-0.3,0.7-0.4,1.1-0.5L113.5,202.3z M111.8,204.5c0.2,0.1,0.4,0.2,0.6,0.2c0.3,0,0.6-0.1,0.8-0.2
			c0.4-0.2,0.7-0.6,0.6-1v-0.6c-0.1,0.1-0.2,0.1-0.4,0.1c-0.1,0-0.3,0.1-0.4,0.1l-0.5,0.1c-0.2,0-0.4,0.1-0.6,0.2
			c-0.2,0.1-0.4,0.4-0.4,0.7C111.6,204.1,111.7,204.3,111.8,204.5L111.8,204.5z"/>
		<path class="st6" d="M116.1,198.7h0.8v2.4c0.1-0.2,0.3-0.4,0.5-0.5c0.3-0.2,0.6-0.3,1-0.3c0.6-0.1,1.1,0.2,1.4,0.7
			c0.1,0.3,0.2,0.7,0.2,1.1v3h-0.8v-3c0-0.3,0-0.5-0.2-0.7c-0.2-0.3-0.5-0.4-0.8-0.4c-0.3,0-0.6,0.1-0.9,0.3
			c-0.3,0.4-0.5,0.8-0.4,1.3v2.5h-0.8L116.1,198.7z"/>
		<path class="st6" d="M93.2,219.7h0.9v3.2l3.2-3.2h1.2l-2.8,2.6l2.8,3.9h-1.1l-2.3-3.2l-1.1,1v2.3h-0.9V219.7z"/>
		<path class="st6" d="M100,221.5v3.1c0,0.2,0,0.4,0.1,0.6c0.1,0.3,0.4,0.5,0.8,0.4c0.5,0,0.9-0.3,1.1-0.7c0.1-0.3,0.2-0.7,0.2-1.1
			v-2.3h0.8v4.7h-0.8v-0.7c-0.1,0.2-0.2,0.3-0.4,0.5c-0.3,0.2-0.7,0.4-1.1,0.4c-0.5,0.1-1.1-0.2-1.4-0.7c-0.1-0.3-0.2-0.7-0.2-1
			v-3.2L100,221.5z"/>
		<path class="st6" d="M106.9,221.6c0.2,0.1,0.3,0.3,0.5,0.5v-2.4h0.8v6.5h-0.7v-0.6c-0.2,0.3-0.4,0.5-0.6,0.6
			c-0.3,0.1-0.6,0.2-0.9,0.2c-0.5,0-1-0.2-1.4-0.7c-0.4-0.5-0.6-1.1-0.6-1.8c0-0.6,0.2-1.3,0.5-1.8
			C105,221.4,106.1,221.2,106.9,221.6L106.9,221.6z M105.1,225.1c0.2,0.3,0.6,0.5,1,0.5c0.4,0,0.7-0.2,0.9-0.5
			c0.3-0.4,0.4-0.9,0.4-1.4c0-0.5-0.1-0.9-0.4-1.3c-0.2-0.3-0.5-0.4-0.9-0.4c-0.4,0-0.8,0.2-1,0.5c-0.3,0.4-0.4,0.9-0.4,1.3
			C104.7,224.3,104.9,224.8,105.1,225.1z"/>
		<path class="st6" d="M110.2,221.5v3.1c0,0.2,0,0.4,0.1,0.6c0.1,0.3,0.5,0.5,0.8,0.4c0.5,0,0.9-0.3,1.1-0.7
			c0.1-0.3,0.2-0.7,0.2-1.1v-2.3h0.8v4.7h-0.8v-0.7c-0.1,0.2-0.2,0.3-0.4,0.5c-0.3,0.2-0.7,0.4-1.1,0.4c-0.5,0.1-1.1-0.2-1.4-0.7
			c-0.1-0.3-0.2-0.7-0.2-1v-3.2L110.2,221.5z M110.2,219.8h0.8v0.9h-0.8V219.8z M111.6,219.8h0.8v0.9h-0.8V219.8z"/>
		<path class="st6" d="M115,224.7c0,0.2,0.1,0.4,0.2,0.6c0.3,0.3,0.7,0.4,1.1,0.4c0.3,0,0.5-0.1,0.8-0.2c0.2-0.1,0.4-0.3,0.3-0.6
			c0-0.2-0.1-0.4-0.3-0.5c-0.2-0.1-0.5-0.2-0.7-0.2l-0.6-0.2c-0.3-0.1-0.6-0.2-0.9-0.3c-0.3-0.2-0.5-0.5-0.5-0.9
			c0-0.4,0.2-0.8,0.5-1.1c0.4-0.3,0.8-0.4,1.3-0.4c0.6-0.1,1.2,0.2,1.6,0.6c0.2,0.2,0.3,0.5,0.3,0.9h-0.8c0-0.2-0.1-0.3-0.2-0.5
			c-0.3-0.2-0.6-0.4-1-0.3c-0.2,0-0.5,0-0.7,0.2c-0.1,0.1-0.2,0.3-0.2,0.5c0,0.2,0.1,0.4,0.3,0.5c0.2,0.1,0.3,0.2,0.5,0.2l0.5,0.1
			c0.4,0.1,0.8,0.2,1.2,0.4c0.3,0.2,0.5,0.6,0.5,1c0,0.4-0.2,0.8-0.5,1.1c-0.4,0.3-0.9,0.5-1.5,0.5c-0.5,0.1-1.1-0.1-1.5-0.5
			c-0.3-0.3-0.5-0.7-0.5-1.2L115,224.7z"/>
		<path class="st6" d="M69.9,233.6h2.8c0.6-0.1,1.2,0.2,1.6,0.7c0.2,0.3,0.3,0.6,0.3,0.9c0,0.4-0.1,0.7-0.4,1
			c-0.1,0.2-0.3,0.3-0.5,0.4c0.3,0.1,0.5,0.2,0.7,0.4c0.3,0.3,0.5,0.7,0.4,1.2c0,0.4-0.1,0.8-0.4,1.1c-0.5,0.5-1.2,0.8-1.9,0.8h-2.8
			L69.9,233.6z M72.3,236.3c0.3,0,0.6,0,0.9-0.1c0.3-0.2,0.5-0.5,0.5-0.9c0-0.4-0.2-0.7-0.5-0.9c-0.3-0.1-0.6-0.1-0.9-0.1h-1.6v2
			H72.3z M72.6,239.3c0.4,0,0.9-0.1,1.2-0.5c0.1-0.2,0.2-0.5,0.2-0.7c0-0.4-0.2-0.8-0.6-1c-0.3-0.1-0.6-0.1-0.9-0.1h-1.8v2.3
			L72.6,239.3z"/>
		<path class="st6" d="M78.8,235.4c0.3,0.1,0.5,0.3,0.7,0.6c0.2,0.3,0.3,0.5,0.3,0.8c0.1,0.3,0.1,0.7,0.1,1h-3.4
			c0,0.4,0.1,0.8,0.3,1.1c0.2,0.3,0.6,0.5,1,0.4c0.4,0,0.7-0.1,1-0.4c0.1-0.2,0.2-0.4,0.3-0.6h0.8c0,0.2-0.1,0.4-0.2,0.6
			c-0.1,0.2-0.2,0.4-0.4,0.5c-0.2,0.2-0.5,0.4-0.9,0.5c-0.2,0-0.4,0.1-0.6,0.1c-0.6,0-1.1-0.2-1.5-0.6c-0.4-0.5-0.6-1.1-0.6-1.8
			c0-0.7,0.2-1.3,0.6-1.8c0.4-0.5,1-0.7,1.6-0.7C78.2,235.2,78.5,235.3,78.8,235.4z M79.1,237.3c0-0.3-0.1-0.6-0.2-0.8
			c-0.2-0.4-0.6-0.6-1.1-0.6c-0.3,0-0.7,0.1-0.9,0.4c-0.2,0.3-0.4,0.6-0.4,1H79.1z"/>
		<path class="st6" d="M83.9,235.3h0.9c-0.1,0.3-0.4,1-0.7,2.1c-0.3,0.8-0.5,1.5-0.7,2c-0.3,0.8-0.6,1.5-1,2.2
			c-0.2,0.3-0.6,0.5-1,0.4H81h-0.2v-0.7l0.3,0.1h0.2c0.1,0,0.2,0,0.3-0.1c0.1,0,0.1-0.1,0.2-0.2c0.1-0.1,0.1-0.2,0.2-0.4l0.2-0.5
			l-1.7-4.9h0.9l1.3,3.8L83.9,235.3z"/>
		<path class="st6" d="M85.7,234h0.8v1.3h0.8v0.6h-0.8v3.1c0,0.1,0.1,0.3,0.2,0.3c0.1,0,0.2,0.1,0.3,0h0.1h0.1v0.6
			c-0.1,0-0.2,0.1-0.3,0.1h-0.3c-0.3,0-0.6-0.1-0.8-0.3c-0.1-0.2-0.2-0.5-0.2-0.7V236h-0.6v-0.6h0.6L85.7,234z"/>
		<path class="st6" d="M88.9,235.3v3.1c0,0.2,0,0.4,0.1,0.6c0.1,0.3,0.4,0.5,0.8,0.4c0.5,0,0.9-0.3,1.1-0.7c0.1-0.4,0.2-0.7,0.2-1.1
			v-2.3h0.8v4.7h-0.8v-0.7c-0.1,0.2-0.2,0.3-0.4,0.5c-0.3,0.2-0.7,0.4-1.1,0.4c-0.5,0.1-1.1-0.2-1.4-0.7c-0.1-0.3-0.2-0.7-0.2-1
			v-3.2L88.9,235.3z"/>
		<path class="st6" d="M93.3,233.6H94v6.5h-0.8L93.3,233.6z"/>
		<path class="st6" d="M95.3,233.6h0.8v6.5h-0.8V233.6z"/>
		<path class="st6" d="M99.9,237.2c0.2,0,0.3-0.1,0.4-0.2c0-0.1,0-0.2,0-0.3c0-0.2-0.1-0.5-0.3-0.6c-0.3-0.1-0.5-0.2-0.8-0.2
			c-0.3,0-0.7,0.1-0.9,0.3c-0.1,0.2-0.2,0.4-0.2,0.5h-0.7c0-0.5,0.2-0.9,0.6-1.2c0.4-0.2,0.8-0.4,1.3-0.3c0.5,0,0.9,0.1,1.3,0.3
			c0.4,0.2,0.6,0.6,0.5,1v2.7c0,0.1,0,0.1,0,0.2c0,0,0.1,0.1,0.2,0.1h0.1h0.1v0.6c-0.1,0-0.2,0.1-0.3,0.1H101
			c-0.2,0-0.5-0.1-0.6-0.3c-0.1-0.1-0.1-0.3-0.1-0.4c-0.2,0.2-0.4,0.4-0.7,0.5c-0.3,0.2-0.7,0.2-1,0.2c-0.4,0-0.8-0.1-1.1-0.4
			c-0.3-0.3-0.4-0.6-0.4-1c0-0.4,0.1-0.7,0.4-1c0.3-0.2,0.7-0.4,1.1-0.4L99.9,237.2z M98.3,239.3c0.2,0.1,0.4,0.2,0.6,0.2
			c0.3,0,0.6-0.1,0.8-0.2c0.4-0.2,0.7-0.6,0.7-1v-0.6c-0.1,0.1-0.2,0.1-0.4,0.1l-0.4,0.1l-0.5,0.1c-0.2,0-0.4,0.1-0.6,0.2
			c-0.2,0.1-0.4,0.4-0.4,0.7C98,239,98.1,239.2,98.3,239.3L98.3,239.3z"/>
		<path class="st6" d="M102.5,233.5h0.8v2.4c0.1-0.2,0.3-0.4,0.5-0.5c0.3-0.2,0.6-0.3,0.9-0.3c0.6-0.1,1.1,0.2,1.4,0.7
			c0.2,0.3,0.2,0.7,0.2,1.1v3h-0.8v-3c0-0.3,0-0.5-0.1-0.8c-0.2-0.3-0.5-0.4-0.8-0.4c-0.3,0-0.6,0.1-0.9,0.3
			c-0.3,0.3-0.5,0.8-0.4,1.3v2.5h-0.8V233.5z"/>
		<path class="st6" d="M107.6,233.6h0.8v0.9h-0.8V233.6z M107.6,235.3h0.8v4.7h-0.8V235.3z"/>
		<path class="st6" d="M109.7,235.3h0.8v0.7c0.1-0.2,0.3-0.4,0.5-0.5c0.3-0.2,0.6-0.3,0.9-0.3c0.3,0,0.6,0.1,0.9,0.3
			c0.1,0.1,0.3,0.3,0.4,0.5c0.2-0.2,0.4-0.4,0.6-0.6c0.2-0.1,0.5-0.2,0.8-0.2c0.5-0.1,1,0.2,1.3,0.7c0.1,0.3,0.2,0.7,0.2,1v3.1h-0.8
			v-3.3c0-0.2-0.1-0.5-0.2-0.6c-0.2-0.1-0.4-0.2-0.6-0.2c-0.3,0-0.6,0.1-0.8,0.3c-0.2,0.3-0.4,0.6-0.3,1v2.7h-0.8v-3.1
			c0-0.2,0-0.5-0.1-0.7c-0.1-0.2-0.4-0.4-0.7-0.3c-0.3,0-0.6,0.1-0.8,0.4c-0.3,0.3-0.4,0.8-0.4,1.3v2.5h-0.8L109.7,235.3z"/>
		<path d="M70.9,69.6h0.9v2.7h3.3v-2.7H76v6.5h-0.9v-3h-3.3v3h-0.9L70.9,69.6z"/>
		<path d="M79.9,73.2c0.2,0,0.3-0.1,0.4-0.2c0-0.1,0.1-0.2,0.1-0.3c0-0.2-0.1-0.5-0.3-0.6c-0.3-0.1-0.5-0.2-0.8-0.2
			c-0.3,0-0.7,0.1-0.9,0.3c-0.1,0.2-0.2,0.4-0.2,0.6h-0.7c0-0.5,0.2-0.9,0.6-1.2c0.4-0.2,0.8-0.3,1.3-0.3c0.5,0,0.9,0.1,1.4,0.3
			c0.3,0.2,0.5,0.6,0.5,1v2.7c0,0.1,0,0.1,0.1,0.2c0,0.1,0.1,0.1,0.2,0.1h0.3v0.6l-0.3,0.1H81c-0.2,0-0.5-0.1-0.6-0.3
			c-0.1-0.1-0.1-0.3-0.1-0.4c-0.2,0.2-0.4,0.4-0.7,0.6c-0.3,0.2-0.7,0.2-1,0.2c-0.4,0-0.8-0.1-1.1-0.4c-0.3-0.3-0.4-0.6-0.4-1
			c0-0.4,0.1-0.7,0.4-1c0.3-0.3,0.7-0.4,1.1-0.4L79.9,73.2z M78.2,75.3c0.2,0.1,0.4,0.2,0.6,0.2c0.3,0,0.6-0.1,0.8-0.2
			c0.4-0.2,0.7-0.6,0.7-1.1v-0.6c-0.1,0.1-0.2,0.1-0.4,0.1l-0.4,0.1L79,74c-0.2,0-0.4,0.1-0.6,0.2c-0.4,0.2-0.5,0.7-0.3,1
			C78.1,75.2,78.1,75.3,78.2,75.3L78.2,75.3z"/>
		<path d="M85.4,71.3h0.9c-0.1,0.3-0.4,1-0.7,2.1c-0.3,0.8-0.5,1.5-0.7,2c-0.3,0.8-0.6,1.5-1,2.2c-0.2,0.3-0.6,0.4-1,0.4h-0.3h-0.2
			v-0.7c0.1,0,0.2,0.1,0.3,0.1h0.2c0.1,0,0.2,0,0.3-0.1c0.1,0,0.1-0.1,0.2-0.2c0,0,0.1-0.1,0.2-0.4l0.2-0.5L82,71.3h0.9l1.3,3.8
			L85.4,71.3z"/>
		<path d="M87.4,69.9c0.3-0.3,0.7-0.5,1.1-0.4h0.1h0.2v0.7h-0.3c-0.3,0-0.4,0.1-0.4,0.2C88,70.7,88,71,88,71.4h0.8V72H88v4.1h-0.8
			V72h-0.7v-0.6h0.7v-0.7C87.2,70.4,87.3,70.1,87.4,69.9z"/>
		<path d="M92.1,73.2c0.2,0,0.3-0.1,0.4-0.2c0-0.1,0-0.2,0-0.3c0-0.2-0.1-0.5-0.3-0.6c-0.3-0.1-0.5-0.2-0.8-0.2
			c-0.3,0-0.7,0.1-0.9,0.3c-0.1,0.2-0.2,0.4-0.2,0.6h-0.7c0-0.5,0.2-0.9,0.6-1.2c0.4-0.2,0.8-0.4,1.3-0.3c0.5,0,0.9,0.1,1.4,0.3
			c0.3,0.2,0.5,0.6,0.5,1v2.7c0,0.1,0,0.1,0,0.2c0,0.1,0.1,0.1,0.2,0.1h0.3v0.6l-0.3,0.1h-0.3c-0.2,0-0.5-0.1-0.6-0.3
			c-0.1-0.1-0.1-0.3-0.1-0.4c-0.2,0.2-0.4,0.4-0.7,0.6c-0.3,0.2-0.7,0.2-1,0.2c-0.4,0-0.8-0.1-1.1-0.4c-0.3-0.3-0.4-0.6-0.4-1
			c0-0.4,0.1-0.7,0.4-1c0.3-0.3,0.7-0.4,1.1-0.4L92.1,73.2z M90.5,75.3c0.2,0.1,0.4,0.2,0.6,0.2c0.3,0,0.6-0.1,0.8-0.2
			c0.4-0.2,0.7-0.6,0.7-1.1v-0.6c-0.1,0.1-0.2,0.1-0.4,0.1l-0.4,0.1L91.3,74c-0.2,0-0.4,0.1-0.6,0.2c-0.2,0.1-0.4,0.4-0.4,0.7
			C90.2,75,90.3,75.2,90.5,75.3L90.5,75.3z"/>
		<rect x="0.4" y="0.5" class="st0" width="128.5" height="35.9"/>
		<path d="M129.3,36.8H0V0.2h129.3V36.8z M0.8,36h127.7V0.9H0.8L0.8,36z"/>
		<path d="M7.9,10.8v-0.7c0.5,0,0.9-0.1,1.3-0.3c0.3-0.3,0.5-0.6,0.6-1h0.7v7H9.6v-5L7.9,10.8z"/>
		<path d="M14,14c0,0.4,0.2,0.8,0.6,1c0.2,0.1,0.4,0.2,0.6,0.2c0.4,0,0.8-0.2,1.1-0.5c0.4-0.6,0.6-1.4,0.6-2.1
			c-0.2,0.3-0.4,0.5-0.7,0.7c-0.3,0.1-0.6,0.2-0.9,0.2c-0.6,0-1.2-0.2-1.6-0.6c-0.4-0.4-0.6-1-0.6-1.6c0-0.6,0.2-1.2,0.6-1.7
			c0.4-0.5,1.1-0.8,1.7-0.7c0.9-0.1,1.8,0.5,2.1,1.4c0.2,0.6,0.3,1.3,0.3,1.9c0,0.8-0.1,1.5-0.4,2.3c-0.3,1-1.2,1.7-2.2,1.7
			c-0.6,0.1-1.1-0.1-1.6-0.5c-0.4-0.4-0.5-0.8-0.5-1.3L14,14z M16.3,12.3c0.3-0.3,0.5-0.8,0.4-1.2c0-0.4-0.1-0.8-0.4-1.2
			c-0.3-0.3-0.6-0.4-1-0.4c-0.4,0-0.7,0.1-1,0.4c-0.3,0.3-0.4,0.7-0.4,1.2c0,0.4,0.1,0.8,0.3,1.1c0.3,0.3,0.7,0.4,1.1,0.4
			C15.7,12.6,16,12.5,16.3,12.3L16.3,12.3z"/>
		<path d="M21.6,15.7V14h-3.1v-0.9l3.2-4.4h0.7v4.5h1V14h-1v1.7H21.6z M21.6,13.3v-3.2l-2.2,3.2L21.6,13.3z"/>
		<path d="M29.2,8.9v0.8c-0.3,0.4-0.6,0.7-0.9,1.1c-0.4,0.6-0.7,1.1-1,1.8c-0.3,0.5-0.5,1.1-0.6,1.7c-0.1,0.3-0.2,0.8-0.4,1.6h-1
			c0.2-1.4,0.7-2.8,1.5-4c0.4-0.7,0.9-1.4,1.4-2h-3.8V8.8L29.2,8.9z"/>
		<path d="M30,12.5h2.4v0.9H30V12.5z"/>
		<path d="M36.7,8.6h3.1c0.7-0.1,1.4,0.2,1.8,0.8c0.2,0.3,0.3,0.6,0.3,1c0,0.4-0.1,0.8-0.4,1.1c-0.2,0.2-0.4,0.3-0.6,0.4
			c0.3,0.1,0.6,0.3,0.8,0.5c0.3,0.3,0.5,0.8,0.5,1.3c0,0.5-0.2,0.9-0.4,1.3c-0.5,0.6-1.3,0.9-2.1,0.8h-3L36.7,8.6z M39.4,11.6
			c0.3,0,0.7,0,1-0.2c0.4-0.2,0.6-0.6,0.5-1c0-0.4-0.2-0.8-0.6-0.9c-0.3-0.1-0.7-0.2-1-0.1h-1.8v2.2L39.4,11.6z M39.7,14.9
			c0.5,0.1,0.9-0.1,1.3-0.4c0.2-0.2,0.2-0.5,0.2-0.8c0-0.5-0.3-0.9-0.7-1.1c-0.3-0.1-0.7-0.2-1-0.2h-2v2.5L39.7,14.9z"/>
		<path d="M43.4,8.6h1.4l2.1,6.1l2-6.1h1.4v7.2h-0.9v-4.2c0-0.2,0-0.4,0-0.7s0-0.7,0-1.1l-2.1,6h-1l-2.1-6v0.2c0,0.2,0,0.4,0,0.8
			s0,0.6,0,0.8v4.2h-0.9L43.4,8.6z"/>
		<path d="M51.9,10.6c0.2,0,0.3-0.1,0.4-0.3c0.1-0.2,0.1-0.4,0.1-0.6c0,0,0,0,0-0.1c0,0,0,0,0-0.1H52V8.6h1v1c0,0.4-0.1,0.7-0.3,1.1
			c-0.2,0.3-0.5,0.5-0.8,0.5L51.9,10.6z"/>
		<path d="M57,10.7c0.2,0.1,0.4,0.3,0.5,0.5V8.5h0.8v7.2h-0.8V15c-0.2,0.3-0.4,0.5-0.7,0.7c-0.3,0.2-0.7,0.2-1,0.2
			c-0.6,0-1.1-0.3-1.5-0.7c-0.5-0.6-0.7-1.3-0.6-2c0-0.7,0.2-1.4,0.6-2c0.4-0.5,1-0.8,1.7-0.8C56.3,10.4,56.7,10.5,57,10.7z
			 M55,14.6c0.2,0.4,0.7,0.6,1.1,0.6c0.4,0,0.8-0.2,1-0.5c0.3-0.4,0.4-1,0.4-1.5c0-0.5-0.1-1-0.4-1.5c-0.2-0.3-0.6-0.5-1-0.5
			c-0.4,0-0.8,0.2-1.1,0.5c-0.3,0.4-0.5,1-0.4,1.5C54.6,13.7,54.8,14.2,55,14.6z"/>
		<path d="M63,10.6c0.3,0.1,0.6,0.4,0.8,0.7c0.2,0.3,0.3,0.6,0.3,0.9c0.1,0.4,0.1,0.8,0.1,1.2h-3.8c0,0.5,0.1,0.9,0.4,1.3
			c0.3,0.3,0.7,0.5,1.1,0.5c0.4,0,0.8-0.1,1.1-0.5c0.2-0.2,0.3-0.4,0.3-0.6h0.9c0,0.2-0.1,0.4-0.2,0.6c-0.1,0.2-0.3,0.4-0.4,0.6
			c-0.3,0.3-0.6,0.5-1,0.5c-0.2,0.1-0.5,0.1-0.7,0.1c-0.6,0-1.2-0.3-1.6-0.7c-0.5-0.6-0.7-1.3-0.7-2c0-0.7,0.2-1.4,0.7-2
			C60.8,10.4,62,10.2,63,10.6L63,10.6z M63.3,12.6c0-0.3-0.1-0.6-0.3-0.9c-0.2-0.4-0.7-0.7-1.2-0.6c-0.4,0-0.7,0.2-1,0.4
			c-0.3,0.3-0.4,0.7-0.4,1.1H63.3z"/>
		<path d="M68.3,8.6h0.9v4.2l2.3-2.2h1.1l-2,2l2.1,3.3h-1.1l-1.6-2.7l-0.7,0.7v2h-0.9L68.3,8.6z"/>
		<path d="M76.2,12.6c0.2,0,0.3-0.1,0.4-0.3c0-0.1,0.1-0.2,0.1-0.3c0-0.3-0.1-0.5-0.3-0.7c-0.3-0.2-0.6-0.2-0.9-0.2
			c-0.4,0-0.7,0.1-1,0.4c-0.1,0.2-0.2,0.4-0.2,0.6h-0.8c0-0.5,0.2-1,0.6-1.3c0.4-0.3,0.9-0.4,1.4-0.4c0.5,0,1,0.1,1.5,0.4
			c0.4,0.2,0.6,0.6,0.6,1.1v3c0,0.1,0,0.2,0.1,0.2c0.1,0.1,0.1,0.1,0.2,0.1h0.1h0.1v0.7l-0.3,0.1h-0.3c-0.3,0-0.5-0.1-0.7-0.3
			c-0.1-0.1-0.1-0.3-0.1-0.5c-0.2,0.3-0.5,0.5-0.8,0.6c-0.3,0.2-0.7,0.3-1.1,0.3c-0.4,0-0.9-0.1-1.2-0.4c-0.3-0.3-0.5-0.7-0.5-1.1
			c0-0.4,0.1-0.8,0.4-1.1c0.3-0.3,0.8-0.4,1.2-0.5L76.2,12.6z M74.3,14.9c0.2,0.1,0.4,0.2,0.7,0.2c0.3,0,0.6-0.1,0.9-0.2
			c0.5-0.2,0.8-0.7,0.7-1.2v-0.7c-0.1,0.1-0.3,0.1-0.4,0.2c-0.2,0-0.3,0.1-0.5,0.1l-0.5,0.1c-0.3,0-0.5,0.1-0.7,0.2
			c-0.3,0.1-0.4,0.4-0.4,0.7C74.1,14.6,74.2,14.8,74.3,14.9z"/>
		<path d="M79,8.5h0.9v2.6c0.2-0.2,0.4-0.4,0.7-0.6c0.3-0.1,0.6-0.2,0.9-0.2c0.6,0,1.2,0.2,1.6,0.7c0.5,0.6,0.7,1.3,0.6,2
			c0,0.7-0.2,1.5-0.6,2.1c-0.4,0.5-1,0.8-1.7,0.8c-0.4,0-0.7-0.1-1-0.3c-0.2-0.2-0.4-0.3-0.5-0.6v0.7H79V8.5z M82.4,14.5
			c0.3-0.5,0.4-1,0.4-1.5c0-0.5-0.1-1-0.4-1.4c-0.2-0.3-0.6-0.5-1-0.5c-0.4,0-0.8,0.2-1.1,0.4C80,12,79.8,12.5,79.9,13
			c0,0.4,0,0.8,0.2,1.2c0.2,0.5,0.7,0.9,1.3,0.9C81.7,15.1,82.1,14.9,82.4,14.5L82.4,14.5z"/>
		<path d="M85.6,10.5V14c0,0.2,0,0.5,0.1,0.7c0.2,0.3,0.5,0.5,0.9,0.5c0.5,0,1-0.3,1.2-0.8c0.1-0.4,0.2-0.8,0.2-1.2v-2.6h0.9v5.2H88
			V15c-0.1,0.2-0.2,0.4-0.4,0.5c-0.3,0.3-0.8,0.4-1.2,0.4c-0.6,0.1-1.2-0.2-1.5-0.7c-0.2-0.3-0.2-0.7-0.2-1.1v-3.6H85.6z"/>
		<path d="M90.4,8.6h0.9v7.2h-0.9V8.6z"/>
		<path d="M98.8,10.6c0.3,0.1,0.6,0.4,0.8,0.7c0.2,0.3,0.3,0.6,0.4,0.9c0.1,0.4,0.1,0.8,0.1,1.2h-3.8c0,0.5,0.1,0.9,0.4,1.3
			c0.3,0.3,0.7,0.5,1.1,0.5c0.4,0,0.8-0.2,1.1-0.5c0.2-0.2,0.3-0.4,0.3-0.6h0.9c0,0.2-0.1,0.4-0.2,0.6c-0.1,0.2-0.3,0.4-0.4,0.6
			c-0.3,0.3-0.6,0.5-1,0.5c-0.2,0.1-0.5,0.1-0.7,0.1c-0.6,0-1.2-0.2-1.6-0.7c-0.5-0.6-0.7-1.3-0.7-2c0-0.7,0.2-1.4,0.7-2
			c0.4-0.5,1.1-0.8,1.8-0.8C98.1,10.4,98.4,10.5,98.8,10.6z M99.1,12.6c0-0.3-0.1-0.6-0.3-0.9c-0.2-0.4-0.7-0.7-1.2-0.6
			c-0.4,0-0.7,0.2-1,0.4c-0.3,0.3-0.4,0.7-0.4,1.1H99.1z"/>
		<path d="M104.1,10.7c0.2,0.1,0.4,0.3,0.5,0.5V8.5h0.9v7.2h-0.8V15c-0.2,0.3-0.4,0.5-0.7,0.7c-0.3,0.2-0.7,0.2-1,0.2
			c-0.6,0-1.1-0.3-1.5-0.7c-0.5-0.6-0.7-1.3-0.6-2c0-0.7,0.2-1.4,0.6-2c0.4-0.5,1-0.8,1.7-0.8C103.4,10.4,103.8,10.5,104.1,10.7z
			 M102.1,14.6c0.2,0.4,0.7,0.6,1.1,0.6c0.4,0,0.8-0.2,1-0.5c0.3-0.4,0.4-1,0.4-1.5c0-0.5-0.1-1-0.4-1.5c-0.2-0.3-0.6-0.5-1-0.5
			c-0.4,0-0.8,0.2-1.1,0.5c-0.3,0.4-0.5,1-0.4,1.5C101.7,13.7,101.9,14.2,102.1,14.6L102.1,14.6z"/>
		<path d="M106.9,8.6h0.9v1h-0.9V8.6z M106.9,10.6h0.9v5.2h-0.9V10.6z"/>
		<path d="M109.2,8.6h0.9v7.2h-0.9V8.6z"/>
		<path d="M114.8,10.6c0.3,0.1,0.6,0.4,0.8,0.7c0.2,0.3,0.3,0.6,0.4,0.9c0.1,0.4,0.1,0.8,0.1,1.2h-3.8c0,0.5,0.1,0.9,0.4,1.3
			c0.3,0.3,0.7,0.5,1.1,0.5c0.4,0,0.8-0.1,1.1-0.5c0.2-0.2,0.3-0.4,0.3-0.6h0.9c0,0.2-0.1,0.4-0.2,0.6c-0.1,0.2-0.3,0.4-0.4,0.6
			c-0.3,0.3-0.6,0.5-1,0.5c-0.2,0.1-0.5,0.1-0.7,0.1c-0.6,0-1.2-0.2-1.6-0.7c-0.5-0.6-0.7-1.3-0.7-2c0-0.7,0.2-1.4,0.7-2
			c0.4-0.5,1.1-0.8,1.8-0.8C114.1,10.4,114.4,10.5,114.8,10.6z M115.1,12.6c0-0.3-0.1-0.6-0.3-0.9c-0.2-0.4-0.7-0.7-1.2-0.6
			c-0.4,0-0.7,0.2-1,0.4c-0.3,0.3-0.4,0.7-0.4,1.1H115.1z"/>
		<path d="M117.2,10.5h0.8v0.7c0.2-0.3,0.5-0.5,0.8-0.7c0.3-0.1,0.6-0.2,0.9-0.2c0.6-0.1,1.2,0.2,1.5,0.8c0.2,0.4,0.2,0.8,0.2,1.2
			v3.3h-0.9v-3.3c0-0.3,0-0.5-0.1-0.8c-0.2-0.3-0.5-0.5-0.9-0.5c-0.2,0-0.3,0-0.5,0.1c-0.2,0.1-0.5,0.2-0.6,0.4
			c-0.1,0.1-0.2,0.3-0.3,0.5c-0.1,0.3-0.1,0.5-0.1,0.8v2.7h-0.9L117.2,10.5z"/>
		<path d="M7.8,20.6h5v0.9h-4v2.2h3.5v0.9H8.8v3.3h-1L7.8,20.6z"/>
		<path d="M13.8,20.6h0.9v1h-0.9V20.6z M13.8,22.6h0.9v5.2h-0.9V22.6z"/>
		<path d="M16.2,20.6H17v7.2h-0.9L16.2,20.6z"/>
		<path d="M18.5,20.6h0.9v1h-0.9V20.6z M18.5,22.6h0.9v5.2h-0.9V22.6z"/>
		<path d="M21.3,26.1c0,0.2,0.1,0.5,0.2,0.7c0.3,0.3,0.7,0.5,1.2,0.4c0.3,0,0.6-0.1,0.9-0.2c0.3-0.1,0.4-0.4,0.4-0.7
			c0-0.2-0.1-0.4-0.3-0.5c-0.2-0.1-0.5-0.2-0.8-0.3l-0.8-0.1c-0.4-0.1-0.7-0.2-1-0.4c-0.4-0.2-0.6-0.6-0.6-1c0-0.5,0.2-0.9,0.5-1.2
			c0.4-0.3,0.9-0.5,1.5-0.5c0.7-0.1,1.3,0.2,1.7,0.7c0.2,0.3,0.3,0.6,0.3,1h-0.8c0-0.2-0.1-0.4-0.2-0.5c-0.3-0.3-0.7-0.4-1.1-0.3
			c-0.3,0-0.5,0-0.8,0.2c-0.2,0.1-0.3,0.3-0.3,0.5c0,0.2,0.1,0.4,0.3,0.6c0.2,0.1,0.4,0.2,0.6,0.2l0.6,0.1c0.4,0.1,0.9,0.2,1.3,0.4
			c0.4,0.2,0.6,0.6,0.5,1.1c0,0.5-0.2,0.9-0.5,1.2c-0.5,0.4-1,0.6-1.6,0.5c-0.6,0-1.2-0.2-1.7-0.6c-0.3-0.4-0.5-0.8-0.5-1.3
			L21.3,26.1z"/>
		<path d="M26.1,21h0.9v1.5h0.8v0.7h-0.8v3.4c0,0.2,0.1,0.3,0.2,0.4c0.1,0,0.2,0,0.3,0h0.1h0.2v0.7c-0.1,0-0.2,0.1-0.3,0.1
			c-0.1,0-0.2,0-0.3,0c-0.3,0-0.6-0.1-0.8-0.3c-0.2-0.2-0.2-0.5-0.2-0.8v-3.4h-0.7v-0.7h0.7V21z"/>
		<path d="M28.8,20.6h0.9v1h-0.9V20.6z M28.8,22.6h0.9v5.2h-0.9V22.6z"/>
		<path d="M31.1,22.5h0.8v0.7c0.2-0.3,0.5-0.5,0.8-0.7c0.3-0.1,0.6-0.2,0.9-0.2c0.6-0.1,1.2,0.2,1.5,0.8c0.2,0.4,0.2,0.8,0.2,1.3
			v3.3h-0.9v-3.3c0-0.3,0-0.5-0.1-0.8c-0.2-0.3-0.5-0.5-0.8-0.5c-0.2,0-0.4,0-0.5,0.1c-0.2,0.1-0.5,0.2-0.6,0.4
			c-0.1,0.2-0.2,0.3-0.3,0.5c0,0.3-0.1,0.5-0.1,0.8v2.7h-0.9L31.1,22.5z"/>
		<path d="M36.9,22.6c0.2,0,0.3-0.1,0.4-0.3c0.1-0.2,0.1-0.4,0.1-0.6c0,0,0,0,0-0.1c0,0,0,0,0-0.1H37v-1.1h1v1
			c0,0.4-0.1,0.7-0.3,1.1c-0.2,0.3-0.5,0.5-0.8,0.5L36.9,22.6z"/>
		<path d="M39.1,20.6H40v1h-0.9V20.6z M39.1,22.6H40v5.2h-0.9V22.6z"/>
		<path d="M44.4,21h0.9v1.5h0.8v0.7h-0.8v3.4c0,0.1,0.1,0.3,0.2,0.4c0.1,0,0.2,0,0.3,0H46h0.2v0.7c-0.1,0-0.2,0.1-0.3,0.1
			c-0.1,0-0.2,0-0.4,0c-0.3,0-0.6-0.1-0.8-0.3c-0.2-0.2-0.2-0.5-0.2-0.8v-3.4h-0.7v-0.7h0.7L44.4,21z"/>
		<path d="M49.9,24.6c0.2,0,0.3-0.1,0.4-0.3c0-0.1,0.1-0.2,0.1-0.3c0-0.3-0.1-0.5-0.3-0.7c-0.3-0.2-0.6-0.2-0.9-0.2
			c-0.4,0-0.7,0.1-1,0.4C48,23.7,48,23.9,48,24.1h-0.8c0-0.5,0.2-1,0.6-1.3c0.4-0.3,0.9-0.4,1.4-0.4c0.5,0,1,0.1,1.5,0.4
			c0.4,0.2,0.6,0.6,0.6,1.1v3c0,0.1,0,0.2,0.1,0.2c0,0.1,0.1,0.1,0.2,0.1h0.1h0.2v0.7l-0.3,0.1h-0.3c-0.3,0-0.5-0.1-0.7-0.3
			c-0.1-0.1-0.1-0.3-0.2-0.5c-0.2,0.3-0.5,0.5-0.8,0.6c-0.3,0.2-0.7,0.3-1.1,0.3c-0.4,0-0.9-0.1-1.2-0.4c-0.3-0.3-0.5-0.7-0.5-1.1
			c0-0.4,0.1-0.8,0.4-1.1c0.3-0.3,0.8-0.4,1.2-0.5L49.9,24.6z M48.1,26.9c0.2,0.1,0.4,0.2,0.7,0.2c0.3,0,0.6-0.1,0.9-0.2
			c0.5-0.2,0.8-0.7,0.7-1.2v-0.7c-0.1,0.1-0.3,0.1-0.4,0.2c-0.2,0-0.3,0.1-0.5,0.1l-0.5,0.1c-0.3,0-0.5,0.1-0.7,0.2
			c-0.3,0.1-0.4,0.4-0.4,0.7C47.8,26.6,47.9,26.8,48.1,26.9z"/>
		<path d="M52.8,20.6h0.8v4.2l2.3-2.2H57l-2,2l2.1,3.3H56l-1.6-2.7l-0.7,0.7v2h-0.8L52.8,20.6z"/>
		<path d="M58.4,26.1c0,0.2,0.1,0.5,0.2,0.7c0.3,0.3,0.7,0.5,1.2,0.4c0.3,0,0.6-0.1,0.9-0.2c0.2-0.1,0.4-0.4,0.4-0.7
			c0-0.2-0.1-0.4-0.3-0.5c-0.2-0.1-0.5-0.2-0.8-0.3l-0.7-0.1c-0.4-0.1-0.7-0.2-1-0.4c-0.4-0.2-0.6-0.6-0.6-1c0-0.5,0.2-0.9,0.5-1.2
			c0.4-0.3,0.9-0.5,1.4-0.5c0.7-0.1,1.3,0.2,1.7,0.7c0.2,0.3,0.3,0.6,0.3,1h-0.8c0-0.2-0.1-0.4-0.2-0.5c-0.3-0.3-0.7-0.4-1.1-0.3
			c-0.3,0-0.5,0-0.8,0.2c-0.2,0.1-0.3,0.3-0.3,0.5c0,0.2,0.1,0.4,0.3,0.6c0.2,0.1,0.4,0.2,0.6,0.2l0.6,0.1c0.5,0.1,0.9,0.2,1.3,0.4
			c0.3,0.2,0.6,0.6,0.6,1c0,0.5-0.2,0.9-0.5,1.2c-0.5,0.4-1,0.6-1.6,0.5c-0.6,0.1-1.2-0.1-1.7-0.5c-0.3-0.4-0.5-0.8-0.5-1.3
			L58.4,26.1z"/>
		<path d="M63,20.6h0.9v1H63V20.6z M63,22.6h0.9v5.2H63V22.6z"/>
		<path d="M65.3,22.5h0.9v0.7c0.2-0.2,0.4-0.4,0.6-0.6c0.3-0.2,0.6-0.3,1-0.3c0.4,0,0.7,0.1,1,0.3c0.2,0.1,0.3,0.3,0.4,0.5
			c0.2-0.3,0.4-0.5,0.7-0.6c0.3-0.1,0.6-0.2,0.9-0.2c0.6-0.1,1.2,0.2,1.4,0.8c0.2,0.3,0.2,0.7,0.2,1.1v3.5h-0.9v-3.6
			c0-0.3-0.1-0.5-0.3-0.7c-0.2-0.1-0.4-0.2-0.6-0.2c-0.3,0-0.7,0.1-0.9,0.3c-0.3,0.3-0.4,0.7-0.4,1.2v3h-0.9v-3.4
			c0-0.3,0-0.5-0.1-0.8c-0.2-0.3-0.4-0.4-0.7-0.4c-0.3,0-0.7,0.1-0.9,0.4c-0.3,0.4-0.5,0.9-0.4,1.4v2.8h-0.9L65.3,22.5z"/>
		<path d="M76.6,22.5h0.9v0.7c0.2-0.2,0.4-0.4,0.6-0.6c0.3-0.2,0.6-0.3,1-0.3c0.6,0,1.1,0.2,1.5,0.7c0.4,0.5,0.7,1.2,0.6,1.9
			c0.1,0.9-0.2,1.8-0.9,2.4c-0.4,0.3-0.8,0.5-1.3,0.5c-0.4,0-0.7-0.1-1-0.3c-0.2-0.1-0.4-0.3-0.5-0.5v2.7h-0.9L76.6,22.5z
			 M79.9,26.6c0.3-0.5,0.5-1,0.4-1.5c0-0.4-0.1-0.7-0.2-1.1c-0.2-0.5-0.7-0.9-1.3-0.9c-0.6,0-1.1,0.4-1.3,0.9
			c-0.1,0.4-0.2,0.8-0.2,1.2c0,0.3,0.1,0.7,0.2,1c0.2,0.5,0.7,0.8,1.3,0.8C79.2,27.1,79.6,26.9,79.9,26.6z"/>
		<path d="M82.3,20.6h0.9v7.2h-0.9V20.6z"/>
		<path d="M87.4,24.6c0.2,0,0.3-0.1,0.4-0.3c0-0.1,0.1-0.2,0.1-0.3c0-0.3-0.1-0.5-0.3-0.7c-0.3-0.2-0.6-0.2-0.9-0.2
			c-0.4,0-0.7,0.1-1,0.4c-0.1,0.2-0.2,0.4-0.2,0.6h-0.8c0-0.5,0.2-1,0.6-1.3c0.4-0.3,0.9-0.4,1.4-0.4c0.5,0,1,0.1,1.5,0.4
			c0.4,0.2,0.6,0.6,0.6,1.1v3c0,0.1,0,0.1,0,0.2c0.1,0.1,0.1,0.1,0.2,0.1h0.1h0.2v0.7l-0.3,0.1h-0.3c-0.3,0-0.5-0.1-0.7-0.3
			c-0.1-0.1-0.1-0.3-0.1-0.5c-0.2,0.3-0.5,0.5-0.8,0.6c-0.3,0.2-0.7,0.3-1.1,0.3c-0.4,0-0.9-0.1-1.2-0.4c-0.3-0.3-0.5-0.7-0.5-1.1
			c0-0.4,0.1-0.8,0.4-1.1c0.3-0.3,0.8-0.4,1.2-0.5L87.4,24.6z M85.6,26.9c0.2,0.1,0.4,0.2,0.7,0.2c0.3,0,0.6-0.1,0.9-0.2
			c0.5-0.2,0.8-0.7,0.7-1.2v-0.7c-0.1,0.1-0.3,0.1-0.4,0.2c-0.2,0-0.3,0.1-0.5,0.1l-0.5,0.1c-0.2,0-0.5,0.1-0.7,0.2
			c-0.3,0.1-0.4,0.4-0.4,0.7C85.3,26.6,85.4,26.8,85.6,26.9L85.6,26.9z"/>
		<path d="M90.3,22.5h0.8v0.7c0.2-0.3,0.5-0.5,0.8-0.7c0.3-0.1,0.6-0.2,0.9-0.2c0.6-0.1,1.2,0.2,1.5,0.8c0.2,0.4,0.2,0.8,0.2,1.2
			v3.3h-0.9v-3.3c0-0.3,0-0.5-0.1-0.8c-0.2-0.3-0.5-0.5-0.9-0.5c-0.2,0-0.3,0-0.5,0.1c-0.2,0.1-0.5,0.2-0.6,0.4
			c-0.1,0.2-0.2,0.3-0.3,0.5c0,0.3-0.1,0.5-0.1,0.8v2.7h-0.9V22.5z"/>
		<path d="M96.2,22.5h0.9v5.2h-0.9V22.5z"/>
		<rect x="68.9" y="536.5" class="st5" width="21.7" height="15.2"/>
		<rect x="92.1" y="536.5" class="st4" width="34.8" height="15.2"/>
		<rect x="92" y="598.3" class="st4" width="40.6" height="15.2"/>
		<rect x="46.5" y="598.3" class="st5" width="44.1" height="15.2"/>
		<path d="M96,560.4v-3.5l-1,0.5V557l1.1-0.6h0.5v4H96z"/>
		<path d="M98.1,560.4v-0.8h0.5v0.8H98.1z"/>
		<path d="M99.5,560.4v-0.3c1-0.9,2.3-1.5,2.3-2.5c0.1-0.4-0.2-0.8-0.6-0.8c-0.1,0-0.1,0-0.2,0c-0.4,0-0.9,0.1-0.9,0.9h-0.5
			c0-0.7,0.5-1.3,1.2-1.3c0.1,0,0.1,0,0.2,0c0.6-0.1,1.2,0.4,1.3,1c0,0.1,0,0.1,0,0.2c0,1-1.3,1.8-1.9,2.4h2v0.4H99.5z"/>
		<path d="M103.3,558.4c0-1.3,0.6-2.1,1.6-2.1s1.6,0.8,1.6,2.1s-0.6,2.1-1.6,2.1S103.3,559.7,103.3,558.4z M106.1,558.4
			c0-1-0.4-1.6-1.1-1.6s-1.1,0.6-1.1,1.6s0.4,1.6,1.1,1.6S106.1,559.5,106.1,558.4z"/>
		<path d="M107.5,558.4c0-1.3,0.6-2.1,1.6-2.1s1.6,0.8,1.6,2.1s-0.6,2.1-1.6,2.1S107.5,559.7,107.5,558.4z M110.3,558.4
			c0-1-0.4-1.6-1.1-1.6s-1.1,0.6-1.1,1.6s0.4,1.6,1.1,1.6S110.3,559.5,110.3,558.4z"/>
		<path d="M111.7,560.4v-0.8h0.5v0.8H111.7z"/>
		<path d="M113,558.4c0-1.3,0.6-2.1,1.6-2.1s1.6,0.8,1.6,2.1s-0.6,2.1-1.6,2.1S113,559.7,113,558.4z M115.8,558.4
			c0-1-0.4-1.6-1.1-1.6s-1.1,0.6-1.1,1.6s0.4,1.6,1.1,1.6S115.8,559.5,115.8,558.4L115.8,558.4z"/>
		<path d="M117.3,558.4c0-1.3,0.6-2.1,1.6-2.1s1.6,0.8,1.6,2.1s-0.6,2.1-1.6,2.1S117.3,559.7,117.3,558.4z M120.1,558.4
			c0-1-0.4-1.6-1.1-1.6s-1.1,0.6-1.1,1.6s0.4,1.6,1.1,1.6S120.1,559.5,120.1,558.4z"/>
		<path d="M63.4,556.8l-0.1,1.3c0.3-0.2,0.6-0.3,1-0.3c0.7,0,1.2,0.5,1.3,1.1c0,0.1,0,0.1,0,0.2c0,0.7-0.6,1.3-1.3,1.4
			c-0.1,0-0.1,0-0.2,0c-0.7,0.1-1.3-0.4-1.4-1c0-0.1,0-0.1,0-0.2h0.5c0,0.4,0.3,0.8,0.7,0.9c0.1,0,0.1,0,0.2,0
			c0.5,0.1,0.9-0.3,1-0.7c0-0.1,0-0.1,0-0.2c0.1-0.5-0.2-0.9-0.7-1c-0.1,0-0.1,0-0.2,0c-0.3,0-0.7,0.1-0.9,0.4h-0.4l0.2-2.1h2.2v0.4
			L63.4,556.8z"/>
		<path d="M67.1,556.8l-0.1,1.3c0.3-0.2,0.6-0.3,0.9-0.3c0.7,0,1.2,0.5,1.3,1.1c0,0.1,0,0.1,0,0.2c0,0.7-0.6,1.3-1.3,1.4
			c0,0-0.1,0-0.1,0c-0.7,0.1-1.3-0.4-1.4-1c0-0.1,0-0.1,0-0.2h0.5c0,0.4,0.3,0.8,0.7,0.9c0.1,0,0.1,0,0.2,0c0.5,0.1,0.9-0.3,1-0.7
			c0-0.1,0-0.1,0-0.2c0.1-0.5-0.2-0.9-0.7-1c-0.1,0-0.1,0-0.2,0c-0.3,0-0.7,0.1-0.9,0.4h-0.4l0.2-2.1H69v0.4L67.1,556.8z"/>
		<path d="M70.2,558.4c0-1.3,0.6-2.1,1.6-2.1s1.6,0.8,1.6,2.1s-0.6,2.1-1.6,2.1S70.2,559.7,70.2,558.4z M72.9,558.4
			c0-1-0.4-1.6-1.1-1.6s-1.1,0.6-1.1,1.6s0.4,1.6,1.1,1.6S73,559.5,72.9,558.4L72.9,558.4z"/>
		<path d="M74.3,560.4v-0.8h0.5v0.8H74.3z"/>
		<path d="M75.7,558.4c0-1.3,0.6-2.1,1.6-2.1s1.6,0.8,1.6,2.1s-0.6,2.1-1.6,2.1S75.7,559.7,75.7,558.4z M78.5,558.4
			c0-1-0.4-1.6-1.1-1.6s-1.1,0.6-1.1,1.6s0.4,1.6,1.1,1.6S78.5,559.5,78.5,558.4z"/>
		<path d="M79.9,558.4c0-1.3,0.6-2.1,1.6-2.1s1.6,0.8,1.6,2.1s-0.6,2.1-1.6,2.1S79.9,559.7,79.9,558.4z M82.7,558.4
			c0-1-0.4-1.6-1.1-1.6s-1.1,0.6-1.1,1.6s0.4,1.6,1.1,1.6S82.7,559.5,82.7,558.4L82.7,558.4z"/>
		<path d="M84.2,558.4c0-1.3,0.6-2.1,1.6-2.1s1.6,0.8,1.6,2.1s-0.6,2.1-1.6,2.1S84.2,559.7,84.2,558.4z M86.9,558.4
			c0-1-0.4-1.6-1.1-1.6s-1.1,0.6-1.1,1.6s0.4,1.6,1.1,1.6S86.9,559.5,86.9,558.4z"/>
		<path d="M73.8,619.3c0-0.5,0.4-0.9,0.9-0.9s0.9,0.4,0.9,0.9c0,0.5-0.4,0.9-0.9,0.9c-0.5,0-0.9-0.3-0.9-0.8
			C73.8,619.4,73.8,619.3,73.8,619.3z M75.3,619.3c0-0.4-0.2-0.6-0.5-0.6s-0.5,0.2-0.5,0.6s0.2,0.6,0.5,0.6S75.3,619.7,75.3,619.3z
			 M74.8,622.3l2.3-4.2h0.4l-2.4,4.2H74.8z M76.5,621.3c0-0.5,0.4-0.9,0.9-0.9s0.9,0.4,0.9,0.9c0,0.5-0.4,0.9-0.9,0.9
			c-0.5,0-0.9-0.3-0.9-0.8c0,0,0,0,0,0V621.3z M78,621.3c0-0.4-0.2-0.7-0.5-0.7s-0.5,0.2-0.5,0.7s0.2,0.6,0.5,0.6s0.5-0.2,0.5-0.5
			L78,621.3z"/>
		<path d="M80,618.7l-0.1,1.3c0.3-0.2,0.6-0.3,1-0.3c0.7,0,1.2,0.5,1.3,1.1c0,0.1,0,0.1,0,0.2c0,0.7-0.6,1.3-1.3,1.3
			c-0.1,0-0.1,0-0.2,0c-0.7,0.1-1.3-0.4-1.4-1c0-0.1,0-0.1,0-0.2h0.5c0,0.4,0.3,0.8,0.7,0.8c0.1,0,0.1,0,0.2,0
			c0.5,0.1,0.9-0.3,1-0.7c0-0.1,0-0.1,0-0.2c0.1-0.5-0.2-0.9-0.7-1c-0.1,0-0.1,0-0.2,0c-0.3,0-0.7,0.1-0.9,0.4h-0.4l0.2-2.1h2.2v0.4
			L80,618.7z"/>
		<path d="M83.8,618.7l-0.1,1.3c0.3-0.2,0.6-0.3,1-0.3c0.7,0,1.2,0.5,1.3,1.1c0,0.1,0,0.1,0,0.2c0,0.7-0.6,1.3-1.3,1.3
			c-0.1,0-0.1,0-0.2,0c-0.7,0.1-1.3-0.4-1.4-1c0-0.1,0-0.1,0-0.2h0.5c0,0.4,0.3,0.8,0.7,0.8c0.1,0,0.1,0,0.2,0
			c0.5,0.1,0.9-0.3,1-0.7c0-0.1,0-0.1,0-0.2c0.1-0.5-0.2-0.9-0.7-1c-0.1,0-0.1,0-0.2,0c-0.3,0-0.7,0.1-0.9,0.4h-0.4l0.2-2.1h2.2v0.4
			L83.8,618.7z"/>
		<path d="M95,619.3c0-0.5,0.4-0.9,0.9-0.9s0.9,0.4,0.9,0.9c0,0.5-0.4,0.9-0.9,0.9c-0.5,0-0.9-0.3-0.9-0.8
			C95,619.4,95,619.3,95,619.3z M96.4,619.3c0-0.4-0.2-0.6-0.5-0.6s-0.5,0.2-0.5,0.6s0.2,0.6,0.5,0.6S96.4,619.7,96.4,619.3
			L96.4,619.3z M96,622.3l2.3-4.2h0.4l-2.4,4.2H96z M97.7,621.3c0-0.5,0.4-0.9,0.9-0.9s0.9,0.4,0.9,0.9c0,0.5-0.4,0.9-0.9,0.9
			c-0.5,0-0.9-0.3-1-0.8c0,0,0,0,0-0.1L97.7,621.3z M99.2,621.3c0-0.4-0.2-0.7-0.5-0.7s-0.5,0.2-0.5,0.7s0.2,0.6,0.5,0.6
			s0.5-0.2,0.5-0.5L99.2,621.3z"/>
		<path d="M102.4,622.3v-0.9h-2V621l1.8-2.7h0.7v2.7h0.6v0.4h-0.6v0.9L102.4,622.3z M102.4,618.7l-1.6,2.3h1.6V618.7z"/>
		<path d="M105.1,618.7L105,620c0.3-0.2,0.6-0.3,0.9-0.3c0.7,0,1.2,0.5,1.3,1.1c0,0.1,0,0.1,0,0.2c0,0.7-0.6,1.3-1.3,1.3
			c-0.1,0-0.1,0-0.2,0c-0.7,0.1-1.3-0.4-1.4-1c0-0.1,0-0.1,0-0.2h0.5c0,0.4,0.3,0.8,0.7,0.8c0.1,0,0.1,0,0.2,0
			c0.5,0.1,0.9-0.3,1-0.7c0-0.1,0-0.1,0-0.2c0.1-0.5-0.2-0.9-0.7-1c-0.1,0-0.1,0-0.2,0c-0.3,0-0.7,0.1-0.9,0.4h-0.4l0.2-2.1h2.2v0.4
			L105.1,618.7z"/>
		<rect x="90.6" y="532.1" class="st0" width="1.4" height="35.1"/>
		<rect x="81.2" y="530.7" class="st0" width="20.3" height="1.4"/>
		<path d="M84.3,527.6l-2.1-3.2v3.2h-0.5v-4h0.6l2.2,3.3v-3.3h0.5v4L84.3,527.6z"/>
		<path d="M88.7,523.6h0.5v2.6c0,0.9-0.7,1.5-1.6,1.5s-1.6-0.7-1.6-1.5v-2.6h0.5v2.6c0,0.6,0.4,1,0.9,1.1c0,0,0.1,0,0.1,0
			c0.6,0,1-0.4,1.1-0.9c0,0,0-0.1,0-0.1V523.6z M86.8,523.2v-0.6h0.5v0.6H86.8z M88,523.2v-0.6h0.5v0.6H88z"/>
		<path d="M90.4,527.6v-4h2.3v0.4H91v1.4h1.6v0.4H91v1.8L90.4,527.6z"/>
		<path d="M96.3,523.6h0.5v2.6c-0.1,0.9-0.8,1.5-1.7,1.4c-0.8-0.1-1.4-0.7-1.4-1.4v-2.6h0.5v2.6c0,0.6,0.4,1,0.9,1.1
			c0,0,0.1,0,0.1,0c0.6,0,1-0.4,1.1-0.9c0,0,0-0.1,0-0.1V523.6z"/>
		<path d="M100.3,524.7c0-0.7-0.6-0.8-1-0.8s-0.9,0.2-0.9,0.6c0,1.1,2.4,0.4,2.4,2c0,0.7-0.5,1.1-1.5,1.1c-0.7,0.1-1.4-0.4-1.5-1.2
			c0,0,0,0,0-0.1h0.5c0,0.7,0.5,0.8,1,0.8s1-0.2,1-0.7c0-1.1-2.4-0.4-2.4-2c0-0.8,0.7-1.1,1.4-1.1c0.7-0.1,1.3,0.4,1.4,1.1
			c0,0,0,0.1,0,0.1L100.3,524.7z"/>
		<rect x="90.6" y="593.2" class="st0" width="1.4" height="33.2"/>
		<rect x="79.4" y="591.8" class="st0" width="24.3" height="1.4"/>
		<path d="M80.6,589.5v-3.6h-1.3v-0.4h3.1v0.4H81v3.6H80.6z"/>
		<path d="M82.8,587.5c0.1-1,1-1.8,2.1-1.7c1,0.1,1.8,1,1.7,2.1c-0.1,1-0.9,1.7-1.9,1.7c-1,0-1.8-0.8-1.9-1.8
			C82.7,587.7,82.7,587.6,82.8,587.5z M86,587.5c0-1-0.5-1.6-1.4-1.6s-1.3,0.6-1.3,1.6s0.5,1.6,1.3,1.6S86,588.5,86,587.5L86,587.5z
			"/>
		<path d="M87.6,589.5v-4h1.4c0.9,0,1.4,0.4,1.4,1.2c0,0.7-0.5,1.2-1.2,1.3c-0.1,0-0.1,0-0.2,0h-0.9v1.5H87.6z M88.9,587.5
			c0.6,0,0.9-0.3,0.9-0.8s-0.4-0.8-1-0.8h-0.8v1.6H88.9z"/>
		<path d="M93.7,589.5l-0.8-1.7h-0.9v1.7h-0.5v-4h1.3c0.9,0,1.4,0.4,1.4,1.1c0,0.5-0.3,1-0.8,1.1l0.9,1.8H93.7z M92.8,587.4
			c0.5,0,0.9-0.3,0.9-0.8s-0.3-0.7-0.9-0.7h-0.8v1.5L92.8,587.4z"/>
		<path d="M98.1,589.5l-0.4-1.1h-1.8l-0.4,1.1h-0.5l1.6-4H97l1.6,4H98.1z M96.7,586l-0.7,2h1.5L96.7,586z"/>
		<path d="M101.9,589.5l-1.5-1.9L100,588v1.4h-0.5v-4h0.5v1.9l1.8-1.9h0.6l-1.6,1.8l1.8,2.2L101.9,589.5z"/>
		<g>
			<path class="st7" d="M13,617.2c3.8,0,6.8,3,6.8,6.8c0,3.8-3,6.8-6.8,6.8c-3.8,0-6.8-3-6.8-6.8l0,0C6.2,620.2,9.2,617.2,13,617.2z
				"/>
			<path class="st8" d="M13,624.7c3.8,0,6.8,3,6.8,6.8c0,3.8-3,6.8-6.8,6.8c-3.8,0-6.8-3-6.8-6.8l0,0C6.2,627.7,9.2,624.7,13,624.7z
				"/>
			<path class="st9" d="M13,632.8c3.8,0,6.8,3,6.8,6.8c0,3.8-3,6.8-6.8,6.8c-3.8,0-6.8-3-6.8-6.8l0,0C6.2,635.8,9.2,632.8,13,632.8z
				"/>
			<path class="st0" d="M9.3,636.6h0.8l0.2,0.9c0.3-0.2,0.6-0.3,0.9-0.3c0.6,0,1.1,0.2,1.5,0.7c0.4,0.5,0.6,1.2,0.5,1.8v0.3v0.2
				c0.1,0.1,0.2,0.2,0.4,0.2c0.2,0,0.3-0.3,0.3-0.9v-1c0-0.5,0.1-1,0.4-1.5c0.3-0.4,0.7-0.5,1.2-0.5c0.6,0,1.3,0.3,1.6,0.9
				c0.4,0.7,0.6,1.6,0.6,2.5c0,0.7-0.1,1.3-0.4,1.9c-0.3,0.4-0.7,0.7-1.2,0.7c-0.3,0-0.6-0.1-0.9-0.3c-0.3-0.3-0.4-0.6-0.5-1
				c-0.1,0.2-0.2,0.3-0.3,0.4c-0.1,0.1-0.3,0.2-0.5,0.2c-0.2,0-0.4-0.1-0.6-0.2c-0.2-0.2-0.3-0.4-0.4-0.6c-0.1,0.3-0.4,0.6-0.6,0.7
				c-0.3,0.2-0.6,0.3-1,0.3c-0.6,0-1.1-0.2-1.5-0.6c-0.4-0.5-0.6-1.1-0.5-1.8c0-0.2,0-0.4,0-0.6c0-0.2,0-0.4,0.1-0.4L9.3,636.6z
				 M16,641.2c0.2,0,0.4-0.1,0.5-0.3c0.1-0.3,0.2-0.6,0.2-0.9c0-0.5-0.1-0.9-0.2-1.3c-0.1-0.3-0.3-0.5-0.6-0.5
				c-0.2,0-0.4,0.1-0.5,0.3c-0.1,0.3-0.1,0.6-0.1,0.9v0.8c0,0.3,0.1,0.5,0.2,0.7C15.6,641,15.8,641.2,16,641.2z M11.2,640.6
				c0.3,0,0.5-0.1,0.8-0.2c0.2-0.2,0.3-0.4,0.3-0.7c0-0.3-0.1-0.5-0.3-0.7c-0.2-0.2-0.5-0.2-0.8-0.2c-0.7,0-1.1,0.3-1.1,0.9
				S10.5,640.6,11.2,640.6z"/>
			<path class="st0" d="M15.7,629.2v4.6h-0.9l-3.7-2.7v2.5H9.8v-4.4h1l3.6,2.6v-2.7L15.7,629.2z"/>
			<path class="st0" d="M14.8,623.1c0-0.3-0.1-0.7-0.2-1h1.2c0.2,0.5,0.3,1,0.3,1.5c0,0.5-0.1,1-0.5,1.4c-0.4,0.3-0.9,0.5-1.4,0.4
				h-2.8v0.8h-0.7l-0.5-0.9l-1.2-0.5v-1h1.2v-1.6h1.2v1.6h2.8c0.2,0,0.4-0.1,0.5-0.2C14.7,623.5,14.8,623.3,14.8,623.1z"/>
		</g>
		<g>
			<path class="st10" d="M9.4,594.7c0.1,2.3,1.9,4.1,4.2,4c0,0,0,0,0,0c2.1,0.1,3.9-1.6,3.9-3.7c0,0,0-0.1,0-0.1
				c0-1.7-1.2-3.2-2.9-3.5v0.2c0.8,0.4,1.2,1.2,1.3,2.1c0,1.3-1,2.3-3,2.4v-4.7c-1.8-0.1-3.4,1.3-3.5,3.2
				C9.4,594.6,9.4,594.6,9.4,594.7z M12.6,593.8v2.2c-1.8,0-2.8-0.7-2.8-1.3S10.5,593.7,12.6,593.8z"/>
			<path class="st10" d="M15.9,585.4c0,1.5-1.2,2.4-3.4,2.4c-1.8,0-2.8-0.6-2.8-1.2s1.1-0.8,1.7-1c0.5-0.1,0.8-0.6,0.8-1.1
				c0.1-0.5-0.3-1-0.9-1.1c0,0-0.1,0-0.1,0c-0.8,0-1.7,0.9-1.7,2.8c-0.1,2.3,1.7,4.2,4,4.3c0.1,0,0.2,0,0.2,0
				c2.1,0.1,3.8-1.5,3.9-3.6c0-0.1,0-0.1,0-0.2c0-1.7-1.2-3.2-2.8-3.5l-0.1,0.2C15.4,583.8,15.9,584.6,15.9,585.4z"/>
			<path class="st10" d="M9.3,576.5c0.2,1.1,1,2.1,2.1,2.3H9.5v0.1l1,3.7h0.2c0-0.5,0.2-1.1,1.2-1.1h5.9v-0.1l-1-3.7h-0.2
				c0,0.5-0.3,0.9-0.8,1H12c-0.7-0.2-1.1-0.4-1.1-0.8s0.7-0.8,0.7-1.5c0-0.6-0.5-1.2-1.1-1.2c0,0-0.1,0-0.1,0
				c-0.6,0-1.2,0.5-1.2,1.1C9.2,576.4,9.2,576.5,9.3,576.5z"/>
			<path class="st10" d="M15.4,568.1h-3.3c-1.6,0-2.6,1.1-2.6,3.4s0.8,3.2,1.8,3.2c0.6,0,1-0.4,1.1-0.9c0-0.1,0-0.1,0-0.2
				c0-0.6-0.4-1.1-1-1.2c-0.8-0.3-1.6-0.1-1.6-0.8c0-0.5,0.4-0.7,1.5-0.7h1.4c0.9,3.4,1.9,4.3,3.1,4.3c1,0,1.8-0.8,1.8-1.8
				c0-0.1,0-0.1,0-0.2c0-0.9-0.4-1.7-1-2.4h1.1v-0.1l-1-3.7h-0.2C16.6,567.6,16.3,568.1,15.4,568.1z M16.4,571.6c0,0.5-0.4,1-1.3,1
				c-1,0-2-0.7-2.2-1.8h2.6c0.2,0,0.4,0,0.6,0C16.3,571.1,16.4,571.3,16.4,571.6L16.4,571.6z"/>
			<path class="st10" d="M16.1,599.5c-0.2,0.1-0.3,0.1-0.5,0.1h-4c-1.1-0.1-2.1,0.7-2.1,1.8c0,0.1,0,0.2,0,0.2c0.1,1,0.6,2,1.4,2.6
				c-0.9,0.2-1.5,1.1-1.4,2c0,1,0.5,2,1.3,2.6H9.5v0.1l1,3.7h0.2c0-0.5,0.2-1.1,1.2-1.1h5.9v-0.1l-1-3.7h-0.2
				c0.1,0.4-0.1,0.8-0.5,0.9c-0.2,0.1-0.3,0.1-0.5,0.1h-4.5c-0.3-0.3-0.4-0.6-0.5-1c0-0.5,0.4-0.8,1.2-0.8h4.5v-0.1l-1-3.7h-0.2
				c0.1,0.4-0.1,0.8-0.5,0.9c-0.2,0.1-0.3,0.1-0.5,0.1h-3c-0.3-0.2-0.5-0.6-0.6-1c0-0.5,0.4-0.9,1.2-0.9h5.8v-0.1l-1-3.7h-0.2
				C16.5,599,16.4,599.3,16.1,599.5z"/>
		</g>
	</g>
</g>
</svg>
