<?xml version="1.0" encoding="utf-8"?>
<!-- Generator: Adobe Illustrator 22.1.0, SVG Export Plug-In . SVG Version: 6.00 Build 0)  -->
<svg version="1.1" id="Layer_1" xmlns="http://www.w3.org/2000/svg" xmlns:xlink="http://www.w3.org/1999/xlink" x="0px" y="0px"
	 viewBox="0 0 190.8 652.7" style="enable-background:new 0 0 190.8 652.7;" xml:space="preserve">
<style type="text/css">
	.st0{fill:#FFFFFF;}
	.st1{fill:#D8C7C3;}
	.st2{fill:#678186;}
	.st3{fill:#020202;}
	.st4{fill:#56B746;}
	.st5{opacity:0.8;enable-background:new    ;}
	.st6{fill:#FFFCE3;}
	.st7{fill:#006E94;}
	.st8{fill:#2EABE1;fill-opacity:0.72;}
	.st9{fill:#00A29A;fill-opacity:0.68;}
	.st10{fill:#1D1D1B;}
</style>
<title>haritalar</title>
<g>
	<g id="Layer_1_1_">
		<rect x="0.3" y="0.7" class="st0" width="189.3" height="501.6"/>
		<path class="st1" d="M132.4,0.7c-0.5,4.4,0,10.9-4.3,13.7s-3.3,1.5-3.3,6.5s-2,4-4.8,9.3s-3.3,6.6-3.3,6.6l-3.5,76.2l-39.9,123
			l-62.8,46.2L0.3,292.4v359.9h190.1V0.7C190.5,0.7,132.5-0.6,132.4,0.7z"/>
		<path class="st2" d="M142.8,311.5c0,0-4.4-96.7,24.7-93.2c0.9,0.1,3.3,2.7,3.5,3.9c0.4,2.5-0.2,5.1-1.6,7.2
			c-1.2,2-1.2,7.3-1.6,12.5s1,25.7-0.9,28.8c-0.4,0.4-0.5,1.1-0.4,1.6c0.3,0.6,0.1,1.3-0.5,1.7c0,0,0,0-0.1,0
			c-0.5,0.9-0.1,2,0.8,2.4c0,0,0,0,0.1,0c0,0,0.8,3.2-1.4,4.3c0,0-1.8,0.8-2,3.5c0,0-3.1,3-3.8-1.4c0,0-1.3-2.7-4.3-0.8
			c0,0-0.4,0.3-0.5,2s-0.5,0.5-0.8,1.2c-0.3,0.7,0.1,3,0,3.4s-1.7,1.8-0.1,2.8s2.8-0.2,3.7,1.7s0.9,3.4,3.6,3.8s4.3,1.6,4.2,4.9
			s0.6,9.1-1.4,11.5s-1.7,4.2-7.6,6.1s-6.3,2.1-8.8-2S143,313.7,142.8,311.5"/>
		<path class="st3" d="M151.3,321.1c-1.6,0-2.5-1-4.1-3.5c-0.8-1.4-1.9-2.6-3.2-3.5c-1-0.5-1.6-1.5-1.7-2.6l0,0
			c-0.4-12.9-0.2-25.8,0.6-38.7c1.9-27.1,6.8-44.5,14.4-51.6c2.7-2.7,6.4-4,10.2-3.5c1.3,0.1,3.7,3,3.9,4.3c0.4,2.6-0.2,5.3-1.6,7.5
			c-0.9,1.5-1.1,5.3-1.3,9.3c-0.1,1-0.1,2-0.2,3c-0.1,1.6,0,4.9,0,8.6c0.2,10.3,0.3,18.3-1,20.4l-0.1,0.1c-0.3,0.3-0.3,0.7-0.3,1.1
			c0.4,0.8,0.1,1.8-0.7,2.2c-0.1,0.3-0.3,1,0.7,1.7l0.2,0.1l0.1,0.2c0,0.1,0.9,3.6-1.7,4.8c-0.1,0-1.5,0.7-1.7,3.1v0.2l-0.1,0.1
			c-0.2,0.1-1.6,1.5-3,1c-0.9-0.3-1.4-1.2-1.7-2.7c-0.3-0.5-0.7-0.9-1.3-1.1c-0.8-0.2-1.6,0-2.2,0.5l0,0c-0.2,0.5-0.3,1-0.3,1.6
			c0,0.8-0.1,1.1-0.4,1.4c-0.1,0.1-0.3,0.2-0.4,0.1c-0.1,0.6-0.1,1.2,0,1.9c0.1,0.5,0.1,0.9,0,1.4c-0.1,0.2-0.2,0.3-0.3,0.5
			c-0.2,0.3-0.6,0.8-0.5,1.2c0.1,0.2,0.3,0.4,0.5,0.5c0.5,0.3,1,0.4,1.6,0.4c1-0.1,1.9,0.5,2.3,1.5c0.2,0.4,0.3,0.7,0.4,1
			c0.5,1.3,0.9,2.2,2.8,2.5c3.3,0.5,4.7,2.2,4.6,5.4c0,0.7,0,1.7,0,2.6c0.1,3.2,0.1,7.2-1.5,9.2c-0.4,0.5-0.8,1-1.1,1.6
			c-1.1,1.7-2,3.2-6.7,4.6l-0.4,0.1C154.5,320.5,152.9,320.9,151.3,321.1z M143.3,311.4c0.1,0.9,0.5,1.2,1.3,1.9
			c1.4,1,2.5,2.3,3.4,3.8c2.3,3.7,2.4,3.7,7.8,1.9l0.4-0.1c4.3-1.4,5.1-2.6,6.1-4.2c0.4-0.6,0.8-1.1,1.2-1.7
			c1.4-1.7,1.3-5.5,1.3-8.5c0-1,0-1.9,0-2.7c0.1-2.7-1-3.9-3.8-4.4c-2.5-0.4-3-1.7-3.5-3.1c-0.1-0.3-0.3-0.6-0.4-1
			c-0.4-0.8-0.7-0.9-1.4-0.9c-0.7,0-1.4-0.2-2-0.6c-0.5-0.2-0.8-0.7-0.9-1.2c-0.1-0.7,0.2-1.5,0.7-2c0.1-0.1,0.1-0.1,0.2-0.2
			c0-0.1,0-0.6-0.1-1c-0.1-0.8-0.1-1.6,0-2.4c0.1-0.3,0.4-0.5,0.7-0.6c0-0.2,0-0.3,0-0.5c0.1-1.8,0.5-2.3,0.8-2.4
			c0.9-0.6,2-0.9,3-0.6c0.8,0.3,1.5,0.9,1.9,1.6v0.1c0.1,0.8,0.4,1.8,1,2s1.4-0.4,1.8-0.7c0.1-1.6,0.9-3,2.3-3.7
			c1.6-0.8,1.3-2.9,1.2-3.5c-1-0.6-1.4-1.9-0.8-3l0.1-0.1l0.1-0.1c0.4-0.2,0.5-0.6,0.4-0.9c0,0,0,0,0-0.1v-0.1c-0.2-0.7,0-1.4,0.4-2
			c1.2-2.1,1-12.3,0.8-19.8c-0.1-3.8-0.1-7,0-8.7c0.1-1,0.1-2,0.2-3c0.2-4.3,0.4-8,1.5-9.7c1.3-2,1.9-4.4,1.5-6.8
			c-0.2-1.1-2.4-3.5-3.1-3.5c-3.5-0.4-6.9,0.8-9.4,3.2C140.3,238.4,143.3,310.2,143.3,311.4L143.3,311.4z"/>
		<path class="st4" d="M114.3,36.7h4.7c0,0,1.2,3.3,3.3,2.9c1.8-0.2,3.4-1.3,4.2-2.9l9.7,0.3c0,0,1.5,2.2,3,2s9.1,0,9.1,0
			s1.8,1.8,4.8-0.5c0,0,3.5-3.1,6.1-3.4c0,0,2.7-0.5,3-5.2l1.2-13.3c0,0,0.4-4.8,2.4-4.9s5.1-0.7,6.8,3c0,0,1.3,2.1,5.6,1.6
			s4,1.6,4,3.1s-0.4,2.3,1.2,2.8s0.5,3.7-0.9,3.5s-3.3,2.2-3.1,5.4s1.1,6.8-0.9,7.9s-3.6-0.3-3,5.3s-0.2,13.3,0.2,18
			c0.2,3.2,0.8,6.4,1.9,9.4c0.4,1,1.7,0.9,1.4,9.6s0.7,8.2,2.7,8.3s2.2,3.4-0.1,3.5s-5-0.7-7.1,2.8s-5.3,2.6-4.6,8.7
			s-0.3,27.8-0.3,27.8l-0.1,19.9c0.4,3.8,0.2,7.7-0.5,11.5c-1.2,6.3-2.5,11.3-3.1,14.4s-0.9,4.6-0.1,6.9s1.4,2.3,1.4,7.8
			s0.3,19.8,0.3,19.8s1,6.1-1.7,6.1c0,0-4,0.4-8,4.5c-1.5,1.8-2.3,4-2.3,6.3c0.1,3.7,0.2,6.2-4.3,5.8l-1,16.9c0,0,0.3,5.1-1.8,6
			c-2.1,0.9-0.7,19.3-0.5,22.1s-2,25.3-5.1,31.3c-3.1,5.9-6.8,14.3-7.8,20.7s-5.8,21-7.5,25.2c-1.7,4.2-6.2,24.2-6.9,27.1
			s-6.8,15.8-8,24.9s-4.2,12.4-5.7,22.1s-10.8,32.8-11.6,34.3s-15.8,36.7-15.8,36.7H74c1.6-7.6,1.2-15.5-1.2-22.9
			c0,0-3.8-7.4-3.1-13.7s0.7-10.1-1.1-13.2c-4.5-9.1-8.5-18.4-11.9-28c-3.3-9.7-8-17.9-15.3-43.2s-13.2-42-15-46.3
			c-1.8-4.3-11.6-35.3-13.7-40.6c-2.1-5.3-2.9-7.4-2.9-7.4s-1.8-4.3,2.6-8.7s18.5-21.8,22.6-26.8c4.1-5,16.6-25.3,18.9-29.8
			s14.6-32.3,17.8-40.3s13.8-41.1,14.8-53.7s1.8-16.3,2-19.4s5.3-11,4.4-15.7s-0.7-9,2.8-17.8c0,0,2.1-5.3,8.6-2.4
			c0,0,4.9,1.8,6.8-10.7c0,0-4.7,1.9-4.3-7c0,0,3.5,0.4,3.9-5.9c0,0-0.3-4.8,1.3-6.6C113.1,40.7,114,38.7,114.3,36.7z"/>
		<path class="st5" d="M139.6,39.6l-3.5-2.6c0,0-9.2-0.8-10.2,0.7c-2,2.9-5.9,1.4-5.9,1.4c-0.1-1.2-1.1-2.1-2.3-2.1
			c-1.6-0.2-3.3-0.5-4.7,3.6c0,0-1.7,1.6-2.4,10.1c0,0-1.2,4-3.9,4c0,0-1.3,7.6,4,7.3c0,0,0.3,10.9-7.1,10.3c0,0-8.5-5-11.3,15.5
			c0,0,0.7,3.6,0.9,5.8s-1.9,8.2-3.9,12.4s-2.1,13.5-2.3,17.8c-0.2,3.5-4.7,22.8-5.6,28.1s-6.7,21.5-6.7,21.5l-9.9,24.8l-6.7,14.4
			c-1.7,4.4-3.6,8.6-5.8,12.8c-5,8.6-13.5,19.4-12,19c0,0,5.7,5.2,8,8.8c1.4,2.1-1.4,5.6-6.1,9.5c0,0-14.9,11-14.6,13.7
			c0.1,1-0.1,2.3,0.1,3.7c0.2,1.7,0.8,5.8-0.5,7.4c-3.3,3.9-12.4,8.6-12.4,10.9s2.1,8.6,3.3,11.4c0,0,6.1,19.1,10.7,31.6l19.4,60.4
			l12.2,31.7l7.3,15.8l2,4.5c0.9,2.6,1.2,5.4,1,8.2c-0.3,2.5-0.4,5.1-0.3,7.7c0.4,2,0.9,4,1.6,6c0.9,2,1.6,4,2.3,6.1
			c0.6,2.7,1.1,5.4,1.3,8.2c0.3,4,0.1,8.1-0.8,12c-0.1,0.5,5,0.1,5,0.1l12.6-30.2c0,0,3-5.5,8.8-20.5c0,0,1.3-4.1,4.4-15
			c1.1-3.8,1.4-7.3,2.1-9.6c0,0,1.8-5,3.6-10.2c1.4-7.7,3.4-15.2,6-22.5c2.7-6.9,4.6-14.1,5.7-21.5c0,0,2.4-7,7.6-23.5
			c1.8-5.2,3.3-10.5,4.4-15.8c0.4-3,1-5.9,1.9-8.8c1.1-3.7,3.8-7.8,5.1-11.1c0,0,3.8-4.5,6-31.5c0,0-0.1-17.6-0.1-22.6
			c0-1.9-4.9,2.8-9.8,7.7c-1.6,1.6-4.1,6.5-8.1,8.2c-12,5.3-18.6,1.4-24.9,2.5c-6.5,1.2-3.8,2.7-13.3,1.8c0,0-6.4-3-3.6-10.6
			c0,0,7.6-5.3,6.9-20.6c-0.4-8,8-10.4,11-15.3c2.1-3.5,20.8-8.8,21.9-13.3s-11.7-4.3-16.1-7.5c-6-4.4-4.7,4.4-11.1,2.4
			c-12-3.8,3.2-7,2.1-10.9c-1.4-4.9-2.9-4.4-3.5-8.3c-0.5-3.5,1-5.2,1.5-10.6c0.2-2.6,1.4-3.6-1.5-10.6c-3.6-8.8-2.6-12-0.2-15.6
			s5.8,1.7,3.5-11.2c-0.9-4.9,0.9-4.5,3.1-8s2.5-3.4,3.4-14c0,0-0.1-3.5,5-2.8c5.4,0.8,8.8-9,11.1-9.3c2.5,0,4.7,1.5,5.6,3.9
			c0,0,0.8,1.8,8.8,0.3c0,0,4.9-2,6.8,1.3c1.1,1,2.3,1.8,3.7,2.2c2.5,0.5,0.3,7.8,1.5,11c0,0,0.7,2.1,8.1,1.1c2.6-0.4,8,1.8,8.8,4.1
			l1-34.6c0,0-1.5-2,4-5.6c0,0,1.8-3.3,4.8-3.3c0,0,4.2,0.1,4.2-1.5c0-1.1,0.4-1.5-2.9-1.9c0,0-1.5-0.2-1.1-15.8
			c0,0-3.4,0.2-3.4-16.8c0.1-10.6,0-12.2,0-12.2s-2.3-4,1.9-5.8s2-6.5,1.8-8.4s0.6-4.6,3.3-5.3s1.4-3.4-0.1-3.9s1.6-4.3-2.4-5
			s-3.7,1.6-8.8-3.4c-4.3-4.2-7.7,0.8-7.6,3.6c-0.2,5.4-0.6,10.7-1.3,16c-0.6,2.4-6.1,2.9-8.1,5.4s-3.1,2-5.5,0.9
			C145.5,37.9,139.6,39.6,139.6,39.6z"/>
		<path d="M156.4,486.5h0.9v6.5h-0.9V486.5z M156.4,484.9h0.8v0.9h-0.8V484.9z"/>
		<path d="M159.2,491.4c0,0.2,0.1,0.4,0.2,0.6c0.3,0.3,0.7,0.4,1.1,0.4c0.3,0,0.5-0.1,0.8-0.2c0.2-0.1,0.4-0.3,0.4-0.6
			c0-0.2-0.1-0.4-0.3-0.5c-0.2-0.1-0.4-0.2-0.7-0.2l-0.6-0.2c-0.3-0.1-0.6-0.2-0.9-0.3c-0.3-0.2-0.5-0.5-0.5-0.9
			c0-0.4,0.2-0.8,0.5-1.1c0.4-0.3,0.8-0.4,1.3-0.4c0.6-0.1,1.2,0.2,1.6,0.6c0.2,0.2,0.3,0.5,0.3,0.8h-0.8c0-0.2-0.1-0.3-0.2-0.5
			c-0.3-0.2-0.6-0.4-1-0.3c-0.2,0-0.5,0-0.7,0.2c-0.2,0.1-0.2,0.3-0.2,0.5c0,0.2,0.1,0.4,0.3,0.5c0.2,0.1,0.3,0.2,0.5,0.2l0.5,0.1
			c0.4,0.1,0.8,0.2,1.2,0.4c0.3,0.2,0.5,0.6,0.5,1c0,0.4-0.2,0.8-0.5,1.1c-0.4,0.3-0.9,0.5-1.5,0.5c-0.5,0.1-1.1-0.1-1.5-0.5
			c-0.3-0.3-0.5-0.7-0.5-1.2L159.2,491.4z"/>
		<path d="M163.3,488.2h0.8v0.8c0.1-0.2,0.3-0.4,0.4-0.6c0.2-0.2,0.5-0.3,0.8-0.3h0.1h0.2v0.8h-0.1h-0.1c-0.3,0-0.7,0.1-0.9,0.4
			c-0.2,0.3-0.3,0.6-0.3,0.9v2.7h-0.8L163.3,488.2z"/>
		<path d="M168.9,490c0.2,0,0.3-0.1,0.4-0.2c0-0.1,0.1-0.2,0.1-0.3c0-0.2-0.1-0.5-0.3-0.6c-0.3-0.1-0.5-0.2-0.8-0.2
			c-0.3,0-0.7,0.1-0.9,0.3c-0.1,0.2-0.2,0.4-0.2,0.5h-0.7c0-0.5,0.2-0.9,0.6-1.2c0.4-0.2,0.8-0.4,1.3-0.3c0.5,0,0.9,0.1,1.4,0.3
			c0.3,0.2,0.5,0.6,0.5,1v2.7c0,0.1,0,0.1,0,0.2c0.1,0.1,0.1,0.1,0.2,0.1h0.1h0.1v0.6c-0.1,0-0.2,0-0.3,0.1H170
			c-0.2,0-0.5-0.1-0.6-0.3c-0.1-0.1-0.1-0.3-0.1-0.4c-0.2,0.2-0.4,0.4-0.7,0.5c-0.3,0.2-0.7,0.2-1,0.2c-0.4,0-0.8-0.1-1.1-0.4
			c-0.3-0.3-0.4-0.6-0.4-1c0-0.4,0.1-0.7,0.4-1c0.3-0.3,0.7-0.4,1.1-0.4L168.9,490z M167.3,492.2c0.2,0.1,0.4,0.2,0.6,0.2
			c0.3,0,0.6-0.1,0.8-0.2c0.4-0.2,0.7-0.6,0.7-1v-0.7c-0.1,0.1-0.2,0.1-0.4,0.2c-0.1,0-0.3,0.1-0.4,0.1l-0.5,0.1
			c-0.2,0-0.4,0.1-0.6,0.2c-0.2,0.1-0.4,0.4-0.4,0.7C167,491.8,167.1,492,167.3,492.2z"/>
		<path d="M171.5,486.5h0.8v0.9h-0.8V486.5z M171.5,488.2h0.8v4.7h-0.8V488.2z"/>
		<path d="M173.6,486.5h0.8v6.5h-0.8V486.5z"/>
		<path class="st5" d="M153.7,489.7c0,3.5-2.8,6.3-6.3,6.3s-6.3-2.8-6.3-6.3c0-3.5,2.8-6.3,6.3-6.3S153.7,486.2,153.7,489.7
			L153.7,489.7z"/>
		<path d="M156.4,469.1h4.5v0.8h-3.6v2h3.2v0.8h-3.2v2.9h-0.9L156.4,469.1z"/>
		<path d="M161.8,469.1h0.8v0.9h-0.8V469.1z M161.8,470.9h0.8v4.7h-0.8V470.9z"/>
		<path d="M163.9,469.1h0.8v6.5h-0.8V469.1z"/>
		<path d="M166,469.1h0.8v0.9H166V469.1z M166,470.9h0.8v4.7H166V470.9z"/>
		<path d="M168.6,474.1c0,0.2,0.1,0.4,0.2,0.6c0.3,0.3,0.7,0.4,1.1,0.4c0.3,0,0.5-0.1,0.8-0.2c0.2-0.1,0.4-0.4,0.3-0.6
			c0-0.2-0.1-0.4-0.3-0.5c-0.2-0.1-0.5-0.2-0.7-0.2l-0.6-0.2c-0.3-0.1-0.6-0.2-0.9-0.3c-0.3-0.2-0.5-0.5-0.5-0.9
			c0-0.4,0.2-0.8,0.5-1.1c0.4-0.3,0.8-0.4,1.3-0.4c0.6-0.1,1.2,0.2,1.6,0.6c0.2,0.2,0.3,0.5,0.3,0.8h-0.8c0-0.2-0.1-0.3-0.2-0.5
			c-0.3-0.2-0.6-0.4-1-0.3c-0.2,0-0.5,0-0.7,0.2c-0.1,0.1-0.2,0.3-0.2,0.5c0,0.2,0.1,0.4,0.3,0.5c0.2,0.1,0.3,0.2,0.5,0.2l0.5,0.1
			c0.4,0.1,0.8,0.2,1.2,0.4c0.3,0.2,0.5,0.6,0.5,1c0,0.4-0.2,0.8-0.5,1.1c-0.4,0.3-0.9,0.5-1.5,0.5c-0.5,0.1-1.1-0.1-1.5-0.5
			c-0.3-0.3-0.5-0.7-0.5-1.2L168.6,474.1z"/>
		<path d="M172.8,469.5h0.8v1.3h0.8v0.6h-0.8v3.1c0,0.1,0.1,0.3,0.2,0.3c0.1,0,0.2,0,0.3,0h0.3v0.6c-0.1,0-0.2,0.1-0.3,0.1h-0.3
			c-0.3,0-0.6-0.1-0.8-0.3c-0.1-0.2-0.2-0.5-0.2-0.7v-3.1h-0.6v-0.6h0.6V469.5z"/>
		<path d="M175.3,469.1h0.8v0.9h-0.8V469.1z M175.3,470.9h0.8v4.7h-0.8V470.9z"/>
		<path d="M177.4,470.8h0.8v0.7c0.2-0.2,0.4-0.5,0.7-0.6c0.3-0.1,0.5-0.2,0.8-0.2c0.6-0.1,1.1,0.2,1.4,0.7c0.1,0.3,0.2,0.7,0.2,1.1
			v3h-0.8v-3c0-0.2,0-0.5-0.1-0.7c-0.1-0.3-0.4-0.5-0.8-0.4c-0.2,0-0.3,0-0.5,0.1c-0.2,0.1-0.4,0.2-0.6,0.4
			c-0.1,0.1-0.2,0.3-0.3,0.5c0,0.2-0.1,0.5-0.1,0.7v2.5h-0.8L177.4,470.8z"/>
		<path class="st4" d="M153.8,472.4c0,3.5-2.8,6.3-6.3,6.3c-3.5,0-6.3-2.8-6.3-6.3c0-3.5,2.8-6.3,6.3-6.3c0,0,0,0,0,0
			C150.9,466,153.8,468.9,153.8,472.4z"/>
		<path class="st3" d="M80,502.6h-6.6l0.2-0.6c1.6-7.5,1.2-15.3-1.2-22.6c-0.1-0.2-3.9-7.5-3.1-13.9c0.7-5.8,0.8-9.7-1-12.9
			c-4.5-9.1-8.5-18.5-12-28.1c-1-3-2.2-5.8-3.5-9.1c-4.6-11.1-8.6-22.5-11.8-34.1c-7-23.9-13-41.5-15-46.3c-1-2.3-4.2-12-7.2-21.4
			c-2.8-8.6-5.5-16.7-6.5-19.2c-2.1-5.3-2.9-7.4-2.9-7.4c-0.1-0.2-1.8-4.7,2.7-9.2c3.9-3.9,15.9-18.6,21-24.9l1.5-1.9
			c4.1-5,16.6-25.3,18.9-29.7S68,189.2,71.2,181c3.4-8.5,13.7-41.1,14.7-53.5c0.7-8.4,1.2-12.8,1.6-15.8c0.2-1.5,0.3-2.6,0.4-3.6
			c0.4-1.9,1-3.7,1.8-5.4c1.4-3.3,3.1-7.4,2.6-10.2c-0.9-4.6-0.7-9,2.8-18c0.6-1.4,1.8-2.5,3.2-3.1c2-0.7,4.2-0.5,6.1,0.4l0,0
			c0.6,0.1,1.3,0,1.9-0.4c1.3-0.8,3.1-3.1,4.1-9.2c-0.8,0.1-1.5-0.1-2.2-0.5c-1.5-1-2.1-3.4-2-7.1V54l0.5,0.1c0.6,0,1.2-0.2,1.6-0.6
			c1-0.8,1.6-2.5,1.8-4.8c0-0.2-0.2-5,1.4-6.9c1.2-1.5,2.1-3.4,2.4-5.3V36h5.5l0.1,0.3c0,0,1.1,2.9,2.7,2.6c1.6-0.2,3.1-1.2,3.8-2.6
			L126,36l10.2,0.4l0.1,0.2c0.4,0.5,1.6,1.9,2.5,1.8c1.5-0.2,8.8,0,9.1,0h0.2l0.1,0.1c0.1,0.1,1.6,1.5,4.1-0.5
			c0.1-0.1,3.6-3.2,6.3-3.5c0.1,0,2.3-0.5,2.6-4.7l1.3-13.3c0.1-0.5,0.5-5.3,2.9-5.4h0.6c2-0.1,5-0.3,6.6,3.3c0,0,1.2,1.8,5.1,1.3
			c1.8-0.2,3,0,3.8,0.7c0.7,0.7,1,1.7,0.8,2.7v0.2c0,0.3,0,0.6,0,0.8c-0.1,1-0.1,1.2,0.8,1.5s1.3,1.1,1.1,2.3s-1.1,2.4-2.2,2.2
			c-0.4,0-0.8,0.1-1.1,0.4c-1.1,1.2-1.6,2.8-1.4,4.4c0,0.7,0.1,1.4,0.2,2.1c0.3,2.7,0.5,5.3-1.3,6.3c-0.5,0.2-0.9,0.4-1.4,0.5
			c-1.1,0.3-1.7,0.5-1.3,4.3c0.3,3.5,0.3,7,0.2,10.5c-0.1,2.8-0.1,5.4,0,7.5c0.2,3.2,0.8,6.3,1.9,9.3c0.1,0.1,0.1,0.3,0.2,0.4
			c0.6,0.8,1.4,2.1,1.2,9.4c-0.1,4.5,0.1,6.8,0.7,7.4c0.2,0.3,0.6,0.3,1.2,0.3h0.3c1.2,0.1,2.1,1.1,2,2.3c0,1.2-0.8,2.1-2,2.2
			c0,0,0,0-0.1,0c-0.4,0-0.8,0-1.2,0c-1.9,0-3.9-0.1-5.5,2.5c-0.6,1-1.5,1.9-2.4,2.6c-1.5,1.2-2.5,2-2.1,5.8
			c0.8,6.1-0.2,26.9-0.3,27.8l-0.1,19.9c0.4,3.9,0.2,7.8-0.5,11.6c-0.7,3.7-1.4,7.1-2.1,9.7c-0.4,1.8-0.8,3.4-1,4.7l-0.1,0.3
			c-0.5,2.8-0.8,4.2,0,6.3c0.2,0.5,0.3,0.9,0.5,1.2c0.6,1.4,1,2.3,1,6.7c0,5.4,0.3,19.7,0.3,19.8c0.1,0.4,0.7,4.3-0.7,5.9
			c-0.4,0.4-0.9,0.7-1.5,0.7c-2.9,0.6-5.6,2.1-7.6,4.4c-1.3,1.7-2.1,3.7-2.1,5.9c0.1,2.5,0.1,4.4-1.1,5.5c-0.9,0.7-2.1,1-3.2,0.9
			l-1,16.4c0,0.5,0.3,5.4-2,6.4c-0.4,0.2-1.5,2.4-0.3,20.7l0.1,0.9c0.2,2.7-1.9,25.4-5.1,31.5c-2,3.8-6.7,13.3-7.7,20.5
			c-0.9,6.2-5.7,20.8-7.5,25.3c-1.3,3.1-4.2,15.8-5.8,22.6c-0.5,2.1-0.9,3.7-1.1,4.4c-0.2,0.9-0.9,2.5-1.8,4.8
			c-2.1,5.4-5.3,13.7-6.2,20c-0.5,3.8-1.5,7.4-2.8,11c-1.3,3.6-2.3,7.3-2.9,11.1c-1.5,9.8-10.7,32.8-11.6,34.4
			c-0.6,1.1-10.6,24.4-15.7,36.6L80,502.6z M74.6,501.6h4.7c1.6-3.7,14.8-35,15.6-36.4c0.6-1.1,10-24.3,11.5-34.1
			c0.6-3.8,1.6-7.6,2.9-11.3c1.3-3.5,2.2-7.1,2.7-10.8c0.9-6.5,4.1-14.8,6.3-20.3c0.9-2.2,1.5-3.9,1.7-4.7s0.6-2.3,1.1-4.4
			c1.7-7.3,4.6-19.5,5.9-22.7c1.8-4.5,6.6-18.9,7.5-25c1.1-7.3,5.8-17,7.8-20.8c3.1-5.9,5.2-28.4,5-31l-0.1-0.9
			c-1.2-18.2-0.3-21.2,0.9-21.6c1.4-0.6,1.5-4.3,1.4-5.5l1-17.5l0.5,0c1,0.2,2.1,0,2.9-0.6c0.9-0.8,0.8-2.5,0.8-4.6
			c0-2.4,0.8-4.8,2.4-6.7c4.1-4.2,8.1-4.6,8.3-4.7c0.3,0,0.6-0.1,0.8-0.3c0.9-1,0.6-4.1,0.4-5.2c0-0.2-0.3-14.5-0.3-19.9
			c0-4.3-0.3-5-0.9-6.3c-0.1-0.4-0.3-0.8-0.5-1.2c-0.9-2.4-0.5-4,0-6.9l0.1-0.3c0.2-1.3,0.6-2.9,1-4.7c0.6-2.7,1.4-6,2.1-9.7
			c0.7-3.7,0.9-7.6,0.5-11.3l0.1-20c0-0.2,1-21.7,0.3-27.7c-0.5-4.3,0.9-5.5,2.4-6.7c0.9-0.6,1.6-1.4,2.2-2.3c1.9-3.1,4.4-3,6.4-3
			c0.4,0,0.8,0,1.1,0c0.6,0,1.1-0.5,1.1-1.1c0,0,0-0.1,0-0.1c0.1-0.6-0.4-1.2-1-1.3H181c-0.7,0.1-1.4-0.1-1.9-0.6
			c-0.7-0.8-1.1-2.4-1-8.1c0.2-7-0.6-8.1-1-8.8c-0.1-0.2-0.2-0.4-0.3-0.6c-1.1-3.1-1.8-6.3-2-9.6c-0.1-2.1-0.1-4.8,0-7.6
			c0.2-3.5,0.1-6.9-0.1-10.4c-0.4-4.2,0.3-4.9,2.1-5.4c0.4-0.1,0.8-0.2,1.2-0.4c1.3-0.7,1.1-3,0.8-5.3c-0.1-0.7-0.1-1.4-0.2-2.1
			c-0.2-1.9,0.5-3.8,1.8-5.2c0.5-0.5,1.2-0.8,1.9-0.7c0.4,0,0.9-0.6,1.1-1.4c0-0.2,0.1-1-0.4-1.1c-1.7-0.4-1.6-1.4-1.6-2.5
			c0-0.2,0-0.5,0-0.8V19c0.1-0.7-0.1-1.4-0.5-1.9c-0.5-0.4-1.5-0.6-3-0.4c-4.5,0.5-6-1.7-6.1-1.8c-1.4-3.1-3.8-2.9-5.7-2.8h-0.6
			c-1.2,0-1.8,3-1.9,4.5l-1.2,13.3c-0.4,5-3.3,5.6-3.4,5.6c-2.4,0.3-5.8,3.3-5.8,3.3c-2.7,2.2-4.7,1.1-5.3,0.6c-1.1,0-7.5-0.1-8.8,0
			c-1.5,0.2-2.9-1.4-3.3-2l-9.1-0.3c-0.9,1.6-2.5,2.7-4.4,2.9c-2.1,0.4-3.3-2-3.7-2.9h-3.9c-0.4,2-1.3,3.8-2.6,5.4
			c-1.1,1.3-1.2,5-1.1,6.2c-0.2,2.7-0.9,4.6-2.1,5.6c-0.5,0.4-1.1,0.7-1.8,0.8c-0.1,3.8,0.8,5.3,1.6,5.8c0.6,0.4,1.3,0.5,2,0.2
			l0.8-0.3l-0.1,0.9c-0.8,5.7-2.4,9.3-4.7,10.6c-0.8,0.5-1.8,0.7-2.7,0.4c-1.6-0.9-3.6-1-5.3-0.4c-1.2,0.5-2.1,1.4-2.6,2.6
			c-3.4,8.8-3.6,13-2.7,17.5c0.6,3-1.1,7.1-2.7,10.8c-0.8,1.6-1.4,3.3-1.7,5c-0.1,1.1-0.2,2.2-0.4,3.7c-0.4,2.9-0.9,7.4-1.6,15.7
			c-1,12.5-11.4,45.3-14.8,53.8c-3.2,8.2-15.5,35.9-17.8,40.4s-14.9,24.9-19,29.9l-1.5,1.9c-5.6,6.8-17.2,21.1-21.1,25
			c-3.9,3.9-2.5,8.1-2.5,8.1c0,0,0.8,2.1,2.9,7.4c1,2.5,3.7,10.7,6.5,19.3c3.1,9.4,6.2,19,7.2,21.3c2,4.8,8.1,22.4,15,46.4
			c3.3,11.6,7.2,22.9,11.8,34c1.3,3.3,2.5,6.1,3.5,9.2c3.4,9.5,7.4,18.8,11.9,27.9c1.9,3.4,1.9,7.5,1.1,13.5s3,13.3,3,13.4
			C75.5,486.2,76,494,74.6,501.6L74.6,501.6z"/>
		<path class="st3" d="M190.8,652.7H0V0h190.8V652.7z M0.7,651.9h189.4V0.8H0.7V651.9z"/>
		<path d="M44.4,172.2v0.8h-2.2v5.7h-0.9V173h-2.2v-0.8H44.4z"/>
		<path d="M47.1,174.1c0.3,0.1,0.5,0.3,0.7,0.6c0.2,0.3,0.3,0.5,0.3,0.8c0.1,0.3,0.1,0.7,0.1,1h-3.4c0,0.4,0.1,0.8,0.3,1.2
			c0.2,0.3,0.6,0.5,1,0.4c0.4,0,0.7-0.1,1-0.4c0.1-0.2,0.2-0.3,0.3-0.6h0.8c0,0.2-0.1,0.4-0.2,0.6c-0.1,0.2-0.2,0.4-0.4,0.5
			c-0.2,0.2-0.6,0.4-0.9,0.5c-0.2,0.1-0.4,0.1-0.6,0.1c-0.6,0-1.1-0.2-1.5-0.6c-0.4-0.5-0.6-1.1-0.6-1.8c0-0.7,0.2-1.3,0.6-1.8
			c0.4-0.5,1-0.7,1.6-0.7C46.5,173.8,46.8,173.9,47.1,174.1z M47.4,175.9c0-0.3-0.1-0.6-0.2-0.8c-0.2-0.4-0.6-0.6-1.1-0.6
			c-0.3,0-0.7,0.1-0.9,0.4c-0.3,0.3-0.4,0.6-0.4,1L47.4,175.9z"/>
		<path d="M49.3,172.2h0.8v6.5h-0.8V172.2z"/>
		<path d="M55.5,172.2h1l2.3,6.5h-1l-0.7-1.9h-2.5l-0.7,1.9H53L55.5,172.2z M56.9,176l-1-2.9l-1,2.9H56.9z"/>
		<path d="M59.8,174l1.3,3.8l1.3-3.8h0.9l-1.8,4.7h-0.8l-1.7-4.7H59.8z"/>
		<path d="M64,172.2h0.8v0.9H64V172.2z M64,174h0.8v4.7H64V174z"/>
		<path d="M66.5,174l1.3,3.8l1.3-3.8h0.9l-1.8,4.7h-0.8l-1.7-4.7H66.5z"/>
		<path d="M8,248.7c0.7,0.4,1.1,1,1.2,1.8H8.3c-0.1-0.4-0.3-0.8-0.6-1c-0.4-0.2-0.8-0.3-1.2-0.3c-0.6,0-1.1,0.2-1.5,0.7
			c-0.4,0.6-0.7,1.3-0.6,2c0,0.7,0.1,1.3,0.5,1.9c0.4,0.5,1,0.8,1.6,0.7c0.5,0,1-0.2,1.4-0.5c0.4-0.4,0.6-1,0.6-1.6h-2v-0.8h2.8v3.5
			H8.7l-0.2-0.8c-0.2,0.3-0.5,0.5-0.8,0.7c-0.4,0.2-0.9,0.3-1.4,0.3c-0.7,0-1.5-0.2-2-0.8c-0.6-0.7-0.9-1.6-0.9-2.5
			c0-0.9,0.3-1.9,0.9-2.6c0.5-0.6,1.3-0.9,2.1-0.9C7,248.3,7.5,248.4,8,248.7z"/>
		<path d="M13.2,252.1c0.2,0,0.3-0.1,0.4-0.2c0-0.1,0-0.2,0-0.3c0-0.2-0.1-0.5-0.3-0.6c-0.3-0.1-0.5-0.2-0.8-0.2
			c-0.3,0-0.7,0.1-0.9,0.3c-0.1,0.2-0.2,0.4-0.2,0.5h-0.7c0-0.5,0.2-0.9,0.6-1.2c0.4-0.2,0.8-0.4,1.3-0.4c0.5,0,0.9,0.1,1.3,0.3
			c0.3,0.2,0.5,0.6,0.5,1v2.7c0,0.1,0,0.1,0,0.2c0.1,0.1,0.1,0.1,0.2,0.1h0.1h0.1v0.6l-0.3,0.1h-0.3c-0.2,0-0.5-0.1-0.6-0.3
			c-0.1-0.1-0.1-0.3-0.1-0.4c-0.2,0.2-0.4,0.4-0.7,0.5c-0.3,0.2-0.7,0.2-1,0.2c-0.4,0-0.8-0.1-1.1-0.4c-0.3-0.3-0.4-0.6-0.4-1
			c0-0.4,0.1-0.7,0.4-1c0.3-0.3,0.7-0.4,1.1-0.5L13.2,252.1z M11.6,254.2c0.2,0.1,0.4,0.2,0.6,0.2c0.3,0,0.6-0.1,0.8-0.2
			c0.4-0.2,0.7-0.6,0.7-1v-0.6c-0.1,0.1-0.2,0.1-0.4,0.2l-0.4,0.1l-0.5,0.1c-0.2,0-0.4,0.1-0.6,0.2c-0.2,0.1-0.4,0.4-0.4,0.6
			C11.3,253.9,11.4,254.1,11.6,254.2z"/>
		<path d="M15.4,254.3l2.8-3.4h-2.6v-0.7h3.7v0.6l-2.8,3.4h2.9v0.7h-3.9V254.3z"/>
		<path d="M20,254.3l2.8-3.4h-2.6v-0.7h3.7v0.6l-2.8,3.4H24v0.7h-4V254.3z"/>
		<path d="M27.9,250.3c0.3,0.1,0.5,0.3,0.7,0.6c0.2,0.3,0.3,0.5,0.3,0.8c0.1,0.3,0.1,0.7,0.1,1h-3.4c0,0.4,0.1,0.8,0.3,1.2
			c0.2,0.3,0.6,0.5,1,0.4c0.4,0,0.7-0.1,1-0.4c0.1-0.2,0.2-0.3,0.3-0.5H29c0,0.2-0.1,0.4-0.2,0.6c-0.1,0.2-0.2,0.4-0.4,0.5
			c-0.2,0.2-0.6,0.4-0.9,0.5c-0.2,0.1-0.4,0.1-0.6,0.1c-0.6,0-1.1-0.2-1.5-0.6c-0.4-0.5-0.7-1.1-0.6-1.8c0-0.7,0.2-1.3,0.6-1.8
			c0.4-0.5,1-0.7,1.6-0.7C27.3,250.1,27.6,250.2,27.9,250.3z M28.2,252.2c0-0.3-0.1-0.6-0.2-0.8c-0.2-0.4-0.6-0.6-1.1-0.6
			c-0.3,0-0.7,0.1-0.9,0.4c-0.2,0.3-0.4,0.6-0.4,1H28.2z"/>
		<circle class="st6" cx="79.9" cy="181.5" r="4.3"/>
		<path class="st6" d="M106.5,79.2c0,2.4-1.9,4.3-4.3,4.3c-2.4,0-4.3-1.9-4.3-4.3c0-2.4,1.9-4.3,4.3-4.3c0,0,0,0,0,0
			C104.5,74.9,106.5,76.8,106.5,79.2C106.5,79.2,106.5,79.2,106.5,79.2z"/>
		<path class="st6" d="M39.4,264.1c0,2.4-1.9,4.3-4.3,4.4c-2.4,0-4.3-1.9-4.4-4.3s1.9-4.3,4.3-4.3c0,0,0,0,0,0
			C37.5,259.8,39.4,261.7,39.4,264.1z"/>
		<path class="st6" d="M131.9,205.4c0,2.4-1.9,4.3-4.3,4.4s-4.3-1.9-4.4-4.3s1.9-4.3,4.3-4.4c0,0,0,0,0,0
			C130,201,131.9,203,131.9,205.4z"/>
		<path class="st6" d="M131.9,225.6c0,2.4-1.9,4.3-4.3,4.4s-4.3-1.9-4.4-4.3s1.9-4.3,4.3-4.4c0,0,0,0,0,0
			C130,221.3,131.9,223.2,131.9,225.6z"/>
		<path class="st6" d="M128.6,239.9c0,2.4-1.9,4.3-4.3,4.3c-2.4,0-4.3-1.9-4.3-4.3c0-2.4,1.9-4.3,4.3-4.4c0,0,0,0,0,0
			C126.6,235.5,128.6,237.5,128.6,239.9z"/>
		<path class="st6" d="M63.3,382.9h-1.8v-8.6h1.8V382.9z M61.6,371.9h1.5v1.4h-1.5V371.9z"/>
		<path class="st6" d="M66.3,380.2c0,0.3,0.1,0.6,0.3,0.9c0.4,0.4,1,0.6,1.5,0.5c0.4,0,0.7,0,1.1-0.1c0.5-0.1,0.8-0.5,0.8-1
			c0-0.3-0.1-0.5-0.4-0.7c-0.4-0.2-0.8-0.3-1.2-0.4l-0.9-0.2c-0.7-0.1-1.3-0.3-1.9-0.7c-0.6-0.4-0.9-1.1-0.9-1.9
			c0-0.7,0.3-1.4,0.9-1.9c0.7-0.6,1.6-0.8,2.5-0.8c0.8,0,1.7,0.2,2.4,0.7c0.6,0.5,1,1.3,1,2.1h-1.7c0-0.5-0.3-0.9-0.7-1.1
			c-0.3-0.2-0.7-0.2-1.1-0.2c-0.4,0-0.8,0.1-1.1,0.3c-0.3,0.2-0.4,0.5-0.4,0.8c0,0.3,0.2,0.6,0.4,0.7c0.4,0.2,0.8,0.3,1.1,0.4
			l1.5,0.4c0.5,0.1,1.1,0.3,1.5,0.6c0.5,0.4,0.8,1.1,0.8,1.8c0,0.8-0.3,1.5-0.9,2c-0.7,0.6-1.7,0.8-2.6,0.8c-1,0.1-1.9-0.2-2.7-0.8
			c-0.7-0.5-1-1.3-1-2.1L66.3,380.2z"/>
		<path class="st6" d="M78.5,374.5c0.3,0.1,0.6,0.3,0.8,0.6c0.2,0.2,0.3,0.5,0.4,0.7c0.1,0.3,0.2,0.6,0.2,0.9c0,0.4-0.1,0.8-0.3,1.2
			c-0.2,0.4-0.6,0.7-1,0.8c0.4,0.1,0.6,0.4,0.8,0.7c0.2,0.4,0.3,0.9,0.3,1.4v0.6c0,0.3,0,0.5,0,0.8c0,0.2,0.2,0.4,0.3,0.5v0.2h-2
			c0-0.2-0.1-0.3-0.1-0.5c-0.1-0.2-0.1-0.5-0.1-0.7v-0.8c0-0.4-0.1-0.8-0.3-1.1c-0.3-0.2-0.6-0.3-1-0.3h-1.8v3.4H73v-8.6h4.1
			C77.6,374.2,78.1,374.3,78.5,374.5z M74.8,375.7v2.3h1.9c0.3,0,0.6,0,0.9-0.1c0.4-0.2,0.6-0.6,0.5-1c0.1-0.4-0.1-0.8-0.5-1
			c-0.3-0.1-0.6-0.2-0.8-0.1L74.8,375.7z"/>
		<path class="st6" d="M84.1,374.2h2l3.1,8.6h-2l-0.6-1.8h-3.2l-0.6,1.8H81L84.1,374.2z M84,379.6h2.2l-1.1-3.4L84,379.6z"/>
		<path class="st6" d="M92,382.9h-1.8v-8.6H92V382.9z M90.3,371.9h1.5v1.4h-1.5V371.9z"/>
		<path class="st6" d="M93.6,374.2h1.8v7.1h4.3v1.5h-6.1V374.2z"/>
		<path class="st6" d="M83.2,199.7h2.9c0.4,0,0.8,0.1,1.2,0.2c0.6,0.3,1,0.9,0.9,1.5c0,0.3-0.1,0.7-0.2,1c-0.2,0.3-0.4,0.5-0.7,0.6
			c0.2,0.1,0.4,0.2,0.6,0.4c0.2,0.2,0.2,0.5,0.2,0.8v0.9c0,0.2,0,0.4,0.1,0.5c0,0.2,0.1,0.3,0.3,0.4v0.1h-1.1c0-0.1-0.1-0.1-0.1-0.2
			c0-0.2,0-0.3-0.1-0.5l-0.1-1.1c0-0.3-0.2-0.7-0.5-0.8c-0.2-0.1-0.5-0.1-0.8-0.1h-1.9v2.8h-0.9L83.2,199.7z M86.1,202.7
			c0.4,0,0.7-0.1,1-0.3c0.3-0.2,0.4-0.6,0.4-0.9c0-0.4-0.2-0.7-0.5-0.9c-0.2-0.1-0.5-0.1-0.7-0.1h-2.1v2.2L86.1,202.7z"/>
		<path class="st6" d="M92.1,203.3c0.2,0,0.3-0.1,0.4-0.2c0-0.1,0.1-0.2,0.1-0.3c0-0.2-0.1-0.5-0.3-0.6c-0.2-0.1-0.5-0.2-0.8-0.2
			c-0.3,0-0.7,0.1-0.9,0.3c-0.1,0.2-0.2,0.4-0.2,0.5h-0.7c0-0.5,0.2-0.9,0.6-1.2c0.4-0.2,0.8-0.4,1.3-0.4c0.5,0,0.9,0.1,1.3,0.3
			c0.3,0.2,0.6,0.6,0.5,1v2.7c0,0.1,0,0.1,0.1,0.2c0.1,0.1,0.1,0.1,0.2,0.1h0.1h0.1v0.6l-0.3,0.1h-0.3c-0.2,0-0.5-0.1-0.6-0.3
			c-0.1-0.1-0.1-0.3-0.1-0.4c-0.2,0.2-0.4,0.4-0.7,0.5c-0.3,0.2-0.7,0.2-1,0.2c-0.4,0-0.8-0.1-1.1-0.4c-0.3-0.3-0.4-0.6-0.4-1
			c0-0.4,0.1-0.7,0.4-1c0.3-0.3,0.7-0.4,1.1-0.4L92.1,203.3z M90.5,205.4c0.2,0.1,0.4,0.2,0.6,0.2c0.3,0,0.6-0.1,0.8-0.2
			c0.4-0.2,0.7-0.6,0.7-1v-0.6c-0.1,0.1-0.2,0.1-0.4,0.2l-0.4,0.1l-0.5,0.1c-0.2,0-0.4,0.1-0.6,0.2c-0.2,0.1-0.4,0.4-0.4,0.7
			C90.2,205.2,90.3,205.3,90.5,205.4z"/>
		<path class="st6" d="M94.7,201.4h0.8v0.7c0.1-0.2,0.3-0.4,0.5-0.5c0.3-0.2,0.6-0.3,0.9-0.3c0.3,0,0.6,0.1,0.9,0.3
			c0.1,0.1,0.3,0.3,0.4,0.5c0.3-0.5,0.8-0.8,1.4-0.8c0.5-0.1,1,0.2,1.3,0.7c0.1,0.3,0.2,0.7,0.2,1v3.1h-0.8v-3.3
			c0-0.2-0.1-0.5-0.2-0.6c-0.2-0.1-0.4-0.2-0.6-0.2c-0.3,0-0.6,0.1-0.8,0.3c-0.2,0.3-0.4,0.6-0.3,1v2.7h-0.8v-3.1
			c0-0.2,0-0.5-0.1-0.7c-0.1-0.2-0.4-0.4-0.7-0.3c-0.3,0-0.6,0.1-0.8,0.3c-0.3,0.4-0.4,0.8-0.4,1.3v2.5h-0.8L94.7,201.4z"/>
		<path class="st6" d="M104.8,203.3c0.2,0,0.3-0.1,0.4-0.2c0-0.1,0-0.2,0-0.3c0-0.2-0.1-0.5-0.3-0.6c-0.2-0.1-0.5-0.2-0.8-0.2
			c-0.3,0-0.7,0.1-0.9,0.3c-0.1,0.2-0.2,0.4-0.2,0.5h-0.7c0-0.5,0.2-0.9,0.6-1.2c0.4-0.2,0.8-0.4,1.3-0.4c0.5,0,0.9,0.1,1.4,0.3
			c0.3,0.2,0.5,0.6,0.5,1v2.7c0,0.1,0,0.1,0.1,0.2c0.1,0.1,0.1,0.1,0.2,0.1h0.1h0.1v0.6l-0.3,0.1h-0.3c-0.2,0-0.5-0.1-0.6-0.3
			c-0.1-0.1-0.1-0.3-0.1-0.4c-0.2,0.2-0.4,0.4-0.7,0.5c-0.3,0.2-0.7,0.2-1,0.2c-0.4,0-0.8-0.1-1.1-0.4c-0.3-0.3-0.4-0.6-0.4-1
			c0-0.4,0.1-0.7,0.4-1c0.3-0.3,0.7-0.4,1.1-0.4L104.8,203.3z M103.1,205.4c0.2,0.1,0.4,0.2,0.6,0.2c0.3,0,0.6-0.1,0.8-0.2
			c0.4-0.2,0.7-0.6,0.7-1v-0.6c-0.1,0.1-0.2,0.1-0.4,0.2l-0.4,0.1l-0.5,0.1c-0.2,0-0.4,0.1-0.6,0.2c-0.2,0.1-0.4,0.4-0.4,0.7
			C102.9,205.2,103,205.3,103.1,205.4z"/>
		<path class="st6" d="M107.4,199.7h0.8v6.5h-0.8V199.7z"/>
		<path class="st6" d="M109.5,199.7h0.8v6.5h-0.8V199.7z"/>
		<path class="st6" d="M114.1,203.3c0.2,0,0.3-0.1,0.4-0.2c0.1-0.3,0-0.7-0.2-0.9c-0.2-0.1-0.5-0.2-0.8-0.2c-0.3,0-0.7,0.1-0.9,0.3
			c-0.1,0.2-0.2,0.4-0.2,0.5h-0.7c0-0.5,0.2-0.9,0.6-1.2c0.4-0.2,0.8-0.4,1.3-0.4c0.5,0,0.9,0.1,1.4,0.3c0.3,0.2,0.5,0.6,0.5,1v2.7
			c0,0.1,0,0.1,0.1,0.2c0.1,0.1,0.1,0.1,0.2,0.1h0.1h0.1v0.6l-0.3,0.1h-0.3c-0.2,0-0.5-0.1-0.6-0.3c-0.1-0.1-0.1-0.3-0.1-0.4
			c-0.2,0.2-0.4,0.4-0.7,0.5c-0.3,0.2-0.7,0.2-1,0.2c-0.4,0-0.8-0.1-1.1-0.4c-0.3-0.3-0.4-0.6-0.4-1c0-0.4,0.1-0.7,0.4-1
			c0.3-0.3,0.7-0.4,1.1-0.4L114.1,203.3z M112.4,205.4c0.2,0.1,0.4,0.2,0.6,0.2c0.3,0,0.6-0.1,0.8-0.2c0.4-0.2,0.7-0.6,0.7-1v-0.6
			c-0.1,0.1-0.2,0.1-0.4,0.2l-0.4,0.1l-0.5,0.1c-0.2,0-0.4,0.1-0.6,0.2c-0.2,0.1-0.4,0.4-0.4,0.7
			C112.2,205.2,112.3,205.3,112.4,205.4z"/>
		<path class="st6" d="M116.7,199.7h0.8v2.4c0.1-0.2,0.3-0.4,0.5-0.5c0.3-0.2,0.6-0.3,0.9-0.3c0.6-0.1,1.1,0.2,1.4,0.7
			c0.1,0.3,0.2,0.7,0.2,1.1v3h-0.8v-3c0-0.3,0-0.5-0.1-0.8c-0.2-0.3-0.5-0.4-0.8-0.4c-0.3,0-0.6,0.1-0.9,0.3
			c-0.3,0.4-0.5,0.8-0.4,1.3v2.5h-0.8L116.7,199.7z"/>
		<path class="st6" d="M93.8,220.7h0.9v3.2l3.2-3.2h1.2l-2.8,2.6l2.8,3.9H98l-2.3-3.3l-1.1,1v2.3h-0.9L93.8,220.7z"/>
		<path class="st6" d="M100.6,222.4v3.1c0,0.2,0,0.4,0.1,0.6c0.1,0.3,0.4,0.5,0.8,0.4c0.5,0,0.9-0.3,1.1-0.7
			c0.1-0.4,0.2-0.7,0.2-1.1v-2.3h0.8v4.7h-0.8v-0.7c-0.1,0.2-0.2,0.3-0.4,0.5c-0.3,0.3-0.7,0.4-1.1,0.4c-0.5,0.1-1.1-0.2-1.4-0.7
			c-0.1-0.3-0.2-0.7-0.2-1v-3.1H100.6z"/>
		<path class="st6" d="M107.5,222.6c0.2,0.1,0.3,0.3,0.5,0.5v-2.4h0.8v6.5H108v-0.7c-0.2,0.3-0.4,0.5-0.6,0.6
			c-0.3,0.1-0.6,0.2-0.9,0.2c-0.5,0-1-0.2-1.4-0.7c-0.4-0.5-0.6-1.1-0.6-1.8c0-0.6,0.2-1.3,0.5-1.8
			C105.6,222.4,106.7,222.2,107.5,222.6L107.5,222.6z M105.7,226.1c0.2,0.3,0.6,0.5,1,0.5c0.4,0,0.7-0.2,0.9-0.5
			c0.3-0.4,0.4-0.9,0.4-1.4c0-0.5-0.1-0.9-0.4-1.3c-0.2-0.3-0.5-0.4-0.9-0.4c-0.4,0-0.8,0.1-1,0.5c-0.3,0.4-0.4,0.9-0.4,1.4
			C105.3,225.3,105.4,225.8,105.7,226.1z"/>
		<path class="st6" d="M110.8,222.4v3.1c0,0.2,0,0.4,0.1,0.6c0.1,0.3,0.4,0.4,0.8,0.4c0.5,0,0.9-0.3,1.1-0.7
			c0.1-0.4,0.2-0.7,0.2-1.1v-2.3h0.8v4.7h-0.8v-0.7c-0.1,0.2-0.2,0.3-0.4,0.5c-0.3,0.2-0.7,0.4-1.1,0.4c-0.5,0.1-1.1-0.2-1.4-0.7
			c-0.1-0.3-0.2-0.7-0.2-1v-3.1H110.8z M110.8,220.8h0.8v0.9h-0.8V220.8z M112.2,220.8h0.8v0.9h-0.8L112.2,220.8z"/>
		<path class="st6" d="M115.5,225.7c0,0.2,0.1,0.4,0.2,0.6c0.3,0.3,0.7,0.4,1.1,0.4c0.3,0,0.5-0.1,0.8-0.2c0.2-0.1,0.4-0.3,0.3-0.6
			c0-0.2-0.1-0.4-0.3-0.5c-0.2-0.1-0.5-0.2-0.7-0.2l-0.6-0.2c-0.3-0.1-0.6-0.2-0.9-0.3c-0.3-0.2-0.5-0.5-0.5-0.9
			c0-0.4,0.2-0.8,0.5-1.1c0.4-0.3,0.8-0.4,1.3-0.4c0.6-0.1,1.2,0.2,1.6,0.6c0.2,0.2,0.3,0.5,0.3,0.9h-0.8c0-0.2-0.1-0.3-0.2-0.5
			c-0.3-0.2-0.6-0.4-1-0.3c-0.2,0-0.5,0-0.7,0.2c-0.1,0.1-0.2,0.3-0.2,0.5c0,0.2,0.1,0.4,0.3,0.5c0.2,0.1,0.3,0.2,0.5,0.2l0.5,0.1
			c0.4,0.1,0.8,0.2,1.2,0.4c0.3,0.2,0.5,0.6,0.5,1c0,0.4-0.2,0.8-0.5,1.1c-0.4,0.3-0.9,0.5-1.5,0.5c-0.5,0.1-1.1-0.1-1.5-0.5
			c-0.3-0.3-0.5-0.7-0.5-1.2H115.5z"/>
		<path class="st6" d="M70.4,234.6h2.8c0.6-0.1,1.2,0.2,1.6,0.7c0.2,0.3,0.3,0.6,0.3,0.9c0,0.4-0.1,0.7-0.4,1
			c-0.1,0.2-0.3,0.3-0.5,0.4c0.3,0.1,0.5,0.2,0.7,0.4c0.3,0.3,0.5,0.7,0.4,1.2c0,0.4-0.1,0.8-0.4,1.1c-0.5,0.5-1.2,0.8-1.9,0.8h-2.8
			L70.4,234.6z M72.9,237.3c0.3,0,0.6,0,0.9-0.2c0.3-0.2,0.5-0.5,0.5-0.9c0-0.4-0.2-0.7-0.5-0.9c-0.3-0.1-0.6-0.1-0.9-0.1h-1.6v2
			H72.9z M73.2,240.3c0.4,0,0.9-0.1,1.2-0.5c0.1-0.2,0.2-0.5,0.2-0.7c0-0.4-0.2-0.8-0.6-1c-0.3-0.1-0.6-0.1-0.9-0.1h-1.8v2.3
			L73.2,240.3z"/>
		<path class="st6" d="M79.4,236.4c0.3,0.1,0.5,0.3,0.7,0.6c0.2,0.3,0.3,0.5,0.3,0.8c0.1,0.3,0.1,0.7,0.1,1H77
			c0,0.4,0.1,0.8,0.3,1.1c0.2,0.3,0.6,0.5,1,0.4c0.4,0,0.7-0.1,1-0.4c0.1-0.2,0.2-0.3,0.3-0.5h0.8c0,0.2-0.1,0.4-0.2,0.6
			c-0.1,0.2-0.2,0.4-0.4,0.5c-0.2,0.2-0.5,0.4-0.9,0.5c-0.2,0.1-0.4,0.1-0.6,0.1c-0.6,0-1.1-0.2-1.5-0.6c-0.4-0.5-0.7-1.1-0.6-1.8
			c0-0.7,0.2-1.3,0.6-1.8c0.4-0.5,1-0.7,1.6-0.7C78.7,236.2,79.1,236.3,79.4,236.4z M79.6,238.3c0-0.3-0.1-0.6-0.2-0.8
			c-0.2-0.4-0.6-0.6-1.1-0.6c-0.3,0-0.7,0.1-0.9,0.4c-0.2,0.3-0.4,0.6-0.4,1H79.6z"/>
		<path class="st6" d="M84.5,236.3h0.9c-0.1,0.3-0.4,1-0.7,2.1c-0.3,0.8-0.5,1.5-0.7,2c-0.3,0.8-0.6,1.5-1,2.2
			c-0.2,0.3-0.6,0.4-1,0.4h-0.3l-0.2,0v-0.7l0.3,0.1h0.2c0.1,0,0.2,0,0.3-0.1c0.1,0,0.1-0.1,0.2-0.2c0.1-0.1,0.1-0.2,0.2-0.4
			c0.1-0.2,0.2-0.4,0.2-0.5l-1.7-4.8h0.9l1.3,3.8L84.5,236.3z"/>
		<path class="st6" d="M86.3,235h0.8v1.3h0.8v0.6h-0.8v3.1c0,0.1,0.1,0.3,0.2,0.3c0.1,0,0.2,0.1,0.3,0h0.1h0.1v0.6
			c-0.1,0-0.2,0.1-0.3,0.1h-0.3c-0.3,0-0.6-0.1-0.8-0.3c-0.1-0.2-0.2-0.5-0.2-0.7v-3.1h-0.6v-0.6h0.6L86.3,235z"/>
		<path class="st6" d="M89.5,236.3v3.1c0,0.2,0,0.4,0.1,0.6c0.1,0.3,0.4,0.5,0.8,0.4c0.5,0,0.9-0.3,1.1-0.7c0.1-0.3,0.2-0.7,0.2-1.1
			v-2.3h0.8v4.7h-0.8v-0.7c-0.1,0.2-0.2,0.3-0.4,0.5c-0.3,0.3-0.7,0.4-1.1,0.4c-0.5,0.1-1.1-0.2-1.4-0.7c-0.1-0.3-0.2-0.7-0.2-1
			v-3.2L89.5,236.3z"/>
		<path class="st6" d="M93.8,234.6h0.8v6.5h-0.8V234.6z"/>
		<path class="st6" d="M95.9,234.6h0.8v6.5h-0.8V234.6z"/>
		<path class="st6" d="M100.5,238.2c0.2,0,0.3-0.1,0.4-0.2c0-0.1,0.1-0.2,0.1-0.3c0-0.2-0.1-0.5-0.3-0.6c-0.3-0.1-0.5-0.2-0.8-0.2
			c-0.3,0-0.7,0.1-0.9,0.3c-0.1,0.2-0.2,0.4-0.2,0.5H98c0-0.5,0.2-0.9,0.6-1.2c0.4-0.2,0.8-0.3,1.3-0.3c0.5,0,0.9,0.1,1.3,0.3
			c0.4,0.2,0.6,0.6,0.5,1v2.7c0,0.1,0,0.1,0.1,0.2c0.1,0.1,0.1,0.1,0.2,0.1h0.1h0.1v0.6c-0.1,0-0.2,0.1-0.3,0.1h-0.3
			c-0.2,0-0.5-0.1-0.6-0.3c-0.1-0.1-0.1-0.3-0.1-0.4c-0.2,0.2-0.4,0.4-0.7,0.5c-0.3,0.2-0.7,0.2-1,0.2c-0.4,0-0.8-0.1-1.1-0.4
			c-0.3-0.3-0.4-0.6-0.4-1c0-0.4,0.1-0.7,0.4-1c0.3-0.3,0.7-0.4,1.1-0.5L100.5,238.2z M98.8,240.3c0.2,0.1,0.4,0.2,0.6,0.2
			c0.3,0,0.6-0.1,0.8-0.2c0.4-0.2,0.7-0.6,0.7-1v-0.6c-0.1,0.1-0.2,0.1-0.4,0.1c-0.1,0-0.3,0.1-0.4,0.1l-0.5,0.1
			c-0.2,0-0.4,0.1-0.6,0.2c-0.2,0.1-0.4,0.4-0.4,0.7C98.6,240,98.7,240.2,98.8,240.3L98.8,240.3z"/>
		<path class="st6" d="M103.1,234.5h0.8v2.4c0.1-0.2,0.3-0.4,0.5-0.5c0.3-0.2,0.6-0.3,1-0.3c0.6-0.1,1.1,0.2,1.4,0.7
			c0.1,0.3,0.2,0.7,0.2,1.1v3h-0.8v-3c0-0.3,0-0.5-0.1-0.8c-0.2-0.3-0.5-0.4-0.8-0.4c-0.3,0-0.6,0.1-0.9,0.3
			c-0.3,0.3-0.5,0.8-0.4,1.3v2.5h-0.8L103.1,234.5z"/>
		<path class="st6" d="M108.2,234.6h0.8v0.9h-0.8V234.6z M108.2,236.3h0.8v4.7h-0.8V236.3z"/>
		<path class="st6" d="M110.3,236.3h0.8v0.7c0.1-0.2,0.3-0.4,0.5-0.5c0.3-0.2,0.6-0.3,0.9-0.3c0.3,0,0.6,0.1,0.9,0.3
			c0.1,0.1,0.3,0.3,0.4,0.5c0.2-0.2,0.4-0.4,0.6-0.6c0.2-0.1,0.5-0.2,0.8-0.2c0.5-0.1,1,0.2,1.3,0.7c0.1,0.3,0.2,0.7,0.2,1v3.1h-0.8
			v-3.3c0-0.2-0.1-0.5-0.2-0.6c-0.2-0.1-0.4-0.2-0.6-0.2c-0.3,0-0.6,0.1-0.8,0.3c-0.2,0.3-0.4,0.6-0.3,1v2.7H113v-3.1
			c0-0.2,0-0.5-0.1-0.7c-0.1-0.2-0.4-0.4-0.7-0.3c-0.3,0-0.6,0.1-0.8,0.4c-0.3,0.4-0.4,0.8-0.4,1.3v2.5h-0.8L110.3,236.3z"/>
		<path d="M71.5,69.6h0.9v2.7h3.3v-2.7h0.9v6.5h-0.9v-3h-3.3v3h-0.9V69.6z"/>
		<path d="M80.5,73.2c0.2,0,0.3-0.1,0.4-0.2c0-0.1,0.1-0.2,0.1-0.3c0-0.2-0.1-0.5-0.3-0.6c-0.3-0.1-0.5-0.2-0.8-0.2
			c-0.3,0-0.7,0.1-0.9,0.3c-0.1,0.2-0.2,0.4-0.2,0.6H78c0-0.5,0.2-0.9,0.6-1.2c0.4-0.2,0.8-0.3,1.3-0.3c0.5,0,0.9,0.1,1.4,0.3
			c0.3,0.2,0.5,0.6,0.5,1v2.7c0,0.1,0,0.1,0.1,0.2c0.1,0.1,0.1,0.1,0.2,0.1h0h0.1v0.6l-0.3,0.1h-0.3c-0.2,0-0.5-0.1-0.6-0.3
			c-0.1-0.1-0.1-0.3-0.1-0.4c-0.2,0.2-0.4,0.4-0.7,0.6c-0.3,0.2-0.7,0.2-1,0.2c-0.4,0-0.8-0.1-1.1-0.4c-0.5-0.6-0.5-1.4,0-2
			c0.3-0.3,0.7-0.4,1.1-0.4L80.5,73.2z M78.8,75.3c0.2,0.1,0.4,0.2,0.6,0.2c0.3,0,0.6-0.1,0.8-0.2c0.4-0.2,0.7-0.6,0.7-1v-0.6
			c-0.1,0.1-0.2,0.1-0.4,0.1c-0.1,0-0.3,0.1-0.4,0.1L79.6,74c-0.2,0-0.4,0.1-0.6,0.2c-0.2,0.1-0.4,0.4-0.4,0.7
			C78.5,75,78.6,75.2,78.8,75.3L78.8,75.3z"/>
		<path d="M86,71.3h0.9l-0.8,2.1c-0.3,0.8-0.5,1.5-0.7,2c-0.3,0.8-0.6,1.5-1,2.2c-0.2,0.3-0.6,0.5-1,0.4h-0.3L82.9,78v-0.7l0.3,0.1
			h0.2c0.1,0,0.2,0,0.3-0.1c0.1,0,0.1-0.1,0.2-0.2c0,0,0.1-0.1,0.2-0.4s0.1-0.4,0.2-0.5l-1.7-4.9h0.9l1.3,3.8L86,71.3z"/>
		<path d="M88,69.9c0.3-0.3,0.7-0.5,1.1-0.4h0.3v0.7h-0.3c-0.3,0-0.4,0.1-0.4,0.2c-0.1,0.3-0.1,0.7-0.1,1h0.8V72h-0.8v4.1h-0.8V72
			h-0.7v-0.6h0.7v-0.7C87.8,70.4,87.9,70.1,88,69.9z"/>
		<path d="M92.7,73.2c0.2,0,0.3-0.1,0.4-0.2c0-0.1,0.1-0.2,0.1-0.3c0-0.2-0.1-0.5-0.3-0.6c-0.3-0.1-0.5-0.2-0.8-0.2
			c-0.3,0-0.7,0.1-0.9,0.3c-0.1,0.2-0.2,0.4-0.2,0.6h-0.7c0-0.5,0.2-0.9,0.6-1.2c0.4-0.2,0.8-0.4,1.3-0.3c0.5,0,0.9,0.1,1.4,0.3
			c0.3,0.2,0.5,0.6,0.5,1v2.7c0,0.1,0,0.1,0.1,0.2c0,0,0.1,0.1,0.2,0.1h0.1h0.1v0.6l-0.3,0.1h-0.3c-0.2,0-0.5-0.1-0.6-0.3
			c-0.1-0.1-0.1-0.3-0.1-0.4c-0.2,0.2-0.4,0.4-0.7,0.6c-0.3,0.2-0.7,0.2-1,0.2c-0.4,0-0.8-0.1-1.1-0.4c-0.5-0.6-0.5-1.4,0-2
			c0.3-0.2,0.7-0.4,1.1-0.4L92.7,73.2z M91.1,75.3c0.2,0.1,0.4,0.2,0.6,0.2c0.3,0,0.6-0.1,0.8-0.2c0.4-0.2,0.7-0.6,0.7-1v-0.6
			c-0.1,0.1-0.2,0.1-0.4,0.1l-0.4,0.1L91.8,74c-0.2,0-0.4,0.1-0.6,0.2c-0.2,0.1-0.4,0.4-0.4,0.7C90.8,75,90.9,75.2,91.1,75.3
			L91.1,75.3z"/>
		<rect x="0.3" y="0.4" class="st0" width="106.3" height="32"/>
		<path d="M107,32.8H0V0h107V32.8z M0.7,32h105.5V0.8H0.7V32z"/>
		<path d="M7.2,9.2V8.4c0.5,0,0.9-0.1,1.3-0.3c0.3-0.2,0.5-0.6,0.6-1h0.7v7H8.8v-5L7.2,9.2z"/>
		<path d="M13.2,12.4c0,0.4,0.2,0.8,0.6,1c0.2,0.1,0.4,0.2,0.6,0.2c0.4,0,0.8-0.2,1.1-0.5c0.4-0.6,0.6-1.4,0.6-2.1
			c-0.2,0.3-0.4,0.5-0.7,0.7c-0.3,0.1-0.6,0.2-0.9,0.2c-0.6,0-1.2-0.2-1.6-0.6c-0.4-0.4-0.6-1-0.6-1.6c0-0.6,0.2-1.2,0.6-1.7
			c0.4-0.5,1.1-0.8,1.7-0.7c0.9-0.1,1.8,0.5,2.1,1.3c0.2,0.6,0.3,1.3,0.3,1.9c0,0.8-0.1,1.5-0.4,2.3c-0.3,1-1.2,1.7-2.2,1.7
			c-0.6,0-1.1-0.2-1.6-0.5c-0.3-0.3-0.5-0.8-0.5-1.3H13.2z M15.5,10.7c0.3-0.3,0.5-0.8,0.5-1.2c0-0.4-0.1-0.8-0.4-1.1
			c-0.3-0.3-0.6-0.4-1-0.4c-0.4,0-0.7,0.1-1,0.4c-0.3,0.3-0.4,0.7-0.4,1.1c0,0.4,0.1,0.8,0.3,1.1c0.3,0.3,0.7,0.4,1.1,0.4
			C14.9,10.9,15.2,10.8,15.5,10.7L15.5,10.7z"/>
		<path d="M20.9,14.1v-1.7h-3.1v-0.9L21,7.1h0.7v4.5h1v0.8h-1v1.7L20.9,14.1z M20.9,11.6V8.4l-2.2,3.2L20.9,11.6z"/>
		<path d="M24.6,12.4c0,0.4,0.2,0.8,0.6,1c0.2,0.1,0.4,0.2,0.6,0.2c0.4,0,0.8-0.2,1.1-0.5c0.4-0.6,0.6-1.4,0.6-2.1
			c-0.2,0.3-0.4,0.5-0.7,0.7c-0.3,0.1-0.6,0.2-0.9,0.2c-0.6,0-1.2-0.2-1.6-0.6c-0.4-0.4-0.6-1-0.6-1.6c0-0.6,0.2-1.2,0.6-1.7
			c0.4-0.5,1.1-0.8,1.7-0.7c0.9-0.1,1.8,0.5,2.1,1.3c0.2,0.6,0.3,1.3,0.3,1.9c0,0.8-0.1,1.5-0.4,2.3c-0.3,1-1.2,1.7-2.2,1.7
			c-0.6,0-1.1-0.2-1.6-0.5c-0.3-0.3-0.6-0.8-0.6-1.3H24.6z M26.8,10.7c0.3-0.3,0.5-0.8,0.4-1.2c0-0.4-0.1-0.8-0.4-1.1
			c-0.3-0.3-0.6-0.4-1-0.4c-0.4,0-0.7,0.1-1,0.4c-0.3,0.3-0.4,0.7-0.4,1.1c0,0.4,0.1,0.8,0.3,1.1c0.3,0.3,0.6,0.4,1,0.4
			C26.2,11,26.5,10.9,26.8,10.7L26.8,10.7z"/>
		<path d="M29.3,10.9h2.4v0.9h-2.4V10.9z"/>
		<path d="M36.2,6.9h1v7.2h-1V6.9z M36.2,5.2h0.9v1h-0.9V5.2z"/>
		<path d="M39.2,12.4c0,0.2,0.1,0.5,0.2,0.7c0.3,0.3,0.7,0.5,1.2,0.4c0.3,0,0.6-0.1,0.9-0.2c0.2-0.1,0.4-0.4,0.4-0.7
			c0-0.2-0.1-0.4-0.3-0.5c-0.2-0.1-0.5-0.2-0.8-0.3l-0.7-0.2c-0.4-0.1-0.7-0.2-1-0.4c-0.4-0.2-0.6-0.6-0.6-1c0-0.5,0.2-0.9,0.5-1.2
			c0.4-0.3,0.9-0.5,1.5-0.5c0.7-0.1,1.3,0.2,1.7,0.7c0.2,0.3,0.3,0.6,0.3,0.9h-0.8c0-0.2-0.1-0.4-0.2-0.5c-0.3-0.3-0.7-0.4-1.1-0.3
			c-0.3,0-0.5,0-0.8,0.2c-0.2,0.1-0.3,0.3-0.3,0.5c0,0.2,0.1,0.4,0.3,0.6c0.2,0.1,0.4,0.2,0.6,0.2l0.6,0.1c0.5,0.1,0.9,0.2,1.3,0.4
			c0.3,0.2,0.5,0.6,0.5,1.1c0,0.5-0.2,0.9-0.5,1.2c-0.5,0.4-1,0.6-1.6,0.5c-0.6,0.1-1.2-0.1-1.7-0.5c-0.3-0.4-0.5-0.8-0.5-1.3
			L39.2,12.4z"/>
		<path d="M43.8,8.9h0.8v0.9c0.1-0.2,0.3-0.5,0.5-0.6c0.2-0.2,0.6-0.4,0.9-0.4h0.1h0.2v0.9h-0.3c-0.4,0-0.8,0.1-1,0.4
			c-0.2,0.3-0.4,0.6-0.4,1v3h-0.9L43.8,8.9z"/>
		<path d="M50.1,10.9c0.2,0,0.3-0.1,0.4-0.3c0-0.1,0.1-0.2,0.1-0.3c0-0.3-0.1-0.5-0.3-0.7c-0.3-0.2-0.6-0.2-0.9-0.2
			c-0.4,0-0.8,0.1-1,0.4c-0.1,0.2-0.2,0.4-0.2,0.6h-0.8c0-0.5,0.2-1,0.6-1.3c0.4-0.3,0.9-0.4,1.4-0.4c0.5,0,1,0.1,1.5,0.3
			c0.4,0.2,0.6,0.7,0.6,1.1v3c0,0.1,0,0.1,0,0.2c0,0.1,0.1,0.1,0.2,0.1h0.1h0.2v0.7l-0.3,0.1h-0.3c-0.3,0-0.5-0.1-0.7-0.3
			c-0.1-0.1-0.1-0.3-0.2-0.5c-0.2,0.3-0.5,0.5-0.8,0.6c-0.3,0.2-0.7,0.3-1.1,0.3c-0.4,0-0.9-0.1-1.2-0.4c-0.3-0.3-0.5-0.7-0.5-1.1
			c0-0.4,0.1-0.8,0.5-1.1c0.3-0.3,0.8-0.4,1.2-0.5L50.1,10.9z M48.2,13.3c0.2,0.1,0.4,0.2,0.7,0.2c0.3,0,0.6-0.1,0.9-0.2
			c0.5-0.2,0.8-0.7,0.7-1.2v-0.7c-0.1,0.1-0.3,0.1-0.4,0.2c-0.2,0-0.3,0.1-0.5,0.1l-0.5,0.1c-0.3,0-0.5,0.1-0.7,0.2
			c-0.3,0.1-0.4,0.4-0.4,0.7C47.9,13,48,13.2,48.2,13.3z"/>
		<path d="M52.9,6.9h0.9v1h-0.9V6.9z M52.9,8.9h0.9v5.2h-0.9V8.9z"/>
		<path d="M55.3,6.9h0.9v7.2h-0.9V6.9z"/>
		<path d="M57.7,9c0.2,0,0.3-0.1,0.4-0.3c0.1-0.2,0.1-0.4,0.1-0.6V8.1c0,0,0,0,0-0.1h-0.5V6.9h1v1c0,0.4-0.1,0.7-0.3,1.1
			c-0.2,0.3-0.5,0.5-0.8,0.5L57.7,9z"/>
		<path d="M59.9,6.9h0.9v1h-0.9V6.9z M59.9,8.9h0.9v5.2h-0.9V8.9z"/>
		<path d="M62.2,8.9H63v0.7c0.2-0.3,0.5-0.5,0.8-0.7c0.3-0.1,0.6-0.2,0.9-0.2c0.6-0.1,1.2,0.2,1.5,0.8c0.2,0.4,0.2,0.8,0.2,1.2v3.4
			h-0.9v-3.3c0-0.3,0-0.5-0.1-0.8c-0.2-0.3-0.5-0.5-0.9-0.5c-0.2,0-0.3,0-0.5,0.1c-0.2,0.1-0.5,0.2-0.6,0.4
			c-0.1,0.1-0.2,0.3-0.3,0.5c-0.1,0.3-0.1,0.5-0.1,0.8v2.7h-0.9L62.2,8.9z"/>
		<path d="M6.9,18.9h0.8v4.2l2.3-2.2h1.1l-2,1.9l2.1,3.3h-1.2l-1.7-2.7l-0.7,0.7v2H6.9V18.9z"/>
		<path d="M12.9,20.9v3.5c0,0.2,0,0.5,0.1,0.7c0.2,0.3,0.5,0.5,0.8,0.5c0.5,0,1-0.3,1.2-0.8c0.1-0.4,0.2-0.8,0.2-1.2v-2.6h0.9v5.2
			h-0.8v-0.8c-0.1,0.2-0.2,0.4-0.4,0.5c-0.3,0.3-0.8,0.4-1.2,0.4c-0.6,0.1-1.2-0.2-1.5-0.8C12,25.2,12,24.8,12,24.4v-3.6H12.9z"/>
		<path d="M17.7,20.9h0.8v0.9c0.1-0.2,0.3-0.5,0.5-0.6c0.2-0.2,0.6-0.4,0.9-0.4H20h0.2v0.9h-0.3c-0.4,0-0.8,0.1-1,0.4
			c-0.2,0.3-0.4,0.6-0.4,1v3h-0.9L17.7,20.9z"/>
		<path d="M22,20.9v3.5c0,0.2,0,0.5,0.1,0.7c0.2,0.3,0.5,0.5,0.8,0.5c0.5,0,1-0.3,1.2-0.8c0.1-0.4,0.2-0.8,0.2-1.2v-2.6h0.9v5.2
			h-0.8v-0.8c-0.1,0.2-0.2,0.4-0.4,0.5c-0.3,0.3-0.8,0.4-1.2,0.4c-0.6,0.1-1.2-0.2-1.5-0.8c-0.2-0.3-0.3-0.7-0.2-1.1v-3.6H22z"/>
		<path d="M26.8,18.9h0.9v7.2h-0.9V18.9z"/>
		<path d="M29.9,20.9v3.5c0,0.2,0,0.5,0.1,0.7c0.2,0.3,0.5,0.5,0.8,0.5c0.5,0,1-0.3,1.2-0.8c0.1-0.4,0.2-0.8,0.2-1.2v-2.6h0.9v5.2
			h-0.8v-0.8c-0.3,0.6-0.9,0.9-1.6,0.9c-0.6,0.1-1.2-0.2-1.5-0.8c-0.2-0.3-0.2-0.7-0.2-1.1v-3.6H29.9z"/>
		<path d="M35.2,24.4c0,0.2,0.1,0.5,0.2,0.7c0.3,0.3,0.7,0.5,1.2,0.4c0.3,0,0.6-0.1,0.9-0.2c0.2-0.1,0.4-0.4,0.4-0.7
			c0-0.2-0.1-0.4-0.3-0.5c-0.2-0.1-0.5-0.2-0.8-0.3l-0.7-0.2c-0.4-0.1-0.7-0.2-1-0.4c-0.4-0.2-0.6-0.6-0.6-1c0-0.5,0.2-0.9,0.6-1.2
			c0.4-0.3,0.9-0.5,1.4-0.5c0.7-0.1,1.3,0.2,1.7,0.7c0.2,0.3,0.3,0.6,0.3,0.9h-0.8c0-0.2-0.1-0.4-0.2-0.5c-0.3-0.3-0.7-0.4-1.1-0.3
			c-0.3,0-0.5,0-0.8,0.2c-0.2,0.1-0.3,0.3-0.3,0.5c0,0.2,0.1,0.4,0.3,0.6c0.2,0.1,0.4,0.2,0.6,0.2l0.6,0.1c0.4,0.1,0.9,0.2,1.3,0.4
			c0.3,0.2,0.5,0.6,0.5,1.1c0,0.5-0.2,0.9-0.5,1.2c-0.4,0.4-0.9,0.5-1.5,0.5l-0.3,0.4c0.1,0,0.2,0,0.4,0c0.2,0,0.4,0.1,0.6,0.2
			c0.2,0.1,0.2,0.3,0.2,0.6c0,0.2-0.1,0.5-0.3,0.6c-0.3,0.2-0.6,0.3-0.9,0.3c-0.2,0-0.4,0-0.5-0.1l-0.4-0.1l0.2-0.4l0.3,0.1
			c0.1,0,0.2,0.1,0.4,0.1c0.1,0,0.2,0,0.3-0.1c0.2-0.1,0.3-0.2,0.3-0.4c0-0.1,0-0.2-0.1-0.3c-0.1-0.1-0.2-0.1-0.3-0.1h-0.2L36,27.2
			L35.8,27l0.5-0.7c-0.5,0-1-0.2-1.3-0.5c-0.3-0.4-0.5-0.8-0.5-1.3H35.2z"/>
		<path d="M40.7,20.9v3.5c0,0.2,0,0.5,0.1,0.7c0.2,0.3,0.5,0.5,0.8,0.5c0.5,0,1.1-0.3,1.2-0.8c0.1-0.4,0.2-0.8,0.2-1.2v-2.6H44v5.2
			h-0.8v-0.8c-0.1,0.2-0.3,0.4-0.4,0.5c-0.3,0.3-0.8,0.4-1.2,0.4c-0.6,0.1-1.2-0.2-1.5-0.8c-0.2-0.3-0.3-0.7-0.3-1.1v-3.6H40.7z"/>
		<path d="M45.5,20.9h0.8v0.7c0.2-0.3,0.5-0.5,0.8-0.7c0.3-0.1,0.6-0.2,0.9-0.2c0.6-0.1,1.2,0.2,1.5,0.8c0.2,0.4,0.2,0.8,0.2,1.2
			v3.4h-0.9v-3.3c0-0.3,0-0.5-0.1-0.8c-0.2-0.3-0.5-0.5-0.8-0.5c-0.2,0-0.3,0-0.5,0.1c-0.3,0.1-0.5,0.2-0.6,0.4
			c-0.1,0.2-0.2,0.3-0.3,0.5c-0.1,0.3-0.1,0.5-0.1,0.8v2.7h-0.9V20.9z"/>
		<path d="M54,21c0.2,0.1,0.4,0.3,0.5,0.5v-2.6h0.8v7.2h-0.8v-0.7c-0.2,0.3-0.4,0.5-0.7,0.7c-0.3,0.2-0.7,0.2-1,0.2
			c-0.6,0-1.1-0.3-1.5-0.7c-0.5-0.6-0.7-1.3-0.6-2c0-0.7,0.2-1.4,0.6-2c0.4-0.5,1-0.9,1.7-0.8C53.3,20.7,53.7,20.8,54,21z M52,25
			c0.2,0.4,0.7,0.6,1.1,0.6c0.4,0,0.8-0.2,1-0.5c0.3-0.4,0.4-1,0.4-1.5c0-0.5-0.1-1-0.4-1.5c-0.2-0.3-0.6-0.5-1-0.5
			c-0.4,0-0.8,0.2-1.1,0.5c-0.3,0.4-0.4,1-0.4,1.5C51.6,24.1,51.8,24.5,52,25L52,25z"/>
		<path d="M59.6,22.9c0.2,0,0.3-0.1,0.4-0.3c0-0.1,0.1-0.2,0.1-0.3c0-0.3-0.1-0.5-0.3-0.7c-0.3-0.2-0.6-0.2-0.9-0.2
			c-0.4,0-0.7,0.1-1,0.4c-0.1,0.2-0.2,0.4-0.2,0.6h-0.8c0-0.5,0.2-1,0.6-1.3c0.4-0.3,0.9-0.4,1.4-0.4c0.5,0,1,0.1,1.5,0.3
			c0.4,0.2,0.6,0.7,0.6,1.1v3c0,0.1,0,0.1,0,0.2c0,0.1,0.1,0.1,0.2,0.1h0.1h0.2v0.7l-0.3,0.1h-0.3c-0.3,0-0.5-0.1-0.7-0.3
			c-0.1-0.1-0.1-0.3-0.2-0.5c-0.5,0.6-1.2,0.9-1.9,0.9c-0.4,0-0.9-0.1-1.2-0.4c-0.6-0.6-0.6-1.6,0-2.2c0.3-0.3,0.8-0.4,1.2-0.5
			L59.6,22.9z M57.8,25.3c0.2,0.1,0.4,0.2,0.7,0.2c0.3,0,0.6-0.1,0.9-0.2c0.5-0.2,0.8-0.7,0.7-1.2v-0.7c-0.1,0.1-0.3,0.1-0.4,0.2
			c-0.2,0-0.3,0.1-0.5,0.1l-0.5,0.1c-0.2,0-0.5,0.1-0.7,0.2c-0.3,0.1-0.4,0.4-0.4,0.7C57.5,25,57.6,25.2,57.8,25.3z"/>
		<path d="M62.5,20.9h0.8v0.7c0.2-0.3,0.5-0.5,0.8-0.7c0.3-0.1,0.6-0.2,0.9-0.2c0.6-0.1,1.2,0.2,1.5,0.8c0.2,0.4,0.2,0.8,0.2,1.2
			v3.4h-0.9v-3.3c0-0.3,0-0.5-0.1-0.8c-0.2-0.3-0.5-0.5-0.9-0.5c-0.2,0-0.3,0-0.5,0.1c-0.2,0.1-0.5,0.2-0.6,0.4
			c-0.1,0.1-0.2,0.3-0.3,0.5c0,0.3-0.1,0.5-0.1,0.8v2.7h-0.9L62.5,20.9z"/>
		<path d="M71.5,24.4c0,0.2,0.1,0.5,0.2,0.7c0.3,0.3,0.7,0.5,1.2,0.4c0.3,0,0.6-0.1,0.9-0.2c0.2-0.1,0.4-0.4,0.4-0.7
			c0-0.2-0.1-0.4-0.3-0.5c-0.2-0.1-0.5-0.2-0.8-0.3l-0.7-0.2c-0.4-0.1-0.7-0.2-1-0.4c-0.4-0.2-0.6-0.6-0.6-1c0-0.5,0.2-0.9,0.5-1.2
			c0.4-0.3,0.9-0.5,1.5-0.5c0.7-0.1,1.3,0.2,1.7,0.7c0.2,0.3,0.3,0.6,0.3,0.9H74c0-0.2-0.1-0.4-0.2-0.5c-0.3-0.3-0.7-0.4-1.1-0.3
			c-0.3,0-0.5,0-0.8,0.2c-0.2,0.1-0.3,0.3-0.3,0.5c0,0.2,0.1,0.4,0.4,0.6c0.2,0.1,0.4,0.2,0.6,0.2l0.6,0.1c0.5,0.1,0.9,0.2,1.3,0.4
			c0.3,0.2,0.5,0.6,0.5,1.1c0,0.5-0.2,0.9-0.5,1.2c-0.5,0.4-1,0.6-1.6,0.5c-0.6,0.1-1.2-0.1-1.7-0.5c-0.3-0.4-0.5-0.8-0.5-1.3
			L71.5,24.4z"/>
		<path d="M79.9,21.4c0.5,0.5,0.8,1.3,0.7,2c0,0.7-0.2,1.4-0.6,2c-0.5,0.6-1.2,0.9-1.9,0.8c-0.6,0-1.3-0.2-1.7-0.7
			c-0.5-0.6-0.7-1.3-0.6-2c0-0.8,0.2-1.5,0.7-2.1c0.4-0.5,1.1-0.8,1.8-0.8C78.9,20.7,79.5,21,79.9,21.4z M79.4,24.9
			c0.2-0.5,0.3-1,0.3-1.5c0-0.4-0.1-0.8-0.2-1.2c-0.2-0.5-0.7-0.8-1.3-0.7c-0.5,0-0.9,0.2-1.1,0.6c-0.3,0.4-0.4,1-0.4,1.5
			c0,0.5,0.1,1,0.4,1.4c0.3,0.4,0.7,0.6,1.1,0.6C78.7,25.6,79.1,25.3,79.4,24.9L79.4,24.9z"/>
		<path d="M81.8,20.9h0.8v0.7c0.2-0.3,0.5-0.5,0.8-0.7c0.3-0.1,0.6-0.2,0.9-0.2c0.6-0.1,1.2,0.2,1.5,0.8c0.1,0.4,0.2,0.8,0.2,1.2
			v3.4h-0.9v-3.3c0-0.3,0-0.5-0.1-0.8c-0.1-0.3-0.5-0.5-0.8-0.5c-0.2,0-0.4,0-0.5,0.1c-0.2,0.1-0.5,0.2-0.6,0.4
			c-0.1,0.2-0.2,0.3-0.3,0.5c0,0.3-0.1,0.5-0.1,0.8v2.7h-0.9L81.8,20.9z"/>
		<path d="M87.4,20.9h0.8v0.9c0.1-0.2,0.3-0.5,0.5-0.6c0.2-0.2,0.6-0.4,0.9-0.4h0.1H90v0.9h-0.3c-0.4,0-0.7,0.1-1,0.4
			c-0.2,0.3-0.4,0.6-0.4,1v3h-0.9L87.4,20.9z"/>
		<path d="M93.7,22.9c0.2,0,0.3-0.1,0.4-0.3c0-0.1,0.1-0.2,0.1-0.3c0-0.3-0.1-0.5-0.3-0.7c-0.3-0.2-0.6-0.2-0.9-0.2
			c-0.4,0-0.8,0.1-1,0.4c-0.1,0.2-0.2,0.4-0.2,0.6h-0.8c0-0.5,0.2-1,0.6-1.3c0.4-0.3,0.9-0.4,1.4-0.4c0.5,0,1,0.1,1.5,0.3
			c0.4,0.2,0.6,0.7,0.6,1.1v3c0,0.1,0,0.2,0.1,0.3c0,0.1,0.1,0.1,0.2,0.1h0.1h0.1v0.7l-0.3,0.1H95c-0.3,0-0.5-0.1-0.7-0.3
			c-0.1-0.1-0.1-0.3-0.1-0.5c-0.5,0.6-1.2,0.9-1.9,0.9c-0.4,0-0.9-0.1-1.2-0.4c-0.6-0.6-0.6-1.6,0-2.2c0.3-0.3,0.8-0.4,1.2-0.5
			L93.7,22.9z M91.8,25.3c0.2,0.1,0.4,0.2,0.7,0.2c0.3,0,0.6-0.1,0.9-0.2c0.5-0.2,0.8-0.7,0.7-1.2v-0.7c-0.1,0.1-0.3,0.1-0.4,0.2
			c-0.2,0-0.3,0.1-0.5,0.1l-0.5,0.1c-0.3,0-0.5,0.1-0.7,0.2c-0.3,0.1-0.4,0.4-0.4,0.7C91.5,25,91.6,25.2,91.8,25.3z"/>
		<rect x="106.5" y="535.5" class="st4" width="16.7" height="15.2"/>
		<polygon class="st5" points="93.5,535.5 78.8,535.5 63.2,535.5 58.2,535.5 31.6,535.5 31.6,550.7 58.2,550.7 63.2,550.7 
			78.8,550.7 93.5,550.7 105.1,550.7 105.1,535.5 		"/>
		<rect x="106.5" y="598.1" class="st4" width="27.1" height="15.2"/>
		<rect x="35.9" y="598.1" class="st5" width="69.2" height="15.2"/>
		<path d="M69.2,559.4v-3.5l-1.1,0.5v-0.5l1.1-0.5h0.5v4H69.2z"/>
		<path d="M71.3,559.4v-0.8h0.5v0.8H71.3z"/>
		<path d="M73.3,558.5c0,0.4,0.3,0.6,0.8,0.6c0.7,0,1.1-0.5,1.1-1.7c-0.3,0.4-0.7,0.6-1.2,0.6c-0.7,0-1.2-0.5-1.3-1.2
			c0-0.1,0-0.1,0-0.2c0-0.7,0.6-1.3,1.3-1.3c0,0,0.1,0,0.1,0c1,0,1.5,0.8,1.5,1.9c0,1.5-0.7,2.2-1.6,2.2c-0.7,0-1.2-0.3-1.2-0.9
			H73.3z M74.1,555.7c-0.5,0-0.9,0.3-0.9,0.8c0,0,0,0.1,0,0.1c0,0.5,0.3,0.9,0.8,0.9c0.4,0,0.9-0.2,1.1-0.6
			C75.1,556.3,74.8,555.7,74.1,555.7L74.1,555.7z"/>
		<path d="M76.5,557.4c0-1.3,0.6-2.1,1.6-2.1s1.6,0.8,1.6,2.1s-0.6,2.1-1.6,2.1S76.5,558.7,76.5,557.4z M79.3,557.4
			c0-1-0.4-1.6-1.1-1.6s-1.1,0.6-1.1,1.6s0.4,1.6,1.1,1.6S79.3,558.5,79.3,557.4L79.3,557.4z"/>
		<path d="M80.8,557.4c0-1.3,0.6-2.1,1.6-2.1s1.6,0.8,1.6,2.1s-0.6,2.1-1.6,2.1S80.8,558.7,80.8,557.4z M83.6,557.4
			c0-1-0.4-1.6-1.1-1.6s-1.1,0.6-1.1,1.6s0.4,1.6,1.1,1.6S83.6,558.5,83.6,557.4z"/>
		<path d="M84.9,559.4v-0.8h0.5v0.8H84.9z"/>
		<path d="M86.3,557.4c0-1.3,0.6-2.1,1.6-2.1s1.6,0.8,1.6,2.1s-0.6,2.1-1.6,2.1S86.3,558.7,86.3,557.4z M89.1,557.4
			c0-1-0.4-1.6-1.1-1.6s-1.1,0.6-1.1,1.6s0.4,1.6,1.1,1.6S89.1,558.5,89.1,557.4z"/>
		<path d="M90.5,557.4c0-1.3,0.6-2.1,1.6-2.1s1.6,0.8,1.6,2.1s-0.6,2.1-1.6,2.1S90.5,558.7,90.5,557.4z M93.3,557.4
			c0-1-0.4-1.6-1.1-1.6s-1.1,0.6-1.1,1.6s0.4,1.6,1.1,1.6S93.3,558.5,93.3,557.4z"/>
		<path d="M94.8,557.4c0-1.3,0.6-2.1,1.6-2.1s1.6,0.8,1.6,2.1s-0.6,2.1-1.6,2.1S94.8,558.7,94.8,557.4z M97.5,557.4
			c0-1-0.4-1.6-1.1-1.6s-1.1,0.6-1.1,1.6s0.4,1.6,1.1,1.6S97.5,558.5,97.5,557.4z"/>
		<path d="M111.3,559.4v-0.9h-2v-0.4l1.8-2.7h0.7v2.7h0.6v0.4h-0.6v0.9L111.3,559.4z M111.3,555.8l-1.6,2.3h1.6V555.8z"/>
		<path d="M113.3,557.4c0-1.3,0.6-2.1,1.6-2.1s1.6,0.8,1.6,2.1s-0.6,2.1-1.6,2.1S113.3,558.7,113.3,557.4z M116.1,557.4
			c0-1-0.4-1.6-1.1-1.6s-1.1,0.6-1.1,1.6s0.4,1.6,1.1,1.6S116.1,558.5,116.1,557.4L116.1,557.4z"/>
		<path d="M117.5,557.4c0-1.3,0.6-2.1,1.6-2.1s1.6,0.8,1.6,2.1s-0.6,2.1-1.6,2.1S117.5,558.7,117.5,557.4z M120.3,557.4
			c0-1-0.4-1.6-1.1-1.6s-1.1,0.6-1.1,1.6s0.4,1.6,1.1,1.6S120.3,558.5,120.3,557.4z"/>
		<path d="M121.7,559.4v-0.8h0.5v0.8H121.7z"/>
		<path d="M123.1,557.4c0-1.3,0.6-2.1,1.6-2.1s1.6,0.8,1.6,2.1s-0.6,2.1-1.6,2.1S123.1,558.7,123.1,557.4z M125.8,557.4
			c0-1-0.4-1.6-1.1-1.6s-1.1,0.6-1.1,1.6s0.4,1.6,1.1,1.6S125.8,558.5,125.8,557.4z"/>
		<path d="M127.3,557.4c0-1.3,0.6-2.1,1.6-2.1s1.6,0.8,1.6,2.1s-0.6,2.1-1.6,2.1S127.3,558.7,127.3,557.4z M130.1,557.4
			c0-1-0.4-1.6-1.1-1.6s-1.1,0.6-1.1,1.6s0.4,1.6,1.1,1.6S130.1,558.5,130.1,557.4z"/>
		<path d="M131.5,557.4c0-1.3,0.6-2.1,1.6-2.1s1.6,0.8,1.6,2.1s-0.6,2.1-1.6,2.1S131.5,558.7,131.5,557.4z M134.3,557.4
			c0-1-0.4-1.6-1.1-1.6s-1.1,0.6-1.1,1.6s0.4,1.6,1.1,1.6S134.3,558.5,134.3,557.4z"/>
		<path d="M88.1,619c0-0.5,0.5-0.9,1-0.9c0.5,0,0.9,0.5,0.9,1c0,0.5-0.4,0.9-0.9,0.9c-0.5,0-0.9-0.3-0.9-0.8
			C88.1,619.2,88.1,619.1,88.1,619z M89.6,619c0-0.4-0.2-0.6-0.5-0.6s-0.5,0.2-0.5,0.6s0.2,0.7,0.5,0.7S89.6,619.5,89.6,619z
			 M89.1,622.1l2.3-4.2h0.4l-2.4,4.2H89.1z M90.9,621.2c0-0.5,0.4-0.9,0.9-0.9s0.9,0.4,0.9,0.9c0,0.5-0.4,0.9-0.9,0.9
			c-0.5,0-0.9-0.3-0.9-0.8C90.9,621.2,90.9,621.2,90.9,621.2z M92.3,621.2c0-0.4-0.2-0.7-0.5-0.7s-0.5,0.3-0.5,0.7s0.2,0.6,0.5,0.6
			S92.3,621.5,92.3,621.2z"/>
		<path d="M93.8,622.1c0.4-1.3,1-2.5,1.8-3.6h-2.2v-0.4h2.8v0.3c-0.8,1.1-1.4,2.3-1.8,3.6L93.8,622.1z"/>
		<path d="M96.8,620.1c0-1.3,0.6-2.1,1.6-2.1s1.6,0.8,1.6,2.1s-0.6,2.1-1.6,2.1S96.8,621.4,96.8,620.1z M99.6,620.1
			c0-1-0.4-1.6-1.1-1.6s-1.1,0.6-1.1,1.6s0.4,1.6,1.1,1.6S99.6,621.1,99.6,620.1z"/>
		<path d="M109.3,619c0-0.5,0.5-0.9,1-0.9c0.5,0,0.9,0.5,0.9,1c0,0.5-0.4,0.9-0.9,0.9c-0.5,0-0.9-0.3-0.9-0.8
			C109.3,619.2,109.3,619.1,109.3,619z M110.7,619c0-0.4-0.2-0.6-0.5-0.6s-0.5,0.2-0.5,0.6s0.2,0.7,0.5,0.7S110.7,619.5,110.7,619z
			 M110.3,622.1l2.4-4.2h0.4l-2.4,4.2H110.3z M112,621.2c0-0.5,0.4-0.9,0.9-0.9s0.9,0.4,0.9,0.9c0,0.5-0.4,0.9-0.9,0.9
			c-0.5,0-0.9-0.3-0.9-0.8C112,621.3,112,621.2,112,621.2L112,621.2z M113.4,621.2c0-0.4-0.2-0.7-0.5-0.7s-0.5,0.3-0.5,0.7
			s0.2,0.6,0.5,0.6S113.4,621.5,113.4,621.2z"/>
		<path d="M115.6,620.2v-0.4h0.4c0.6,0,1-0.2,1-0.8s-0.3-0.6-0.8-0.6c-0.4-0.1-0.8,0.2-0.9,0.6c0,0.1,0,0.1,0,0.2h-0.5
			c0-0.7,0.5-1.2,1.2-1.2c0,0,0.1,0,0.1,0c0.8,0,1.3,0.4,1.3,1c0,0.5-0.3,0.9-0.8,0.9c0.5,0,0.9,0.5,0.9,1c0,0.7-0.6,1.2-1.4,1.2
			c-0.6,0-1.4-0.3-1.4-1.2h0.5c0,0.6,0.4,0.8,0.9,0.8s0.9-0.3,0.9-0.8s-0.5-0.8-1.1-0.8L115.6,620.2z"/>
		<path d="M118.5,620.1c0-1.3,0.6-2.1,1.6-2.1s1.6,0.8,1.6,2.1s-0.6,2.1-1.6,2.1S118.5,621.4,118.5,620.1z M121.3,620.1
			c0-1-0.4-1.6-1.1-1.6s-1.1,0.6-1.1,1.6s0.4,1.6,1.1,1.6S121.3,621.1,121.3,620.1z"/>
		<rect x="105.1" y="532" class="st0" width="1.4" height="35.1"/>
		<rect x="95.7" y="530.6" class="st0" width="20.3" height="1.4"/>
		<path d="M98.8,527.5l-2.1-3.2v3.2h-0.5v-4h0.6l2.2,3.3v-3.3h0.5v4H98.8z"/>
		<path d="M103.2,523.5h0.5v2.6c-0.1,0.9-0.8,1.5-1.7,1.4c-0.8-0.1-1.4-0.7-1.4-1.4v-2.6h0.5v2.6c0,0.6,0.5,1.1,1.1,1.1
			c0.6,0,1.1-0.5,1.1-1.1c0,0,0,0,0,0V523.5z M101.3,523.2v-0.6h0.5v0.6H101.3z M102.5,523.2v-0.6h0.5v0.6H102.5z"/>
		<path d="M104.9,527.5v-4h2.3v0.4h-1.8v1.4h1.6v0.4h-1.6v1.8L104.9,527.5z"/>
		<path d="M110.8,523.5h0.5v2.6c-0.1,0.9-0.8,1.5-1.7,1.4c-0.8-0.1-1.4-0.7-1.4-1.4v-2.6h0.5v2.6c0,0.6,0.5,1.1,1.1,1.1
			c0.6,0,1.1-0.5,1.1-1.1c0,0,0,0,0,0V523.5z"/>
		<path d="M114.8,524.6c0-0.7-0.6-0.8-1-0.8s-0.9,0.2-0.9,0.6c0,1.1,2.4,0.4,2.4,2c0,0.7-0.5,1.1-1.5,1.1c-0.7,0.1-1.4-0.5-1.5-1.2
			c0,0,0,0,0-0.1h0.5c0,0.6,0.5,0.8,1.1,0.8s1-0.2,1-0.7c0-1.1-2.4-0.4-2.4-2c0-0.8,0.7-1.1,1.4-1.1c0.7-0.1,1.3,0.4,1.4,1.1
			c0,0,0,0.1,0,0.1L114.8,524.6z"/>
		<rect x="105.1" y="593.1" class="st0" width="1.4" height="33.2"/>
		<rect x="93.9" y="591.7" class="st0" width="24.3" height="1.4"/>
		<path d="M95,589.4v-3.6h-1.3v-0.4h3.1v0.4h-1.3v3.6H95z"/>
		<path d="M97.3,587.4c0.1-1,1-1.8,2.1-1.7s1.8,1,1.7,2.1c-0.1,1-0.9,1.7-1.9,1.7c-1,0-1.8-0.8-1.9-1.8
			C97.2,587.6,97.2,587.5,97.3,587.4z M100.5,587.4c0-1-0.5-1.6-1.4-1.6s-1.3,0.6-1.3,1.6s0.5,1.6,1.3,1.6S100.5,588.5,100.5,587.4z
			"/>
		<path d="M102.1,589.4v-4h1.3c0.9,0,1.4,0.4,1.4,1.2c0,0.7-0.5,1.3-1.2,1.3c-0.1,0-0.1,0-0.2,0h-0.9v1.5H102.1z M103.4,587.4
			c0.4,0.1,0.9-0.2,0.9-0.7c0,0,0-0.1,0-0.1c0-0.6-0.4-0.8-1-0.8h-0.8v1.7L103.4,587.4z"/>
		<path d="M108.2,589.4l-0.9-1.7h-0.9v1.7h-0.5v-4h1.4c0.9,0,1.4,0.4,1.4,1.1c0,0.5-0.3,1-0.8,1.1l0.9,1.8H108.2z M107.3,587.3
			c0.5,0,0.9-0.3,0.9-0.8s-0.3-0.7-0.9-0.7h-0.8v1.5L107.3,587.3z"/>
		<path d="M112.5,589.4l-0.4-1.2h-1.8l-0.4,1.2h-0.5l1.6-4h0.6l1.6,4H112.5z M111.2,585.9l-0.8,2h1.5L111.2,585.9z"/>
		<path d="M116.4,589.4l-1.5-1.9l-0.4,0.4v1.4H114v-4h0.5v1.9l1.8-1.9h0.6l-1.6,1.8l1.8,2.2H116.4z"/>
		<g>
			<path class="st7" d="M12.7,617.2c3.8,0,6.8,3,6.8,6.8c0,3.8-3,6.8-6.8,6.8c-3.8,0-6.8-3-6.8-6.8l0,0
				C5.9,620.3,8.9,617.2,12.7,617.2z"/>
			<path class="st8" d="M12.7,624.7c3.8,0,6.8,3,6.8,6.8c0,3.8-3,6.8-6.8,6.8c-3.8,0-6.8-3-6.8-6.8l0,0
				C5.9,627.8,8.9,624.7,12.7,624.7z"/>
			<path class="st9" d="M12.7,632.8c3.8,0,6.8,3,6.8,6.8c0,3.8-3,6.8-6.8,6.8c-3.8,0-6.8-3-6.8-6.8l0,0
				C5.9,635.9,8.9,632.8,12.7,632.8z"/>
			<path class="st0" d="M9,636.7h0.8l0.2,0.9c0.3-0.2,0.6-0.3,0.9-0.3c0.6,0,1.1,0.2,1.5,0.7c0.4,0.5,0.6,1.2,0.5,1.8v0.3v0.2
				c0.1,0.1,0.3,0.2,0.4,0.2c0.2,0,0.3-0.3,0.3-0.9v-1c0-0.5,0.1-1,0.4-1.5c0.3-0.4,0.8-0.5,1.2-0.5c0.6,0,1.3,0.3,1.6,0.9
				c0.4,0.7,0.6,1.6,0.6,2.5c0,0.7-0.1,1.3-0.4,1.9c-0.3,0.4-0.7,0.7-1.2,0.7c-0.3,0-0.6-0.1-0.9-0.3c-0.3-0.3-0.4-0.6-0.5-1
				c-0.1,0.2-0.2,0.3-0.3,0.4c-0.1,0.1-0.3,0.2-0.5,0.2c-0.2,0-0.4-0.1-0.6-0.2c-0.2-0.2-0.3-0.4-0.4-0.6c-0.1,0.3-0.3,0.6-0.6,0.7
				c-0.3,0.2-0.6,0.3-1,0.3c-0.6,0-1.1-0.2-1.5-0.6c-0.4-0.5-0.6-1.1-0.5-1.8c0-0.2,0-0.4,0-0.6c0-0.2,0-0.4,0.1-0.4L9,636.7z
				 M15.7,641.2c0.2,0,0.4-0.1,0.5-0.3c0.1-0.3,0.2-0.6,0.2-0.9c0-0.5-0.1-0.9-0.2-1.3c-0.1-0.3-0.4-0.5-0.7-0.5
				c-0.2,0-0.4,0.1-0.5,0.3c-0.1,0.3-0.1,0.6-0.1,0.9v0.8c0,0.3,0.1,0.5,0.2,0.7C15.2,641.1,15.4,641.2,15.7,641.2L15.7,641.2z
				 M10.9,640.6c0.3,0,0.5-0.1,0.8-0.2c0.2-0.2,0.3-0.4,0.3-0.7c0-0.3-0.1-0.5-0.3-0.7c-0.2-0.2-0.5-0.2-0.8-0.2
				c-0.7,0-1.1,0.3-1.1,0.9S10.2,640.6,10.9,640.6L10.9,640.6z"/>
			<path class="st0" d="M15.3,629.3v4.6h-0.9l-3.7-2.7v2.5H9.5v-4.4h1l3.6,2.6v-2.7L15.3,629.3z"/>
			<path class="st0" d="M14.4,623.1c0-0.3-0.1-0.7-0.2-1h1.2c0.2,0.5,0.3,1,0.3,1.5c0,0.5-0.1,1-0.5,1.4c-0.4,0.3-0.9,0.5-1.5,0.4
				H11v0.8h-0.7l-0.5-0.9l-1.2-0.5v-1h1.3v-1.6H11v1.6h2.8c0.2,0,0.4-0.1,0.5-0.2C14.4,623.5,14.5,623.3,14.4,623.1z"/>
		</g>
		<g>
			<path class="st10" d="M9.1,594.7c0.1,2.3,1.9,4.1,4.2,4c0,0,0,0,0,0c2.1,0.1,3.9-1.6,3.9-3.7c0,0,0-0.1,0-0.1
				c0-1.7-1.2-3.2-2.9-3.5v0.2c0.8,0.4,1.3,1.2,1.3,2.1c0,1.3-1,2.3-3,2.4v-4.7c-1.8-0.1-3.4,1.3-3.5,3.1
				C9.1,594.6,9.1,594.7,9.1,594.7z M12.2,593.8v2.2c-1.8,0-2.8-0.7-2.8-1.3S10.2,593.8,12.2,593.8z"/>
			<path class="st10" d="M15.6,585.5c0,1.5-1.2,2.4-3.4,2.4c-1.8,0-2.8-0.6-2.8-1.2s1.1-0.8,1.7-1c0.5-0.1,0.8-0.6,0.8-1.1
				c0.1-0.5-0.3-1-0.9-1.1c0,0-0.1,0-0.1,0c-0.8,0-1.7,0.9-1.7,2.8c-0.1,2.3,1.7,4.2,4,4.3c0.1,0,0.2,0,0.3,0
				c2.1,0.1,3.8-1.5,3.9-3.6c0-0.1,0-0.1,0-0.2c0-1.7-1.2-3.2-2.8-3.5l-0.1,0.2C15.1,583.8,15.6,584.6,15.6,585.5z"/>
			<path class="st10" d="M8.9,576.5c0.1,1.1,1,2.1,2.1,2.3H9.2v0.1l1,3.7h0.2c0-0.5,0.2-1.1,1.2-1.1h5.9l0.1-0.1l-1-3.7h-0.2
				c0,0.5-0.3,0.9-0.8,1h-3.8c-0.7-0.2-1.1-0.4-1.1-0.8s0.7-0.8,0.7-1.5c0-0.6-0.5-1.2-1.1-1.2c0,0-0.1,0-0.1,0
				c-0.6,0-1.2,0.5-1.2,1.1C8.9,576.4,8.9,576.5,8.9,576.5z"/>
			<path class="st10" d="M15,568.2h-3.3c-1.6,0-2.6,1.1-2.6,3.4s0.8,3.2,1.8,3.2c0.5,0.1,1-0.3,1.1-0.9c0-0.1,0-0.1,0-0.2
				c0-0.6-0.4-1.1-1-1.3c-0.8-0.3-1.6-0.1-1.6-0.8c0-0.5,0.4-0.7,1.5-0.7h1.4c0.9,3.4,1.9,4.3,3.1,4.3c1,0,1.8-0.8,1.8-1.8
				c0-0.1,0-0.1,0-0.2c0-0.9-0.4-1.7-1-2.4h1.1l0.1-0.1l-1-3.7h-0.2C16.2,567.6,16,568.2,15,568.2z M16.1,571.7c0,0.5-0.4,1-1.3,1
				c-1,0-2-0.7-2.2-1.8h2.6c0.2,0,0.4,0,0.6,0C16,571.1,16.1,571.4,16.1,571.7L16.1,571.7z"/>
			<path class="st10" d="M15.7,599.5c-0.1,0.1-0.3,0.1-0.5,0.1h-4c-1.1-0.1-2,0.7-2.1,1.7c0,0.1,0,0.2,0,0.3c0.1,1,0.6,2,1.4,2.6
				c-0.9,0.2-1.5,1.1-1.4,2c0,1,0.5,2,1.3,2.6H9.2v0.1l1,3.7h0.2c0-0.5,0.2-1.1,1.2-1.1h5.9v-0.1l-1-3.7h-0.2
				c0.1,0.4-0.1,0.8-0.5,0.9c-0.1,0.1-0.3,0.1-0.5,0.1h-4.4c-0.3-0.3-0.5-0.6-0.5-1c0-0.5,0.4-0.8,1.2-0.8H16V607l-1-3.7h-0.2
				c0.1,0.4-0.1,0.8-0.5,0.9c-0.2,0.1-0.3,0.1-0.5,0.1h-3c-0.3-0.2-0.5-0.6-0.6-1c0-0.5,0.4-0.9,1.2-0.9h5.8l0.1-0.1l-1-3.7h-0.2
				C16.2,599,16,599.4,15.7,599.5z"/>
		</g>
	</g>
</g>
</svg>
