<?xml version="1.0" encoding="utf-8"?>
<!-- Generator: Adobe Illustrator 22.1.0, SVG Export Plug-In . SVG Version: 6.00 Build 0)  -->
<svg version="1.1" id="Layer_1" xmlns="http://www.w3.org/2000/svg" xmlns:xlink="http://www.w3.org/1999/xlink" x="0px" y="0px"
	 viewBox="0 0 189.4 652.7" style="enable-background:new 0 0 189.4 652.7;" xml:space="preserve">
<style type="text/css">
	.st0{fill:#FFFFFF;}
	.st1{fill:#D8C7C3;}
	.st2{fill:#678186;}
	.st3{fill:#020202;}
	.st4{fill:#56B746;}
	.st5{clip-path:url(#SVGID_2_);}
	.st6{fill:none;}
	.st7{opacity:0.8;enable-background:new    ;}
	.st8{fill:#FFFCE3;}
	.st9{fill:#006E94;}
	.st10{fill:#2EABE1;fill-opacity:0.72;}
	.st11{fill:#00A29A;fill-opacity:0.68;}
	.st12{fill:#1D1D1B;}
</style>
<title>haritalar</title>
<g>
	<g id="Layer_1_1_">
		<rect x="-1.1" y="0.8" class="st0" width="189.3" height="501.6"/>
		<path class="st1" d="M189.8,0.8c0,0-58-1.2-58.1,0c-0.5,4.4,0,10.9-4.3,13.7s-3.3,1.5-3.3,6.5s-2,4-4.8,9.2s-3.3,6.6-3.3,6.6
			l-3.5,76.1L72.7,235.8L9.9,282l-10.3,10.2v360h190.1V502h0.1L189.8,0.8z"/>
		<path class="st2" d="M141.4,311.5c0,0-4.4-96.7,24.7-93.2c0.9,0.1,3.2,2.7,3.5,3.9c0.4,2.5-0.2,5.1-1.6,7.2
			c-1.3,2-1.3,7.3-1.6,12.5s1,25.7-0.9,28.8c-0.4,0.4-0.5,1.1-0.4,1.6c0.3,0.6,0.1,1.4-0.5,1.7c0,0,0,0,0,0
			c-0.5,0.9-0.1,1.9,0.7,2.4c0,0,0,0,0.1,0c0,0,0.8,3.2-1.4,4.3c0,0-1.8,0.8-2,3.5c0,0-3.1,3-3.8-1.4c0,0-1.3-2.7-4.3-0.8
			c0,0-0.4,0.3-0.5,2s-0.5,0.5-0.8,1.2s0.1,3,0,3.4s-1.7,1.8-0.1,2.8s2.8-0.2,3.6,1.7s0.9,3.4,3.6,3.8s4.3,1.6,4.2,4.9
			s0.6,9.1-1.4,11.5s-1.7,4.2-7.6,6.1s-6.3,2.1-8.8-2S141.6,313.8,141.4,311.5"/>
		<path class="st3" d="M149.9,321.2c-1.6,0-2.5-1-4.1-3.5c-0.8-1.4-1.9-2.5-3.2-3.5c-1-0.5-1.6-1.5-1.7-2.6l0,0
			c-0.5-12.9-0.2-25.8,0.6-38.7c1.9-27.1,6.8-44.5,14.4-51.6c2.7-2.7,6.4-3.9,10.2-3.5c1.3,0.1,3.6,3,3.9,4.3
			c0.4,2.6-0.2,5.3-1.6,7.5c-0.9,1.5-1.1,5.3-1.3,9.3c-0.1,1-0.1,2-0.2,3c-0.1,1.6,0,4.9,0,8.6c0.2,10.3,0.3,18.3-1,20.4l-0.1,0.1
			c-0.3,0.3-0.4,0.7-0.3,1.1c0.4,0.8,0.1,1.8-0.6,2.2c-0.1,0.3-0.3,1,0.7,1.7l0.2,0.1l0.1,0.2c0,0.1,0.9,3.6-1.7,4.8
			c-0.1,0-1.5,0.7-1.7,3.1v0.2l-0.1,0.1c-0.2,0.1-1.6,1.5-3,1c-0.9-0.3-1.4-1.2-1.6-2.7c-0.3-0.5-0.7-0.9-1.3-1.1
			c-0.8-0.2-1.6,0-2.2,0.5l0,0c-0.2,0.5-0.3,1-0.3,1.6c0,0.8-0.1,1.1-0.4,1.4c-0.1,0.1-0.3,0.2-0.4,0.1c-0.1,0.6-0.1,1.2,0,1.9
			c0.1,0.5,0.1,0.9,0,1.4c-0.1,0.2-0.2,0.3-0.3,0.5c-0.2,0.3-0.6,0.8-0.5,1.2c0.1,0.2,0.3,0.4,0.5,0.6c0.5,0.3,1,0.4,1.6,0.4
			c1-0.1,1.9,0.5,2.3,1.5c0.2,0.4,0.3,0.7,0.4,1c0.5,1.4,0.9,2.2,2.8,2.5c3.3,0.5,4.7,2.2,4.6,5.4c0,0.7,0,1.6,0,2.6
			c0.1,3.2,0.1,7.2-1.5,9.2c-0.4,0.5-0.8,1-1.1,1.6c-1.1,1.7-2,3.2-6.7,4.6l-0.4,0.1C153.2,320.6,151.6,321,149.9,321.2z
			 M141.9,311.5c0.1,0.9,0.5,1.2,1.3,1.9c1.4,1,2.6,2.3,3.4,3.8c2.3,3.7,2.4,3.6,7.8,1.9l0.4-0.1c4.3-1.4,5.1-2.6,6.1-4.2
			c0.4-0.6,0.8-1.1,1.2-1.7c1.4-1.7,1.3-5.5,1.3-8.5c0-1,0-1.9,0-2.7c0.1-2.7-1-3.9-3.8-4.4c-2.5-0.4-3-1.7-3.5-3.1
			c-0.1-0.3-0.3-0.6-0.4-1c-0.4-0.8-0.7-0.9-1.4-0.9c-0.7,0-1.4-0.2-2-0.6c-0.5-0.2-0.8-0.7-0.9-1.2c-0.1-0.7,0.2-1.5,0.7-2
			c0.1-0.1,0.1-0.1,0.1-0.2c0-0.1,0-0.6-0.1-1c-0.1-0.8-0.1-1.6,0.1-2.4c0.1-0.3,0.4-0.5,0.7-0.6c0-0.1,0-0.3,0-0.5
			c0.1-1.8,0.5-2.3,0.8-2.4c0.9-0.6,2-0.9,3-0.6c0.8,0.3,1.5,0.9,1.9,1.6v0.1c0.1,0.8,0.4,1.8,1,2s1.4-0.4,1.8-0.7
			c0.1-1.6,0.9-3,2.3-3.7c1.6-0.8,1.3-2.9,1.2-3.5c-1-0.6-1.4-2-0.8-3l0.1-0.1l0.1-0.1c0.4-0.1,0.5-0.6,0.4-0.9c0,0,0-0.1,0-0.1
			v-0.1c-0.2-0.7,0-1.4,0.5-2c1.2-2.1,1-12.3,0.8-19.8c-0.1-3.8-0.1-7,0-8.7c0.1-1,0.1-2,0.2-3c0.2-4.3,0.4-8,1.5-9.7
			c1.3-2,1.9-4.4,1.5-6.8c-0.2-1.2-2.4-3.5-3.1-3.5c-3.5-0.4-6.9,0.8-9.4,3.2C138.9,238.5,141.9,310.3,141.9,311.5z"/>
		<path class="st4" d="M112.9,36.8h4.7c0,0,1.2,3.3,3.3,2.9c1.8-0.2,3.4-1.3,4.2-2.9l9.7,0.3c0,0,1.5,2.2,3,2s9.1,0,9.1,0
			s1.8,1.8,4.8-0.5c0,0,3.5-3.1,6.1-3.4c0,0,2.7-0.5,3-5.2l1.2-13.3c0,0,0.4-4.8,2.4-4.9s5.1-0.7,6.8,3c0,0,1.3,2.1,5.6,1.6
			s4,1.6,4,3.1s-0.4,2.3,1.2,2.8s0.5,3.7-0.9,3.5s-3.3,2.2-3.1,5.4s1.1,6.8-0.9,7.9s-3.6-0.3-3,5.3s-0.2,13.3,0.2,18
			c0.2,3.2,0.8,6.4,1.9,9.4c0.4,1,1.7,0.9,1.4,9.6s0.8,8.2,2.7,8.3s2.2,3.4-0.1,3.5s-5-0.7-7.1,2.8s-5.3,2.6-4.6,8.7
			s-0.3,27.7-0.3,27.7l-0.1,19.9c0.4,3.8,0.2,7.7-0.5,11.5c-1.2,6.3-2.5,11.3-3.1,14.4s-0.9,4.6-0.1,6.9c0.8,2.3,1.4,2.3,1.4,7.8
			s0.3,19.8,0.3,19.8s1,6.1-1.7,6.1c0,0-4,0.4-8,4.5c-1.5,1.8-2.2,4-2.3,6.3c0.1,3.7,0.2,6.2-4.3,5.8l-1,16.9c0,0,0.3,5.1-1.8,6
			s-0.7,19.3-0.5,22.1s-2,25.3-5.1,31.3s-6.8,14.3-7.8,20.7s-5.8,21-7.5,25.2s-6.2,24.1-6.9,27.1s-6.8,15.8-8,24.9
			s-4.1,12.4-5.7,22.1S94.8,464.3,94,465.7s-15.8,36.7-15.8,36.7h-5.7c1.6-7.6,1.2-15.5-1.2-22.9c0,0-3.8-7.4-3.1-13.7
			s0.7-10.1-1.1-13.2c-4.5-9.1-8.5-18.4-11.9-28c-3.3-9.7-8-17.9-15.3-43.2s-13.2-42-15-46.3s-11.6-35.3-13.7-40.7s-2.9-7.4-2.9-7.4
			s-1.8-4.3,2.6-8.7s18.5-21.8,22.6-26.8s16.6-25.3,18.9-29.8s14.6-32.3,17.8-40.3S84,140.4,85,127.8s1.8-16.3,2-19.4
			s5.3-11,4.4-15.7s-0.7-9,2.8-17.8c0,0,2.1-5.3,8.6-2.4c0,0,4.9,1.8,6.8-10.7c0,0-4.7,1.9-4.3-7c0,0,3.5,0.4,3.9-5.9
			c0,0-0.3-4.8,1.3-6.6C111.7,40.8,112.6,38.8,112.9,36.8z"/>
		<g>
			<defs>
				<path id="SVGID_1_" d="M112.9,36.8h4.7c0,0,1.2,3.3,3.3,2.9c1.8-0.2,3.4-1.3,4.2-2.9l9.7,0.3c0,0,1.5,2.2,3,2s9.1,0,9.1,0
					s1.8,1.8,4.8-0.5c0,0,3.5-3.1,6.1-3.4c0,0,2.7-0.5,3-5.2l1.2-13.3c0,0,0.4-4.8,2.4-4.9s5.1-0.7,6.8,3c0,0,1.3,2.1,5.6,1.6
					s4,1.6,4,3.1s-0.4,2.3,1.2,2.8s0.5,3.7-0.9,3.5s-3.3,2.2-3.1,5.4s1.1,6.8-0.9,7.9s-3.6-0.3-3,5.3s-0.2,13.3,0.2,18
					c0.2,3.2,0.8,6.4,1.9,9.4c0.4,1,1.7,0.9,1.4,9.6s0.8,8.2,2.7,8.3s2.2,3.4-0.1,3.5s-5-0.7-7.1,2.8s-5.3,2.6-4.6,8.7
					s-0.3,27.7-0.3,27.7l-0.1,19.9c0.4,3.8,0.2,7.7-0.5,11.5c-1.2,6.3-2.5,11.3-3.1,14.4s-0.9,4.6-0.1,6.9c0.8,2.3,1.4,2.3,1.4,7.8
					s0.3,19.8,0.3,19.8s1,6.1-1.7,6.1c0,0-4,0.4-8,4.5c-1.5,1.8-2.2,4-2.3,6.3c0.1,3.7,0.2,6.2-4.3,5.8l-1,16.9c0,0,0.3,5.1-1.8,6
					s-0.7,19.3-0.5,22.1s-2,25.3-5.1,31.3s-6.8,14.3-7.8,20.7s-5.8,21-7.5,25.2s-6.2,24.1-6.9,27.1s-6.8,15.8-8,24.9
					s-4.1,12.4-5.7,22.1S94.8,464.3,94,465.7s-15.8,36.7-15.8,36.7h-5.7c1.6-7.6,1.2-15.5-1.2-22.9c0,0-3.8-7.4-3.1-13.7
					s0.7-10.1-1.1-13.2c-4.5-9.1-8.5-18.4-11.9-28c-3.3-9.7-8-17.9-15.3-43.2s-13.2-42-15-46.3s-11.6-35.3-13.7-40.7
					s-2.9-7.4-2.9-7.4s-1.8-4.3,2.6-8.7s18.5-21.8,22.6-26.8s16.6-25.3,18.9-29.8s14.6-32.3,17.8-40.3S84,140.4,85,127.8
					s1.8-16.3,2-19.4s5.3-11,4.4-15.7s-0.7-9,2.8-17.8c0,0,2.1-5.3,8.6-2.4c0,0,4.9,1.8,6.8-10.7c0,0-4.7,1.9-4.3-7
					c0,0,3.5,0.4,3.9-5.9c0,0-0.3-4.8,1.3-6.6C111.7,40.8,112.6,38.8,112.9,36.8z"/>
			</defs>
			<clipPath id="SVGID_2_">
				<use xlink:href="#SVGID_1_"  style="overflow:visible;"/>
			</clipPath>
			<g class="st5">
				<line class="st6" x1="-5.4" y1="46.7" x2="202.1" y2="-35.4"/>
				<rect x="-13.2" y="5.2" transform="matrix(0.9298 -0.3681 0.3681 0.9298 4.824 36.6039)" width="223.1" height="1"/>
				<line class="st6" x1="-5.4" y1="50.7" x2="202.1" y2="-31.4"/>
				<rect x="-13.2" y="9.2" transform="matrix(0.9298 -0.3681 0.3681 0.9298 3.3483 36.8863)" width="223.1" height="1"/>
				<line class="st6" x1="-5.4" y1="54.7" x2="202.1" y2="-27.4"/>
				<rect x="-13.2" y="13.2" transform="matrix(0.9298 -0.3681 0.3681 0.9298 1.8724 37.1664)" width="223.1" height="1"/>
				<line class="st6" x1="-5.4" y1="58.8" x2="202.1" y2="-23.4"/>
				<rect x="-13.2" y="17.2" transform="matrix(0.9298 -0.3681 0.3681 0.9298 0.4004 37.4482)" width="223.1" height="1"/>
				<line class="st6" x1="-5.4" y1="62.8" x2="202.1" y2="-19.4"/>
				<rect x="-13.2" y="21.2" transform="matrix(0.9298 -0.3681 0.3681 0.9298 -1.0754 37.7283)" width="223.1" height="1"/>
				<line class="st6" x1="-5.4" y1="66.8" x2="202.1" y2="-15.4"/>
				<rect x="-13.2" y="25.2" transform="matrix(0.9298 -0.3681 0.3681 0.9298 -2.5474 38.01)" width="223.1" height="1"/>
				<line class="st6" x1="-5.4" y1="70.8" x2="202.1" y2="-11.4"/>
				<rect x="-13.2" y="29.2" transform="matrix(0.9298 -0.3681 0.3681 0.9298 -4.0233 38.2901)" width="223.1" height="1"/>
				<line class="st6" x1="-5.4" y1="74.8" x2="202.1" y2="-7.4"/>
				<rect x="-13.2" y="33.2" transform="matrix(0.9298 -0.3681 0.3681 0.9298 -5.4953 38.5718)" width="223.1" height="1"/>
				<line class="st6" x1="-5.4" y1="78.8" x2="202.1" y2="-3.4"/>
				<rect x="-13.2" y="37.2" transform="matrix(0.9298 -0.3681 0.3681 0.9298 -6.9748 38.8526)" width="223.1" height="1"/>
				<line class="st6" x1="-5.4" y1="82.8" x2="202.1" y2="0.6"/>
				<rect x="-13.2" y="41.2" transform="matrix(0.9298 -0.3681 0.3681 0.9298 -8.45 39.1364)" width="223.1" height="1"/>
				<line class="st6" x1="-5.4" y1="86.8" x2="202.1" y2="4.6"/>
				<rect x="-13.2" y="45.2" transform="matrix(0.9298 -0.3681 0.3681 0.9298 -9.9227 39.4144)" width="223.1" height="1"/>
				<line class="st6" x1="-5.4" y1="90.8" x2="202.1" y2="8.6"/>
				<rect x="-13.2" y="49.2" transform="matrix(0.9298 -0.3681 0.3681 0.9298 -11.3978 39.6982)" width="223.1" height="1"/>
				<line class="st6" x1="-5.4" y1="94.8" x2="202.1" y2="12.6"/>
				<rect x="-13.2" y="53.2" transform="matrix(0.9298 -0.3681 0.3681 0.9298 -12.8705 39.9763)" width="223.1" height="1"/>
				<line class="st6" x1="-5.4" y1="98.8" x2="202.1" y2="16.6"/>
				<rect x="-13.2" y="57.2" transform="matrix(0.9298 -0.3681 0.3681 0.9298 -14.3457 40.26)" width="223.1" height="1"/>
				<line class="st6" x1="-5.4" y1="102.8" x2="202.1" y2="20.6"/>
				<rect x="-13.2" y="61.2" transform="matrix(0.9298 -0.3681 0.3681 0.9298 -15.8184 40.5381)" width="223.1" height="1"/>
				<line class="st6" x1="-5.4" y1="106.8" x2="202.1" y2="24.7"/>
				<rect x="-13.2" y="65.2" transform="matrix(0.9298 -0.3681 0.3681 0.9298 -17.2972 40.8226)" width="223.1" height="1"/>
				<line class="st6" x1="-5.4" y1="110.8" x2="202.1" y2="28.7"/>
				<rect x="-13.2" y="69.3" transform="matrix(0.9298 -0.3681 0.3681 0.9298 -18.7731 41.1026)" width="223.1" height="1"/>
				<line class="st6" x1="-5.4" y1="114.2" x2="202.1" y2="32.1"/>
				<rect x="-13.2" y="72.6" transform="matrix(0.9298 -0.3681 0.3681 0.9298 -20.0219 41.3401)" width="223.1" height="1"/>
				<line class="st6" x1="-5.4" y1="118.2" x2="202.1" y2="36.1"/>
				<rect x="-13.2" y="76.7" transform="matrix(0.9298 -0.3681 0.3681 0.9298 -21.497 41.6238)" width="223.1" height="1"/>
				<line class="st6" x1="-5.4" y1="122.2" x2="202.1" y2="40.1"/>
				<rect x="-13.2" y="80.7" transform="matrix(0.9298 -0.3681 0.3681 0.9298 -22.9729 41.9039)" width="223.1" height="1"/>
				<line class="st6" x1="-5.4" y1="126.2" x2="202.1" y2="44.1"/>
				<rect x="-13.2" y="84.7" transform="matrix(0.9298 -0.3681 0.3681 0.9298 -24.4449 42.1857)" width="223.1" height="1"/>
				<line class="st6" x1="-5.4" y1="130.2" x2="202.1" y2="48.1"/>
				<rect x="-13.2" y="88.7" transform="matrix(0.9298 -0.3681 0.3681 0.9298 -25.9207 42.4657)" width="223.1" height="1"/>
				<line class="st6" x1="-5.4" y1="134.3" x2="202.1" y2="52.1"/>
				<rect x="-13.2" y="92.7" transform="matrix(0.9298 -0.3681 0.3681 0.9298 -27.3927 42.7475)" width="223.1" height="1"/>
				<line class="st6" x1="-5.4" y1="138.3" x2="202.1" y2="56.1"/>
				<rect x="-13.2" y="96.7" transform="matrix(0.9298 -0.3681 0.3681 0.9298 -28.8686 43.0276)" width="223.1" height="1"/>
				<line class="st6" x1="-5.4" y1="142.3" x2="202.1" y2="60.1"/>
				<rect x="-13.2" y="100.7" transform="matrix(0.9298 -0.3681 0.3681 0.9298 -30.3443 43.31)" width="223.1" height="1"/>
				<line class="st6" x1="-5.4" y1="146.3" x2="202.1" y2="64.1"/>
				<rect x="-13.2" y="104.7" transform="matrix(0.9298 -0.3681 0.3681 0.9298 -31.8201 43.5901)" width="223.1" height="1"/>
				<line class="st6" x1="-5.4" y1="150.3" x2="202.1" y2="68.1"/>
				<rect x="-13.2" y="108.7" transform="matrix(0.9298 -0.3681 0.3681 0.9298 -33.2953 43.8739)" width="223.1" height="1"/>
				<line class="st6" x1="-5.4" y1="154.3" x2="202.1" y2="72.1"/>
				<rect x="-13.2" y="112.7" transform="matrix(0.9298 -0.3681 0.3681 0.9298 -34.768 44.1519)" width="223.1" height="1"/>
				<line class="st6" x1="-5.4" y1="158.3" x2="202.1" y2="76.1"/>
				<rect x="-13.2" y="116.7" transform="matrix(0.9298 -0.3681 0.3681 0.9298 -36.2431 44.4357)" width="223.1" height="1"/>
				<line class="st6" x1="-5.4" y1="162.3" x2="202.1" y2="80.1"/>
				<rect x="-13.2" y="120.7" transform="matrix(0.9298 -0.3681 0.3681 0.9298 -37.7158 44.7138)" width="223.1" height="1"/>
				<line class="st6" x1="-5.4" y1="166.3" x2="202.1" y2="84.1"/>
				<rect x="-13.2" y="124.7" transform="matrix(0.9298 -0.3681 0.3681 0.9298 -39.191 44.9975)" width="223.1" height="1"/>
				<line class="st6" x1="-5.4" y1="170.3" x2="202.1" y2="88.1"/>
				<rect x="-13.2" y="128.7" transform="matrix(0.9298 -0.3681 0.3681 0.9298 -40.6637 45.2756)" width="223.1" height="1"/>
				<line class="st6" x1="-5.4" y1="174.3" x2="202.1" y2="92.1"/>
				<rect x="-13.2" y="132.7" transform="matrix(0.9298 -0.3681 0.3681 0.9298 -42.1425 45.56)" width="223.1" height="1"/>
				<line class="st6" x1="-5.4" y1="178.3" x2="202.1" y2="96.1"/>
				<rect x="-13.2" y="136.7" transform="matrix(0.9298 -0.3681 0.3681 0.9298 -43.6152 45.8381)" width="223.1" height="1"/>
				<line class="st6" x1="-5.4" y1="181.7" x2="202.1" y2="99.5"/>
				<rect x="-13.2" y="140.1" transform="matrix(0.9298 -0.3681 0.3681 0.9298 -44.8672 46.0776)" width="223.1" height="1"/>
				<line class="st6" x1="-5.4" y1="185.7" x2="202.1" y2="103.6"/>
				<rect x="-13.2" y="144.1" transform="matrix(0.9298 -0.3681 0.3681 0.9298 -46.3423 46.3613)" width="223.1" height="1"/>
				<line class="st6" x1="-5.4" y1="189.7" x2="202.1" y2="107.6"/>
				<rect x="-13.2" y="148.2" transform="matrix(0.9298 -0.3681 0.3681 0.9298 -47.8182 46.6414)" width="223.1" height="1"/>
				<line class="st6" x1="-5.4" y1="193.7" x2="202.1" y2="111.6"/>
				<rect x="-13.2" y="152.2" transform="matrix(0.9298 -0.3681 0.3681 0.9298 -49.2902 46.9231)" width="223.1" height="1"/>
				<line class="st6" x1="-5.4" y1="197.7" x2="202.1" y2="115.6"/>
				<rect x="-13.2" y="156.2" transform="matrix(0.9298 -0.3681 0.3681 0.9298 -50.7661 47.2032)" width="223.1" height="1"/>
				<line class="st6" x1="-5.4" y1="201.7" x2="202.1" y2="119.6"/>
				<rect x="-13.2" y="160.2" transform="matrix(0.9298 -0.3681 0.3681 0.9298 -52.238 47.485)" width="223.1" height="1"/>
				<line class="st6" x1="-5.4" y1="205.7" x2="202.1" y2="123.6"/>
				<rect x="-13.2" y="164.2" transform="matrix(0.9298 -0.3681 0.3681 0.9298 -53.7139 47.7651)" width="223.1" height="1"/>
				<line class="st6" x1="-5.4" y1="209.8" x2="202.1" y2="127.6"/>
				<rect x="-13.2" y="168.2" transform="matrix(0.9298 -0.3681 0.3681 0.9298 -55.1896 48.0475)" width="223.1" height="1"/>
				<line class="st6" x1="-5.4" y1="213.8" x2="202.1" y2="131.6"/>
				<rect x="-13.2" y="172.2" transform="matrix(0.9298 -0.3681 0.3681 0.9298 -56.6654 48.3276)" width="223.1" height="1"/>
				<line class="st6" x1="-5.4" y1="217.8" x2="202.1" y2="135.6"/>
				<rect x="-13.2" y="176.2" transform="matrix(0.9298 -0.3681 0.3681 0.9298 -58.1374 48.6093)" width="223.1" height="1"/>
				<line class="st6" x1="-5.4" y1="221.8" x2="202.1" y2="139.6"/>
				<rect x="-13.2" y="180.2" transform="matrix(0.9298 -0.3681 0.3681 0.9298 -59.6133 48.8894)" width="223.1" height="1"/>
				<line class="st6" x1="-5.4" y1="225.8" x2="202.1" y2="143.6"/>
				<rect x="-13.2" y="184.2" transform="matrix(0.9298 -0.3681 0.3681 0.9298 -61.0885 49.1732)" width="223.1" height="1"/>
				<line class="st6" x1="-5.4" y1="229.8" x2="202.1" y2="147.6"/>
				<rect x="-13.2" y="188.2" transform="matrix(0.9298 -0.3681 0.3681 0.9298 -62.5611 49.4512)" width="223.1" height="1"/>
				<line class="st6" x1="-5.4" y1="233.8" x2="202.1" y2="151.6"/>
				<rect x="-13.2" y="192.2" transform="matrix(0.9298 -0.3681 0.3681 0.9298 -64.0363 49.735)" width="223.1" height="1"/>
				<line class="st6" x1="-5.4" y1="237.8" x2="202.1" y2="155.6"/>
				<rect x="-13.2" y="196.2" transform="matrix(0.9298 -0.3681 0.3681 0.9298 -65.512 50.0175)" width="223.1" height="1"/>
				<line class="st6" x1="-5.4" y1="241.8" x2="202.1" y2="159.6"/>
				<rect x="-13.2" y="200.2" transform="matrix(0.9298 -0.3681 0.3681 0.9298 -66.9878 50.2975)" width="223.1" height="1"/>
				<line class="st6" x1="-5.4" y1="245.8" x2="202.1" y2="163.6"/>
				<rect x="-13.2" y="204.2" transform="matrix(0.9298 -0.3681 0.3681 0.9298 -68.4598 50.5793)" width="223.1" height="1"/>
				<line class="st6" x1="-5.4" y1="249.2" x2="202.1" y2="167"/>
				<rect x="-13.2" y="207.6" transform="matrix(0.9298 -0.3681 0.3681 0.9298 -69.7125 50.815)" width="223.1" height="1"/>
				<line class="st6" x1="-5.4" y1="253.2" x2="202.1" y2="171"/>
				<rect x="-13.2" y="211.6" transform="matrix(0.9298 -0.3681 0.3681 0.9298 -71.1877 51.0988)" width="223.1" height="1"/>
				<line class="st6" x1="-5.4" y1="257.2" x2="202.1" y2="175"/>
				<rect x="-13.2" y="215.6" transform="matrix(0.9298 -0.3681 0.3681 0.9298 -72.6604 51.3769)" width="223.1" height="1"/>
				<line class="st6" x1="-5.4" y1="261.2" x2="202.1" y2="179.1"/>
				<rect x="-13.2" y="219.6" transform="matrix(0.9298 -0.3681 0.3681 0.9298 -74.1355 51.6606)" width="223.1" height="1"/>
				<line class="st6" x1="-5.4" y1="265.2" x2="202.1" y2="183.1"/>
				<rect x="-13.2" y="223.7" transform="matrix(0.9298 -0.3681 0.3681 0.9298 -75.6114 51.9407)" width="223.1" height="1"/>
				<line class="st6" x1="-5.4" y1="269.2" x2="202.1" y2="187.1"/>
				<rect x="-13.2" y="227.7" transform="matrix(0.9298 -0.3681 0.3681 0.9298 -77.0834 52.2225)" width="223.1" height="1"/>
				<line class="st6" x1="-5.4" y1="273.2" x2="202.1" y2="191.1"/>
				<rect x="-13.2" y="231.7" transform="matrix(0.9298 -0.3681 0.3681 0.9298 -78.5622 52.5069)" width="223.1" height="1"/>
				<line class="st6" x1="-5.4" y1="277.2" x2="202.1" y2="195.1"/>
				<rect x="-13.2" y="235.7" transform="matrix(0.9298 -0.3681 0.3681 0.9298 -80.0349 52.785)" width="223.1" height="1"/>
				<line class="st6" x1="-5.4" y1="281.2" x2="202.1" y2="199.1"/>
				<rect x="-13.2" y="239.7" transform="matrix(0.9298 -0.3681 0.3681 0.9298 -81.5101 53.0687)" width="223.1" height="1"/>
				<line class="st6" x1="-5.4" y1="285.3" x2="202.1" y2="203.1"/>
				<rect x="-13.2" y="243.7" transform="matrix(0.9298 -0.3681 0.3681 0.9298 -82.9828 53.3468)" width="223.1" height="1"/>
				<line class="st6" x1="-5.4" y1="289.3" x2="202.1" y2="207.1"/>
				<rect x="-13.2" y="247.7" transform="matrix(0.9298 -0.3681 0.3681 0.9298 -84.4579 53.6306)" width="223.1" height="1"/>
				<line class="st6" x1="-5.4" y1="293.3" x2="202.1" y2="211.1"/>
				<rect x="-13.2" y="251.7" transform="matrix(0.9298 -0.3681 0.3681 0.9298 -85.9338 53.9107)" width="223.1" height="1"/>
				<line class="st6" x1="-5.4" y1="297.3" x2="202.1" y2="215.1"/>
				<rect x="-13.2" y="255.7" transform="matrix(0.9298 -0.3681 0.3681 0.9298 -87.4058 54.1924)" width="223.1" height="1"/>
				<line class="st6" x1="-5.4" y1="301.3" x2="202.1" y2="219.1"/>
				<rect x="-13.2" y="259.7" transform="matrix(0.9298 -0.3681 0.3681 0.9298 -88.8853 54.4732)" width="223.1" height="1"/>
				<line class="st6" x1="-5.4" y1="305.3" x2="202.1" y2="223.1"/>
				<rect x="-13.2" y="263.7" transform="matrix(0.9298 -0.3681 0.3681 0.9298 -90.3573 54.7549)" width="223.1" height="1"/>
				<line class="st6" x1="-5.4" y1="309.3" x2="202.1" y2="227.1"/>
				<rect x="-13.2" y="267.7" transform="matrix(0.9298 -0.3681 0.3681 0.9298 -91.8332 55.035)" width="223.1" height="1"/>
				<line class="st6" x1="-5.4" y1="313.3" x2="202.1" y2="231.1"/>
				<rect x="-13.2" y="271.7" transform="matrix(0.9298 -0.3681 0.3681 0.9298 -93.3052 55.3168)" width="223.1" height="1"/>
				<line class="st6" x1="-5.4" y1="316.7" x2="202.1" y2="234.5"/>
				<rect x="-13.2" y="275.1" transform="matrix(0.9298 -0.3681 0.3681 0.9298 -94.5571 55.5562)" width="223.1" height="1"/>
				<line class="st6" x1="-5.4" y1="320.7" x2="202.1" y2="238.5"/>
				<rect x="-13.2" y="279.1" transform="matrix(0.9298 -0.3681 0.3681 0.9298 -96.033 55.8363)" width="223.1" height="1"/>
				<line class="st6" x1="-5.4" y1="324.7" x2="202.1" y2="242.5"/>
				<rect x="-13.2" y="283.1" transform="matrix(0.9298 -0.3681 0.3681 0.9298 -97.505 56.118)" width="223.1" height="1"/>
				<line class="st6" x1="-5.4" y1="328.7" x2="202.1" y2="246.5"/>
				<rect x="-13.2" y="287.1" transform="matrix(0.9298 -0.3681 0.3681 0.9298 -98.9808 56.3981)" width="223.1" height="1"/>
				<line class="st6" x1="-5.4" y1="332.7" x2="202.1" y2="250.5"/>
				<rect x="-13.2" y="291.1" transform="matrix(0.9298 -0.3681 0.3681 0.9298 -100.456 56.6819)" width="223.1" height="1"/>
				<line class="st6" x1="-5.4" y1="336.7" x2="202.1" y2="254.6"/>
				<rect x="-13.2" y="295.2" transform="matrix(0.9298 -0.3681 0.3681 0.9298 -101.9324 56.9606)" width="223.1" height="1"/>
				<line class="st6" x1="-5.4" y1="340.7" x2="202.1" y2="258.6"/>
				<rect x="-13.2" y="299.2" transform="matrix(0.9298 -0.3681 0.3681 0.9298 -103.4075 57.2444)" width="223.1" height="1"/>
				<line class="st6" x1="-5.4" y1="344.7" x2="202.1" y2="262.6"/>
				<rect x="-13.2" y="303.2" transform="matrix(0.9298 -0.3681 0.3681 0.9298 -104.8802 57.5225)" width="223.1" height="1"/>
				<line class="st6" x1="-5.4" y1="348.7" x2="202.1" y2="266.6"/>
				<rect x="-13.2" y="307.2" transform="matrix(0.9298 -0.3681 0.3681 0.9298 -106.3554 57.8062)" width="223.1" height="1"/>
				<line class="st6" x1="-5.4" y1="352.7" x2="202.1" y2="270.6"/>
				<rect x="-13.2" y="311.2" transform="matrix(0.9298 -0.3681 0.3681 0.9298 -107.8281 58.0843)" width="223.1" height="1"/>
				<line class="st6" x1="-5.4" y1="356.7" x2="202.1" y2="274.6"/>
				<rect x="-13.2" y="315.2" transform="matrix(0.9298 -0.3681 0.3681 0.9298 -109.3032 58.3681)" width="223.1" height="1"/>
				<line class="st6" x1="-5.4" y1="360.8" x2="202.1" y2="278.6"/>
				<rect x="-13.2" y="319.2" transform="matrix(0.9298 -0.3681 0.3681 0.9298 -110.7759 58.6461)" width="223.1" height="1"/>
				<line class="st6" x1="-5.4" y1="364.8" x2="202.1" y2="282.6"/>
				<rect x="-13.2" y="323.2" transform="matrix(0.9298 -0.3681 0.3681 0.9298 -112.2548 58.9306)" width="223.1" height="1"/>
				<line class="st6" x1="-5.4" y1="368.8" x2="202.1" y2="286.6"/>
				<rect x="-13.2" y="327.2" transform="matrix(0.9298 -0.3681 0.3681 0.9298 -113.7306 59.2107)" width="223.1" height="1"/>
				<line class="st6" x1="-5.4" y1="372.8" x2="202.1" y2="290.6"/>
				<rect x="-13.2" y="331.2" transform="matrix(0.9298 -0.3681 0.3681 0.9298 -115.2026 59.4924)" width="223.1" height="1"/>
				<line class="st6" x1="-5.4" y1="376.8" x2="202.1" y2="294.6"/>
				<rect x="-13.2" y="335.2" transform="matrix(0.9298 -0.3681 0.3681 0.9298 -116.6785 59.7725)" width="223.1" height="1"/>
				<line class="st6" x1="-5.4" y1="380.8" x2="202.1" y2="298.6"/>
				<rect x="-13.2" y="339.2" transform="matrix(0.9298 -0.3681 0.3681 0.9298 -118.1505 60.0543)" width="223.1" height="1"/>
				<line class="st6" x1="-5.4" y1="384.2" x2="202.1" y2="302"/>
				<rect x="-13.2" y="342.6" transform="matrix(0.9298 -0.3681 0.3681 0.9298 -119.4024 60.2937)" width="223.1" height="1"/>
				<line class="st6" x1="-5.4" y1="388.2" x2="202.1" y2="306"/>
				<rect x="-13.2" y="346.6" transform="matrix(0.9298 -0.3681 0.3681 0.9298 -120.8783 60.5738)" width="223.1" height="1"/>
				<line class="st6" x1="-5.4" y1="392.2" x2="202.1" y2="310"/>
				<rect x="-13.2" y="350.6" transform="matrix(0.9298 -0.3681 0.3681 0.9298 -122.3503 60.8555)" width="223.1" height="1"/>
				<line class="st6" x1="-5.4" y1="396.2" x2="202.1" y2="314"/>
				<rect x="-13.2" y="354.6" transform="matrix(0.9298 -0.3681 0.3681 0.9298 -123.8262 61.1356)" width="223.1" height="1"/>
				<line class="st6" x1="-5.4" y1="400.2" x2="202.1" y2="318"/>
				<rect x="-13.2" y="358.6" transform="matrix(0.9298 -0.3681 0.3681 0.9298 -125.3018 61.4181)" width="223.1" height="1"/>
				<line class="st6" x1="-5.4" y1="404.2" x2="202.1" y2="322"/>
				<rect x="-13.2" y="362.6" transform="matrix(0.9298 -0.3681 0.3681 0.9298 -126.7777 61.6981)" width="223.1" height="1"/>
				<line class="st6" x1="-5.4" y1="408.2" x2="202.1" y2="326"/>
				<rect x="-13.2" y="366.7" transform="matrix(0.9298 -0.3681 0.3681 0.9298 -128.2529 61.9819)" width="223.1" height="1"/>
				<line class="st6" x1="-5.4" y1="412.2" x2="202.1" y2="330.1"/>
				<rect x="-13.2" y="370.7" transform="matrix(0.9298 -0.3681 0.3681 0.9298 -129.7256 62.26)" width="223.1" height="1"/>
				<line class="st6" x1="-5.4" y1="416.2" x2="202.1" y2="334.1"/>
				<rect x="-13.2" y="374.7" transform="matrix(0.9298 -0.3681 0.3681 0.9298 -131.2007 62.5437)" width="223.1" height="1"/>
				<line class="st6" x1="-5.4" y1="420.2" x2="202.1" y2="338.1"/>
				<rect x="-13.2" y="378.7" transform="matrix(0.9298 -0.3681 0.3681 0.9298 -132.6734 62.8218)" width="223.1" height="1"/>
				<line class="st6" x1="-5.4" y1="424.2" x2="202.1" y2="342.1"/>
				<rect x="-13.2" y="382.7" transform="matrix(0.9298 -0.3681 0.3681 0.9298 -134.1486 63.1056)" width="223.1" height="1"/>
				<line class="st6" x1="-5.4" y1="428.2" x2="202.1" y2="346.1"/>
				<rect x="-13.2" y="386.7" transform="matrix(0.9298 -0.3681 0.3681 0.9298 -135.6213 63.3836)" width="223.1" height="1"/>
				<line class="st6" x1="-5.4" y1="432.2" x2="202.1" y2="350.1"/>
				<rect x="-13.2" y="390.7" transform="matrix(0.9298 -0.3681 0.3681 0.9298 -137.1001 63.6681)" width="223.1" height="1"/>
				<line class="st6" x1="-5.4" y1="436.3" x2="202.1" y2="354.1"/>
				<rect x="-13.2" y="394.7" transform="matrix(0.9298 -0.3681 0.3681 0.9298 -138.576 63.9482)" width="223.1" height="1"/>
				<line class="st6" x1="-5.4" y1="440.3" x2="202.1" y2="358.1"/>
				<rect x="-13.2" y="398.7" transform="matrix(0.9298 -0.3681 0.3681 0.9298 -140.048 64.2299)" width="223.1" height="1"/>
				<line class="st6" x1="-5.4" y1="444.3" x2="202.1" y2="362.1"/>
				<rect x="-13.2" y="402.7" transform="matrix(0.9298 -0.3681 0.3681 0.9298 -141.5238 64.51)" width="223.1" height="1"/>
				<line class="st6" x1="-5.4" y1="448.3" x2="202.1" y2="366.1"/>
				<rect x="-13.2" y="406.7" transform="matrix(0.9298 -0.3681 0.3681 0.9298 -142.9958 64.7917)" width="223.1" height="1"/>
				<line class="st6" x1="-5.4" y1="451.7" x2="202.1" y2="369.5"/>
				<rect x="-13.2" y="410.1" transform="matrix(0.9298 -0.3681 0.3681 0.9298 -144.2478 65.0312)" width="223.1" height="1"/>
				<line class="st6" x1="-5.4" y1="455.7" x2="202.1" y2="373.5"/>
				<rect x="-13.2" y="414.1" transform="matrix(0.9298 -0.3681 0.3681 0.9298 -145.7236 65.3113)" width="223.1" height="1"/>
				<line class="st6" x1="-5.4" y1="459.7" x2="202.1" y2="377.5"/>
				<rect x="-13.2" y="418.1" transform="matrix(0.9298 -0.3681 0.3681 0.9298 -147.1956 65.593)" width="223.1" height="1"/>
				<line class="st6" x1="-5.4" y1="463.7" x2="202.1" y2="381.5"/>
				<rect x="-13.2" y="422.1" transform="matrix(0.9298 -0.3681 0.3681 0.9298 -148.6715 65.8731)" width="223.1" height="1"/>
				<line class="st6" x1="-5.4" y1="467.7" x2="202.1" y2="385.5"/>
				<rect x="-13.2" y="426.1" transform="matrix(0.9298 -0.3681 0.3681 0.9298 -150.1472 66.1555)" width="223.1" height="1"/>
				<line class="st6" x1="-5.4" y1="471.7" x2="202.1" y2="389.5"/>
				<rect x="-13.2" y="430.1" transform="matrix(0.9298 -0.3681 0.3681 0.9298 -151.623 66.4356)" width="223.1" height="1"/>
				<line class="st6" x1="-5.4" y1="475.7" x2="202.1" y2="393.5"/>
				<rect x="-13.2" y="434.1" transform="matrix(0.9298 -0.3681 0.3681 0.9298 -153.0982 66.7194)" width="223.1" height="1"/>
				<line class="st6" x1="-5.4" y1="479.7" x2="202.1" y2="397.5"/>
				<rect x="-13.2" y="438.1" transform="matrix(0.9298 -0.3681 0.3681 0.9298 -154.5709 66.9975)" width="223.1" height="1"/>
				<line class="st6" x1="-5.4" y1="483.7" x2="202.1" y2="401.5"/>
				<rect x="-13.2" y="442.2" transform="matrix(0.9298 -0.3681 0.3681 0.9298 -156.046 67.2812)" width="223.1" height="1"/>
				<line class="st6" x1="-5.4" y1="487.7" x2="202.1" y2="405.6"/>
				<rect x="-13.2" y="446.2" transform="matrix(0.9298 -0.3681 0.3681 0.9298 -157.5187 67.5593)" width="223.1" height="1"/>
				<line class="st6" x1="-5.4" y1="491.7" x2="202.1" y2="409.6"/>
				<rect x="-13.2" y="450.2" transform="matrix(0.9298 -0.3681 0.3681 0.9298 -158.9939 67.843)" width="223.1" height="1"/>
				<line class="st6" x1="-5.4" y1="495.7" x2="202.1" y2="413.6"/>
				<rect x="-13.2" y="454.2" transform="matrix(0.9298 -0.3681 0.3681 0.9298 -160.4702 68.1218)" width="223.1" height="1"/>
				<line class="st6" x1="-5.4" y1="499.7" x2="202.1" y2="417.6"/>
				<rect x="-13.2" y="458.2" transform="matrix(0.9298 -0.3681 0.3681 0.9298 -161.9454 68.4056)" width="223.1" height="1"/>
				<line class="st6" x1="-5.4" y1="503.7" x2="202.1" y2="421.6"/>
				<rect x="-13.2" y="462.2" transform="matrix(0.9298 -0.3681 0.3681 0.9298 -163.4181 68.6836)" width="223.1" height="1"/>
				<line class="st6" x1="-5.4" y1="507.7" x2="202.1" y2="425.6"/>
				<rect x="-13.2" y="466.2" transform="matrix(0.9298 -0.3681 0.3681 0.9298 -164.8933 68.9674)" width="223.1" height="1"/>
				<line class="st6" x1="-5.4" y1="511.8" x2="202.1" y2="429.6"/>
				<rect x="-13.2" y="470.2" transform="matrix(0.9298 -0.3681 0.3681 0.9298 -166.3684 69.2512)" width="223.1" height="1"/>
				<line class="st6" x1="-5.4" y1="515.8" x2="202.1" y2="433.6"/>
				<rect x="-13.2" y="474.2" transform="matrix(0.9298 -0.3681 0.3681 0.9298 -167.8411 69.5292)" width="223.1" height="1"/>
				<line class="st6" x1="-5.4" y1="519.1" x2="202.1" y2="437"/>
				<rect x="-13.2" y="477.6" transform="matrix(0.9298 -0.3681 0.3681 0.9298 -169.0931 69.7687)" width="223.1" height="1"/>
				<line class="st6" x1="-5.4" y1="523.2" x2="202.1" y2="441"/>
				<rect x="-13.2" y="481.6" transform="matrix(0.9298 -0.3681 0.3681 0.9298 -170.5689 70.0487)" width="223.1" height="1"/>
				<line class="st6" x1="-5.4" y1="527.2" x2="202.1" y2="445"/>
				<rect x="-13.2" y="485.6" transform="matrix(0.9298 -0.3681 0.3681 0.9298 -172.0409 70.3305)" width="223.1" height="1"/>
				<line class="st6" x1="-5.4" y1="531.2" x2="202.1" y2="449"/>
				<rect x="-13.2" y="489.6" transform="matrix(0.9298 -0.3681 0.3681 0.9298 -173.5205 70.6113)" width="223.1" height="1"/>
				<line class="st6" x1="-5.4" y1="535.2" x2="202.1" y2="453"/>
				<rect x="-13.2" y="493.6" transform="matrix(0.9298 -0.3681 0.3681 0.9298 -174.9925 70.893)" width="223.1" height="1"/>
				<line class="st6" x1="-5.4" y1="539.2" x2="202.1" y2="457"/>
				<rect x="-13.2" y="497.6" transform="matrix(0.9298 -0.3681 0.3681 0.9298 -176.4683 71.1731)" width="223.1" height="1"/>
				<line class="st6" x1="-5.4" y1="543.2" x2="202.1" y2="461"/>
				<rect x="-13.2" y="501.6" transform="matrix(0.9298 -0.3681 0.3681 0.9298 -177.9403 71.4549)" width="223.1" height="1"/>
				<line class="st6" x1="-5.4" y1="547.2" x2="202.1" y2="465"/>
				<rect x="-13.2" y="505.6" transform="matrix(0.9298 -0.3681 0.3681 0.9298 -179.4162 71.7349)" width="223.1" height="1"/>
				<line class="st6" x1="-5.4" y1="551.2" x2="202.1" y2="469"/>
				<rect x="-13.2" y="509.6" transform="matrix(0.9298 -0.3681 0.3681 0.9298 -180.8914 72.0187)" width="223.1" height="1"/>
				<line class="st6" x1="-5.4" y1="555.2" x2="202.1" y2="473"/>
				<rect x="-13.2" y="513.6" transform="matrix(0.9298 -0.3681 0.3681 0.9298 -182.3634 72.3005)" width="223.1" height="1"/>
				<line class="st6" x1="-5.4" y1="559.2" x2="202.1" y2="477"/>
				<rect x="-13.2" y="517.7" transform="matrix(0.9298 -0.3681 0.3681 0.9298 -183.8429 72.5812)" width="223.1" height="1"/>
				<line class="st6" x1="-5.4" y1="563.2" x2="202.1" y2="481.1"/>
				<rect x="-13.2" y="521.7" transform="matrix(0.9298 -0.3681 0.3681 0.9298 -185.3149 72.863)" width="223.1" height="1"/>
				<line class="st6" x1="-5.4" y1="567.2" x2="202.1" y2="485.1"/>
				<rect x="-13.2" y="525.7" transform="matrix(0.9298 -0.3681 0.3681 0.9298 -186.7907 73.1431)" width="223.1" height="1"/>
				<line class="st6" x1="-5.4" y1="571.2" x2="202.1" y2="489.1"/>
				<rect x="-13.2" y="529.7" transform="matrix(0.9298 -0.3681 0.3681 0.9298 -188.2627 73.4248)" width="223.1" height="1"/>
				<line class="st6" x1="-5.4" y1="575.2" x2="202.1" y2="493.1"/>
				<rect x="-13.2" y="533.7" transform="matrix(0.9298 -0.3681 0.3681 0.9298 -189.7386 73.7049)" width="223.1" height="1"/>
				<line class="st6" x1="-5.4" y1="579.2" x2="202.1" y2="497.1"/>
				<rect x="-13.2" y="537.7" transform="matrix(0.9298 -0.3681 0.3681 0.9298 -191.2137 73.9886)" width="223.1" height="1"/>
				<line class="st6" x1="-5.4" y1="583.2" x2="202.1" y2="501.1"/>
				<rect x="-13.2" y="541.7" transform="matrix(0.9298 -0.3681 0.3681 0.9298 -192.6864 74.2667)" width="223.1" height="1"/>
			</g>
		</g>
		<path class="st7" d="M138.2,39.7l-3.5-2.6c0,0-9.2-0.8-10.2,0.7c-2,2.9-5.9,1.4-5.9,1.4c-0.1-1.2-1.1-2.1-2.3-2.1
			c-1.6-0.2-3.3-0.5-4.7,3.6c0,0-1.7,1.6-2.4,10.1c0,0-1.2,4-3.9,4c0,0-1.3,7.6,4,7.3c0,0,0.3,10.9-7.1,10.3c0,0-8.5-5-11.3,15.5
			c0,0,0.7,3.6,0.9,5.8s-1.9,8.2-3.9,12.4s-2.1,13.5-2.3,17.8c-0.2,3.5-4.7,22.8-5.6,28.1s-6.7,21.4-6.7,21.4l-9.9,24.8l-6.7,14.4
			c-1.7,4.4-3.6,8.6-5.8,12.8c-5,8.6-13.5,19.4-12,19c0,0,5.7,5.2,8,8.8c1.4,2.1-1.4,5.6-6.1,9.5c0,0-14.9,11-14.6,13.7
			c0.1,1-0.1,2.3,0.1,3.6c0.2,1.7,0.8,5.8-0.5,7.4c-3.3,3.9-12.4,8.6-12.4,10.9s2.1,8.6,3.3,11.4c0,0,6.1,19.1,10.7,31.6l19.4,60.4
			l12.2,31.7l7.2,15.8l2,4.5c0.9,2.6,1.2,5.4,1,8.2c-0.3,2.5-0.4,5.1-0.3,7.7c0.4,2,0.9,4,1.6,6c0.9,2,1.6,4,2.3,6.1
			c0.6,2.7,1.1,5.4,1.3,8.2c0.3,4,0.1,8.1-0.8,12c-0.1,0.5,5,0.1,5,0.1l12.5-30.2c0,0,3-5.5,8.8-20.5c0,0,1.3-4.1,4.5-15
			c1.1-3.7,1.4-7.3,2.1-9.6c0,0,1.8-5,3.6-10.2c1.4-7.7,3.4-15.2,6-22.5c2.7-6.9,4.6-14.1,5.7-21.5c0,0,2.4-7,7.6-23.5
			c1.8-5.2,3.3-10.5,4.4-15.8c0.4-3,1-5.9,1.9-8.8c1.1-3.7,3.9-7.8,5.1-11.1c0,0,3.8-4.5,6-31.5c0,0-0.1-17.6-0.1-22.6
			c0-1.9-4.9,2.8-9.8,7.7c-1.6,1.6-4.1,6.5-8.1,8.2c-12,5.3-18.6,1.4-24.9,2.5s-3.8,2.7-13.3,1.8c0,0-6.4-3-3.6-10.6
			c0,0,7.6-5.3,6.9-20.6c-0.4-8,8-10.4,11-15.3c2.1-3.5,20.8-8.8,21.9-13.3s-11.7-4.3-16.1-7.5c-6-4.4-4.7,4.4-11.1,2.4
			c-12-3.8,3.2-7,2.1-10.9c-1.4-4.9-2.9-4.4-3.5-8.3c-0.5-3.5,1-5.2,1.5-10.6c0.2-2.6,1.4-3.6-1.5-10.6c-3.6-8.8-2.6-12-0.2-15.6
			s5.8,1.7,3.5-11.2c-0.9-4.9,0.9-4.5,3.1-8c2.3-3.5,2.5-3.4,3.4-14c0,0-0.1-3.5,5-2.8c5.4,0.8,8.8-9,11.1-9.3
			c2.5,0,4.7,1.5,5.6,3.9c0,0,0.8,1.8,8.8,0.3c0,0,4.9-2,6.8,1.3c1,1,2.3,1.8,3.7,2.3c2.6,0.5,0.3,7.7,1.6,11c0,0,0.6,2.1,8.1,1.1
			c2.6-0.4,8,1.8,8.8,4.1l1-34.7c0,0-1.5-2,4-5.6c0,0,1.8-3.3,4.8-3.3c0,0,4.2,0.1,4.3-1.5c0-1.1,0.4-1.5-2.9-1.9
			c0,0-1.5-0.2-1.1-15.8c0,0-3.4,0.2-3.4-16.8c0.1-10.6,0-12.2,0-12.2s-2.3-4,1.9-5.8s2-6.5,1.8-8.4s0.6-4.6,3.3-5.3
			s1.4-3.4-0.1-3.9s1.6-4.3-2.4-5s-3.8,1.6-8.8-3.4c-4.3-4.2-7.7,0.8-7.6,3.6c-0.2,5.4-0.6,10.7-1.3,16c-0.6,2.4-6.1,2.9-8.1,5.4
			s-3.1,2-5.5,0.9C144.1,37.9,138.2,39.7,138.2,39.7z"/>
		<path class="st8" d="M60.5,377.9h-1.8v-8.6h1.8V377.9z M58.8,366.9h1.5v1.4h-1.5V366.9z"/>
		<path class="st8" d="M63.5,375.3c0,0.3,0.1,0.6,0.3,0.9c0.4,0.4,1,0.6,1.5,0.5c0.4,0,0.7,0,1.1-0.1c0.5-0.1,0.8-0.5,0.8-1
			c0-0.3-0.1-0.5-0.4-0.7c-0.4-0.2-0.8-0.3-1.2-0.4l-0.9-0.2c-0.7-0.1-1.3-0.3-1.9-0.7c-0.6-0.4-0.9-1.1-0.9-1.9
			c0-0.7,0.3-1.4,0.9-1.9c0.7-0.6,1.6-0.8,2.5-0.8c0.8,0,1.7,0.2,2.4,0.7c0.7,0.5,1,1.3,1,2.1h-1.7c0-0.5-0.3-0.9-0.7-1.1
			c-0.3-0.2-0.7-0.2-1.1-0.2c-0.4,0-0.8,0.1-1.1,0.3c-0.3,0.2-0.4,0.5-0.4,0.8c0,0.3,0.2,0.6,0.4,0.7c0.4,0.2,0.8,0.3,1.1,0.4
			l1.5,0.4c0.5,0.1,1,0.3,1.5,0.6c0.5,0.4,0.8,1.1,0.8,1.8c0,0.8-0.3,1.5-0.9,2c-0.7,0.6-1.7,0.9-2.6,0.8c-1,0.1-1.9-0.2-2.7-0.8
			c-0.7-0.5-1-1.3-1-2.1L63.5,375.3z"/>
		<path class="st8" d="M75.7,369.5c0.3,0.1,0.6,0.3,0.8,0.6c0.2,0.2,0.3,0.5,0.4,0.7c0.1,0.3,0.2,0.6,0.2,0.9c0,0.4-0.1,0.8-0.3,1.2
			c-0.2,0.4-0.6,0.7-1,0.8c0.4,0.1,0.7,0.4,0.9,0.7c0.2,0.4,0.3,0.9,0.3,1.4v0.6c0,0.3,0,0.5,0,0.8c0,0.2,0.2,0.4,0.3,0.5v0.2h-2
			c0-0.1-0.1-0.3-0.1-0.4c0-0.2-0.1-0.5-0.1-0.7v-0.8c0-0.4-0.1-0.8-0.3-1.1c-0.3-0.2-0.6-0.3-1-0.3H72v3.4h-1.8v-8.6h4.1
			C74.8,369.3,75.3,369.3,75.7,369.5z M72,370.8v2.3h2c0.3,0,0.6,0,0.9-0.1c0.4-0.2,0.6-0.6,0.5-1c0-0.4-0.1-0.8-0.5-1
			c-0.3-0.1-0.5-0.2-0.8-0.1L72,370.8z"/>
		<path class="st8" d="M81.3,369.3h2l3.1,8.6h-1.9l-0.6-1.8h-3.2l-0.6,1.8h-1.9L81.3,369.3z M81.2,374.7h2.2l-1.1-3.4L81.2,374.7z"
			/>
		<path class="st8" d="M89.1,377.9h-1.8v-8.6h1.8V377.9z M87.5,366.9H89v1.4h-1.5V366.9z"/>
		<path class="st8" d="M90.9,369.3h1.8v7.1H97v1.5h-6.1V369.3z"/>
		<path class="st3" d="M78.6,502.6H72l0.2-0.6c1.6-7.5,1.2-15.3-1.2-22.6c-0.1-0.2-3.9-7.5-3.1-13.9c0.7-5.8,0.8-9.7-1-12.9
			c-4.5-9.1-8.5-18.5-12-28.1c-1-3-2.2-5.8-3.5-9.1c-4.6-11.1-8.5-22.5-11.8-34.1c-7-23.9-12.9-41.5-15-46.3c-1-2.3-4.2-12-7.2-21.4
			c-2.8-8.6-5.5-16.7-6.4-19.2c-2.1-5.3-2.9-7.4-2.9-7.4c-0.1-0.2-1.8-4.7,2.7-9.2c3.9-3.9,15.9-18.6,21-24.9l1.5-1.9
			c4-5,16.6-25.3,18.9-29.7s14.5-32.1,17.7-40.3c3.4-8.6,13.8-41.1,14.8-53.6c0.7-8.4,1.2-12.8,1.6-15.8c0.2-1.5,0.3-2.6,0.4-3.6
			c0.4-1.9,1-3.7,1.8-5.4c1.4-3.3,3.1-7.4,2.6-10.2c-0.9-4.6-0.7-9,2.8-18c0.6-1.4,1.8-2.5,3.2-3.1c2-0.7,4.2-0.5,6.1,0.4l0,0
			c0.6,0.1,1.3,0,1.9-0.4c1.3-0.8,3.1-3.1,4.1-9.2c-0.8,0.1-1.5-0.1-2.2-0.5c-1.5-1-2.1-3.4-2-7.1v-0.5l0.5,0.1
			c0.6,0,1.2-0.2,1.6-0.6c1-0.8,1.6-2.5,1.8-4.8c0-0.2-0.2-5,1.4-6.9c1.3-1.5,2.1-3.4,2.4-5.3l0.1-0.4h5.5l0.1,0.3
			c0,0,1.1,2.9,2.7,2.6c1.6-0.2,3.1-1.2,3.8-2.6l0.1-0.3l10.3,0.4l0.1,0.2c0.4,0.5,1.6,1.9,2.5,1.8c1.5-0.2,8.8,0,9.1,0h0.2l0.1,0.1
			c0.1,0.1,1.6,1.5,4.1-0.5c0.1-0.1,3.6-3.2,6.3-3.5c0.1,0,2.3-0.5,2.6-4.7l1.2-13.3c0.1-0.5,0.5-5.3,2.9-5.4h0.6
			c2-0.1,5-0.3,6.6,3.3c0,0,1.2,1.8,5.1,1.3c1.8-0.2,3,0,3.8,0.7c0.7,0.7,0.9,1.7,0.8,2.7v0.2c0,0.3,0,0.6,0,0.8
			c0,1-0.1,1.2,0.8,1.5s1.3,1.1,1.1,2.3s-1.1,2.3-2.2,2.2c-0.4,0-0.8,0.2-1.1,0.5c-1.1,1.2-1.6,2.8-1.4,4.4c0,0.7,0.1,1.4,0.2,2.1
			c0.3,2.7,0.5,5.3-1.4,6.3c-0.4,0.2-0.9,0.4-1.4,0.5c-1.1,0.3-1.7,0.5-1.3,4.3c0.3,3.5,0.3,7,0.1,10.5c-0.1,2.8-0.1,5.4,0,7.5
			c0.2,3.2,0.8,6.3,1.9,9.3c0.1,0.1,0.1,0.3,0.2,0.4c0.6,0.8,1.4,2.1,1.2,9.4c-0.1,4.5,0.1,6.8,0.7,7.4c0.2,0.2,0.6,0.3,1.2,0.3h0.3
			c1.2,0.1,2.1,1.1,2,2.3c0,1.2-0.9,2.1-2,2.2c0,0,0,0-0.1,0c-0.4,0-0.8,0-1.2,0c-1.9,0-3.9-0.1-5.5,2.5c-0.6,1-1.5,1.9-2.4,2.6
			c-1.5,1.2-2.5,2-2.1,5.8c0.8,6-0.2,26.9-0.2,27.8l-0.1,19.9c0.4,3.9,0.2,7.8-0.5,11.6c-0.7,3.7-1.5,7.1-2.1,9.7
			c-0.4,1.8-0.8,3.4-1,4.7l-0.1,0.3c-0.5,2.8-0.8,4.2,0,6.3c0.2,0.5,0.3,0.9,0.5,1.2c0.6,1.4,1,2.3,1,6.7c0,5.4,0.3,19.7,0.3,19.8
			c0.1,0.4,0.7,4.3-0.7,5.9c-0.4,0.4-0.9,0.7-1.5,0.7c-2.9,0.6-5.6,2.1-7.6,4.4c-1.4,1.7-2.1,3.7-2.1,5.9c0.1,2.5,0.1,4.4-1.1,5.5
			c-0.9,0.7-2.1,1-3.2,0.9l-1,16.4c0,0.5,0.3,5.4-2,6.4c-0.4,0.2-1.5,2.4-0.3,20.7l0.1,0.9c0.2,2.7-1.9,25.4-5.1,31.5
			c-2,3.8-6.7,13.3-7.7,20.5c-0.9,6.2-5.7,20.8-7.5,25.3c-1.3,3.2-4.2,15.8-5.8,22.6c-0.5,2.1-0.9,3.7-1,4.4
			c-0.2,0.9-0.9,2.5-1.8,4.8c-2.1,5.4-5.4,13.7-6.2,20c-0.5,3.8-1.5,7.4-2.8,11c-1.3,3.6-2.4,7.3-3,11.1
			c-1.5,9.8-10.7,32.8-11.6,34.4c-0.6,1.1-10.6,24.4-15.7,36.6L78.6,502.6z M73.2,501.6h4.7c1.6-3.7,14.8-35,15.6-36.4
			c0.7-1.1,10-24.3,11.5-34.1c0.6-3.8,1.6-7.6,2.9-11.3c1.3-3.5,2.2-7.1,2.8-10.8c0.9-6.5,4.1-14.8,6.3-20.3
			c0.9-2.2,1.5-3.9,1.7-4.7s0.6-2.3,1-4.4c1.7-7.3,4.6-19.5,5.9-22.7c1.8-4.5,6.6-18.9,7.5-25c1.1-7.3,5.8-17,7.8-20.8
			c3.1-5.9,5.2-28.4,5-31l-0.1-0.9c-1.2-18.2-0.3-21.2,0.9-21.6c1.4-0.6,1.5-4.3,1.4-5.5l1-17.5l0.5,0c1,0.2,2.1,0,2.9-0.6
			c0.9-0.8,0.8-2.5,0.8-4.6c0-2.4,0.8-4.8,2.4-6.7c4.1-4.2,8.1-4.6,8.3-4.7c0.3,0,0.6-0.1,0.8-0.3c0.9-1,0.6-4.1,0.5-5.2
			c0-0.2-0.4-14.5-0.4-19.9c0-4.3-0.3-5-0.9-6.3c-0.1-0.4-0.3-0.8-0.5-1.2c-0.9-2.4-0.6-4,0-6.9l0.1-0.3c0.2-1.3,0.6-2.9,1-4.7
			c0.6-2.7,1.4-6,2.1-9.7c0.7-3.7,0.9-7.6,0.5-11.3l0.1-20c0-0.2,1-21.7,0.3-27.7c-0.5-4.3,0.9-5.4,2.4-6.7c0.9-0.6,1.6-1.4,2.2-2.3
			c1.9-3.1,4.4-3,6.4-3c0.4,0,0.8,0,1.1,0c0.6,0,1.1-0.5,1.1-1.1c0,0,0-0.1,0-0.1c0.1-0.6-0.4-1.2-1-1.3h-0.3
			c-0.7,0.1-1.4-0.1-1.9-0.6c-0.7-0.8-1.1-2.4-1-8.1c0.2-7-0.6-8.1-1-8.8c-0.1-0.2-0.2-0.4-0.3-0.6c-1.1-3.1-1.8-6.3-1.9-9.6
			c-0.1-2.1-0.1-4.8,0-7.6c0.2-3.5,0.1-6.9-0.1-10.4c-0.4-4.2,0.3-4.9,2-5.4c0.4-0.1,0.8-0.2,1.2-0.4c1.3-0.7,1.1-3,0.8-5.3
			c-0.1-0.7-0.1-1.4-0.2-2.1c-0.2-1.9,0.5-3.8,1.8-5.2c0.5-0.5,1.2-0.8,1.9-0.7c0.4,0,0.9-0.6,1.1-1.4c0.1-0.2,0.1-1-0.4-1.1
			c-1.7-0.4-1.6-1.4-1.6-2.5c0-0.2,0-0.5,0-0.8v-0.2c0.1-0.7,0-1.4-0.5-1.9c-0.5-0.4-1.5-0.6-3-0.4c-4.5,0.5-6-1.7-6.1-1.8
			c-1.4-3.1-3.8-2.9-5.7-2.8H164c-1.2,0-1.8,3-1.9,4.5l-1,13.3c-0.4,5-3.3,5.6-3.4,5.6c-2.4,0.3-5.8,3.3-5.9,3.3
			c-2.7,2.2-4.7,1.1-5.3,0.6c-1.1,0-7.5-0.1-8.9,0c-1.5,0.2-2.9-1.4-3.3-2l-9.1-0.3c-0.9,1.6-2.5,2.7-4.4,2.9
			c-2.1,0.4-3.3-2-3.7-2.9h-3.9c-0.4,2-1.3,3.8-2.5,5.4c-1.1,1.3-1.2,4.9-1.1,6.2c-0.2,2.7-0.9,4.6-2.1,5.6
			c-0.5,0.4-1.1,0.7-1.8,0.8c-0.1,3.8,0.8,5.3,1.6,5.8c0.6,0.4,1.3,0.5,2,0.2l0.8-0.3l-0.1,0.9c-0.8,5.7-2.4,9.3-4.7,10.6
			c-0.8,0.5-1.8,0.7-2.7,0.4c-1.6-0.9-3.6-1-5.3-0.4c-1.2,0.5-2.1,1.4-2.6,2.6c-3.4,8.8-3.6,13-2.7,17.5c0.6,3-1.1,7.1-2.7,10.8
			c-0.8,1.6-1.4,3.3-1.8,5.1c-0.1,1.1-0.2,2.2-0.4,3.7c-0.4,2.9-0.9,7.4-1.6,15.7c-1,12.5-11.4,45.3-14.8,53.8
			c-3.2,8.2-15.5,35.9-17.8,40.4s-14.9,24.9-19,29.9l-1.5,1.9c-5.1,6.3-17.2,21.1-21.1,25s-2.5,8.1-2.5,8.1s0.8,2.1,2.9,7.4
			c1,2.5,3.7,10.7,6.5,19.3c3.1,9.4,6.2,19,7.2,21.3c2,4.8,8.1,22.4,15,46.4c3.3,11.6,7.2,22.9,11.8,34c1.3,3.3,2.5,6.1,3.5,9.2
			c3.4,9.5,7.4,18.8,11.9,27.9c1.9,3.4,1.9,7.5,1.1,13.5s3,13.3,3,13.4C74.2,486.3,74.7,494.1,73.2,501.6L73.2,501.6z"/>
		<path class="st3" d="M190.1,652.7H-0.8V0.1h190.9V652.7z M0,651.9h189.4V0.9H0L0,651.9z"/>
		<path d="M42.9,172v0.8h-2.2v5.7h-0.9v-5.7h-2.2V172L42.9,172z"/>
		<path d="M45.6,173.9c0.3,0.1,0.5,0.3,0.7,0.6c0.2,0.3,0.3,0.5,0.3,0.8c0,0.3,0.1,0.7,0.1,1h-3.4c0,0.4,0.1,0.8,0.3,1.1
			c0.2,0.3,0.6,0.5,1,0.4c0.4,0,0.7-0.1,1-0.4c0.1-0.2,0.2-0.3,0.3-0.6h0.8c0,0.2-0.1,0.4-0.2,0.6c-0.1,0.2-0.2,0.4-0.4,0.5
			c-0.2,0.2-0.6,0.4-0.9,0.5c-0.2,0.1-0.4,0.1-0.6,0.1c-0.6,0-1.1-0.2-1.5-0.6c-0.4-0.5-0.6-1.1-0.6-1.8c0-0.7,0.2-1.3,0.6-1.8
			c0.4-0.5,1-0.7,1.6-0.7C45,173.6,45.3,173.7,45.6,173.9z M45.8,175.7c0-0.3-0.1-0.6-0.2-0.8c-0.2-0.4-0.6-0.6-1.1-0.6
			c-0.3,0-0.7,0.1-0.9,0.4c-0.3,0.3-0.4,0.6-0.4,1L45.8,175.7z"/>
		<path d="M47.8,172h0.8v6.5h-0.8V172z"/>
		<path d="M53.9,172h1l2.3,6.5h-1l-0.7-1.9h-2.4l-0.7,1.9h-0.9L53.9,172z M55.4,175.8l-1-2.9l-1,2.9H55.4z"/>
		<path d="M58.3,173.7l1.3,3.8l1.3-3.8h0.9l-1.8,4.8h-0.8l-1.7-4.7L58.3,173.7z"/>
		<path d="M62.5,172h0.8v0.9h-0.8L62.5,172z M62.5,173.8h0.8v4.7h-0.8L62.5,173.8z"/>
		<path d="M64.9,173.7l1.3,3.8l1.3-3.8h0.9l-1.8,4.8h-0.8l-1.7-4.7L64.9,173.7z"/>
		<path d="M6.5,248.4c0.7,0.4,1.1,1,1.2,1.8H6.8c-0.1-0.4-0.3-0.8-0.6-1c-0.4-0.2-0.8-0.3-1.2-0.3c-0.6,0-1.1,0.2-1.5,0.7
			c-0.4,0.6-0.7,1.3-0.6,2c0,0.7,0.1,1.3,0.5,1.9c0.4,0.5,1,0.8,1.6,0.7c0.5,0,1-0.2,1.4-0.5c0.4-0.4,0.6-1,0.6-1.6h-2v-0.7h2.8v3.5
			H7.1l-0.2-0.8c-0.2,0.3-0.5,0.5-0.8,0.7c-1.1,0.6-2.4,0.4-3.4-0.4c-0.6-0.7-0.9-1.6-0.9-2.6c0-0.9,0.3-1.9,0.9-2.6
			c0.5-0.6,1.3-0.9,2.1-0.9C5.4,248.1,6,248.2,6.5,248.4z"/>
		<path d="M11.7,251.8c0.2,0,0.3-0.1,0.4-0.2c0-0.1,0-0.2,0-0.3c0-0.2-0.1-0.5-0.3-0.6c-0.3-0.1-0.5-0.2-0.8-0.2
			c-0.3,0-0.7,0.1-0.9,0.3c-0.1,0.2-0.2,0.4-0.2,0.5H9.1c0-0.5,0.2-0.9,0.6-1.2c0.4-0.2,0.8-0.4,1.3-0.3c0.5,0,0.9,0.1,1.3,0.3
			c0.3,0.2,0.5,0.6,0.5,1v2.7c0,0.1,0,0.1,0,0.2c0,0,0.1,0.1,0.2,0.1h0.1h0.1v0.6c-0.1,0-0.2,0-0.3,0.1h-0.3c-0.2,0-0.5-0.1-0.6-0.3
			c-0.1-0.1-0.1-0.3-0.1-0.4c-0.2,0.2-0.4,0.4-0.7,0.5c-0.3,0.2-0.7,0.2-1,0.2c-0.4,0-0.8-0.1-1.1-0.4c-0.3-0.3-0.4-0.6-0.4-1
			c0-0.4,0.1-0.7,0.4-1c0.3-0.3,0.7-0.4,1.1-0.4L11.7,251.8z M10,254c0.2,0.1,0.4,0.2,0.6,0.2c0.3,0,0.6-0.1,0.8-0.2
			c0.4-0.2,0.7-0.6,0.7-1v-0.6c-0.1,0.1-0.2,0.1-0.4,0.2l-0.4,0.1l-0.5,0.1c-0.2,0-0.4,0.1-0.6,0.2c-0.2,0.1-0.4,0.4-0.4,0.7
			C9.8,253.6,9.8,253.8,10,254z"/>
		<path d="M13.9,254.1l2.8-3.4h-2.6V250h3.7v0.6L15,254h2.8v0.7h-3.9V254.1z"/>
		<path d="M18.5,254.1l2.8-3.4h-2.6V250h3.6v0.6l-2.8,3.4h2.9v0.7h-3.9V254.1z"/>
		<path d="M26.3,250.1c0.3,0.1,0.5,0.3,0.7,0.6c0.2,0.3,0.3,0.5,0.3,0.8c0.1,0.3,0.1,0.7,0.1,1H24c0,0.4,0.1,0.8,0.3,1.1
			c0.2,0.3,0.6,0.5,1,0.4c0.4,0,0.7-0.1,1-0.4c0.1-0.2,0.2-0.3,0.3-0.5h0.8c0,0.2-0.1,0.4-0.2,0.6c-0.1,0.2-0.2,0.4-0.4,0.5
			c-0.2,0.2-0.5,0.4-0.9,0.5c-0.2,0.1-0.4,0.1-0.6,0.1c-0.6,0-1.1-0.2-1.5-0.6c-0.4-0.5-0.7-1.1-0.6-1.8c0-0.7,0.2-1.3,0.6-1.8
			c0.4-0.5,1-0.7,1.6-0.7C25.7,249.8,26,249.9,26.3,250.1z M26.6,252c0-0.3-0.1-0.6-0.2-0.8c-0.2-0.4-0.6-0.6-1.1-0.6
			c-0.3,0-0.7,0.1-0.9,0.4c-0.2,0.3-0.4,0.6-0.4,1H26.6z"/>
		<path class="st8" d="M81.8,180.6c0,2.4-1.9,4.3-4.3,4.3c-2.4,0-4.3-1.9-4.3-4.3c0-2.4,1.9-4.3,4.3-4.3c0,0,0,0,0,0
			C79.9,176.3,81.8,178.2,81.8,180.6C81.8,180.6,81.8,180.6,81.8,180.6z"/>
		<path class="st8" d="M104.1,78.3c0,2.4-1.9,4.3-4.3,4.3c-2.4,0-4.3-1.9-4.3-4.3c0-2.4,1.9-4.3,4.3-4.3c0,0,0,0,0,0
			C102.1,74,104.1,75.9,104.1,78.3z"/>
		<path class="st8" d="M37,263.2c0,2.4-1.9,4.3-4.3,4.4c-2.4,0-4.3-1.9-4.4-4.3s1.9-4.3,4.3-4.4c0,0,0,0,0,0
			C35.1,258.8,37,260.8,37,263.2z"/>
		<path class="st8" d="M129.5,204.4c0,2.4-1.9,4.3-4.3,4.3c-2.4,0-4.3-1.9-4.3-4.3c0-2.4,1.9-4.3,4.3-4.4c0,0,0,0,0,0
			C127.6,200.1,129.5,202,129.5,204.4z"/>
		<path class="st8" d="M129.5,224.7c0,2.4-1.9,4.3-4.3,4.3c-2.4,0-4.3-1.9-4.3-4.3c0-2.4,1.9-4.3,4.3-4.4c0,0,0,0,0,0
			C127.6,220.3,129.5,222.3,129.5,224.7z"/>
		<path class="st8" d="M126.2,238.9c0,2.4-1.9,4.3-4.3,4.4s-4.3-1.9-4.4-4.3s1.9-4.3,4.3-4.4c0,0,0,0,0,0
			C124.2,234.6,126.2,236.5,126.2,238.9z"/>
		<path class="st8" d="M80.7,198.5h2.9c0.4,0,0.8,0.1,1.2,0.2c0.6,0.3,0.9,0.9,0.9,1.5c0,0.3-0.1,0.7-0.2,1
			c-0.2,0.3-0.4,0.5-0.7,0.6c0.5,0.2,0.8,0.7,0.8,1.2v0.9c0,0.2,0,0.4,0.1,0.5c0,0.2,0.1,0.3,0.3,0.4v0.1h-1.1
			c0-0.1-0.1-0.1-0.1-0.2c0-0.2,0-0.3,0-0.5l-0.1-1.1c0-0.3-0.2-0.7-0.5-0.9c-0.2-0.1-0.5-0.1-0.8-0.1h-1.9v2.8h-0.9L80.7,198.5z
			 M83.5,201.5c0.4,0,0.7-0.1,1-0.3c0.3-0.2,0.4-0.5,0.3-0.9c0-0.4-0.2-0.7-0.5-0.9c-0.2-0.1-0.5-0.1-0.7-0.1h-2.1v2.2H83.5z"/>
		<path class="st8" d="M89.6,202.1c0.2,0,0.3-0.1,0.4-0.2c0-0.1,0.1-0.2,0.1-0.3c0-0.2-0.1-0.5-0.3-0.6c-0.3-0.1-0.5-0.2-0.8-0.2
			c-0.3,0-0.7,0.1-0.9,0.3c-0.1,0.2-0.2,0.4-0.2,0.5h-0.7c0-0.5,0.2-0.9,0.6-1.2c0.4-0.2,0.8-0.3,1.3-0.3c0.5,0,0.9,0.1,1.4,0.3
			c0.3,0.2,0.5,0.6,0.5,1v2.7c0,0.1,0,0.1,0.1,0.2c0,0,0.1,0.1,0.2,0.1h0.1h0.1v0.6l-0.3,0.1h-0.3c-0.2,0-0.5-0.1-0.6-0.3
			c-0.1-0.1-0.1-0.3-0.1-0.4c-0.2,0.2-0.4,0.4-0.7,0.5c-0.3,0.2-0.7,0.2-1,0.2c-0.4,0-0.8-0.1-1.1-0.4c-0.3-0.3-0.4-0.6-0.4-1
			c0-0.4,0.1-0.7,0.4-1c0.3-0.3,0.7-0.4,1.1-0.4L89.6,202.1z M87.9,204.2c0.2,0.1,0.4,0.2,0.6,0.2c0.3,0,0.6-0.1,0.8-0.2
			c0.4-0.2,0.7-0.6,0.6-1v-0.6c-0.1,0.1-0.2,0.1-0.4,0.2l-0.4,0.1l-0.5,0.1c-0.2,0-0.4,0.1-0.6,0.2c-0.2,0.1-0.4,0.4-0.4,0.7
			C87.7,203.9,87.7,204.1,87.9,204.2z"/>
		<path class="st8" d="M92.1,200.2h0.8v0.7c0.1-0.2,0.3-0.4,0.5-0.5c0.3-0.2,0.6-0.3,0.9-0.3c0.3,0,0.6,0.1,0.9,0.3
			c0.1,0.1,0.3,0.3,0.4,0.5c0.2-0.2,0.4-0.4,0.6-0.6c0.2-0.1,0.5-0.2,0.8-0.2c0.5-0.1,1,0.2,1.3,0.7c0.1,0.3,0.2,0.7,0.2,1v3.1h-0.8
			v-3.3c0-0.2-0.1-0.5-0.2-0.6c-0.2-0.1-0.4-0.2-0.6-0.2c-0.3,0-0.6,0.1-0.8,0.3c-0.2,0.3-0.4,0.6-0.3,1v2.7h-0.8v-3.1
			c0-0.2,0-0.5-0.1-0.7c-0.1-0.2-0.4-0.4-0.7-0.3c-0.3,0-0.6,0.1-0.8,0.3c-0.3,0.4-0.4,0.8-0.4,1.3v2.5h-0.8V200.2z"/>
		<path class="st8" d="M102.3,202.1c0.2,0,0.3-0.1,0.4-0.2c0-0.1,0-0.2,0-0.3c0-0.2-0.1-0.5-0.3-0.6c-0.3-0.1-0.5-0.2-0.8-0.2
			c-0.3,0-0.7,0.1-0.9,0.3c-0.1,0.2-0.2,0.4-0.2,0.5h-0.7c0-0.5,0.2-0.9,0.6-1.2c0.4-0.2,0.8-0.4,1.3-0.3c0.5,0,0.9,0.1,1.3,0.3
			c0.3,0.2,0.6,0.6,0.5,1v2.7c0,0.1,0,0.1,0.1,0.2c0,0,0.1,0.1,0.2,0.1h0.1h0.1v0.6l-0.3,0.1h-0.3c-0.2,0-0.5-0.1-0.6-0.3
			c-0.1-0.1-0.1-0.3-0.1-0.4c-0.2,0.2-0.4,0.4-0.7,0.5c-0.3,0.2-0.7,0.2-1,0.2c-0.4,0-0.8-0.1-1.1-0.4c-0.3-0.3-0.4-0.6-0.4-1
			c0-0.4,0.1-0.7,0.4-1c0.3-0.3,0.7-0.4,1.1-0.4L102.3,202.1z M100.6,204.2c0.2,0.1,0.4,0.2,0.6,0.2c0.3,0,0.6-0.1,0.8-0.2
			c0.4-0.2,0.7-0.6,0.7-1v-0.6c-0.1,0.1-0.2,0.1-0.4,0.2l-0.4,0.1l-0.5,0.1c-0.2,0-0.4,0.1-0.6,0.2c-0.2,0.1-0.4,0.4-0.4,0.7
			C100.3,203.9,100.4,204.1,100.6,204.2L100.6,204.2z"/>
		<path class="st8" d="M104.9,198.5h0.8v6.5h-0.8V198.5z"/>
		<path class="st8" d="M106.9,198.5h0.8v6.5h-0.8V198.5z"/>
		<path class="st8" d="M111.5,202.1c0.2,0,0.3-0.1,0.4-0.2c0-0.1,0.1-0.2,0.1-0.3c0-0.2-0.1-0.5-0.3-0.6c-0.3-0.1-0.5-0.2-0.8-0.2
			c-0.3,0-0.7,0.1-0.9,0.3c-0.1,0.2-0.2,0.4-0.2,0.5H109c0-0.5,0.2-0.9,0.6-1.2c0.4-0.2,0.8-0.3,1.3-0.3c0.5,0,0.9,0.1,1.4,0.3
			c0.3,0.2,0.5,0.6,0.5,1v2.7c0,0.1,0,0.1,0,0.2c0.1,0.1,0.1,0.1,0.2,0.1h0.2h0.1v0.6l-0.3,0.1h-0.3c-0.2,0-0.5-0.1-0.6-0.3
			c-0.1-0.1-0.1-0.3-0.1-0.4c-0.2,0.2-0.4,0.4-0.7,0.5c-0.3,0.2-0.7,0.2-1,0.2c-0.4,0-0.8-0.1-1.1-0.4c-0.3-0.3-0.4-0.6-0.4-1
			c0-0.4,0.1-0.7,0.4-1c0.3-0.3,0.7-0.4,1.1-0.4L111.5,202.1z M109.9,204.2c0.2,0.1,0.4,0.2,0.6,0.2c0.3,0,0.6-0.1,0.8-0.2
			c0.4-0.2,0.7-0.6,0.7-1v-0.6c-0.1,0.1-0.2,0.1-0.4,0.2l-0.4,0.1l-0.5,0.1c-0.2,0-0.4,0.1-0.6,0.2c-0.2,0.1-0.4,0.4-0.4,0.7
			C109.6,203.9,109.7,204.1,109.9,204.2z"/>
		<path class="st8" d="M114.1,198.5h0.8v2.4c0.1-0.2,0.3-0.4,0.5-0.5c0.3-0.2,0.6-0.3,0.9-0.3c0.6-0.1,1.1,0.2,1.4,0.7
			c0.1,0.3,0.2,0.7,0.2,1.1v3h-0.8v-3c0-0.3,0-0.5-0.1-0.8c-0.2-0.3-0.5-0.4-0.8-0.4c-0.3,0-0.6,0.1-0.9,0.3
			c-0.3,0.3-0.5,0.8-0.4,1.3v2.5h-0.8V198.5z"/>
		<path class="st8" d="M91.2,219.5h0.9v3.2l3.2-3.2h1.2l-2.8,2.6l2.8,3.9h-1.1l-2.4-3.3l-1.1,1v2.3h-0.9L91.2,219.5z"/>
		<path class="st8" d="M98,221.2v3.1c0,0.2,0,0.4,0.1,0.6c0.1,0.3,0.4,0.5,0.8,0.4c0.5,0,0.9-0.3,1.1-0.7c0.1-0.4,0.2-0.7,0.2-1.1
			v-2.3h0.8v4.7h-0.8v-0.7c-0.1,0.2-0.2,0.3-0.4,0.5c-0.3,0.2-0.7,0.4-1.1,0.4c-0.5,0.1-1.1-0.2-1.4-0.7c-0.1-0.3-0.2-0.7-0.2-1
			v-3.2L98,221.2z"/>
		<path class="st8" d="M104.9,221.4c0.2,0.1,0.3,0.3,0.5,0.5v-2.4h0.8v6.5h-0.7v-0.7c-0.2,0.3-0.4,0.5-0.6,0.6
			c-0.3,0.1-0.6,0.2-0.9,0.2c-0.5,0-1-0.2-1.4-0.7c-0.4-0.5-0.6-1.1-0.6-1.8c0-0.6,0.2-1.3,0.5-1.8c0.3-0.5,0.9-0.8,1.5-0.8
			C104.3,221.1,104.6,221.2,104.9,221.4z M103.1,224.9c0.2,0.3,0.6,0.5,1,0.5c0.4,0,0.7-0.2,0.9-0.5c0.3-0.4,0.4-0.9,0.4-1.4
			c0-0.5-0.1-0.9-0.4-1.3c-0.2-0.3-0.5-0.4-0.9-0.4c-0.4,0-0.8,0.1-1,0.5c-0.3,0.4-0.4,0.9-0.4,1.4
			C102.8,224.1,102.9,224.5,103.1,224.9z"/>
		<path class="st8" d="M108.2,221.2v3.1c0,0.2,0,0.4,0.1,0.6c0.1,0.3,0.4,0.5,0.8,0.4c0.5,0,0.9-0.3,1.1-0.7
			c0.1-0.4,0.2-0.7,0.2-1.1v-2.3h0.8v4.7h-0.8v-0.7c-0.1,0.2-0.2,0.3-0.4,0.5c-0.3,0.2-0.7,0.4-1.1,0.4c-0.5,0.1-1.1-0.2-1.4-0.7
			c-0.1-0.3-0.2-0.7-0.2-1v-3.2L108.2,221.2z M108.2,219.6h0.8v0.9h-0.8V219.6z M109.7,219.6h0.8v0.9h-0.8V219.6z"/>
		<path class="st8" d="M113,224.5c0,0.2,0.1,0.4,0.2,0.6c0.3,0.3,0.7,0.4,1.1,0.4c0.3,0,0.5-0.1,0.8-0.2c0.2-0.1,0.4-0.3,0.3-0.6
			c0-0.2-0.1-0.4-0.3-0.5c-0.2-0.1-0.5-0.2-0.7-0.2l-0.6-0.2c-0.3-0.1-0.6-0.2-0.9-0.3c-0.3-0.2-0.5-0.5-0.5-0.9
			c0-0.4,0.2-0.8,0.5-1.1c0.4-0.3,0.8-0.4,1.3-0.4c0.6-0.1,1.2,0.2,1.6,0.6c0.2,0.2,0.3,0.5,0.3,0.9h-0.7c0-0.2-0.1-0.3-0.2-0.5
			c-0.5-0.4-1.1-0.4-1.7-0.1c-0.2,0.1-0.2,0.3-0.2,0.5c0,0.2,0.1,0.4,0.3,0.5c0.2,0.1,0.3,0.2,0.5,0.2l0.5,0.1
			c0.4,0.1,0.8,0.2,1.2,0.4c0.3,0.2,0.5,0.6,0.5,1c0,0.4-0.2,0.8-0.5,1.1c-0.4,0.3-0.9,0.5-1.5,0.5c-0.5,0.1-1.1-0.1-1.5-0.5
			c-0.3-0.3-0.5-0.7-0.5-1.2L113,224.5z"/>
		<path class="st8" d="M67.9,233.3h2.8c0.6-0.1,1.2,0.2,1.6,0.7c0.2,0.3,0.3,0.6,0.3,0.9c0,0.4-0.1,0.7-0.3,1
			c-0.1,0.2-0.3,0.3-0.5,0.4c0.3,0.1,0.5,0.2,0.7,0.4c0.3,0.3,0.5,0.7,0.4,1.2c0,0.4-0.1,0.8-0.4,1.1c-0.5,0.5-1.2,0.8-1.9,0.8h-2.7
			V233.3z M70.3,236.1c0.3,0,0.6,0,0.9-0.2c0.3-0.2,0.5-0.5,0.5-0.9c0-0.4-0.2-0.7-0.5-0.9c-0.3-0.1-0.6-0.1-0.9-0.1h-1.6v2H70.3z
			 M70.6,239.1c0.4,0,0.9-0.1,1.2-0.5c0.1-0.2,0.2-0.5,0.2-0.7c0-0.4-0.2-0.8-0.6-1c-0.3-0.1-0.6-0.1-0.9-0.1h-1.8v2.3L70.6,239.1z"
			/>
		<path class="st8" d="M76.8,235.2c0.3,0.1,0.5,0.3,0.7,0.6c0.2,0.3,0.3,0.5,0.3,0.8c0.1,0.3,0.1,0.7,0.1,1h-3.4
			c0,0.4,0.1,0.8,0.3,1.2c0.2,0.3,0.6,0.5,1,0.4c0.4,0,0.7-0.1,1-0.4c0.1-0.2,0.2-0.3,0.3-0.5h0.8c0,0.2-0.1,0.4-0.2,0.6
			c-0.1,0.2-0.2,0.4-0.4,0.5c-0.2,0.2-0.5,0.4-0.9,0.5c-0.2,0.1-0.4,0.1-0.6,0.1c-0.6,0-1.1-0.2-1.5-0.6c-0.4-0.5-0.6-1.1-0.6-1.8
			c0-0.7,0.2-1.3,0.6-1.8c0.4-0.5,1-0.7,1.6-0.7C76.2,234.9,76.5,235,76.8,235.2z M77.1,237.1c0-0.3-0.1-0.6-0.2-0.8
			c-0.2-0.4-0.6-0.6-1.1-0.6c-0.3,0-0.7,0.1-0.9,0.4c-0.2,0.3-0.4,0.6-0.4,1H77.1z"/>
		<path class="st8" d="M81.9,235.1h0.9c-0.1,0.3-0.4,1-0.7,2.1c-0.3,0.8-0.5,1.5-0.7,2c-0.3,0.8-0.6,1.5-1,2.2
			c-0.2,0.3-0.6,0.4-1,0.4h-0.2c-0.1,0-0.1,0-0.2,0V241l0.3,0.1h0.2c0.1,0,0.2,0,0.3-0.1c0.1,0,0.1-0.1,0.2-0.2
			c0.1-0.1,0.1-0.2,0.2-0.4c0.1-0.2,0.2-0.4,0.2-0.5l-1.7-4.8h0.9l1.3,3.8L81.9,235.1z"/>
		<path class="st8" d="M83.7,233.8h0.8v1.3h0.8v0.6h-0.8v3.1c0,0.1,0.1,0.3,0.2,0.3c0.1,0,0.2,0,0.3,0h0.3v0.6
			c-0.1,0-0.2,0.1-0.3,0.1h-0.3c-0.3,0-0.6-0.1-0.8-0.3c-0.1-0.2-0.2-0.5-0.2-0.7v-3.1h-0.6V235h0.6L83.7,233.8z"/>
		<path class="st8" d="M86.9,235.1v3.1c0,0.2,0,0.4,0.1,0.6c0.1,0.3,0.5,0.4,0.8,0.4c0.5,0,0.9-0.3,1.1-0.7c0.1-0.3,0.2-0.7,0.1-1.1
			v-2.3h0.8v4.7h-0.7v-0.7c-0.1,0.2-0.2,0.3-0.4,0.5c-0.3,0.3-0.7,0.4-1.1,0.4c-0.5,0.1-1.1-0.2-1.3-0.7c-0.2-0.3-0.2-0.7-0.2-1V235
			L86.9,235.1z"/>
		<path class="st8" d="M91.3,233.3h0.8v6.5h-0.8V233.3z"/>
		<path class="st8" d="M93.4,233.3h0.8v6.5h-0.8L93.4,233.3z"/>
		<path class="st8" d="M98,236.9c0.2,0,0.3-0.1,0.4-0.2c0-0.1,0.1-0.2,0.1-0.3c0-0.2-0.1-0.5-0.3-0.6c-0.3-0.1-0.5-0.2-0.8-0.2
			c-0.3,0-0.7,0.1-0.9,0.3c-0.1,0.2-0.2,0.4-0.2,0.5h-0.7c0-0.5,0.2-0.9,0.6-1.2c0.4-0.2,0.8-0.3,1.3-0.3c0.5,0,0.9,0.1,1.4,0.3
			c0.3,0.2,0.5,0.6,0.5,1v2.7c0,0.1,0,0.1,0.1,0.2c0.1,0.1,0.1,0.1,0.2,0.1h0.1h0.1v0.6l-0.3,0.1h-0.3c-0.2,0-0.5-0.1-0.6-0.3
			c-0.1-0.1-0.1-0.3-0.1-0.4c-0.2,0.2-0.4,0.4-0.7,0.5c-0.3,0.2-0.7,0.2-1,0.2c-0.4,0-0.8-0.1-1.1-0.4c-0.3-0.3-0.4-0.6-0.4-1
			c0-0.4,0.1-0.7,0.4-1c0.3-0.3,0.7-0.4,1.1-0.5L98,236.9z M96.3,239.1c0.2,0.1,0.4,0.2,0.6,0.2c0.3,0,0.6-0.1,0.8-0.2
			c0.4-0.2,0.7-0.6,0.6-1v-0.6c-0.1,0.1-0.2,0.1-0.4,0.2c-0.1,0-0.3,0.1-0.4,0.1l-0.5,0.1c-0.2,0-0.4,0.1-0.6,0.2
			c-0.2,0.1-0.4,0.4-0.4,0.6C96,238.8,96.1,238.9,96.3,239.1L96.3,239.1z"/>
		<path class="st8" d="M100.5,233.3h0.8v2.4c0.1-0.2,0.3-0.4,0.5-0.5c0.3-0.2,0.6-0.3,0.9-0.3c0.6-0.1,1.1,0.2,1.4,0.7
			c0.1,0.3,0.2,0.7,0.2,1.1v3h-0.8v-3c0-0.3,0-0.5-0.1-0.8c-0.2-0.3-0.5-0.4-0.8-0.4c-0.3,0-0.7,0.1-0.9,0.3
			c-0.3,0.4-0.5,0.8-0.4,1.3v2.5h-0.8V233.3z"/>
		<path class="st8" d="M105.6,233.3h0.8v0.9h-0.8V233.3z M105.6,235.1h0.8v4.7h-0.8V235.1z"/>
		<path class="st8" d="M107.7,235.1h0.8v0.7c0.1-0.2,0.3-0.4,0.5-0.5c0.3-0.2,0.6-0.3,0.9-0.3c0.3,0,0.6,0.1,0.9,0.3
			c0.1,0.1,0.3,0.3,0.4,0.5c0.2-0.2,0.4-0.4,0.6-0.6c0.2-0.1,0.5-0.2,0.8-0.2c0.5-0.1,1,0.2,1.3,0.7c0.1,0.3,0.2,0.7,0.2,1v3.1h-0.8
			v-3.3c0-0.2-0.1-0.5-0.2-0.6c-0.2-0.1-0.4-0.2-0.6-0.2c-0.3,0-0.6,0.1-0.8,0.3c-0.3,0.3-0.4,0.7-0.3,1v2.7h-0.8v-3.1
			c0-0.2,0-0.5-0.1-0.7c-0.1-0.2-0.4-0.4-0.7-0.3c-0.3,0-0.6,0.1-0.8,0.4c-0.3,0.4-0.4,0.8-0.4,1.3v2.5h-0.8L107.7,235.1z"/>
		<path d="M69.9,69.4h0.9V72h3.3v-2.7H75v6.4h-0.9v-3h-3.3v3h-0.9L69.9,69.4z"/>
		<path d="M78.9,73c0.2,0,0.3-0.1,0.4-0.2c0-0.1,0.1-0.2,0.1-0.3c0-0.2-0.1-0.5-0.3-0.6c-0.3-0.1-0.5-0.2-0.8-0.2
			c-0.3,0-0.7,0.1-0.9,0.3c-0.1,0.2-0.2,0.4-0.2,0.6h-0.7c0-0.5,0.2-0.9,0.6-1.2c0.4-0.2,0.8-0.4,1.3-0.3c0.5,0,0.9,0.1,1.4,0.3
			c0.3,0.2,0.5,0.6,0.5,1V75c0,0.1,0,0.1,0.1,0.2c0.1,0.1,0.1,0.1,0.2,0.1h0.1h0.1v0.6L80.3,76h-0.3c-0.2,0-0.5-0.1-0.6-0.3
			c-0.1-0.1-0.1-0.3-0.1-0.4c-0.2,0.2-0.4,0.4-0.7,0.6c-0.3,0.2-0.7,0.2-1,0.2c-0.4,0-0.8-0.1-1.1-0.4c-0.3-0.3-0.4-0.6-0.4-1
			c0-0.4,0.1-0.7,0.4-1c0.3-0.2,0.7-0.4,1.1-0.4L78.9,73z M77.2,75.1c0.2,0.1,0.4,0.2,0.6,0.2c0.3,0,0.6-0.1,0.8-0.2
			c0.4-0.2,0.7-0.6,0.7-1v-0.6c-0.1,0.1-0.2,0.1-0.4,0.1c-0.1,0-0.3,0.1-0.4,0.1L78,73.8c-0.2,0-0.4,0.1-0.6,0.2
			c-0.2,0.1-0.4,0.4-0.4,0.7C77,74.8,77.1,75,77.2,75.1z"/>
		<path d="M84.4,71.1h0.9c-0.1,0.3-0.4,1-0.8,2.1c-0.3,0.8-0.5,1.5-0.7,2c-0.3,0.8-0.6,1.5-1,2.2c-0.2,0.3-0.6,0.4-1,0.4h-0.3
			l-0.2-0.1V77l0.3,0.1h0.2c0.1,0,0.2,0,0.3-0.1c0.1,0,0.1-0.1,0.2-0.2l0.2-0.4c0.1-0.2,0.1-0.4,0.2-0.5l-1.7-4.8h0.9l1.3,3.8
			L84.4,71.1z"/>
		<path d="M86.4,69.7c0.3-0.3,0.7-0.5,1.1-0.4h0.3V70h-0.3c-0.3,0-0.4,0.1-0.4,0.2c-0.1,0.3-0.1,0.7-0.1,1h0.8v0.6H87v4.1h-0.8v-4.1
			h-0.7v-0.6h0.7v-0.7C86.3,70.2,86.3,69.9,86.4,69.7z"/>
		<path d="M91.1,73c0.2,0,0.3-0.1,0.4-0.2c0-0.1,0.1-0.2,0.1-0.3c0-0.2-0.1-0.5-0.3-0.6c-0.3-0.1-0.5-0.2-0.8-0.2
			c-0.3,0-0.7,0.1-0.9,0.3c-0.1,0.2-0.2,0.4-0.2,0.6h-0.7c0-0.5,0.2-0.9,0.6-1.2c0.4-0.2,0.8-0.4,1.3-0.3c0.5,0,0.9,0.1,1.3,0.3
			c0.4,0.2,0.6,0.6,0.5,1V75c0,0.1,0,0.1,0.1,0.2c0.1,0.1,0.1,0.1,0.2,0.1h0.1h0.1v0.6L92.6,76h-0.3c-0.2,0-0.5-0.1-0.6-0.3
			c-0.1-0.1-0.1-0.3-0.1-0.4c-0.2,0.2-0.4,0.4-0.7,0.6c-0.3,0.2-0.7,0.2-1,0.2c-0.4,0-0.8-0.1-1.1-0.4c-0.5-0.6-0.5-1.4,0-2
			c0.3-0.2,0.7-0.4,1.1-0.4L91.1,73z M89.5,75.1c0.2,0.1,0.4,0.2,0.6,0.2c0.3,0,0.6-0.1,0.8-0.2c0.4-0.2,0.7-0.6,0.7-1v-0.6
			c-0.1,0.1-0.2,0.1-0.4,0.1c-0.1,0-0.3,0.1-0.4,0.1l-0.5,0.1c-0.2,0-0.4,0.1-0.6,0.2c-0.2,0.1-0.4,0.4-0.4,0.7
			C89.2,74.8,89.3,75,89.5,75.1L89.5,75.1z"/>
		<path d="M156.9,486.8h0.9v6.5h-0.9V486.8z M156.9,485.3h0.8v0.9h-0.8V485.3z"/>
		<path d="M159.7,491.8c0,0.2,0.1,0.4,0.2,0.6c0.3,0.3,0.7,0.4,1.1,0.4c0.3,0,0.5-0.1,0.8-0.2c0.2-0.1,0.4-0.3,0.4-0.6
			c0-0.2-0.1-0.4-0.3-0.5c-0.2-0.1-0.4-0.2-0.7-0.2l-0.6-0.2c-0.3-0.1-0.6-0.2-0.9-0.3c-0.3-0.2-0.5-0.5-0.5-0.9
			c0-0.4,0.2-0.8,0.5-1.1c0.4-0.3,0.8-0.4,1.3-0.4c0.6-0.1,1.2,0.2,1.6,0.6c0.2,0.2,0.3,0.5,0.3,0.9h-0.8c0-0.2-0.1-0.3-0.2-0.5
			c-0.3-0.2-0.6-0.4-1-0.3c-0.2,0-0.5,0-0.7,0.2c-0.2,0.2-0.3,0.5-0.2,0.7c0.1,0.1,0.1,0.1,0.2,0.2c0.2,0.1,0.3,0.2,0.5,0.2l0.5,0.1
			c0.4,0.1,0.8,0.2,1.2,0.4c0.3,0.2,0.5,0.6,0.5,1c0,0.4-0.2,0.8-0.5,1.1c-0.4,0.3-0.9,0.5-1.5,0.5c-0.5,0.1-1.1-0.1-1.5-0.5
			c-0.3-0.3-0.5-0.7-0.5-1.2L159.7,491.8z"/>
		<path d="M163.8,488.6h0.8v0.8c0.1-0.2,0.3-0.4,0.4-0.6c0.2-0.2,0.5-0.3,0.8-0.3h0.1h0.2v0.8H166h-0.1c-0.4,0-0.7,0.1-0.9,0.4
			c-0.2,0.2-0.3,0.6-0.3,0.9v2.7h-0.8L163.8,488.6z"/>
		<path d="M169.4,490.4c0.2,0,0.3-0.1,0.4-0.2c0-0.1,0-0.2,0-0.3c0-0.2-0.1-0.5-0.3-0.6c-0.3-0.1-0.5-0.2-0.8-0.2
			c-0.3,0-0.7,0.1-0.9,0.3c-0.1,0.2-0.2,0.4-0.2,0.5h-0.7c0-0.5,0.2-0.9,0.6-1.2c0.4-0.2,0.8-0.4,1.3-0.3c0.5,0,0.9,0.1,1.4,0.3
			c0.3,0.2,0.5,0.6,0.5,1v2.7c0,0.1,0,0.1,0.1,0.2c0,0,0.1,0.1,0.2,0.1h0.1h0.1v0.6c-0.1,0-0.2,0.1-0.3,0.1h-0.3
			c-0.2,0-0.5-0.1-0.6-0.3c-0.1-0.1-0.1-0.3-0.1-0.4c-0.2,0.2-0.4,0.4-0.7,0.5c-0.3,0.2-0.7,0.2-1,0.2c-0.4,0-0.8-0.1-1.1-0.4
			c-0.5-0.6-0.5-1.4,0-2c0.3-0.2,0.7-0.4,1.1-0.4L169.4,490.4z M167.7,492.6c0.2,0.1,0.4,0.2,0.6,0.2c0.3,0,0.6-0.1,0.8-0.2
			c0.4-0.2,0.7-0.6,0.7-1v-0.6c-0.1,0.1-0.2,0.1-0.4,0.2l-0.4,0.1l-0.5,0.1c-0.2,0-0.4,0.1-0.6,0.2c-0.2,0.1-0.4,0.4-0.4,0.7
			C167.5,492.2,167.6,492.4,167.7,492.6z"/>
		<path d="M172,486.8h0.8v0.9H172V486.8z M172,488.6h0.8v4.7H172V488.6z"/>
		<path d="M174.1,486.8h0.8v6.5h-0.8V486.8z"/>
		<path class="st7" d="M154.1,490.1c0,3.5-2.8,6.3-6.3,6.3c-3.5,0-6.3-2.8-6.3-6.3c0-3.5,2.8-6.3,6.3-6.3c0,0,0,0,0,0
			C151.3,483.8,154.1,486.6,154.1,490.1C154.1,490.1,154.1,490.1,154.1,490.1z"/>
		<path d="M156.9,469.5h4.5v0.8h-3.6v2h3.2v0.8h-3.2v2.9h-0.9L156.9,469.5z"/>
		<path d="M162.3,469.5h0.9v0.9h-0.8L162.3,469.5z M162.3,471.3h0.9v4.7h-0.8L162.3,471.3z"/>
		<path d="M164.4,469.5h0.8v6.5h-0.8V469.5z"/>
		<path d="M166.5,469.5h0.8v0.9h-0.8V469.5z M166.5,471.3h0.8v4.7h-0.8V471.3z"/>
		<path d="M169,474.5c0,0.2,0.1,0.4,0.2,0.6c0.3,0.3,0.7,0.4,1.1,0.4c0.3,0,0.5-0.1,0.8-0.2c0.2-0.1,0.4-0.3,0.3-0.6
			c0-0.2-0.1-0.4-0.3-0.5c-0.2-0.1-0.5-0.2-0.7-0.2l-0.6-0.2c-0.3-0.1-0.6-0.2-0.9-0.3c-0.3-0.2-0.5-0.5-0.5-0.9
			c0-0.4,0.2-0.8,0.5-1.1c0.4-0.3,0.8-0.4,1.3-0.4c0.6-0.1,1.2,0.2,1.6,0.6c0.2,0.2,0.3,0.5,0.3,0.9h-0.8c0-0.2-0.1-0.3-0.2-0.5
			c-0.3-0.2-0.6-0.4-1-0.3c-0.2,0-0.5,0-0.7,0.2c-0.1,0.1-0.2,0.3-0.2,0.5c0,0.2,0.1,0.4,0.3,0.5c0.2,0.1,0.3,0.2,0.5,0.2l0.5,0.1
			c0.4,0.1,0.8,0.2,1.2,0.4c0.3,0.2,0.5,0.6,0.5,1c0,0.4-0.2,0.8-0.5,1.1c-0.4,0.3-0.9,0.5-1.5,0.5c-0.5,0.1-1.1-0.1-1.5-0.5
			c-0.3-0.3-0.5-0.7-0.5-1.2L169,474.5z"/>
		<path d="M173.3,469.9h0.8v1.3h0.8v0.7h-0.7v3.1c0,0.1,0.1,0.3,0.2,0.3c0.1,0,0.2,0.1,0.3,0h0.3v0.6l-0.3,0.1h-0.3
			c-0.3,0-0.6-0.1-0.8-0.3c-0.1-0.2-0.2-0.5-0.2-0.7v-3.1h-0.6v-0.7h0.6L173.3,469.9z"/>
		<path d="M175.7,469.5h0.8v0.9h-0.8V469.5z M175.7,471.3h0.8v4.7h-0.8V471.3z"/>
		<path d="M177.8,471.2h0.8v0.7c0.2-0.2,0.4-0.4,0.7-0.6c0.3-0.1,0.5-0.2,0.8-0.2c0.5-0.1,1.1,0.2,1.4,0.7c0.1,0.3,0.2,0.7,0.2,1.1
			v3h-0.8v-3c0-0.2,0-0.5-0.1-0.7c-0.1-0.3-0.4-0.5-0.8-0.4c-0.2,0-0.3,0-0.5,0.1c-0.2,0.1-0.4,0.2-0.6,0.4
			c-0.1,0.1-0.2,0.3-0.3,0.5c0,0.2-0.1,0.5-0.1,0.7v2.5h-0.8L177.8,471.2z"/>
		<path class="st4" d="M154.2,472.8c0,3.5-2.8,6.3-6.3,6.3s-6.3-2.8-6.3-6.3c0-3.5,2.8-6.3,6.3-6.3S154.2,469.3,154.2,472.8
			L154.2,472.8z"/>
		<rect x="-0.4" y="0.4" class="st0" width="55" height="28"/>
		<path d="M55,28.7H-0.8V0H55V28.7z M0,28h54.3V0.8H0V28z"/>
		<path d="M13,13.6v-0.7c0.5,0,1-0.1,1.5-0.3c0.3-0.3,0.6-0.7,0.6-1.1h0.8v7.7h-1v-5.5H13z"/>
		<path d="M19.6,17.2c0,0.5,0.2,0.9,0.6,1.1c0.2,0.1,0.4,0.2,0.7,0.2c0.5,0,0.9-0.2,1.2-0.6c0.4-0.7,0.7-1.5,0.7-2.3
			c-0.2,0.3-0.5,0.6-0.8,0.7c-0.3,0.1-0.7,0.2-1,0.2c-0.7,0-1.3-0.2-1.8-0.7c-0.4-0.5-0.7-1.1-0.7-1.8c0-0.7,0.2-1.3,0.6-1.8
			c0.5-0.5,1.2-0.8,1.9-0.8c1-0.1,2,0.5,2.3,1.5c0.3,0.7,0.4,1.4,0.4,2.1c0,0.9-0.1,1.7-0.4,2.5c-0.3,1.1-1.3,1.8-2.4,1.8
			c-0.6,0-1.2-0.2-1.7-0.6c-0.4-0.4-0.6-0.9-0.6-1.5L19.6,17.2z M22.1,15.2c0.3-0.3,0.5-0.8,0.5-1.3c0-0.5-0.1-0.9-0.4-1.2
			c-0.3-0.3-0.7-0.4-1.1-0.4c-0.4,0-0.8,0.2-1.1,0.5c-0.3,0.4-0.4,0.8-0.4,1.3c0,0.4,0.1,0.8,0.4,1.2c0.3,0.3,0.7,0.5,1.2,0.4
			C21.4,15.7,21.8,15.5,22.1,15.2L22.1,15.2z"/>
		<path d="M29.4,12c0.3,0.4,0.5,0.9,0.5,1.4h-1c0-0.3-0.1-0.5-0.3-0.7c-0.2-0.3-0.6-0.5-1.1-0.5c-0.5,0-1,0.3-1.3,0.8
			c-0.4,0.7-0.5,1.4-0.5,2.2c0.2-0.3,0.5-0.6,0.8-0.7c0.3-0.1,0.7-0.2,1-0.2c0.6,0,1.2,0.2,1.7,0.6c0.5,0.5,0.8,1.2,0.7,1.8
			c0,0.7-0.2,1.3-0.6,1.9c-0.5,0.6-1.2,0.9-1.9,0.8c-0.7,0-1.4-0.3-1.9-0.8c-0.6-0.8-0.9-1.8-0.8-2.8c0-0.8,0.1-1.7,0.4-2.4
			c0.3-1.1,1.3-1.9,2.4-1.9C28.3,11.3,28.9,11.5,29.4,12z M28.7,17.9c0.3-0.4,0.4-0.8,0.4-1.2c0-0.4-0.1-0.8-0.3-1.1
			c-0.3-0.4-0.8-0.6-1.2-0.5c-0.4,0-0.8,0.1-1.1,0.4c-0.3,0.3-0.5,0.8-0.5,1.2c0,0.4,0.1,0.9,0.4,1.2c0.3,0.3,0.7,0.5,1.2,0.5
			C28,18.5,28.4,18.3,28.7,17.9z"/>
		<path d="M36.3,11.5v0.8c-0.4,0.4-0.7,0.8-1,1.3c-0.4,0.6-0.8,1.3-1.1,1.9c-0.3,0.6-0.5,1.2-0.7,1.8c-0.1,0.3-0.2,0.9-0.4,1.7h-1
			c0.3-1.5,0.8-3,1.6-4.4c0.4-0.8,0.9-1.5,1.5-2.2H31v-1L36.3,11.5z"/>
		<rect x="125.9" y="536.1" class="st4" width="9.6" height="15.2"/>
		<polygon class="st7" points="108.9,536.1 89.4,536.1 68.5,536.1 61.9,536.1 26.4,536.1 26.4,551.3 61.9,551.3 68.5,551.3 
			89.4,551.3 108.9,551.3 124.5,551.3 124.5,536.1 		"/>
		<rect x="26.4" y="597.7" class="st7" width="98" height="15.2"/>
		<path d="M86.4,560.1v-0.3c1-0.9,2.3-1.5,2.3-2.5c0.1-0.4-0.2-0.8-0.6-0.8c-0.1,0-0.1,0-0.2,0c-0.4,0-0.9,0.1-0.9,0.9h-0.5
			c0-0.7,0.5-1.3,1.2-1.3c0.1,0,0.1,0,0.2,0c0.6-0.1,1.2,0.4,1.3,1c0,0.1,0,0.1,0,0.2c0,1-1.3,1.8-1.9,2.4h2v0.4L86.4,560.1z"/>
		<path d="M90.1,560.1v-0.8h0.5v0.8H90.1z"/>
		<path d="M92.3,558.2v-0.4h0.4c0.6,0,1-0.2,1-0.8s-0.3-0.7-0.8-0.7c-0.4-0.1-0.8,0.2-0.9,0.7c0,0.1,0,0.1,0,0.2h-0.5
			c0-0.7,0.6-1.2,1.3-1.2c0,0,0.1,0,0.1,0c0.8,0,1.3,0.4,1.3,1c0,0.5-0.3,0.9-0.8,0.9c0.5,0,0.9,0.5,0.9,1c0,0.7-0.6,1.2-1.4,1.2
			c-0.6,0-1.4-0.3-1.4-1.2H92c0,0.6,0.4,0.8,0.9,0.8s0.9-0.3,0.9-0.8s-0.5-0.8-1.1-0.8L92.3,558.2z"/>
		<path d="M98.1,559c0,0.6-0.6,1.1-1.4,1.1s-1.4-0.5-1.4-1.1c0-0.5,0.3-1,0.9-1.1c-0.4-0.1-0.8-0.5-0.7-0.9c0-0.6,0.5-1,1.3-1
			s1.3,0.5,1.3,1c0,0.4-0.3,0.8-0.7,0.9C97.8,558.1,98.2,558.5,98.1,559z M96.7,558.2c-0.6,0-1,0.3-1,0.8s0.4,0.8,1,0.8
			c0.5,0.1,0.9-0.3,0.9-0.7c0,0,0,0,0-0.1c0-0.5-0.4-0.8-0.8-0.8C96.8,558.2,96.7,558.2,96.7,558.2z M96.7,556.4
			c-0.6,0-0.8,0.3-0.8,0.7c0,0.4,0.4,0.7,0.8,0.7c0,0,0.1,0,0.1,0c0.4,0.1,0.8-0.2,0.8-0.6c0,0,0-0.1,0-0.1
			C97.5,556.7,97.2,556.4,96.7,556.4z"/>
		<path d="M99,558.1c0-1.3,0.6-2.1,1.6-2.1s1.6,0.8,1.6,2.1s-0.6,2.1-1.6,2.1S99,559.4,99,558.1z M101.8,558.1c0-1-0.4-1.6-1.1-1.6
			s-1.1,0.6-1.1,1.6s0.4,1.6,1.1,1.6S101.8,559.1,101.8,558.1z"/>
		<path d="M103.2,560.1v-0.8h0.5v0.8H103.2z"/>
		<path d="M104.6,558.1c0-1.3,0.6-2.1,1.6-2.1s1.6,0.8,1.6,2.1s-0.6,2.1-1.6,2.1S104.6,559.4,104.6,558.1z M107.4,558.1
			c0-1-0.4-1.6-1.1-1.6s-1.1,0.6-1.1,1.6s0.4,1.6,1.1,1.6S107.4,559.1,107.4,558.1z"/>
		<path d="M108.8,558.1c0-1.3,0.6-2.1,1.6-2.1s1.6,0.8,1.6,2.1s-0.6,2.1-1.6,2.1S108.8,559.4,108.8,558.1z M111.6,558.1
			c0-1-0.4-1.6-1.1-1.6s-1.1,0.6-1.1,1.6s0.4,1.6,1.1,1.6S111.6,559.1,111.6,558.1z"/>
		<path d="M113,558.1c0-1.3,0.6-2.1,1.6-2.1s1.6,0.8,1.6,2.1s-0.6,2.1-1.6,2.1S113,559.4,113,558.1z M115.8,558.1
			c0-1-0.4-1.6-1.1-1.6s-1.1,0.6-1.1,1.6s0.4,1.6,1.1,1.6S115.8,559.1,115.8,558.1z"/>
		<path d="M128.7,560.1v-0.3c1-0.9,2.3-1.5,2.3-2.5c0.1-0.4-0.2-0.8-0.6-0.8c-0.1,0-0.1,0-0.2,0c-0.4,0-0.9,0.1-0.9,0.9h-0.5
			c0-0.7,0.5-1.3,1.2-1.3c0.1,0,0.1,0,0.2,0c0.6-0.1,1.2,0.4,1.3,1c0,0.1,0,0.1,0,0.2c0,1-1.3,1.8-1.9,2.4h2v0.4L128.7,560.1z"/>
		<path d="M135.4,559c0,0.6-0.6,1.1-1.4,1.1s-1.4-0.5-1.4-1.1c0-0.5,0.3-1,0.9-1.1c-0.4-0.1-0.8-0.5-0.7-0.9c0-0.6,0.5-1,1.3-1
			s1.3,0.5,1.3,1c0,0.4-0.3,0.8-0.7,0.9C135,558.1,135.4,558.5,135.4,559z M133.9,558.2c-0.6,0-0.9,0.3-0.9,0.8s0.4,0.8,0.9,0.8
			c0.5,0.1,0.9-0.3,0.9-0.7c0,0,0,0,0-0.1c0-0.5-0.4-0.8-0.8-0.8C134,558.2,134,558.2,133.9,558.2z M133.9,556.4
			c-0.6,0-0.9,0.3-0.9,0.7s0.3,0.7,0.9,0.7c0.4,0.1,0.8-0.2,0.8-0.6c0,0,0-0.1,0-0.1C134.8,556.7,134.5,556.4,133.9,556.4z"/>
		<path d="M136.3,558.1c0-1.3,0.6-2.1,1.6-2.1s1.6,0.8,1.6,2.1s-0.6,2.1-1.6,2.1S136.3,559.4,136.3,558.1z M139.1,558.1
			c0-1-0.4-1.6-1.1-1.6s-1.1,0.6-1.1,1.6s0.4,1.6,1.1,1.6S139.1,559.1,139.1,558.1z"/>
		<path d="M140.4,560.1v-0.8h0.5v0.8H140.4z"/>
		<path d="M141.8,558.1c0-1.3,0.6-2.1,1.6-2.1s1.6,0.8,1.6,2.1s-0.6,2.1-1.6,2.1S141.8,559.4,141.8,558.1z M144.6,558.1
			c0-1-0.4-1.6-1.1-1.6s-1.1,0.6-1.1,1.6s0.4,1.6,1.1,1.6S144.6,559.1,144.6,558.1z"/>
		<path d="M146,558.1c0-1.3,0.6-2.1,1.6-2.1s1.6,0.8,1.6,2.1s-0.6,2.1-1.6,2.1S146,559.4,146,558.1z M148.8,558.1
			c0-1-0.4-1.6-1.1-1.6s-1.1,0.6-1.1,1.6s0.4,1.6,1.1,1.6S148.8,559.1,148.8,558.1z"/>
		<path d="M150.3,558.1c0-1.3,0.6-2.1,1.6-2.1s1.6,0.8,1.6,2.1s-0.6,2.1-1.6,2.1S150.3,559.4,150.3,558.1z M153.1,558.1
			c0-1-0.4-1.6-1.1-1.6s-1.1,0.6-1.1,1.6s0.4,1.6,1.1,1.6S153.1,559.1,153.1,558.1z"/>
		<path d="M105.5,618.7c0-0.5,0.5-0.9,1-0.9c0.5,0,0.9,0.5,0.9,1c0,0.5-0.4,0.9-0.9,0.9c-0.5,0-0.9-0.3-0.9-0.8
			C105.5,618.8,105.5,618.7,105.5,618.7z M106.9,618.7c0-0.4-0.2-0.7-0.5-0.7s-0.5,0.2-0.5,0.7s0.2,0.6,0.5,0.6
			S106.9,619.1,106.9,618.7z M106.5,621.7l2.4-4.2h0.4l-2.4,4.2H106.5z M108.2,620.7c0-0.5,0.5-0.9,1-0.9c0.5,0,0.9,0.5,0.9,1
			c0,0.5-0.4,0.9-0.9,0.9c-0.5,0-0.9-0.3-0.9-0.8C108.2,620.9,108.2,620.8,108.2,620.7L108.2,620.7z M109.7,620.7
			c0-0.4-0.2-0.7-0.5-0.7s-0.5,0.2-0.5,0.7s0.2,0.6,0.5,0.6S109.7,621.2,109.7,620.7L109.7,620.7z"/>
		<path d="M112.1,621.7v-3.5l-1.1,0.5v-0.5l1.1-0.5h0.5v4H112.1z"/>
		<path d="M114.3,619.7c0-1.3,0.6-2.1,1.6-2.1s1.6,0.8,1.6,2.1s-0.6,2.1-1.6,2.1S114.3,621,114.3,619.7z M117.1,619.7
			c0-1-0.4-1.6-1.1-1.6s-1.1,0.6-1.1,1.6s0.4,1.6,1.1,1.6S117.1,620.7,117.1,619.7z"/>
		<path d="M118.5,619.7c0-1.3,0.6-2.1,1.6-2.1s1.6,0.8,1.6,2.1s-0.7,2.1-1.7,2.1S118.5,621,118.5,619.7z M121.3,619.7
			c0-1-0.4-1.6-1.1-1.6s-1.1,0.6-1.1,1.6s0.4,1.6,1.1,1.6S121.3,620.7,121.3,619.7L121.3,619.7z"/>
		<path d="M128.6,618.7c0-0.5,0.5-0.9,1-0.9c0.5,0,0.9,0.5,0.9,1c0,0.5-0.4,0.9-0.9,0.9c-0.5,0-0.9-0.3-0.9-0.8
			C128.6,618.8,128.6,618.7,128.6,618.7z M130.1,618.7c0-0.4-0.2-0.7-0.5-0.7s-0.5,0.2-0.5,0.7s0.2,0.6,0.5,0.6
			S130.1,619.1,130.1,618.7L130.1,618.7z M129.6,621.7l2.3-4.2h0.4l-2.4,4.2H129.6z M131.4,620.7c0-0.5,0.5-0.9,1-0.9
			c0.5,0,0.9,0.5,0.9,1c0,0.5-0.4,0.9-0.9,0.9c-0.5,0-0.9-0.3-0.9-0.8C131.4,620.9,131.4,620.8,131.4,620.7L131.4,620.7z
			 M132.8,620.7c0-0.4-0.2-0.7-0.5-0.7s-0.5,0.2-0.5,0.7s0.2,0.6,0.5,0.6S132.8,621.2,132.8,620.7L132.8,620.7z"/>
		<path d="M134.1,619.7c0-1.3,0.6-2.1,1.6-2.1s1.6,0.8,1.6,2.1s-0.6,2.1-1.6,2.1S134.1,621,134.1,619.7z M136.9,619.7
			c0-1-0.4-1.6-1.1-1.6s-1.1,0.6-1.1,1.6s0.4,1.6,1.1,1.6S136.9,620.7,136.9,619.7L136.9,619.7z"/>
		<rect x="124.5" y="532" class="st0" width="1.4" height="35.1"/>
		<rect x="115" y="530.6" class="st0" width="20.3" height="1.4"/>
		<path d="M118.1,527.5l-2.1-3.2v3.2h-0.5v-4h0.6l2.2,3.3v-3.3h0.5v4H118.1z"/>
		<path d="M122.6,523.5h0.5v2.6c-0.1,0.9-0.8,1.5-1.7,1.4c-0.8-0.1-1.4-0.7-1.4-1.4v-2.6h0.5v2.6c0,0.6,0.5,1.1,1.1,1.1
			c0.6,0,1.1-0.5,1.1-1.1c0,0,0,0,0,0V523.5z M120.7,523.1v-0.6h0.5v0.6H120.7z M121.8,523.1v-0.6h0.5v0.6H121.8z"/>
		<path d="M124.3,527.5v-4h2.3v0.4h-1.8v1.4h1.6v0.4h-1.6v1.8H124.3z"/>
		<path d="M130.1,523.5h0.5v2.6c0,0.9-0.7,1.5-1.6,1.5s-1.6-0.7-1.6-1.5v-2.6h0.5v2.6c0,0.6,0.4,1,0.9,1.1c0,0,0.1,0,0.1,0
			c0.6,0,1-0.4,1.1-0.9c0-0.1,0-0.1,0-0.2V523.5z"/>
		<path d="M134.1,524.6c-0.1-0.7-0.6-0.8-1-0.8s-0.9,0.2-0.9,0.6c0,1.1,2.4,0.4,2.4,2c0,0.7-0.5,1.1-1.5,1.1
			c-0.7,0.1-1.4-0.4-1.5-1.2c0,0,0,0,0-0.1h0.5c0,0.6,0.5,0.8,1.1,0.8s1-0.2,1-0.7c0-1.1-2.4-0.4-2.4-2c0-0.8,0.7-1.1,1.4-1.1
			c0.7-0.1,1.3,0.4,1.4,1.1c0,0,0,0.1,0,0.1L134.1,524.6z"/>
		<rect x="124.5" y="593.1" class="st0" width="1.4" height="33.2"/>
		<rect x="113.3" y="591.7" class="st0" width="24.3" height="1.4"/>
		<path d="M114.4,589.4v-3.6h-1.3v-0.4h3.1v0.4h-1.3v3.6H114.4z"/>
		<path d="M116.6,587.4c0.1-1,1-1.8,2.1-1.7c1,0.1,1.8,1,1.7,2.1c-0.1,1-0.9,1.7-1.9,1.7c-1,0-1.8-0.8-1.9-1.8
			C116.6,587.6,116.6,587.5,116.6,587.4z M119.8,587.4c0-1-0.5-1.6-1.4-1.6s-1.3,0.6-1.3,1.6s0.5,1.6,1.3,1.6
			S119.8,588.4,119.8,587.4z"/>
		<path d="M121.4,589.4v-4h1.4c0.9,0,1.4,0.4,1.4,1.2c0,0.7-0.6,1.3-1.3,1.3c0,0-0.1,0-0.1,0h-0.9v1.5H121.4z M122.8,587.4
			c0.4,0.1,0.9-0.2,0.9-0.7c0,0,0-0.1,0-0.1c0-0.6-0.4-0.8-1-0.8h-0.8v1.7L122.8,587.4z"/>
		<path d="M127.6,589.4l-0.9-1.7h-0.9v1.7h-0.5v-4h1.3c0.9,0,1.4,0.4,1.4,1.1c0,0.5-0.3,1-0.8,1.1l0.9,1.8H127.6z M126.6,587.3
			c0.5,0,0.9-0.3,0.9-0.8s-0.3-0.7-0.9-0.7h-0.8v1.5L126.6,587.3z"/>
		<path d="M131.9,589.4l-0.4-1.2h-1.8l-0.4,1.2h-0.5l1.6-4h0.6l1.6,4H131.9z M130.6,585.9l-0.7,2h1.5L130.6,585.9z"/>
		<path d="M135.8,589.4l-1.5-1.9l-0.4,0.4v1.4h-0.5v-4h0.5v1.9l1.8-1.9h0.6l-1.6,1.8l1.8,2.2L135.8,589.4z"/>
		<g>
			<path class="st9" d="M11.5,617.3c3.8,0,6.8,3,6.8,6.8c0,3.8-3,6.8-6.8,6.8c-3.8,0-6.8-3-6.8-6.8l0,0
				C4.7,620.3,7.8,617.3,11.5,617.3z"/>
			<path class="st10" d="M11.5,624.8c3.8,0,6.8,3,6.8,6.8c0,3.8-3,6.8-6.8,6.8c-3.8,0-6.8-3-6.8-6.8l0,0
				C4.7,627.8,7.8,624.8,11.5,624.8z"/>
			<path class="st11" d="M11.5,632.8c3.8,0,6.8,3,6.8,6.8c0,3.8-3,6.8-6.8,6.8c-3.8,0-6.8-3-6.8-6.8l0,0
				C4.7,635.9,7.8,632.8,11.5,632.8z"/>
			<path class="st0" d="M7.8,636.7h0.8l0.2,0.9c0.3-0.2,0.6-0.3,0.9-0.3c0.6,0,1.1,0.2,1.5,0.7c0.4,0.5,0.6,1.2,0.5,1.8v0.3v0.2
				c0.1,0.1,0.3,0.2,0.4,0.2c0.2,0,0.3-0.3,0.3-0.9v-1c0-0.5,0.1-1,0.4-1.5c0.3-0.4,0.8-0.5,1.2-0.5c0.6,0,1.3,0.3,1.6,0.9
				c0.4,0.7,0.6,1.6,0.6,2.5c0,0.7-0.1,1.3-0.4,1.9c-0.3,0.4-0.7,0.7-1.2,0.7c-0.3,0-0.6-0.1-0.9-0.3c-0.3-0.3-0.4-0.6-0.5-1
				c-0.1,0.2-0.2,0.3-0.3,0.4c-0.3,0.2-0.7,0.2-1.1,0c-0.2-0.2-0.3-0.4-0.4-0.6c-0.1,0.3-0.4,0.6-0.6,0.7c-0.3,0.2-0.6,0.3-1,0.3
				c-0.6,0-1.1-0.2-1.5-0.6c-0.4-0.5-0.6-1.1-0.5-1.8c0-0.2,0-0.4,0-0.6c0-0.2,0.1-0.4,0.1-0.4L7.8,636.7z M14.5,641.2
				c0.2,0,0.4-0.1,0.5-0.3c0.1-0.3,0.2-0.6,0.2-0.9c0-0.5-0.1-0.9-0.2-1.3c-0.1-0.3-0.4-0.5-0.7-0.5c-0.2,0-0.4,0.1-0.4,0.3
				c-0.1,0.3-0.1,0.6-0.1,0.9v0.8c0,0.3,0.1,0.5,0.2,0.7C14,641.1,14.2,641.2,14.5,641.2z M9.7,640.6c0.3,0,0.5-0.1,0.8-0.2
				c0.2-0.2,0.3-0.4,0.3-0.7c0-0.3-0.1-0.5-0.3-0.7c-0.2-0.2-0.5-0.2-0.8-0.2c-0.7,0-1.1,0.3-1.1,0.9S9,640.6,9.7,640.6z"/>
			<path class="st0" d="M14.1,629.3v4.6h-0.9l-3.7-2.7v2.5H8.3v-4.4h1l3.6,2.6v-2.7L14.1,629.3z"/>
			<path class="st0" d="M13.2,623.1c0-0.3-0.1-0.7-0.2-1h1.2c0.2,0.5,0.3,1,0.3,1.5c0,0.5-0.1,1-0.5,1.4c-0.4,0.3-0.9,0.5-1.5,0.4
				H9.8v0.8H9.1l-0.5-0.9l-1.2-0.5v-1h1.3v-1.6h1.2v1.6h2.8c0.2,0,0.4-0.1,0.5-0.2C13.2,623.5,13.3,623.3,13.2,623.1z"/>
		</g>
		<g>
			<path class="st12" d="M7.9,594.8c0.1,2.3,1.9,4.1,4.2,4c0,0,0,0,0,0c2.1,0.1,3.9-1.6,3.9-3.7c0,0,0-0.1,0-0.1
				c0-1.7-1.2-3.2-2.9-3.5v0.2c0.8,0.4,1.3,1.2,1.3,2.1c0,1.3-1,2.3-3,2.4v-4.7c-1.8-0.1-3.4,1.3-3.5,3.1
				C7.9,594.6,7.9,594.7,7.9,594.8z M11,593.8v2.2c-1.8,0-2.8-0.7-2.8-1.3S9,593.8,11,593.8z"/>
			<path class="st12" d="M14.4,585.5c0,1.5-1.2,2.4-3.4,2.4c-1.8,0-2.8-0.6-2.8-1.2s1.1-0.8,1.7-1c0.5-0.1,0.8-0.6,0.8-1.1
				c0.1-0.5-0.3-1-0.9-1.1c0,0-0.1,0-0.1,0c-0.8,0-1.7,0.9-1.7,2.8c-0.1,2.3,1.8,4.2,4,4.2c0.1,0,0.1,0,0.2,0
				c2.1,0.1,3.8-1.5,3.9-3.6c0-0.1,0-0.1,0-0.2c0-1.7-1.2-3.2-2.9-3.5l-0.1,0.2C13.9,583.8,14.4,584.6,14.4,585.5z"/>
			<path class="st12" d="M7.7,576.6c0.2,1.1,1,2.1,2.1,2.3H8v0.1l1,3.7h0.2c0-0.5,0.2-1.1,1.2-1.1h5.8v-0.1l-1-3.7H15
				c0,0.5-0.3,0.9-0.8,1h-3.7c-0.7-0.2-1.1-0.4-1.1-0.8s0.7-0.8,0.7-1.5c-0.1-0.7-0.6-1.2-1.3-1.1C8.2,575.4,7.8,575.9,7.7,576.6
				L7.7,576.6z"/>
			<path class="st12" d="M13.8,568.2h-3.3c-1.6,0-2.6,1.1-2.6,3.4s0.8,3.2,1.8,3.2c0.6,0,1-0.4,1.1-0.9c0,0,0-0.1,0-0.1
				c0-0.6-0.4-1.1-1-1.2c-0.8-0.3-1.6-0.1-1.6-0.8c0-0.5,0.4-0.7,1.5-0.7h1.5c0.9,3.4,1.9,4.3,3.1,4.3c1,0,1.8-0.8,1.8-1.8
				c0-0.1,0-0.1,0-0.2c0-0.9-0.4-1.7-1-2.4h1.1l0.1-0.1l-1-3.7H15C15,567.6,14.8,568.2,13.8,568.2z M14.9,571.7c0,0.5-0.4,1-1.3,1
				c-1,0-2-0.7-2.2-1.8H14c0.2,0,0.4,0,0.6,0C14.8,571.1,14.9,571.4,14.9,571.7L14.9,571.7z"/>
			<path class="st12" d="M14.5,599.6c-0.2,0.1-0.3,0.1-0.5,0.1h-4c-1.1-0.1-2.1,0.7-2.1,1.8c0,0.1,0,0.2,0,0.2c0.1,1,0.6,2,1.4,2.6
				c-0.9,0.2-1.5,1.1-1.4,2c0.1,1,0.5,2,1.4,2.6H8v0.1l1,3.7h0.2c0-0.5,0.2-1.1,1.2-1.1h5.8l0.1-0.1l-1-3.7H15
				c0.1,0.4-0.1,0.8-0.5,0.9c-0.2,0.1-0.3,0.1-0.5,0.1H9.6c-0.3-0.3-0.4-0.6-0.5-1c0-0.5,0.4-0.8,1.2-0.8h4.5V607l-1-3.7h-0.2
				c0.1,0.4-0.1,0.8-0.5,0.9c-0.1,0.1-0.3,0.1-0.5,0.1h-3c-0.3-0.2-0.5-0.6-0.6-1c0-0.5,0.4-0.9,1.2-0.9h5.8l0.1-0.1l-1-3.7H15
				C15,599.1,14.8,599.4,14.5,599.6z"/>
		</g>
	</g>
</g>
</svg>
