<?xml version="1.0" encoding="utf-8"?>
<!-- Generator: Adobe Illustrator 22.1.0, SVG Export Plug-In . SVG Version: 6.00 Build 0)  -->
<svg version="1.1" id="Layer_1" xmlns="http://www.w3.org/2000/svg" xmlns:xlink="http://www.w3.org/1999/xlink" x="0px" y="0px"
	 viewBox="0 0 190.8 652.7" style="enable-background:new 0 0 190.8 652.7;" xml:space="preserve">
<style type="text/css">
	.st0{fill:#FFFFFF;}
	.st1{fill:#D8C7C3;}
	.st2{fill:#678186;}
	.st3{fill:#020202;}
	.st4{fill:#56B746;}
	.st5{opacity:0.8;enable-background:new    ;}
	.st6{opacity:0.47;fill:#FFFCE3;enable-background:new    ;}
	.st7{fill:#FFFCE3;}
	.st8{fill:#006E94;}
	.st9{fill:#2EABE1;fill-opacity:0.72;}
	.st10{fill:#00A29A;fill-opacity:0.68;}
	.st11{fill:#1D1D1B;}
</style>
<title>haritalar</title>
<g>
	<g id="Layer_1_1_">
		<rect x="0.3" y="0.7" class="st0" width="189.3" height="501.6"/>
		<path class="st1" d="M132.4,0.7c-0.5,4.4,0,10.9-4.3,13.7s-3.3,1.5-3.3,6.5s-2,4-4.8,9.2s-3.3,6.6-3.3,6.6l-3.5,76.1L73.4,235.7
			l-62.8,46.2L0.3,292.2v360.1h190.1V0.7C190.5,0.7,132.5-0.6,132.4,0.7z"/>
		<path class="st2" d="M142.8,311.4c0,0-4.4-96.7,24.7-93.2c0.9,0.1,3.3,2.7,3.5,3.9c0.4,2.5-0.2,5.1-1.6,7.2
			c-1.3,2-1.3,7.3-1.6,12.5s1,25.7-0.9,28.8c-0.4,0.4-0.5,1.1-0.4,1.6c0.3,0.6,0.1,1.3-0.5,1.7c0,0,0,0-0.1,0
			c-0.5,0.9-0.1,2,0.8,2.4c0,0,0,0,0.1,0c0,0,0.8,3.2-1.4,4.3c0,0-1.8,0.8-2,3.5c0,0-3.1,3-3.8-1.4c0,0-1.3-2.7-4.3-0.8
			c0,0-0.4,0.3-0.5,2s-0.5,0.5-0.8,1.2s0.1,3,0,3.4s-1.7,1.8-0.1,2.8s2.8-0.2,3.6,1.7s0.9,3.4,3.6,3.8s4.3,1.6,4.2,4.9
			s0.6,9.1-1.4,11.5s-1.7,4.2-7.6,6.1s-6.3,2.1-8.8-2S143,313.7,142.8,311.4"/>
		<path class="st3" d="M151.3,321.1c-1.6,0-2.5-1-4.1-3.5c-0.8-1.4-1.9-2.6-3.2-3.5c-1-0.5-1.6-1.5-1.7-2.6l0,0
			c-0.4-12.9-0.2-25.8,0.6-38.7c1.9-27.1,6.8-44.5,14.4-51.6c2.7-2.7,6.4-3.9,10.2-3.5c1.3,0.2,3.7,3,3.9,4.3
			c0.4,2.6-0.2,5.3-1.6,7.5c-0.9,1.5-1.1,5.3-1.3,9.3c-0.1,1-0.1,2-0.2,3c-0.1,1.6,0,4.9,0,8.6c0.2,10.3,0.3,18.3-1,20.4l-0.1,0.1
			c-0.3,0.3-0.3,0.7-0.3,1.1c0.4,0.8,0.1,1.8-0.7,2.2c-0.1,0.3-0.3,1,0.7,1.7l0.2,0.1l0.1,0.2c0,0.1,0.9,3.6-1.7,4.8
			c-1.1,0.7-1.7,1.8-1.7,3.1v0.2l-0.1,0.1c-0.2,0.2-1.6,1.5-3,1c-0.9-0.3-1.4-1.2-1.7-2.7c-0.3-0.5-0.7-0.9-1.3-1.1
			c-0.8-0.2-1.6,0-2.2,0.5l0,0c-0.2,0.5-0.3,1.1-0.3,1.6c0,0.8-0.1,1.1-0.4,1.3c-0.1,0.1-0.3,0.2-0.4,0.2c-0.1,0.6-0.1,1.2,0,1.9
			c0.1,0.5,0.1,0.9,0,1.4c-0.1,0.2-0.2,0.3-0.3,0.5c-0.2,0.3-0.6,0.8-0.5,1.2c0.1,0.2,0.3,0.4,0.5,0.5c0.5,0.3,1,0.4,1.6,0.4
			c1-0.1,1.9,0.5,2.3,1.5c0.2,0.4,0.3,0.7,0.4,1.1c0.5,1.4,0.9,2.2,2.8,2.5c3.3,0.5,4.7,2.2,4.6,5.4c0,0.8,0,1.7,0,2.6
			c0.1,3.2,0.1,7.2-1.5,9.2c-0.4,0.5-0.8,1-1.1,1.6c-1.1,1.7-2,3.2-6.7,4.6l-0.4,0.1C154.5,320.5,152.9,320.9,151.3,321.1z
			 M143.3,311.4c0.1,0.9,0.5,1.2,1.3,1.9c1.4,1,2.5,2.3,3.4,3.8c2.3,3.7,2.4,3.7,7.8,1.9l0.4-0.1c4.3-1.4,5.1-2.6,6.1-4.2
			c0.4-0.6,0.8-1.1,1.2-1.7c1.4-1.7,1.3-5.5,1.3-8.5c0-1,0-1.9,0-2.7c0.1-2.7-1-3.9-3.8-4.4c-2.5-0.4-3-1.7-3.5-3.1
			c-0.1-0.3-0.3-0.6-0.4-1c-0.4-0.8-0.7-0.9-1.4-0.9c-0.7,0-1.4-0.2-2-0.6c-0.5-0.3-0.8-0.7-0.9-1.2c-0.1-0.7,0.2-1.5,0.7-2l0.1-0.2
			c0-0.1,0-0.6-0.1-1c-0.1-0.8-0.1-1.6,0-2.4c0.1-0.3,0.4-0.5,0.7-0.6c0-0.2,0-0.3,0-0.5c0.1-1.8,0.5-2.3,0.8-2.4
			c0.9-0.6,2-0.9,3-0.6c0.8,0.3,1.5,0.9,1.9,1.6v0.1c0.1,0.8,0.4,1.8,1,2s1.4-0.4,1.8-0.7c0.1-1.6,0.9-3,2.3-3.7
			c1.6-0.7,1.3-2.9,1.2-3.5c-1-0.6-1.4-1.9-0.8-3l0.1-0.1l0.1-0.1c0.4-0.2,0.5-0.6,0.4-1c0,0,0,0,0,0v-0.1c-0.2-0.7,0-1.4,0.4-2
			c1.2-2.1,1-12.3,0.8-19.8c-0.1-3.8-0.1-7,0-8.7c0.1-1,0.1-2,0.2-3c0.2-4.3,0.4-8,1.5-9.8c1.3-2,1.9-4.4,1.5-6.8
			c-0.2-1.2-2.4-3.5-3.1-3.5c-3.5-0.4-6.9,0.8-9.4,3.2C140.3,238.4,143.3,310.2,143.3,311.4L143.3,311.4z"/>
		<path class="st4" d="M114.3,36.7h4.7c0,0,1.2,3.3,3.3,2.9c1.8-0.2,3.4-1.3,4.2-2.9l9.7,0.3c0,0,1.5,2.2,3,2s9.1,0,9.1,0
			s1.8,1.8,4.8-0.5c0,0,3.5-3.1,6.1-3.4c0,0,2.7-0.5,3-5.2l1.2-13.3c0,0,0.4-4.8,2.4-4.9s5.1-0.7,6.8,3c0,0,1.3,2.1,5.6,1.6
			s4,1.6,4,3.1s-0.4,2.3,1.2,2.8s0.5,3.7-0.9,3.5s-3.3,2.2-3.1,5.4s1.1,6.8-0.9,7.9s-3.6-0.3-3,5.3s-0.2,13.3,0.2,18
			c0.2,3.2,0.8,6.4,1.9,9.4c0.4,1,1.7,0.9,1.4,9.6s0.8,8.2,2.7,8.3s2.2,3.4-0.1,3.5s-5-0.7-7.1,2.8s-5.3,2.6-4.6,8.7
			s-0.3,27.7-0.3,27.7l-0.1,19.9c0.4,3.8,0.2,7.7-0.5,11.5c-1.2,6.3-2.5,11.3-3.1,14.4c-0.6,3.1-0.9,4.6-0.1,6.9s1.4,2.3,1.4,7.8
			s0.3,19.8,0.3,19.8s1,6.1-1.7,6.1c0,0-4,0.4-8,4.5c-1.5,1.8-2.3,4-2.3,6.3c0.1,3.7,0.2,6.2-4.3,5.8l-1,16.9c0,0,0.3,5.1-1.8,6
			s-0.7,19.3-0.5,22.1s-2,25.3-5.1,31.3s-6.8,14.3-7.8,20.7s-5.8,21-7.5,25.2s-6.2,24.2-6.9,27.1s-6.8,15.8-8,24.9
			s-4.2,12.4-5.7,22.1s-10.8,32.8-11.6,34.3s-15.8,36.7-15.8,36.7H74c1.6-7.6,1.2-15.5-1.2-22.9c0,0-3.8-7.4-3.1-13.7
			s0.7-10.1-1.1-13.2c-4.5-9.1-8.5-18.4-11.9-28c-3.3-9.7-8-17.9-15.3-43.2s-13.2-42-15-46.3s-11.6-35.3-13.7-40.6S9.8,287,9.8,287
			s-1.8-4.3,2.6-8.7s18.5-21.8,22.6-26.8s16.6-25.3,18.9-29.8s14.6-32.3,17.8-40.3c3.2-8,13.8-41.1,14.8-53.7s1.8-16.3,2-19.4
			s5.3-11,4.4-15.7s-0.7-9,2.8-17.8c0,0,2.1-5.3,8.6-2.4c0,0,4.9,1.8,6.8-10.7c0,0-4.7,1.9-4.3-7c0,0,3.5,0.4,3.9-5.9
			c0,0-0.3-4.8,1.3-6.6C113.1,40.6,114,38.7,114.3,36.7z"/>
		<path class="st5" d="M139.6,39.6l-3.5-2.6c0,0-9.2-0.8-10.2,0.7c-2,2.9-5.9,1.4-5.9,1.4c-0.1-1.2-1.1-2.1-2.3-2.1
			c-1.6-0.2-3.3-0.5-4.7,3.6c0,0-1.7,1.6-2.4,10.1c0,0-1.2,4-3.9,4c0,0-1.3,7.6,4,7.3c0,0,0.3,10.9-7.1,10.3c0,0-8.5-5-11.3,15.5
			c0,0,0.7,3.6,0.9,5.8s-1.9,8.2-3.9,12.4s-2.1,13.5-2.3,17.8c-0.2,3.5-4.7,22.8-5.6,28.1s-6.7,21.4-6.7,21.4l-9.9,24.8l-6.7,14.4
			c-1.7,4.4-3.6,8.6-5.8,12.8c-5,8.6-13.5,19.4-12,19c0,0,5.7,5.2,8,8.8c1.4,2.1-1.4,5.6-6.1,9.5c0,0-14.9,11-14.6,13.7
			c0.1,1-0.1,2.3,0.1,3.6c0.2,1.7,0.8,5.8-0.5,7.4c-3.3,3.9-12.4,8.6-12.4,10.9s2.1,8.6,3.3,11.4c0,0,6.1,19.1,10.7,31.6l19.4,60.4
			l12.2,31.7l7.2,15.8l2,4.5c0.9,2.6,1.2,5.4,1,8.2c-0.3,2.5-0.4,5.1-0.3,7.7c0.4,2.1,0.9,4.1,1.6,6c0.9,2,1.6,4,2.3,6.1
			c0.7,2.7,1.1,5.4,1.3,8.2c0.3,4,0.1,8.1-0.8,12c-0.1,0.5,5,0.1,5,0.1l12.6-30.2c0,0,3-5.5,8.8-20.5c0,0,1.3-4.1,4.4-15
			c1.1-3.8,1.4-7.3,2.1-9.6c0,0,1.8-5,3.6-10.2c1.4-7.7,3.4-15.2,6-22.5c2.7-6.9,4.6-14.1,5.7-21.5c0,0,2.4-7,7.6-23.5
			c1.8-5.2,3.3-10.5,4.4-15.8c0.4-3,1-5.9,1.9-8.8c1.1-3.6,3.9-7.8,5.1-11.1c0,0,3.8-4.5,6-31.5c0,0-0.1-17.6-0.1-22.6
			c0-0.5,2.6-3.5,2.5-9.6c-0.1-3.7,0.8-12.5,0.5-15.1c-0.1-0.7,4.9,3.4,4.6-5c0-0.7,0.2-5.3,3.8-7.7c3.4-2.3,7.9-2.5,7.9-4.3
			c0.1-4.3-2.1-5.4-4-3.8c-4.6,3.9-5.6,2.4-7.7,0.5c-1.2-1,0.2-2.3-1.8-4.7c-0.9-1.2-2.5,0.8-5.6-3.1c-0.6-0.7-7.6-1.3-8.4-0.7
			s0.5,3.3-2.5,3.5c-1.3,0.1-1.9-0.7-2.7-1.2c-1.9-1.2-2.8-2.6-4-2s0.4,3.2-1.6,5.3c-1.4,1.5,1.5,3.5,4.2,4.9c0.7,0.3,0.9,5,1.8,5.1
			c3.4,0.6,0.8,4.3,2.4,5.6c2.4,2,3.4,4.6,2,6.8c-0.8,1.2-2.1,2-3.6,2.4c-1.7,0.5-5-1.2-6.1,2.5c0,0.1-6.1,0.1-6.2,0.4
			c-0.5,1.6,6.2-0.3,6,1.8c0,1-0.8,1.9-1.8,1.9c-1.8,0-2.3,4.1-0.3,5.7c1,0.8,1.7,1.5,3.3,2.8c1.1,1,1.4,8.2,0,8.9
			c-6,3-8.3,0.5-8.3-3c0-1.5-3-2.1-1.9,7c0.2,1.5,2.3,2.3,1.1,6.8c-1.2,4.3-1.8,1-5.2,4.5c-0.5,0.5-6.4,2.5-7.9,0.4s2-3.7,1.9-6
			c0-0.4-0.3-5,2.5-5.9c3.3-1,6.9-3.6,8.1-3.9s2.2-6.8,1-6.9c-3.2-0.3-2.6,5.5-5.7,6.4c-12,3.5-9.5,4.1-9.5,10.2
			c0,3.6-1.3,5.2-7.8,4.5c0,0-4.3-1.3-3.6-7.8c0,0,0.1-6,7.9-5c0.9,0.1,2.4-3-0.3-3.4c-5.4-0.8-4-4.9-3.3-6.3s10.1,2.8,10.8-2
			c0.3-2-7.9-1.5-8.5-2.8c-2-4.4,3.4-6.6,5.6-10.3c0.3-0.5,5.1-3.1,8.1,0.5c3.1,3.8-3,7.9,1.9,9.1c3.8,0.9,3.7-4,4.3-7.9
			c0.5-3.1,1.6-6.5,2.4-7.6c2-2.8,7.9-0.9,8.9-2.8c2.4-4.5-1.8-3.5,1.6-6.9c1-0.9-3.2-11.2-6-10c-5,2.1-8-1.4-8.6-4
			c-0.7-3.1,0.7-5.6,0.7-8.6c0-1.8,1.9-5.4-2-5.6c-6.4-0.4,2,5.6-2.4,7.7c-3.5,1.7-5,0.9-5.8-1c-1.9-4.7-0.5-5.2-1.1-9.1
			c-0.4-2.5,1.6-6.5,4.4-7.6c3.1-1.3,9.1,0.2,12.8-0.2c5.6-0.6,7.7-5,4.5-5.5c-3.6-0.6-6.5,1.7-7.7,1.8c-7.3,0.3-4.9-2.6-4.5-3.3
			c4.9-8.5,0.6-8.6,3.6-11.2c3.3-2.8,2.3-5.2-0.3-4.6c-1.8,0.5-0.5,4.9-3.5,5.6c-0.5,0.1-5.3-1.1-6,3.8c-0.4,2.3-3.4,0.1-5.5-0.5
			c-1.8-0.5-2-2.4-2.8-2.4c-3.4,0.3-0.3,1.6-1.6,2.4c-3.7,2.2-4.1-0.6-1.8-4.3c0.9-1.3,2.6-2.6,4.3-2.4c1.5,0.2,5.3,0.6,6.2-2.1
			c1-2.7,3.9-2.3,3.5-4.5c-0.8-5.5-2.6-4.3-4.9-3c-0.4,0.2-1.4,4-2.8,3s-3-2.6-2.8-4.9c0.8-6.5,5.7-3.2,6.7-6.3
			c0.3-1.1-3.2-5-2.1-5.5c2.5-1.3,3.6-0.1,4.3-1.9s6.9-0.1,9.9-0.3c1-0.1,1.2-2.6-1.1-2.8c-2.3-0.1-5.6,1.2-5.1-2.2
			c0.6-3.8,6.8,1.4,7.1-5.2c0.8-2,2.4-3.7,4.4-4.6c0,0,3-2.4,4.9-0.5c1.8,1.8,4.2,1.4,4.9,2.8s0.1,3.9,1.1,5.1
			c1.1,1.2-3.8,5.1,3.5,4.5c0,0,2.3-5.1-0.8-5.9c-3.1-0.8-1.6-6,1.1-6.4c1.5,0.2,2.9,0.6,4.3,1.2c1.6,0.8,1.3,4,2.8,4.9
			c1.5,0.9,0.9,3-0.7,3.5c0,0-0.8,1.9-0.3,2.3c1.1,0.4,1.8,1.4,1.8,2.6c0.2,1.4-3.5,1.2-2.1,5.3c0.2,0.5,2.4,0.2,2.7,0.8
			c1,2.1-1.4,3.4-1.3,4.4c0.3,3.6,1.8-0.3,1.9,6c0,0.2,0.3,1,1.5,1.1c0.8,0,1.6,0.6,1.7,1.4c0.2,4.3-3.6,2.3-3.6,4.8
			c0,2,1.4,5.7-0.9,6.3c-3.1,0.9-7.3-2.2-8.7-3.6c-1.6-1.6-5.2-2.8-7.3-1.4c-1.6,1.1,2.3,2.4,4.6,2.6c2.6,0.2,5.9,3.4,7.4,4.8
			c1.3,1.3,2.7,2.3,0.7,3.3c-0.5,0.3-3.9,0.1-6.5-0.6c-3.6-1-8.1-5.9-8.8-3.7c-1.1,3.5-2.4,0.5-2.7,4c-0.1,0.7,3.1,1.4,6.2,1
			c2.1-0.4,4.3,0,6.2,1.1c1.4,0.8,1.9,0.6,3.3,1.5c1.5,1,1.8,4.3,0.9,4.3c-4.1,0.1-3.6,3.1-3.6,3.1s0.7,3.1-0.5,3.6
			c-1.7,0.7-2.1,0.7-4.9-0.4c-0.4-0.2-2.8-5-5.4-0.4c-0.2,0.3-1,1.6-0.4,2.3s1.2-0.2,2.7,0.4c0.6,0.3-1.1,3.6-0.6,3.9
			c1.4,0.7,1.7-1.5,2.7-3.2c0.3-0.5,2.6-0.2,3.4,0c0.6,0.2,1.8,0.1,1.9,1.8c0.1,1.4,0,2.9-0.4,4.3c-1.6,2.6-3.2-0.2-5.9,3.7
			c-0.3,0.4-4.3,3.1-3.9,4.9c0.2,1.1,3.4,1.6,4.1,0.9c1.1-1.3-0.2-3.1,1.4-4.1c0.3-0.2,3.1-2.2,3.7,0.4s-2.1,5.8-1.8,6.9
			c0.8,3,6.5,0.3,6.8,0.3s3.1,2.6,4.4,2c0.9-0.4-0.6-2.7,1.1-4.4c1.1-1.1,2.5-1.3,2.7-1.5c2.8-3.4-0.1-9.2,2.8-9.2
			c2.2,0,2.1,0.7,2.2,1.3c0.3,2.1-2.6,3.9-2.6,6.8c0,1.3-0.2,3.2,5.6,5.8c1,0.4,2.1,3.6,1,5.9c-0.9,1.9,4,1.4,4.1,1.4
			c0.7,0-1.1-21.6-0.6-25.1c0.3-1.9-2.9-8.1-2.5-8.1c1,0,2-12.8,2.8-12.8c1.1,0.1,2-14,2-14.2c-0.3-3.8-0.6-19.1-0.3-18.4l0.6-34.7
			c0,0-1.5-2,4-5.6c0,0,1.8-3.3,4.8-3.3c0,0,4.2,0.1,4.2-1.5c0-1.1,0.4-1.5-2.9-1.9c0,0-1.5-0.2-1.1-15.8c0,0-3.4,0.2-3.4-16.8
			c0.1-10.6,0-12.2,0-12.2s-2.3-4,1.9-5.8s2-6.6,1.8-8.4s0.6-4.6,3.3-5.3s1.4-3.4-0.1-3.9s1.6-4.3-2.4-5s-3.7,1.6-8.8-3.4
			c-4.3-4.2-7.7,0.8-7.6,3.5c-0.2,5.4-0.6,10.7-1.3,16c-0.6,2.4-6.1,2.9-8.1,5.4s-3.1,2-5.5,0.9C145.5,37.8,139.6,39.6,139.6,39.6z"
			/>
		<path class="st6" d="M97.6,277.8c-5.6,0-7.8-2.8-7.9-3c-2.9-5.8,3-12.1,3.3-12.4c3.4-4.6,3.2-16.2,3.2-17.1
			c-1.2-5,3.8-7.6,3.8-7.7c4.7-2.5,8.9-5.8,12.5-9.7c2.9-4.8,12.5-6.7,13.9-6.9c2.1-2,3.1-3.7,2.6-4.9c-0.7-2-5.1-2.6-6.8-2.7
			c-5.5-1.3-7.1-2.5-7.1-2.5c-3.3-1.8-5.1-1.8-6.1-1.5c-0.5,0.2-0.9,0.5-1.1,1c-0.4,1.2-1.3,2.3-2.6,2.8c-1.6,0.4-3.2,0.3-4.6-0.5
			l-0.1-0.1c-2.3-2.1-3.3-3.9-3.1-5.5c0.2-0.9,0.8-1.6,1.6-2h0.1h0.1c4.7,0.3,5.3-0.5,5.3-0.7s-0.2-0.7-0.4-0.8
			c-2.7-3.4-4.1-7.6-3.9-11.9v-0.2c1.5-3.1,1.2-9.7,1.2-9.8c0.2-5.8-3.9-13.2-3.9-13.3c-1.8-3.4-0.1-10.1,0-10.4
			c1.4-3.3,5.6-4.1,5.7-4.1c1.3-0.1,1.5-4.4,1.3-7.3c-1-0.8-1.6-2.1-1.7-3.4c0.1-1.4,0.8-2.6,1.9-3.5c5.2-4.3,5.1-15,5.1-15.1
			c-0.1-1.3,0.4-2.6,1.4-3.4c1.6-1.1,3.8-0.3,4.2-0.1c2.6,0.3,7.8-5.3,9.7-7.5c2-4.3,3.7-4.3,4-4.2h0.3l0.9,2.8
			c0.5,1.3,1.7,2.3,3.1,2.7l0.3,0.1l0.1,0.2c0.4,0.9,4.8,0.1,7.2-0.2c3.3-0.5,5.1-0.8,5.8-0.2c0.2,0.2,0.3,0.4,0.3,0.6v0.4
			c0,0.7,0,1.2,0.3,1.4c0.8,0.4,1.6,0.6,2.5,0.5c0.8-0.1,1.6,0.2,2.2,0.8c1,1.1,1,3,0.9,6c0,1-0.1,2.2-0.1,3.4
			c0,1.3,0.2,2.3,0.6,2.6s1.3,0.1,2.2-0.1c1.6-0.6,3.3-0.6,4.9-0.1c4.2,1.5,8.4,2.7,8.5,2.7l-0.3,1c0,0-4.3-1.3-8.5-2.8
			c-1.4-0.4-2.9-0.3-4.3,0.2c-1.2,0.3-2.3,0.6-3.1,0c-0.8-0.6-1-1.6-1-3.4c0-1.3,0.1-2.4,0.1-3.5c0.1-2.6,0.2-4.5-0.6-5.3
			c-0.4-0.4-1-0.5-1.5-0.5c-1.7,0-2.7-0.2-3.2-0.8c-0.5-0.6-0.7-1.4-0.5-2.1v-0.2c-0.6-0.2-3.1,0.2-4.9,0.5c-4.3,0.7-7.3,1-8.2-0.1
			c-1.7-0.4-3-1.7-3.6-3.3l-0.7-2.1c-0.5,0.2-1.5,0.9-2.7,3.6l-0.1,0.1c-0.7,0.9-7,8.5-10.7,7.9h-0.1c0,0-2.1-0.8-3.4,0
			c-0.7,0.6-1.1,1.6-1,2.5c0,0.4,0.2,11.3-5.4,15.9c-0.8,0.7-1.4,1.7-1.5,2.8c0.1,1.1,0.6,2.1,1.5,2.7l0.2,0.1v0.2
			c0.1,1.4,0.6,8.3-2.1,8.5c0,0-3.8,0.7-4.9,3.4l0,0c0,0-1.7,6.5,0,9.6c0.2,0.3,4.3,7.7,4,13.8c0,0.2,0.4,6.7-1.3,10.1
			c-0.1,4,1.2,7.9,3.6,11c0.5,0.5,0.7,1.2,0.5,1.9c-0.5,1.1-2.4,1.5-6.2,1.3c-0.5,0.3-0.8,0.7-0.9,1.3c-0.1,0.8,0.2,2.2,2.7,4.5
			c1.2,0.6,2.5,0.7,3.8,0.4c1-0.4,1.7-1.2,2-2.2c0.3-0.7,0.9-1.3,1.7-1.5c1.7-0.6,4-0.1,7,1.5c0.1,0,1.6,1.1,6.8,2.4l0,0
			c0.2,0,6.4,0.3,7.5,3.4c0.6,1.6-0.4,3.7-3,6.1l-0.1,0.1h-0.1c-0.1,0-10.5,1.8-13.4,6.5c-3.7,4-8,7.4-12.9,10
			c-0.2,0.1-4.4,2.3-3.3,6.6v0.1c0,0.5,0.4,12.7-3.4,17.8c-0.1,0.1-5.8,6.1-3.2,11.2l0,0c0,0,2.7,3.4,10,2.2
			c0.2-0.1,6.8-1.8,10.4-1.3c0.1,0,6,1.9,11.1-0.7c2.5-1.1,5.1-1.8,7.8-2c1.8-0.9,3.5-2.1,4.9-3.6c0.6-0.8,7.3-10.4,11.8-10.9l0.1,1
			c-4.2,0.5-11.1,10.5-11.1,10.5l-0.1,0.1c-1.6,1.6-3.4,2.8-5.3,3.8h-0.2c-2.6,0.2-5.1,0.9-7.5,2c-5.5,2.8-11.5,0.9-11.8,0.8
			c-3.3-0.5-9.9,1.3-10,1.3C99.6,277.8,98.6,277.8,97.6,277.8z"/>
		<path class="st3" d="M190.8,652.7H0V0h190.8V652.7z M0.7,651.9h189.4V0.8H0.7V651.9z"/>
		<path class="st3" d="M80,502.5h-6.6l0.2-0.6c1.6-7.5,1.2-15.3-1.2-22.6c-0.1-0.2-3.9-7.6-3.1-13.9c0.7-5.8,0.8-9.7-1-12.9
			c-4.5-9.1-8.5-18.5-12-28.1c-1-3-2.2-5.8-3.5-9.1c-4.6-11.1-8.5-22.5-11.8-34.1c-7-23.9-13-41.5-15-46.3c-1-2.3-4.2-12-7.2-21.4
			c-2.8-8.6-5.5-16.7-6.5-19.2c-2.1-5.3-2.9-7.4-2.9-7.4c-0.1-0.2-1.8-4.7,2.7-9.2c3.9-3.9,15.9-18.6,21-24.9l1.5-1.9
			c4.1-5,16.6-25.3,18.9-29.8s14.6-32.1,17.8-40.3c3.4-8.5,13.7-41.1,14.7-53.5c0.7-8.4,1.2-12.8,1.6-15.8c0.2-1.5,0.3-2.6,0.4-3.6
			c0.4-1.9,1-3.7,1.8-5.4c1.4-3.3,3.1-7.4,2.6-10.2c-0.9-4.6-0.7-9,2.8-18c0.6-1.4,1.8-2.5,3.2-3.1c2-0.7,4.2-0.5,6.1,0.4l0,0
			c0.6,0.1,1.3,0,1.9-0.4c1.3-0.8,3.1-3.1,4.1-9.2c-0.8,0.1-1.5-0.1-2.2-0.5c-1.5-1-2.1-3.4-2-7.2V54l0.5,0.1c0.6,0,1.2-0.2,1.6-0.6
			c1-0.8,1.6-2.5,1.8-4.8c0-0.1-0.2-5,1.4-6.9c1.2-1.5,2.1-3.4,2.4-5.3V36h5.5l0.1,0.3c0,0,1.1,2.9,2.7,2.6c1.6-0.2,3.1-1.2,3.8-2.6
			L126,36l10.2,0.3l0.1,0.2c0.4,0.5,1.6,1.9,2.5,1.8c1.5-0.2,8.8,0,9.1,0h0.2l0.1,0.1c0.1,0.1,1.6,1.5,4.1-0.5
			c0.1-0.1,3.6-3.2,6.3-3.5c0.1,0,2.3-0.5,2.6-4.7l1.3-13.2c0.1-0.5,0.5-5.3,2.9-5.4h0.6c2-0.1,5-0.3,6.6,3.3c0,0,1.2,1.7,5.1,1.3
			c1.8-0.2,3,0,3.8,0.7c0.7,0.7,1,1.7,0.8,2.7v0.2c0,0.3,0,0.6,0,0.8c-0.1,1-0.1,1.2,0.8,1.5s1.3,1.1,1.1,2.3s-1.1,2.4-2.2,2.2
			c-0.4,0-0.8,0.1-1.1,0.4c-1.1,1.2-1.6,2.8-1.5,4.4c0,0.7,0.1,1.4,0.2,2.1c0.3,2.7,0.5,5.3-1.3,6.3c-0.5,0.2-0.9,0.4-1.4,0.5
			c-1.1,0.3-1.7,0.5-1.3,4.3c0.3,3.5,0.3,7,0.2,10.5c-0.1,2.8-0.1,5.5,0,7.5c0.2,3.2,0.8,6.3,1.9,9.3c0.1,0.1,0.1,0.3,0.2,0.4
			c0.6,0.8,1.4,2.1,1.2,9.4c-0.1,4.5,0.1,6.8,0.7,7.4c0.2,0.3,0.6,0.3,1.2,0.3h0.3c1.2,0.1,2.1,1.1,2,2.3c0,1.2-0.9,2.1-2,2.2
			c0,0,0,0-0.1,0c-0.4,0-0.8,0-1.2,0c-1.9,0-3.9-0.1-5.5,2.5c-0.6,1-1.5,1.9-2.4,2.6c-1.5,1.2-2.5,2-2.1,5.8
			c0.8,6.1-0.2,27-0.3,27.8l-0.1,19.9c0.4,3.9,0.2,7.8-0.5,11.6c-0.7,3.7-1.5,7.1-2.1,9.8c-0.4,1.8-0.8,3.4-1,4.7l-0.1,0.3
			c-0.5,2.8-0.8,4.2,0,6.3c0.2,0.5,0.3,0.8,0.5,1.2c0.6,1.4,1,2.3,1,6.7c0,5.4,0.3,19.7,0.3,19.8c0.1,0.4,0.7,4.3-0.7,5.9
			c-0.4,0.4-0.9,0.7-1.5,0.7c-2.9,0.6-5.6,2.1-7.6,4.4c-1.3,1.7-2.1,3.7-2.1,5.9c0.1,2.5,0.1,4.3-1.1,5.4c-0.9,0.7-2.1,1-3.2,0.9
			l-1,16.4c0,0.5,0.3,5.4-2,6.4c-0.4,0.2-1.5,2.4-0.3,20.6l0.1,0.9c0.2,2.7-1.9,25.4-5.1,31.5c-2,3.8-6.7,13.3-7.7,20.5
			c-0.9,6.2-5.7,20.8-7.5,25.3c-1.3,3.2-4.2,15.8-5.8,22.6c-0.5,2.1-0.9,3.7-1.1,4.4c-0.2,0.9-0.9,2.5-1.8,4.8
			c-2.1,5.4-5.3,13.7-6.2,20c-0.5,3.8-1.5,7.4-2.8,11c-1.3,3.6-2.3,7.3-2.9,11.1c-1.5,9.8-10.7,32.8-11.6,34.4
			c-0.6,1.1-10.6,24.4-15.7,36.6L80,502.5z M74.6,501.5h4.7c1.6-3.7,14.8-35,15.6-36.4c0.6-1.1,10-24.3,11.5-34.1
			c0.6-3.8,1.6-7.6,2.9-11.3c1.3-3.5,2.2-7.1,2.7-10.8c0.9-6.5,4.1-14.8,6.3-20.3c0.9-2.2,1.5-3.9,1.7-4.7s0.6-2.3,1.1-4.4
			c1.7-7.3,4.6-19.5,5.9-22.7c1.8-4.5,6.6-18.9,7.5-25c1.1-7.3,5.8-17,7.8-20.8c3.1-5.9,5.2-28.4,5-31l-0.1-0.9
			c-1.2-18.2-0.3-21.1,0.9-21.6c1.4-0.6,1.5-4.3,1.4-5.5l1-17.5h0.5c1,0.2,2.1,0,2.9-0.5c0.9-0.8,0.8-2.5,0.8-4.6
			c0-2.4,0.8-4.8,2.4-6.7c4.1-4.2,8.1-4.6,8.3-4.7c0.3,0,0.6-0.1,0.8-0.3c0.9-1,0.6-4.1,0.4-5.2c0-0.2-0.3-14.5-0.3-19.9
			c0-4.3-0.3-5-0.9-6.3c-0.1-0.4-0.3-0.8-0.5-1.3c-0.9-2.4-0.5-4,0-6.8l0.1-0.3c0.2-1.3,0.6-2.9,1-4.7c0.6-2.7,1.4-6,2.1-9.7
			c0.7-3.7,0.9-7.6,0.5-11.4l0.1-20c0-0.2,1-21.7,0.3-27.7c-0.5-4.3,0.9-5.4,2.4-6.7c0.9-0.6,1.6-1.4,2.2-2.3c1.9-3.1,4.4-3,6.4-3
			c0.4,0,0.8,0,1.1,0c0.6,0,1.1-0.5,1.1-1.1c0,0,0-0.1,0-0.1c0.1-0.6-0.4-1.2-1-1.3H181c-0.7,0.1-1.4-0.1-1.9-0.6
			c-0.7-0.8-1.1-2.4-1-8.2c0.2-7-0.6-8.1-1-8.8c-0.1-0.2-0.2-0.4-0.3-0.6c-1.1-3.1-1.8-6.3-1.9-9.6c-0.1-2.1-0.1-4.8,0-7.6
			c0.2-3.5,0.1-6.9-0.1-10.4c-0.4-4.2,0.3-4.9,2.1-5.4c0.4-0.1,0.8-0.2,1.2-0.4c1.3-0.7,1.1-3,0.8-5.3c-0.1-0.7-0.1-1.4-0.2-2.1
			c-0.2-1.9,0.5-3.8,1.8-5.2c0.5-0.5,1.2-0.8,1.9-0.7c0.4,0,0.9-0.6,1.1-1.4c0-0.2,0.1-1-0.4-1.1c-1.7-0.4-1.6-1.4-1.6-2.5
			c0-0.2,0-0.5,0-0.8v-0.2c0.1-0.7-0.1-1.4-0.5-1.9c-0.5-0.4-1.5-0.6-3-0.4c-4.5,0.5-6-1.7-6.1-1.8c-1.4-3.1-3.8-2.9-5.7-2.8h-0.6
			c-1.2,0.1-1.8,3-1.9,4.5l-1.2,13.3c-0.4,5-3.3,5.6-3.4,5.6c-2.4,0.3-5.8,3.3-5.8,3.3c-2.7,2.2-4.7,1-5.3,0.6c-1.1,0-7.5-0.2-8.8,0
			c-1.5,0.2-2.9-1.4-3.3-2l-9.1-0.3c-0.9,1.6-2.5,2.7-4.4,2.9c-2.1,0.4-3.3-2-3.7-2.9h-3.9c-0.4,2-1.3,3.8-2.6,5.4
			c-1.1,1.3-1.2,4.9-1.1,6.2c-0.2,2.7-0.9,4.6-2.1,5.6c-0.5,0.4-1.1,0.7-1.8,0.8c-0.1,3.8,0.8,5.3,1.6,5.8c0.6,0.4,1.3,0.5,2,0.2
			l0.8-0.3l-0.1,0.9c-0.8,5.7-2.4,9.3-4.7,10.6c-0.8,0.5-1.8,0.7-2.7,0.4c-1.6-0.9-3.6-1-5.3-0.4c-1.2,0.5-2.1,1.4-2.6,2.6
			c-3.4,8.8-3.6,13-2.7,17.5c0.6,3-1.1,7.1-2.7,10.8c-0.8,1.6-1.4,3.3-1.7,5c-0.1,1.1-0.2,2.2-0.4,3.7c-0.4,2.9-0.9,7.4-1.6,15.7
			c-1,12.5-11.4,45.3-14.8,53.8c-3.2,8.2-15.5,35.9-17.8,40.4s-14.9,24.9-19,29.9l-1.4,2c-5.1,6.3-17.2,21.1-21.1,25
			s-2.5,8.1-2.5,8.1s0.8,2.1,2.9,7.4c1,2.5,3.7,10.7,6.5,19.3c3.1,9.4,6.2,19,7.2,21.3c2,4.8,8.1,22.4,15,46.4
			c3.3,11.6,7.2,22.9,11.8,34c1.3,3.3,2.5,6.2,3.5,9.2c3.4,9.5,7.4,18.8,11.9,27.9c1.9,3.4,1.9,7.5,1.1,13.5s3,13.3,3,13.4
			C75.6,486.2,76.1,494,74.6,501.5L74.6,501.5z"/>
		<path d="M44.7,171.1v0.8h-2.2v5.7h-0.9v-5.7h-2.2v-0.8H44.7z"/>
		<path d="M47.4,173c0.3,0.1,0.5,0.3,0.7,0.6c0.2,0.3,0.3,0.5,0.3,0.8c0.1,0.3,0.1,0.7,0.1,1H45c0,0.4,0.1,0.8,0.3,1.1
			c0.2,0.3,0.6,0.5,1,0.4c0.4,0,0.7-0.1,1-0.4c0.1-0.2,0.2-0.3,0.3-0.6h0.8c0,0.2-0.1,0.4-0.2,0.6c-0.1,0.2-0.2,0.4-0.4,0.5
			c-0.2,0.2-0.5,0.4-0.9,0.5c-0.2,0-0.4,0.1-0.6,0.1c-0.6,0-1.1-0.2-1.5-0.6c-0.4-0.5-0.6-1.1-0.6-1.8c0-0.7,0.2-1.3,0.6-1.8
			c0.4-0.5,1-0.7,1.6-0.7C46.8,172.8,47.1,172.9,47.4,173z M47.7,174.9c0-0.3-0.1-0.6-0.2-0.8c-0.2-0.4-0.6-0.6-1.1-0.6
			c-0.3,0-0.7,0.1-0.9,0.4c-0.2,0.3-0.4,0.6-0.4,1H47.7z"/>
		<path d="M49.6,171.1h0.8v6.5h-0.8V171.1z"/>
		<path d="M55.7,171.1h1l2.3,6.5h-1l-0.7-1.9h-2.5l-0.7,1.9h-0.9L55.7,171.1z M57.2,175l-1-2.9l-1,2.9H57.2z"/>
		<path d="M60.1,172.9l1.3,3.8l1.3-3.8h0.9l-1.8,4.7h-0.8l-1.7-4.7H60.1z"/>
		<path d="M64.3,171.1h0.8v0.9h-0.8V171.1z M64.3,172.9h0.8v4.7h-0.8V172.9z"/>
		<path d="M66.8,172.9l1.3,3.8l1.3-3.8h0.9l-1.8,4.7h-0.8l-1.7-4.7H66.8z"/>
		<path d="M8.3,247.6c0.7,0.4,1.1,1,1.2,1.8H8.6c-0.1-0.4-0.3-0.8-0.6-1c-0.4-0.2-0.8-0.3-1.2-0.3c-0.6,0-1.1,0.2-1.5,0.7
			c-0.4,0.6-0.7,1.3-0.6,2c0,0.7,0.1,1.3,0.5,1.9c0.4,0.5,1,0.8,1.6,0.7c0.5,0,1-0.2,1.4-0.5c0.4-0.4,0.6-1,0.6-1.6h-2v-0.7h2.8v3.5
			H9l-0.2-0.8c-0.2,0.3-0.5,0.5-0.8,0.7c-0.4,0.2-0.9,0.3-1.4,0.3c-0.7,0-1.4-0.3-1.9-0.7c-0.6-0.7-0.9-1.6-0.9-2.6
			c0-0.9,0.3-1.9,0.9-2.6c0.5-0.6,1.3-0.9,2.1-0.9C7.3,247.2,7.8,247.3,8.3,247.6z"/>
		<path d="M13.5,251c0.2,0,0.3-0.1,0.4-0.2c0-0.1,0-0.2,0-0.3c0-0.2-0.1-0.5-0.3-0.6c-0.3-0.1-0.5-0.2-0.8-0.2
			c-0.3,0-0.7,0.1-0.9,0.3c-0.1,0.2-0.2,0.4-0.2,0.5H11c0-0.5,0.2-0.9,0.6-1.2c0.4-0.2,0.8-0.4,1.3-0.3c0.5,0,0.9,0.1,1.3,0.3
			c0.4,0.2,0.6,0.6,0.5,1v2.7c0,0.1,0,0.1,0,0.2c0,0,0.1,0.1,0.2,0.1H15h0.1v0.6c-0.1,0-0.2,0.1-0.3,0.1h-0.3
			c-0.2,0-0.5-0.1-0.6-0.3c-0.1-0.1-0.1-0.3-0.1-0.4c-0.2,0.2-0.4,0.4-0.7,0.5c-0.3,0.2-0.7,0.2-1,0.2c-0.4,0-0.8-0.1-1.1-0.4
			c-0.3-0.3-0.4-0.6-0.4-1c0-0.4,0.1-0.7,0.4-1c0.3-0.2,0.7-0.4,1.1-0.4L13.5,251z M11.8,253.1c0.2,0.1,0.4,0.2,0.6,0.2
			c0.3,0,0.6-0.1,0.8-0.2c0.4-0.2,0.7-0.6,0.7-1v-0.7c-0.1,0.1-0.2,0.1-0.4,0.1l-0.4,0.1l-0.5,0.1c-0.2,0-0.4,0.1-0.7,0.2
			c-0.2,0.1-0.4,0.4-0.4,0.7C11.6,252.8,11.7,253,11.8,253.1L11.8,253.1z"/>
		<path d="M15.7,253.2l2.8-3.4h-2.6v-0.7h3.7v0.6l-2.8,3.4h2.9v0.7h-4L15.7,253.2z"/>
		<path d="M20.3,253.2l2.8-3.4h-2.6v-0.7h3.7v0.6l-2.8,3.4h2.9v0.7h-3.9V253.2z"/>
		<path d="M28.2,249.3c0.3,0.1,0.5,0.3,0.7,0.6c0.2,0.3,0.3,0.5,0.3,0.8c0.1,0.3,0.1,0.7,0.1,1h-3.4c0,0.4,0.1,0.8,0.3,1.1
			c0.2,0.3,0.6,0.5,1,0.4c0.6,0,1.1-0.4,1.3-1h0.8c0,0.2-0.1,0.4-0.2,0.6c-0.1,0.2-0.2,0.4-0.4,0.5c-0.2,0.2-0.6,0.4-0.9,0.5
			c-0.2,0-0.4,0.1-0.6,0.1c-0.6,0-1.1-0.2-1.5-0.6c-0.4-0.5-0.6-1.1-0.6-1.8c0-0.7,0.2-1.3,0.6-1.8c0.4-0.5,1-0.7,1.6-0.7
			C27.5,249,27.9,249.1,28.2,249.3z M28.4,251.1c0-0.3-0.1-0.6-0.2-0.8c-0.2-0.4-0.6-0.6-1.1-0.6c-0.3,0-0.7,0.1-0.9,0.4
			c-0.2,0.3-0.4,0.6-0.4,1H28.4z"/>
		<circle class="st7" cx="79.9" cy="180.5" r="4.3"/>
		<path class="st7" d="M106.5,78.2c0,2.4-1.9,4.3-4.3,4.3s-4.3-1.9-4.3-4.3s1.9-4.3,4.3-4.3c0,0,0,0,0,0
			C104.5,73.9,106.5,75.8,106.5,78.2L106.5,78.2z"/>
		<path class="st7" d="M39.4,263.1c0,2.4-1.9,4.3-4.3,4.3s-4.3-1.9-4.3-4.3s1.9-4.3,4.3-4.3h0C37.5,258.7,39.4,260.7,39.4,263.1z"/>
		<path class="st7" d="M131.9,204.3c0,2.4-1.9,4.3-4.3,4.3s-4.3-1.9-4.3-4.3c0-2.4,1.9-4.3,4.3-4.3c0,0,0,0,0,0
			C130,200,131.9,201.9,131.9,204.3z"/>
		<path class="st7" d="M128.6,238.8c0,2.4-1.9,4.3-4.3,4.3c-2.4,0-4.3-1.9-4.3-4.3c0-2.4,1.9-4.3,4.3-4.3c0,0,0,0,0,0
			C126.6,234.5,128.6,236.4,128.6,238.8z"/>
		<path class="st7" d="M64.9,380.8h-1.8v-8.6h1.8V380.8z M63.2,369.8h1.5v1.4h-1.5L63.2,369.8z"/>
		<path class="st7" d="M67.9,378.2c0,0.3,0.1,0.6,0.3,0.9c0.4,0.4,1,0.6,1.5,0.5c0.4,0,0.7,0,1.1-0.1c0.5-0.1,0.8-0.5,0.8-1
			c0-0.3-0.1-0.5-0.4-0.7c-0.4-0.2-0.8-0.3-1.2-0.4l-0.9-0.2c-0.7-0.1-1.3-0.3-1.9-0.7c-0.6-0.4-0.9-1.1-0.9-1.9
			c0-0.7,0.3-1.4,0.9-1.9c0.7-0.6,1.6-0.8,2.5-0.8c0.8,0,1.7,0.2,2.4,0.7c0.6,0.5,1,1.3,1,2.1h-1.7c0-0.5-0.3-0.9-0.7-1.1
			c-0.3-0.2-0.7-0.2-1.1-0.2c-0.4,0-0.8,0.1-1.1,0.3c-0.3,0.2-0.4,0.5-0.4,0.8c0,0.3,0.2,0.6,0.4,0.7c0.4,0.2,0.8,0.3,1.1,0.4
			l1.5,0.4c0.5,0.1,1,0.3,1.5,0.6c0.5,0.4,0.8,1.1,0.8,1.8c0,0.8-0.3,1.5-0.9,2c-0.7,0.6-1.7,0.8-2.6,0.8c-1,0.1-1.9-0.2-2.7-0.8
			c-0.7-0.5-1-1.3-1-2.1L67.9,378.2z"/>
		<path class="st7" d="M80.1,372.4c0.3,0.1,0.6,0.3,0.8,0.6c0.2,0.2,0.3,0.5,0.4,0.7c0.1,0.3,0.2,0.6,0.2,0.9c0,0.4-0.1,0.8-0.3,1.2
			c-0.2,0.4-0.6,0.7-1,0.8c0.4,0.1,0.7,0.4,0.8,0.7c0.2,0.4,0.3,0.9,0.3,1.4v0.6c0,0.3,0,0.5,0,0.8c0,0.2,0.2,0.4,0.3,0.5v0.2h-2
			l-0.1-0.5c0-0.2-0.1-0.5-0.1-0.8v-0.8c0-0.4-0.1-0.8-0.3-1.1c-0.3-0.2-0.6-0.3-1-0.3h-1.8v3.4h-1.8v-8.6h4.1
			C79.2,372.2,79.7,372.3,80.1,372.4z M76.4,373.7v2.3h1.9c0.3,0,0.6,0,0.9-0.1c0.4-0.2,0.6-0.6,0.5-1c0.1-0.4-0.1-0.8-0.5-1.1
			c-0.3-0.1-0.6-0.2-0.8-0.1L76.4,373.7z"/>
		<path class="st7" d="M85.7,372.2h2l3.1,8.6h-2l-0.6-1.8h-3.1l-0.6,1.8h-1.9L85.7,372.2z M85.6,377.6h2.2l-1.1-3.4L85.6,377.6z"/>
		<path class="st7" d="M93.6,380.8h-1.8v-8.6h1.8V380.8z M91.9,369.8h1.5v1.4h-1.5L91.9,369.8z"/>
		<path class="st7" d="M95.2,372.2h1.8v7.1h4.3v1.5h-6.1V372.2z"/>
		<path class="st7" d="M131.9,224.6c0,2.4-1.9,4.3-4.3,4.3s-4.3-1.9-4.3-4.3c0-2.4,1.9-4.3,4.3-4.3c0,0,0,0,0,0
			C130,220.2,131.9,222.2,131.9,224.6z"/>
		<path class="st7" d="M83.5,197.6h2.9c0.4,0,0.8,0.1,1.2,0.2c0.6,0.3,0.9,0.9,0.9,1.5c0,0.7-0.3,1.3-0.9,1.5
			c0.2,0.1,0.4,0.2,0.6,0.4c0.2,0.2,0.2,0.5,0.2,0.8v0.9c0,0.2,0,0.4,0.1,0.5c0,0.2,0.1,0.3,0.3,0.4v0.1h-1.1c0-0.1-0.1-0.1-0.1-0.2
			c0-0.2,0-0.3,0-0.5l-0.1-1.1c0-0.3-0.2-0.7-0.5-0.9c-0.2-0.1-0.5-0.1-0.8-0.1h-1.9v2.8h-0.9L83.5,197.6z M86.3,200.6
			c0.3,0,0.7-0.1,0.9-0.2c0.3-0.2,0.4-0.6,0.4-0.9c0-0.4-0.1-0.8-0.5-0.9c-0.2-0.1-0.5-0.1-0.7-0.1h-2.1v2.2H86.3z"/>
		<path class="st7" d="M92.4,201.3c0.2,0,0.3-0.1,0.4-0.2c0-0.1,0.1-0.2,0.1-0.3c0-0.2-0.1-0.5-0.3-0.6c-0.3-0.1-0.5-0.2-0.8-0.2
			c-0.3,0-0.7,0.1-0.9,0.3c-0.1,0.2-0.2,0.4-0.2,0.5h-0.7c0-0.5,0.2-0.9,0.6-1.2c0.4-0.2,0.8-0.4,1.3-0.3c0.5,0,0.9,0.1,1.4,0.3
			c0.3,0.2,0.5,0.6,0.5,1v2.7c0,0.1,0,0.1,0,0.2c0.1,0.1,0.1,0.1,0.2,0.1H94h0.1v0.6l-0.3,0.1h-0.3c-0.2,0-0.5-0.1-0.6-0.3
			c-0.1-0.1-0.1-0.3-0.1-0.4c-0.2,0.2-0.4,0.4-0.7,0.5c-0.3,0.2-0.7,0.2-1,0.2c-0.4,0-0.8-0.1-1.1-0.4c-0.5-0.6-0.5-1.4,0-2
			c0.3-0.3,0.7-0.4,1.1-0.4L92.4,201.3z M90.7,203.4c0.2,0.1,0.4,0.2,0.6,0.2c0.3,0,0.6-0.1,0.8-0.2c0.4-0.2,0.7-0.6,0.7-1v-0.6
			c-0.1,0.1-0.2,0.1-0.4,0.1c-0.1,0-0.3,0.1-0.4,0.1l-0.5,0.1c-0.2,0-0.4,0.1-0.6,0.2c-0.2,0.1-0.4,0.4-0.4,0.7
			C90.5,203.1,90.6,203.3,90.7,203.4z"/>
		<path class="st7" d="M95,199.4h0.8v0.7c0.1-0.2,0.3-0.4,0.5-0.5c0.3-0.2,0.6-0.3,0.9-0.3c0.3,0,0.6,0.1,0.9,0.3
			c0.1,0.1,0.3,0.3,0.4,0.5c0.1-0.3,0.3-0.5,0.6-0.6c0.2-0.1,0.5-0.2,0.8-0.2c0.5-0.1,1,0.2,1.3,0.7c0.1,0.3,0.2,0.7,0.2,1v3.1h-0.8
			v-3.2c0-0.2-0.1-0.5-0.2-0.6c-0.2-0.1-0.4-0.2-0.6-0.2c-0.3,0-0.6,0.1-0.8,0.3c-0.2,0.3-0.4,0.6-0.3,1v2.7h-0.8v-3
			c0-0.2,0-0.5-0.1-0.7c-0.1-0.2-0.4-0.4-0.7-0.3c-0.3,0-0.6,0.1-0.8,0.4c-0.3,0.3-0.4,0.8-0.4,1.3v2.5H95V199.4z"/>
		<path class="st7" d="M105.1,201.3c0.2,0,0.3-0.1,0.4-0.2c0-0.1,0.1-0.2,0.1-0.3c0-0.2-0.1-0.5-0.3-0.6c-0.3-0.1-0.5-0.2-0.8-0.2
			c-0.3,0-0.7,0.1-0.9,0.3c-0.1,0.2-0.2,0.4-0.2,0.5h-0.7c0-0.5,0.2-0.9,0.6-1.2c0.4-0.2,0.8-0.3,1.3-0.3c0.5,0,0.9,0.1,1.4,0.3
			c0.3,0.2,0.6,0.6,0.5,1v2.7c0,0.1,0,0.1,0,0.2c0,0,0.1,0.1,0.2,0.1h0.1h0.1v0.6c-0.1,0-0.2,0.1-0.3,0.1h-0.3
			c-0.2,0-0.5-0.1-0.6-0.3c-0.1-0.1-0.1-0.3-0.1-0.4c-0.2,0.2-0.4,0.4-0.7,0.5c-0.3,0.2-0.7,0.2-1,0.2c-0.4,0-0.8-0.1-1.1-0.4
			c-0.3-0.3-0.4-0.6-0.4-1c0-0.4,0.1-0.7,0.4-1c0.3-0.2,0.7-0.4,1.1-0.4L105.1,201.3z M103.4,203.4c0.2,0.1,0.4,0.2,0.6,0.2
			c0.3,0,0.6-0.1,0.8-0.2c0.4-0.2,0.7-0.6,0.6-1v-0.6c-0.1,0.1-0.2,0.1-0.4,0.1c-0.1,0-0.3,0.1-0.4,0.1l-0.5,0.1
			c-0.2,0-0.4,0.1-0.6,0.2c-0.2,0.1-0.4,0.4-0.4,0.7C103.2,203.1,103.3,203.3,103.4,203.4z"/>
		<path class="st7" d="M107.7,197.6h0.8v6.5h-0.8V197.6z"/>
		<path class="st7" d="M109.8,197.6h0.8v6.5h-0.8V197.6z"/>
		<path class="st7" d="M114.4,201.3c0.2,0,0.3-0.1,0.4-0.2c0-0.1,0.1-0.2,0.1-0.3c0-0.2-0.1-0.5-0.3-0.6c-0.3-0.1-0.5-0.2-0.8-0.2
			c-0.3,0-0.7,0.1-0.9,0.3c-0.1,0.2-0.2,0.4-0.2,0.5h-0.7c0-0.5,0.2-0.9,0.6-1.2c0.4-0.2,0.8-0.4,1.3-0.3c0.5,0,0.9,0.1,1.4,0.3
			c0.3,0.2,0.5,0.6,0.5,1v2.7c0,0.1,0,0.1,0.1,0.2c0,0,0.1,0.1,0.2,0.1h0.1h0.1v0.6c-0.1,0-0.2,0.1-0.3,0.1h-0.3
			c-0.2,0-0.5-0.1-0.6-0.3c-0.1-0.1-0.1-0.3-0.1-0.4c-0.2,0.2-0.4,0.4-0.7,0.5c-0.3,0.2-0.7,0.2-1,0.2c-0.4,0-0.8-0.1-1.1-0.4
			c-0.5-0.6-0.5-1.4,0-2c0.3-0.2,0.7-0.4,1.1-0.4L114.4,201.3z M112.7,203.4c0.2,0.1,0.4,0.2,0.6,0.2c0.3,0,0.6-0.1,0.8-0.2
			c0.4-0.2,0.7-0.6,0.7-1v-0.6c-0.1,0.1-0.2,0.1-0.4,0.1l-0.4,0.1l-0.5,0.1c-0.2,0-0.4,0.1-0.6,0.2c-0.2,0.1-0.4,0.4-0.4,0.7
			C112.4,203.1,112.5,203.3,112.7,203.4z"/>
		<path class="st7" d="M116.9,197.6h0.8v2.4c0.1-0.2,0.3-0.4,0.5-0.5c0.3-0.2,0.6-0.3,1-0.3c0.6-0.1,1.1,0.2,1.4,0.7
			c0.1,0.3,0.2,0.7,0.2,1.1v3H120v-3c0-0.3,0-0.5-0.1-0.8c-0.2-0.3-0.5-0.4-0.8-0.4c-0.3,0-0.6,0.1-0.9,0.3
			c-0.3,0.3-0.5,0.8-0.4,1.3v2.5H117L116.9,197.6z"/>
		<path class="st7" d="M94.1,218.6h0.9v3.2l3.2-3.2h1.2l-2.8,2.6l2.8,3.9h-1.1l-2.3-3.2l-1.1,1v2.3h-0.9L94.1,218.6z"/>
		<path class="st7" d="M100.8,220.4v3.1c0,0.2,0,0.4,0.1,0.6c0.1,0.3,0.5,0.5,0.8,0.4c0.5,0,0.9-0.3,1.1-0.7
			c0.1-0.3,0.2-0.7,0.2-1.1v-2.3h0.8v4.7H103v-0.7c-0.1,0.2-0.2,0.3-0.4,0.5c-0.3,0.2-0.7,0.4-1.1,0.4c-0.5,0.1-1.1-0.2-1.3-0.7
			c-0.1-0.3-0.2-0.7-0.2-1v-3.1H100.8z"/>
		<path class="st7" d="M107.7,220.5c0.2,0.1,0.3,0.3,0.5,0.5v-2.4h0.8v6.5h-0.7v-0.7c-0.2,0.3-0.4,0.5-0.6,0.6
			c-0.3,0.1-0.6,0.2-0.9,0.2c-0.5,0-1-0.2-1.4-0.7c-0.4-0.5-0.6-1.1-0.6-1.8c0-0.6,0.2-1.3,0.5-1.8c0.3-0.5,0.9-0.8,1.5-0.8
			C107.2,220.3,107.5,220.4,107.7,220.5z M106,224.1c0.4,0.5,1.1,0.7,1.6,0.3c0.1-0.1,0.2-0.2,0.3-0.3c0.3-0.4,0.4-0.9,0.4-1.4
			c0-0.5-0.1-0.9-0.4-1.3c-0.2-0.3-0.5-0.4-0.9-0.4c-0.4,0-0.8,0.1-1,0.5c-0.3,0.4-0.4,0.9-0.4,1.3
			C105.6,223.2,105.7,223.7,106,224.1z"/>
		<path class="st7" d="M111,220.4v3.1c0,0.2,0,0.4,0.1,0.6c0.1,0.3,0.5,0.4,0.8,0.4c0.5,0,0.9-0.3,1.1-0.7c0.1-0.3,0.2-0.7,0.1-1.1
			v-2.3h0.8v4.7h-0.8v-0.7c-0.3,0.5-0.9,0.8-1.5,0.8c-0.5,0.1-1.1-0.2-1.3-0.7c-0.1-0.3-0.2-0.7-0.2-1v-3.1H111z M111,218.8h0.8v0.9
			H111V218.8z M112.4,218.8h0.8v0.9h-0.8V218.8z"/>
		<path class="st7" d="M115.8,223.6c0,0.2,0.1,0.4,0.2,0.6c0.3,0.3,0.7,0.4,1.1,0.4c0.3,0,0.5-0.1,0.8-0.2c0.2-0.1,0.3-0.3,0.3-0.6
			c0-0.2-0.1-0.4-0.3-0.5c-0.2-0.1-0.4-0.2-0.7-0.2l-0.6-0.1c-0.3-0.1-0.6-0.2-0.9-0.3c-0.3-0.2-0.5-0.5-0.5-0.9
			c0-0.4,0.2-0.8,0.5-1.1c0.4-0.3,0.8-0.4,1.3-0.4c0.6-0.1,1.2,0.2,1.6,0.6c0.2,0.2,0.3,0.5,0.3,0.9h-0.8c0-0.2-0.1-0.4-0.2-0.5
			c-0.3-0.2-0.6-0.4-1-0.3c-0.2,0-0.5,0-0.7,0.2c-0.2,0.1-0.2,0.3-0.2,0.5c0,0.2,0.1,0.4,0.3,0.5c0.2,0.1,0.3,0.2,0.5,0.2l0.5,0.1
			c0.4,0.1,0.8,0.2,1.2,0.4c0.3,0.2,0.5,0.6,0.5,1c0,0.4-0.2,0.8-0.5,1.1c-0.4,0.3-0.9,0.5-1.5,0.5c-0.5,0.1-1.1-0.1-1.5-0.5
			c-0.3-0.3-0.5-0.7-0.5-1.2L115.8,223.6z"/>
		<path class="st7" d="M70.7,232.5h2.8c0.6-0.1,1.2,0.2,1.6,0.7c0.2,0.3,0.3,0.6,0.3,0.9c0,0.4-0.1,0.7-0.4,1
			c-0.1,0.2-0.3,0.3-0.5,0.4c0.3,0.1,0.5,0.2,0.7,0.4c0.3,0.3,0.5,0.7,0.4,1.2c0,0.4-0.1,0.8-0.4,1.1c-0.5,0.5-1.2,0.8-1.9,0.8h-2.8
			V232.5z M73.2,235.2c0.3,0,0.6,0,0.9-0.1c0.3-0.2,0.5-0.5,0.5-0.9c0-0.4-0.2-0.7-0.5-0.9c-0.3-0.1-0.6-0.1-0.9-0.1h-1.6v2H73.2z
			 M73.4,238.2c0.4,0,0.9-0.1,1.2-0.5c0.2-0.2,0.2-0.5,0.2-0.7c0-0.4-0.2-0.8-0.6-1c-0.3-0.1-0.6-0.2-0.9-0.1h-1.8v2.3L73.4,238.2z"
			/>
		<path class="st7" d="M79.6,234.4c0.3,0.1,0.5,0.3,0.7,0.6c0.2,0.3,0.3,0.5,0.3,0.8c0.1,0.3,0.1,0.7,0.1,1h-3.4
			c0,0.4,0.1,0.8,0.3,1.1c0.2,0.3,0.6,0.5,1,0.4c0.4,0,0.7-0.1,1-0.4c0.1-0.2,0.2-0.3,0.3-0.5h0.8c0,0.2-0.1,0.4-0.2,0.6
			c-0.1,0.2-0.2,0.4-0.4,0.5c-0.2,0.2-0.6,0.4-0.9,0.5c-0.2,0.1-0.4,0.1-0.6,0.1c-0.6,0-1.2-0.2-1.6-0.6c-0.4-0.5-0.6-1.1-0.6-1.8
			c0-0.7,0.2-1.3,0.6-1.8c0.4-0.5,1-0.7,1.6-0.7C79,234.1,79.3,234.2,79.6,234.4z M79.9,236.2c0-0.3-0.1-0.6-0.2-0.8
			c-0.2-0.4-0.6-0.6-1.1-0.6c-0.3,0-0.7,0.1-0.9,0.4c-0.2,0.3-0.4,0.6-0.4,1H79.9z"/>
		<path class="st7" d="M84.7,234.2h0.9c-0.1,0.3-0.4,1-0.8,2.1c-0.3,0.8-0.5,1.5-0.7,2c-0.3,0.8-0.6,1.5-1,2.2
			c-0.2,0.3-0.6,0.5-1,0.4h-0.3c-0.1,0-0.1,0-0.2,0v-0.7l0.3,0.1h0.2c0.1,0,0.2,0,0.3-0.1c0.1-0.1,0.1-0.1,0.2-0.2
			c0,0,0.1-0.1,0.2-0.4l0.2-0.5l-1.7-4.9h0.9l1.3,3.8L84.7,234.2z"/>
		<path class="st7" d="M86.6,232.9h0.8v1.3h0.8v0.6h-0.8v3.1c0,0.1,0,0.3,0.2,0.3c0.1,0,0.2,0,0.3,0h0.3v0.6l-0.3,0.1h-0.3
			c-0.3,0-0.6-0.1-0.8-0.3c-0.1-0.2-0.2-0.5-0.2-0.7v-3.1h-0.6v-0.6h0.6V232.9z"/>
		<path class="st7" d="M89.8,234.2v3.1c0,0.2,0,0.4,0.1,0.6c0.1,0.3,0.4,0.5,0.8,0.4c0.5,0,0.9-0.3,1.1-0.7c0.1-0.4,0.2-0.7,0.2-1.1
			v-2.3h0.8v4.7H92v-0.7c-0.1,0.2-0.2,0.3-0.4,0.5c-0.3,0.2-0.7,0.4-1.1,0.4c-0.5,0.1-1.1-0.2-1.3-0.7c-0.2-0.3-0.2-0.7-0.2-1v-3.2
			L89.8,234.2z"/>
		<path class="st7" d="M94.1,232.5h0.8v6.5h-0.8V232.5z"/>
		<path class="st7" d="M96.2,232.5H97v6.5h-0.8L96.2,232.5z"/>
		<path class="st7" d="M100.8,236.1c0.2,0,0.3-0.1,0.4-0.2c0-0.1,0.1-0.2,0.1-0.3c0-0.2-0.1-0.5-0.3-0.6c-0.3-0.1-0.5-0.2-0.8-0.2
			c-0.3,0-0.7,0.1-0.9,0.3c-0.1,0.2-0.2,0.4-0.2,0.5h-0.7c0-0.5,0.2-0.9,0.6-1.2c0.4-0.2,0.8-0.4,1.3-0.3c0.5,0,0.9,0.1,1.4,0.3
			c0.3,0.2,0.5,0.6,0.5,1v2.7c0,0.1,0,0.1,0,0.2c0.1,0.1,0.1,0.1,0.2,0.1h0.1h0.1v0.6l-0.3,0.1h-0.3c-0.2,0-0.5-0.1-0.6-0.3
			c-0.1-0.1-0.1-0.3-0.1-0.4c-0.2,0.2-0.4,0.4-0.7,0.5c-0.3,0.2-0.7,0.2-1,0.2c-0.4,0-0.8-0.1-1.1-0.4c-0.3-0.3-0.4-0.6-0.4-1
			c0-0.4,0.1-0.7,0.4-1c0.3-0.3,0.7-0.4,1.1-0.4L100.8,236.1z M99.1,238.2c0.2,0.1,0.4,0.2,0.6,0.2c0.3,0,0.6-0.1,0.8-0.2
			c0.4-0.2,0.7-0.6,0.7-1v-0.6c-0.1,0.1-0.2,0.1-0.4,0.1l-0.4,0.1l-0.5,0.1c-0.2,0-0.4,0.1-0.6,0.2c-0.2,0.1-0.4,0.4-0.4,0.7
			C98.8,237.9,98.9,238.1,99.1,238.2L99.1,238.2z"/>
		<path class="st7" d="M103.4,232.4h0.8v2.4c0.1-0.2,0.3-0.4,0.5-0.5c0.3-0.2,0.6-0.3,0.9-0.3c0.6-0.1,1.1,0.2,1.4,0.7
			c0.1,0.3,0.2,0.7,0.2,1.1v3h-0.8v-3c0-0.3,0-0.5-0.1-0.8c-0.2-0.3-0.5-0.4-0.8-0.4c-0.3,0-0.6,0.1-0.9,0.3
			c-0.3,0.3-0.5,0.8-0.4,1.3v2.5h-0.8L103.4,232.4z"/>
		<path class="st7" d="M108.4,232.5h0.8v0.9h-0.8V232.5z M108.4,234.2h0.8v4.7h-0.8V234.2z"/>
		<path class="st7" d="M110.5,234.2h0.8v0.7c0.1-0.2,0.3-0.4,0.5-0.5c0.3-0.2,0.6-0.3,0.9-0.3c0.3,0,0.6,0.1,0.9,0.3
			c0.1,0.1,0.3,0.3,0.4,0.5c0.2-0.2,0.4-0.4,0.6-0.6c0.2-0.1,0.5-0.2,0.8-0.2c0.5-0.1,1,0.2,1.3,0.7c0.1,0.3,0.2,0.7,0.2,1v3.1H116
			v-3.3c0-0.2-0.1-0.5-0.2-0.6c-0.2-0.1-0.4-0.2-0.6-0.2c-0.3,0-0.6,0.1-0.8,0.3c-0.2,0.3-0.4,0.6-0.3,1v2.7h-0.8v-3.1
			c0-0.2,0-0.5-0.1-0.7c-0.1-0.2-0.4-0.4-0.7-0.3c-0.3,0-0.6,0.1-0.8,0.4c-0.3,0.4-0.4,0.8-0.4,1.3v2.5h-0.8L110.5,234.2z"/>
		<path d="M71.7,68.5h0.9v2.7h3.3v-2.7h0.9V75h-0.9v-3h-3.3v3h-0.9V68.5z"/>
		<path d="M80.7,72.1c0.2,0,0.3-0.1,0.4-0.2c0-0.1,0-0.2,0-0.3c0-0.2-0.1-0.5-0.3-0.6c-0.2-0.1-0.5-0.2-0.8-0.2
			c-0.3,0-0.7,0.1-0.9,0.3c-0.1,0.2-0.2,0.4-0.2,0.6h-0.7c0-0.5,0.2-0.9,0.6-1.2c0.4-0.2,0.8-0.4,1.3-0.4c0.5,0,0.9,0.1,1.4,0.3
			c0.3,0.2,0.5,0.6,0.5,1v2.7c0,0.1,0,0.1,0.1,0.2c0.1,0.1,0.1,0.1,0.2,0.1h0.1h0.1V75l-0.3,0.1h-0.3c-0.2,0-0.5-0.1-0.6-0.3
			c-0.1-0.1-0.1-0.3-0.1-0.4c-0.2,0.2-0.4,0.4-0.7,0.6c-0.3,0.2-0.7,0.2-1,0.2c-0.4,0-0.8-0.1-1.1-0.4c-0.3-0.3-0.4-0.6-0.4-1
			c0-0.4,0.1-0.7,0.4-1c0.3-0.3,0.7-0.4,1.1-0.4L80.7,72.1z M79.1,74.3c0.2,0.1,0.4,0.2,0.6,0.2c0.3,0,0.6-0.1,0.8-0.2
			c0.4-0.2,0.7-0.6,0.7-1.1v-0.6c-0.1,0.1-0.2,0.1-0.4,0.2c-0.1,0-0.3,0.1-0.4,0.1l-0.5,0.1c-0.2,0-0.4,0.1-0.6,0.2
			c-0.2,0.1-0.4,0.4-0.4,0.6C78.8,73.9,78.9,74.1,79.1,74.3z"/>
		<path d="M86.2,70.3h0.9c-0.1,0.3-0.4,1-0.7,2.1c-0.3,0.8-0.5,1.5-0.7,2c-0.3,0.8-0.6,1.5-1,2.2c-0.2,0.3-0.6,0.4-1,0.4h-0.3
			l-0.2-0.1v-0.7l0.3,0.1h0.2c0.1,0,0.2,0,0.3-0.1c0.1,0,0.1-0.1,0.2-0.2l0.1-0.4c0.1-0.2,0.2-0.4,0.2-0.5l-1.7-4.8h0.9l1.3,3.8
			L86.2,70.3z"/>
		<path d="M88.3,68.8c0.3-0.3,0.7-0.5,1.1-0.4h0.3v0.7h-0.2h-0.1c-0.2,0-0.4,0.1-0.4,0.2c-0.1,0.3-0.1,0.7-0.1,1h0.8V71h-0.8V75
			h-0.8V71h-0.6v-0.6h0.6v-0.7C88.1,69.3,88.1,69.1,88.3,68.8z"/>
		<path d="M93,72.1c0.2,0,0.3-0.1,0.4-0.2c0.1-0.3,0-0.7-0.2-0.9c-0.2-0.1-0.5-0.2-0.8-0.2c-0.3,0-0.7,0.1-0.9,0.3
			c-0.1,0.2-0.2,0.4-0.2,0.6h-0.7c0-0.5,0.2-0.9,0.6-1.2c0.4-0.2,0.8-0.4,1.3-0.4c0.5,0,0.9,0.1,1.4,0.3c0.3,0.2,0.5,0.6,0.5,1v2.7
			c0,0.1,0,0.1,0.1,0.2c0.1,0.1,0.1,0.1,0.2,0.1h0.1h0.1V75l-0.3,0.1h-0.3c-0.2,0-0.5-0.1-0.6-0.3c-0.1-0.1-0.1-0.3-0.1-0.4
			c-0.4,0.5-1,0.8-1.7,0.8c-0.4,0-0.8-0.1-1.1-0.4c-0.3-0.3-0.4-0.6-0.4-1c0-0.4,0.1-0.7,0.4-1c0.3-0.3,0.7-0.4,1.1-0.4L93,72.1z
			 M91.3,74.3c0.2,0.1,0.4,0.2,0.6,0.2c0.3,0,0.6-0.1,0.8-0.2c0.4-0.2,0.7-0.6,0.7-1.1v-0.6c-0.1,0.1-0.2,0.1-0.4,0.2
			c-0.1,0-0.3,0.1-0.4,0.1l-0.5,0.1c-0.2,0-0.4,0.1-0.6,0.2c-0.2,0.1-0.4,0.4-0.4,0.6C91.1,73.9,91.2,74.1,91.3,74.3z"/>
		<path d="M155,485.4h0.9v6.5H155V485.4z M155,483.9h0.8v0.9H155V483.9z"/>
		<path d="M157.7,490.4c0,0.2,0.1,0.4,0.2,0.6c0.3,0.3,0.7,0.4,1.1,0.4c0.3,0,0.5-0.1,0.8-0.2c0.2-0.1,0.4-0.3,0.3-0.6
			c0-0.2-0.1-0.4-0.3-0.5c-0.2-0.1-0.5-0.2-0.7-0.2l-0.6-0.2c-0.3-0.1-0.6-0.2-0.9-0.3c-0.3-0.2-0.5-0.5-0.5-0.9
			c0-0.4,0.2-0.8,0.5-1.1c0.4-0.3,0.8-0.4,1.3-0.4c0.6-0.1,1.2,0.2,1.6,0.6c0.2,0.2,0.3,0.5,0.3,0.8H160c0-0.2-0.1-0.3-0.2-0.5
			c-0.3-0.2-0.6-0.4-1-0.3c-0.2,0-0.5,0-0.7,0.2c-0.3,0.2-0.4,0.5-0.2,0.8c0.1,0.1,0.2,0.2,0.3,0.2c0.2,0.1,0.3,0.2,0.5,0.2l0.5,0.1
			c0.4,0.1,0.8,0.2,1.2,0.4c0.3,0.2,0.5,0.6,0.5,1c0,0.4-0.2,0.8-0.5,1.1c-0.4,0.3-0.9,0.5-1.5,0.5c-0.5,0.1-1.1-0.1-1.5-0.5
			c-0.3-0.3-0.5-0.7-0.5-1.2L157.7,490.4z"/>
		<path d="M161.9,487.1h0.8v0.8c0.1-0.2,0.3-0.4,0.5-0.6c0.2-0.2,0.5-0.3,0.8-0.3h0.1h0.2v0.8H164h-0.1c-0.3,0-0.7,0.1-0.9,0.4
			c-0.2,0.2-0.3,0.6-0.3,0.9v2.7h-0.8L161.9,487.1z"/>
		<path d="M167.5,489c0.2,0,0.3-0.1,0.4-0.2c0-0.1,0-0.2,0-0.3c0-0.2-0.1-0.5-0.3-0.6c-0.3-0.1-0.5-0.2-0.8-0.2
			c-0.3,0-0.7,0.1-0.9,0.3c-0.1,0.2-0.2,0.4-0.2,0.6H165c0-0.5,0.2-0.9,0.6-1.2c0.4-0.2,0.8-0.3,1.3-0.3c0.5,0,0.9,0.1,1.4,0.3
			c0.4,0.2,0.6,0.6,0.5,1v2.7c0,0.1,0,0.1,0,0.2c0.1,0.1,0.1,0.1,0.2,0.1h0.1h0.1v0.6c-0.1,0-0.2,0.1-0.3,0.1h-0.3
			c-0.2,0-0.5-0.1-0.6-0.3c-0.1-0.1-0.1-0.3-0.1-0.4c-0.2,0.2-0.4,0.4-0.7,0.5c-0.3,0.2-0.7,0.2-1,0.2c-0.4,0-0.8-0.1-1.1-0.4
			c-0.3-0.3-0.4-0.6-0.4-1c0-0.4,0.1-0.7,0.4-1c0.3-0.3,0.7-0.4,1.1-0.5L167.5,489z M165.8,491.1c0.2,0.1,0.4,0.2,0.6,0.2
			c0.3,0,0.6-0.1,0.8-0.2c0.4-0.2,0.7-0.6,0.7-1v-0.7c-0.1,0.1-0.2,0.1-0.4,0.2c-0.1,0-0.3,0.1-0.4,0.1l-0.5,0.1
			c-0.2,0-0.4,0.1-0.6,0.2c-0.2,0.1-0.4,0.4-0.4,0.7C165.5,490.8,165.6,491,165.8,491.1L165.8,491.1z"/>
		<path d="M170,485.4h0.8v0.9H170V485.4z M170,487.2h0.8v4.7H170V487.2z"/>
		<path d="M172.1,485.4h0.8v6.5h-0.8V485.4z"/>
		<path class="st5" d="M152.2,488.7c0,3.5-2.8,6.3-6.3,6.3s-6.3-2.8-6.3-6.3c0-3.5,2.8-6.3,6.3-6.3c0,0,0,0,0,0
			C149.4,482.3,152.2,485.2,152.2,488.7L152.2,488.7z"/>
		<path d="M155,468h4.5v0.8h-3.6v2h3.1v0.8h-3.2v2.9H155V468z"/>
		<path d="M160.4,468h0.8v0.9h-0.8V468z M160.4,469.8h0.8v4.7h-0.8V469.8z"/>
		<path d="M162.5,468h0.8v6.5h-0.8V468z"/>
		<path d="M164.5,468h0.8v0.9h-0.8V468z M164.5,469.8h0.8v4.7h-0.8V469.8z"/>
		<path d="M167.1,473c0,0.2,0.1,0.4,0.2,0.6c0.3,0.3,0.7,0.4,1.1,0.4c0.3,0,0.5-0.1,0.8-0.2c0.2-0.1,0.3-0.3,0.3-0.6
			c0-0.2-0.1-0.4-0.3-0.5c-0.2-0.1-0.5-0.2-0.7-0.2l-0.6-0.2c-0.3-0.1-0.6-0.2-0.9-0.3c-0.3-0.2-0.5-0.5-0.5-0.9
			c0-0.4,0.2-0.8,0.5-1.1c0.4-0.3,0.8-0.4,1.3-0.4c0.6-0.1,1.2,0.2,1.6,0.6c0.2,0.2,0.3,0.5,0.3,0.9h-0.7c0-0.2-0.1-0.3-0.2-0.5
			c-0.3-0.2-0.6-0.4-1-0.3c-0.2,0-0.5,0-0.7,0.2c-0.2,0.1-0.2,0.3-0.2,0.5c0,0.2,0.1,0.4,0.3,0.5c0.2,0.1,0.3,0.2,0.5,0.2l0.5,0.1
			c0.4,0.1,0.8,0.2,1.2,0.4c0.3,0.2,0.5,0.6,0.5,1c0,0.4-0.2,0.8-0.5,1.1c-0.4,0.3-0.9,0.5-1.5,0.5c-0.5,0.1-1.1-0.1-1.5-0.5
			c-0.3-0.3-0.5-0.7-0.5-1.2L167.1,473z"/>
		<path d="M171.4,468.5h0.8v1.3h0.8v0.6h-0.8v3.1c0,0.2,0,0.3,0.2,0.3c0.1,0,0.2,0.1,0.3,0h0.1h0.2v0.6c-0.1,0-0.2,0.1-0.3,0.1h-0.3
			c-0.3,0-0.6-0.1-0.8-0.3c-0.1-0.2-0.2-0.5-0.2-0.7v-3.1h-0.6v-0.7h0.6L171.4,468.5z"/>
		<path d="M173.8,468h0.8v0.9h-0.8V468z M173.8,469.8h0.8v4.7h-0.8V469.8z"/>
		<path d="M175.9,469.8h0.8v0.6c0.2-0.2,0.4-0.4,0.7-0.6c0.3-0.1,0.5-0.2,0.8-0.2c0.6-0.1,1.1,0.2,1.4,0.7c0.1,0.3,0.2,0.7,0.2,1.1
			v3h-0.8v-3c0-0.2,0-0.5-0.1-0.7c-0.2-0.3-0.5-0.4-0.8-0.3c-0.2,0-0.3,0-0.5,0.1c-0.2,0.1-0.4,0.2-0.6,0.4
			c-0.1,0.1-0.2,0.3-0.3,0.5c0,0.2-0.1,0.5-0.1,0.7v2.5h-0.8L175.9,469.8z"/>
		<path class="st4" d="M152.3,471.3c0,3.5-2.8,6.3-6.3,6.3c-3.5,0-6.3-2.8-6.3-6.3c0-3.5,2.8-6.3,6.3-6.3
			C149.5,465,152.3,467.8,152.3,471.3C152.3,471.3,152.3,471.3,152.3,471.3z"/>
		<rect x="0.3" y="0.4" class="st0" width="55" height="28"/>
		<path d="M55.7,28.7H0V0h55.7V28.7z M0.7,28H55V0.8H0.7V28z"/>
		<path d="M11.7,13.9c0,0.4,0.1,0.7,0.3,1c0.4,0.5,1,0.8,1.7,0.7c0.3,0,0.6,0,0.9-0.2c0.5-0.1,0.8-0.5,0.8-1c0-0.3-0.1-0.6-0.3-0.8
			c-0.3-0.2-0.7-0.4-1.1-0.4L13,12.9c-0.5-0.1-0.9-0.2-1.3-0.5c-0.4-0.3-0.7-0.8-0.7-1.3c0-0.6,0.2-1.2,0.7-1.6
			c0.5-0.4,1.2-0.7,1.8-0.6c0.7,0,1.3,0.2,1.9,0.5c0.5,0.4,0.8,1.1,0.8,1.7h-0.9c0-0.3-0.1-0.6-0.3-0.9c-0.4-0.4-0.9-0.6-1.4-0.6
			c-0.4,0-0.8,0.1-1.2,0.4c-0.2,0.2-0.4,0.5-0.4,0.8c0,0.3,0.1,0.6,0.4,0.8c0.4,0.2,0.8,0.3,1.3,0.4l1,0.2c0.4,0.1,0.8,0.2,1.1,0.4
			c0.4,0.4,0.7,0.9,0.7,1.5c0.1,0.7-0.3,1.3-0.8,1.7c-0.6,0.3-1.2,0.5-1.8,0.5l-0.3,0.4c0.1,0,0.2-0.1,0.4-0.1
			c0.2,0,0.4,0.1,0.6,0.2c0.2,0.1,0.2,0.3,0.2,0.6c0,0.2-0.1,0.5-0.3,0.6c-0.3,0.2-0.6,0.3-0.9,0.3c-0.2,0-0.4,0-0.5-0.1
			c-0.1,0-0.3-0.1-0.4-0.1l0.2-0.4l0.3,0.1c0.1,0,0.2,0.1,0.4,0.1c0.1,0,0.2,0,0.3-0.1c0.2-0.1,0.3-0.2,0.3-0.4c0-0.1,0-0.2-0.1-0.3
			c-0.1-0.1-0.2-0.1-0.3-0.1c-0.1,0-0.1,0-0.2,0l-0.2,0.1l-0.2-0.2l0.5-0.7c-0.6,0-1.3-0.2-1.7-0.7c-0.5-0.5-0.8-1.1-0.7-1.8
			L11.7,13.9z"/>
		<path d="M18.6,11v3.4c0,0.2,0,0.5,0.1,0.7c0.2,0.3,0.5,0.5,0.8,0.5c0.5,0,1-0.3,1.2-0.8c0.1-0.4,0.2-0.8,0.2-1.2V11h0.9v5.2H21
			v-0.8c-0.1,0.2-0.2,0.4-0.4,0.5c-0.3,0.3-0.8,0.4-1.2,0.4c-0.6,0.1-1.2-0.2-1.5-0.8c-0.2-0.3-0.2-0.7-0.2-1.1V11H18.6z"/>
		<path d="M29.1,13.1c0.2,0,0.3-0.1,0.4-0.3c0-0.1,0.1-0.2,0.1-0.3c0-0.3-0.1-0.5-0.3-0.7c-0.3-0.2-0.6-0.2-0.9-0.2
			c-0.4,0-0.7,0.1-1,0.4c-0.1,0.2-0.2,0.4-0.2,0.6h-0.8c0-0.5,0.2-1,0.6-1.3c0.4-0.3,0.9-0.4,1.4-0.4c0.5,0,1,0.1,1.5,0.4
			c0.4,0.2,0.6,0.6,0.6,1.1v3c0,0.1,0,0.2,0.1,0.2c0,0.1,0.1,0.1,0.2,0.1h0.1h0.2v0.6c-0.1,0-0.2,0.1-0.3,0.1h-0.3
			c-0.3,0-0.5-0.1-0.7-0.3c-0.1-0.1-0.1-0.3-0.2-0.5c-0.5,0.6-1.2,0.9-1.9,0.9c-0.4,0-0.9-0.1-1.2-0.4c-0.6-0.6-0.6-1.6,0-2.2
			c0.3-0.3,0.8-0.4,1.2-0.5L29.1,13.1z M27.2,15.4c0.2,0.1,0.4,0.2,0.7,0.2c0.3,0,0.6-0.1,0.9-0.2c0.5-0.2,0.8-0.7,0.7-1.2v-0.7
			c-0.1,0.1-0.3,0.1-0.4,0.2c-0.2,0-0.3,0.1-0.5,0.1l-0.5,0.1c-0.2,0-0.5,0.1-0.7,0.2c-0.3,0.1-0.4,0.4-0.4,0.7
			C26.9,15.1,27,15.3,27.2,15.4z"/>
		<path d="M31.9,11h0.8v0.7c0.2-0.3,0.5-0.5,0.8-0.7c0.3-0.1,0.6-0.2,0.9-0.2c0.6-0.1,1.2,0.2,1.5,0.8c0.2,0.4,0.2,0.8,0.2,1.2v3.4
			h-0.9v-3.3c0-0.3,0-0.5-0.1-0.8c-0.2-0.3-0.5-0.5-0.8-0.5c-0.2,0-0.3,0-0.5,0.1c-0.2,0.1-0.5,0.2-0.6,0.4
			c-0.1,0.1-0.2,0.3-0.3,0.5c-0.1,0.3-0.1,0.5-0.1,0.8v2.7h-0.9V11z"/>
		<path d="M40.4,11.2c0.2,0.1,0.4,0.3,0.5,0.5V9h0.8v7.2H41v-0.7c-0.2,0.3-0.4,0.5-0.7,0.7c-0.3,0.2-0.7,0.2-1,0.2
			c-0.6,0-1.1-0.3-1.5-0.7c-0.5-0.6-0.7-1.3-0.6-2c0-0.7,0.2-1.4,0.6-2c0.4-0.6,1-0.9,1.7-0.8C39.8,10.8,40.1,10.9,40.4,11.2z
			 M38.4,15.1c0.2,0.4,0.7,0.6,1.1,0.6c0.4,0,0.8-0.2,1-0.5c0.3-0.4,0.4-1,0.4-1.5c0-0.5-0.1-1-0.4-1.5c-0.2-0.3-0.6-0.5-1-0.5
			c-0.4,0-0.8,0.2-1.1,0.5c-0.3,0.4-0.4,1-0.4,1.5C38.1,14.2,38.2,14.7,38.4,15.1L38.4,15.1z"/>
		<path d="M46,13.1c0.2,0,0.3-0.1,0.4-0.3c0-0.1,0.1-0.2,0.1-0.3c0-0.3-0.1-0.5-0.3-0.7c-0.3-0.2-0.6-0.2-0.9-0.2
			c-0.4,0-0.7,0.1-1,0.4c-0.1,0.2-0.2,0.4-0.2,0.6h-0.8c0-0.5,0.2-1,0.6-1.3c0.4-0.3,0.9-0.4,1.4-0.4c0.5,0,1,0.1,1.5,0.4
			c0.4,0.2,0.6,0.6,0.6,1.1v3c0,0.1,0,0.2,0.1,0.2c0,0.1,0.1,0.1,0.2,0.1h0.1h0.2v0.6l-0.3,0.1h-0.3c-0.3,0-0.5-0.1-0.7-0.3
			c-0.1-0.1-0.1-0.3-0.2-0.5c-0.2,0.3-0.5,0.5-0.8,0.6c-0.3,0.2-0.7,0.3-1.1,0.3c-0.4,0-0.9-0.1-1.2-0.4c-0.6-0.6-0.6-1.6,0-2.2
			c0,0,0,0,0,0c0.3-0.3,0.8-0.4,1.2-0.5L46,13.1z M44.2,15.4c0.2,0.1,0.4,0.2,0.7,0.2c0.3,0,0.6-0.1,0.9-0.2
			c0.5-0.2,0.8-0.7,0.7-1.2v-0.7c-0.1,0.1-0.3,0.1-0.4,0.2c-0.2,0-0.3,0.1-0.5,0.1L45,13.9c-0.3,0-0.5,0.1-0.7,0.2
			c-0.3,0.1-0.4,0.4-0.4,0.7C43.9,15.1,44,15.3,44.2,15.4z"/>
		<rect x="103.9" y="538.8" class="st4" width="76.9" height="15.2"/>
		<polygon class="st5" points="87.4,538.8 68.6,538.8 48.4,538.8 42,538.8 7.8,538.8 7.8,554 42,554 48.4,554 68.6,554 87.4,554 
			102.4,554 102.4,538.8 		"/>
		<rect x="15.7" y="600.1" class="st5" width="86.8" height="15.2"/>
		<rect x="103.9" y="600.1" class="st4" width="10.2" height="15.2"/>
		<path d="M65.2,561.7c0,0.6-0.6,1.1-1.4,1.1s-1.4-0.5-1.4-1.1c0-0.5,0.3-1,0.8-1.1c-0.4-0.1-0.8-0.5-0.7-0.9c0-0.6,0.5-1,1.3-1
			c0.8,0,1.3,0.4,1.3,1c0,0.4-0.3,0.8-0.7,0.9C64.9,560.7,65.3,561.2,65.2,561.7z M63.8,560.8c-0.6,0-1,0.3-1,0.8s0.4,0.8,1,0.8
			c0.4,0.1,0.9-0.2,0.9-0.7c0.1-0.4-0.2-0.9-0.7-0.9C64,560.8,63.9,560.8,63.8,560.8L63.8,560.8z M63.8,559c-0.6,0-0.8,0.3-0.8,0.7
			c0,0.4,0.4,0.7,0.8,0.7c0,0,0,0,0.1,0c0.4,0,0.8-0.2,0.8-0.6c0,0,0-0.1,0-0.1C64.6,559.3,64.3,559,63.8,559L63.8,559z"/>
		<path d="M66.1,562.7v-0.8h0.5v0.8H66.1z"/>
		<path d="M69.8,559.6c0-0.4-0.3-0.6-0.7-0.6c-0.7,0-1.1,0.5-1.1,1.7c0.3-0.4,0.7-0.6,1.1-0.6c0.7,0,1.2,0.5,1.3,1.2
			c0,0.1,0,0.1,0,0.2c0,0.7-0.6,1.3-1.3,1.3c0,0-0.1,0-0.1,0c-1,0-1.5-0.8-1.5-1.9c0-1.5,0.7-2.2,1.6-2.2c0.7,0,1.2,0.3,1.2,0.9
			H69.8z M69,562.4c0.5,0,0.9-0.3,0.9-0.8c0,0,0-0.1,0-0.1c0-0.5-0.3-1-0.9-1c-0.4,0-0.9,0.2-1.1,0.6C68,561.8,68.3,562.4,69,562.4z
			"/>
		<path d="M71.3,560.7c0-1.3,0.6-2.1,1.6-2.1s1.6,0.8,1.6,2.1s-0.6,2.1-1.6,2.1S71.3,562,71.3,560.7z M74.1,560.7
			c0-1-0.4-1.6-1.1-1.6s-1.1,0.6-1.1,1.6s0.4,1.6,1.1,1.6S74.1,561.8,74.1,560.7z"/>
		<path d="M75.6,560.7c0-1.3,0.6-2.1,1.6-2.1s1.6,0.8,1.6,2.1s-0.6,2.1-1.6,2.1S75.6,562,75.6,560.7z M78.3,560.7
			c0-1-0.4-1.6-1.1-1.6s-1.1,0.6-1.1,1.6s0.4,1.6,1.1,1.6S78.3,561.8,78.3,560.7z"/>
		<path d="M79.7,562.7v-0.8h0.5v0.8H79.7z"/>
		<path d="M81.1,560.7c0-1.3,0.6-2.1,1.6-2.1s1.6,0.8,1.6,2.1s-0.6,2.1-1.6,2.1S81.1,562,81.1,560.7z M83.9,560.7
			c0-1-0.4-1.6-1.1-1.6s-1.1,0.6-1.1,1.6s0.4,1.7,1.1,1.7S83.9,561.8,83.9,560.7z"/>
		<path d="M85.3,560.7c0-1.3,0.6-2.1,1.6-2.1s1.6,0.8,1.6,2.1s-0.6,2.1-1.6,2.1S85.3,562,85.3,560.7z M88.1,560.7
			c0-1-0.4-1.6-1.1-1.6s-1.1,0.6-1.1,1.6s0.4,1.7,1.2,1.7S88.1,561.8,88.1,560.7L88.1,560.7z"/>
		<path d="M89.5,560.7c0-1.3,0.6-2.1,1.6-2.1s1.6,0.8,1.6,2.1s-0.6,2.1-1.6,2.1S89.5,562,89.5,560.7z M92.3,560.7
			c0-1-0.4-1.6-1.1-1.6s-1.1,0.6-1.1,1.6s0.4,1.6,1.1,1.6S92.3,561.8,92.3,560.7L92.3,560.7z"/>
		<path d="M106.9,562.7c0.4-1.3,1-2.5,1.8-3.6h-2.2v-0.4h2.8v0.4c-0.8,1.1-1.4,2.3-1.8,3.6H106.9z"/>
		<path d="M109.4,562.7v-0.8h0.5v0.8H109.4z"/>
		<path d="M110.8,562.7v-0.3c1-0.9,2.2-1.5,2.2-2.5c0.1-0.4-0.2-0.8-0.6-0.8c-0.1,0-0.1,0-0.2,0c-0.4,0-0.9,0.1-0.9,0.9h-0.5
			c0-0.7,0.5-1.3,1.2-1.3c0.1,0,0.1,0,0.2,0c0.6-0.1,1.2,0.4,1.3,1c0,0.1,0,0.1,0,0.2c0,1-1.3,1.8-1.9,2.4h2v0.4L110.8,562.7z"/>
		<path d="M114.6,560.7c0-1.3,0.6-2.1,1.6-2.1s1.6,0.8,1.6,2.1s-0.6,2.1-1.6,2.1S114.6,562,114.6,560.7z M117.3,560.7
			c0-1-0.4-1.6-1.1-1.6s-1.1,0.6-1.1,1.6s0.4,1.6,1.1,1.6S117.3,561.8,117.3,560.7z"/>
		<path d="M118.8,560.7c0-1.3,0.6-2.1,1.6-2.1s1.6,0.8,1.6,2.1s-0.6,2.1-1.6,2.1S118.8,562,118.8,560.7z M121.6,560.7
			c0-1-0.4-1.6-1.1-1.6s-1.1,0.6-1.1,1.6s0.4,1.6,1.1,1.6S121.6,561.8,121.6,560.7z"/>
		<path d="M122.9,562.7v-0.8h0.5v0.8H122.9z"/>
		<path d="M124.3,560.7c0-1.3,0.6-2.1,1.6-2.1s1.6,0.8,1.6,2.1s-0.6,2.1-1.6,2.1S124.3,562,124.3,560.7z M127.1,560.7
			c0-1-0.4-1.6-1.1-1.6s-1.1,0.6-1.1,1.6s0.4,1.6,1.1,1.6S127.1,561.8,127.1,560.7z"/>
		<path d="M128.5,560.7c0-1.3,0.6-2.1,1.6-2.1s1.6,0.8,1.6,2.1s-0.6,2.1-1.6,2.1S128.5,562,128.5,560.7z M131.3,560.7
			c0-1-0.4-1.6-1.1-1.6s-1.1,0.6-1.1,1.6s0.4,1.6,1.1,1.6S131.3,561.8,131.3,560.7L131.3,560.7z"/>
		<path d="M132.8,560.7c0-1.3,0.6-2.1,1.6-2.1s1.6,0.8,1.6,2.1s-0.6,2.1-1.6,2.1S132.8,562,132.8,560.7z M135.6,560.7
			c0-1-0.4-1.6-1.1-1.6s-1.1,0.6-1.1,1.6s0.4,1.6,1.1,1.6S135.6,561.8,135.6,560.7z"/>
		<path d="M85.5,621c-0.1-0.5,0.3-0.9,0.7-1c0.1,0,0.1,0,0.2,0c0.5,0.2,0.8,0.7,0.6,1.3c-0.1,0.3-0.3,0.5-0.6,0.6
			C85.9,622,85.5,621.6,85.5,621C85.5,621.1,85.5,621.1,85.5,621z M86.9,621c0-0.4-0.2-0.7-0.5-0.7s-0.5,0.2-0.5,0.7
			s0.2,0.6,0.5,0.6S86.9,621.4,86.9,621z M86.5,624l2.4-4.2h0.4l-2.4,4.2H86.5z M88.2,623.1c0-0.5,0.4-0.9,0.9-0.9s0.9,0.4,0.9,0.9
			c0,0.5-0.4,0.9-0.9,0.9c-0.5,0-0.9-0.3-0.9-0.8C88.2,623.2,88.2,623.2,88.2,623.1L88.2,623.1z M89.6,623.1c0-0.4-0.2-0.7-0.5-0.7
			s-0.5,0.2-0.5,0.7s0.2,0.6,0.5,0.6S89.6,623.5,89.6,623.1L89.6,623.1z"/>
		<path d="M93.8,623.1c0,0.6-0.6,1.1-1.4,1.1s-1.4-0.5-1.4-1.1c0-0.5,0.3-1,0.9-1.1c-0.4-0.1-0.8-0.5-0.7-0.9c0-0.6,0.5-1,1.3-1
			s1.3,0.4,1.3,1c0,0.4-0.3,0.8-0.7,0.9C93.4,622.1,93.8,622.5,93.8,623.1z M92.3,622.2c-0.6,0-0.9,0.3-0.9,0.8s0.4,0.8,0.9,0.8
			c0.5,0.1,0.9-0.3,0.9-0.7c0,0,0,0,0-0.1c0-0.5-0.4-0.8-0.8-0.8C92.4,622.2,92.4,622.2,92.3,622.2L92.3,622.2z M92.3,620.4
			c-0.6,0-0.9,0.3-0.9,0.7c0,0.4,0.4,0.7,0.8,0.7c0,0,0,0,0.1,0c0.4,0,0.8-0.2,0.8-0.6c0,0,0-0.1,0-0.1
			C93.2,620.7,92.9,620.4,92.3,620.4L92.3,620.4z"/>
		<path d="M94.7,622.1c0-1.3,0.6-2.1,1.6-2.1s1.6,0.8,1.6,2.1s-0.6,2.1-1.6,2.1S94.7,623.4,94.7,622.1z M97.5,622.1
			c0-1-0.4-1.6-1.1-1.6s-1.1,0.6-1.1,1.6s0.4,1.6,1.1,1.6S97.5,623.1,97.5,622.1z"/>
		<path d="M106.6,621c0-0.5,0.5-0.9,1-0.9c0.5,0,0.9,0.5,0.9,1c0,0.5-0.4,0.9-0.9,0.9c-0.5,0-0.9-0.3-0.9-0.8
			C106.6,621.2,106.6,621.1,106.6,621z M108.1,621c0-0.4-0.2-0.7-0.5-0.7s-0.5,0.2-0.5,0.7s0.2,0.6,0.5,0.6S108.1,621.4,108.1,621z
			 M107.6,624l2.3-4.2h0.4l-2.3,4.2L107.6,624z M109.3,623.1c0-0.5,0.4-0.9,0.9-0.9s0.9,0.4,0.9,0.9c0,0.5-0.4,0.9-0.9,0.9
			c-0.5,0-0.9-0.3-0.9-0.8C109.3,623.2,109.3,623.2,109.3,623.1L109.3,623.1z M110.8,623.1c0-0.4-0.2-0.7-0.5-0.7s-0.5,0.2-0.5,0.7
			s0.2,0.6,0.5,0.6S110.8,623.5,110.8,623.1L110.8,623.1z"/>
		<path d="M112,624.1v-0.3c1-0.9,2.3-1.5,2.3-2.5c0-0.4-0.2-0.8-0.7-0.8c-0.1,0-0.1,0-0.2,0c-0.4,0-0.9,0.1-0.9,0.9H112
			c0-0.7,0.5-1.3,1.2-1.3c0.1,0,0.1,0,0.2,0c0.6-0.1,1.2,0.4,1.3,1c0,0.1,0,0.1,0,0.2c0,1-1.3,1.8-1.9,2.4h2v0.4L112,624.1z"/>
		<path d="M115.8,622.1c0-1.3,0.6-2.1,1.6-2.1s1.6,0.8,1.6,2.1s-0.6,2.1-1.6,2.1S115.8,623.4,115.8,622.1z M118.6,622.1
			c0-1-0.4-1.6-1.1-1.6s-1.1,0.6-1.1,1.6s0.4,1.6,1.1,1.6S118.6,623.1,118.6,622.1z"/>
		<rect x="102.5" y="532.9" class="st0" width="1.4" height="35.1"/>
		<rect x="93" y="531.5" class="st0" width="20.3" height="1.4"/>
		<path d="M96.1,528.4l-2.1-3.2v3.2h-0.5v-4h0.6l2.2,3.3v-3.3h0.5v4H96.1z"/>
		<path d="M100.6,524.4h0.5v2.6c-0.1,0.9-0.8,1.5-1.7,1.4c-0.8-0.1-1.4-0.7-1.4-1.4v-2.6h0.5v2.6c0,0.6,0.5,1.1,1.1,1.1
			c0.6,0,1.1-0.5,1.1-1.1c0,0,0,0,0,0V524.4z M98.7,524.1v-0.7h0.5v0.6L98.7,524.1z M99.8,524.1v-0.7h0.5v0.6L99.8,524.1z"/>
		<path d="M102.3,528.4v-4h2.3v0.4h-1.8v1.4h1.6v0.4h-1.6v1.8H102.3z"/>
		<path d="M108.1,524.4h0.5v2.6c0,0.9-0.7,1.5-1.6,1.5s-1.6-0.7-1.6-1.5v-2.6h0.5v2.6c0,0.6,0.4,1,0.9,1.1c0,0,0.1,0,0.1,0
			c0.6,0,1-0.4,1.1-0.9c0,0,0-0.1,0-0.1L108.1,524.4z"/>
		<path d="M112.1,525.6c0-0.7-0.6-0.8-1-0.8s-0.9,0.2-0.9,0.6c0,1.1,2.4,0.4,2.4,2c0,0.7-0.5,1.1-1.5,1.1c-0.7,0.1-1.4-0.4-1.5-1.2
			c0,0,0,0,0-0.1h0.5c0,0.6,0.5,0.8,1.1,0.8s1-0.2,1-0.7c0-1.1-2.4-0.4-2.4-2c0-0.8,0.7-1.1,1.4-1.1c0.7-0.1,1.3,0.4,1.4,1.1
			c0,0,0,0.1,0,0.1L112.1,525.6z"/>
		<rect x="102.5" y="594" class="st0" width="1.4" height="33.2"/>
		<rect x="91.3" y="592.6" class="st0" width="24.3" height="1.4"/>
		<path d="M92.4,590.3v-3.6h-1.3v-0.4h3.1v0.4h-1.3v3.6H92.4z"/>
		<path d="M94.6,588.3c0.1-1,1-1.8,2.1-1.7c1,0.1,1.8,1,1.7,2.1c-0.1,1-0.9,1.7-1.9,1.7c-1,0-1.8-0.8-1.9-1.8
			C94.6,588.5,94.6,588.4,94.6,588.3z M97.8,588.3c0-1-0.5-1.6-1.4-1.6s-1.3,0.6-1.3,1.6s0.5,1.6,1.3,1.6S97.8,589.4,97.8,588.3z"/>
		<path d="M99.4,590.3v-4h1.4c0.9,0,1.4,0.4,1.4,1.2c0,0.7-0.6,1.3-1.3,1.3c0,0-0.1,0-0.1,0h-0.9v1.5H99.4z M100.8,588.4
			c0.4,0.1,0.9-0.2,0.9-0.7c0,0,0-0.1,0-0.1c0-0.6-0.4-0.8-1-0.8h-0.8v1.7L100.8,588.4z"/>
		<path d="M105.5,590.3l-0.9-1.7h-0.9v1.7h-0.5v-4h1.3c0.9,0,1.4,0.4,1.4,1.1c0,0.5-0.3,1-0.8,1.1l0.9,1.8H105.5z M104.6,588.3
			c0.5,0,0.9-0.3,0.9-0.8s-0.3-0.7-0.9-0.7h-0.8v1.5L104.6,588.3z"/>
		<path d="M109.9,590.3l-0.4-1.2h-1.8l-0.4,1.2h-0.5l1.6-4h0.6l1.6,4H109.9z M108.6,586.8l-0.7,2h1.5L108.6,586.8z"/>
		<path d="M113.8,590.3l-1.5-1.9l-0.4,0.4v1.4h-0.5v-4h0.5v1.9l1.8-1.9h0.6l-1.6,1.8l1.8,2.2L113.8,590.3z"/>
		<g>
			<path class="st8" d="M12.7,617.2c3.8,0,6.8,3,6.8,6.8c0,3.8-3,6.8-6.8,6.8c-3.8,0-6.8-3-6.8-6.8l0,0
				C5.9,620.3,9,617.2,12.7,617.2z"/>
			<path class="st9" d="M12.7,624.7c3.8,0,6.8,3,6.8,6.8c0,3.8-3,6.8-6.8,6.8c-3.8,0-6.8-3-6.8-6.8l0,0
				C5.9,627.7,9,624.7,12.7,624.7z"/>
			<path class="st10" d="M12.7,632.8c3.8,0,6.8,3,6.8,6.8c0,3.8-3,6.8-6.8,6.8c-3.8,0-6.8-3-6.8-6.8l0,0
				C5.9,635.8,9,632.8,12.7,632.8z"/>
			<path class="st0" d="M9,636.6h0.8l0.2,0.9c0.3-0.2,0.6-0.3,0.9-0.3c0.6,0,1.1,0.2,1.5,0.7c0.4,0.5,0.6,1.2,0.5,1.8v0.3v0.2
				c0.1,0.1,0.2,0.2,0.4,0.2c0.2,0,0.3-0.3,0.3-0.9v-1c0-0.5,0.1-1,0.4-1.5c0.3-0.4,0.8-0.5,1.2-0.5c0.6,0,1.3,0.3,1.6,0.9
				c0.4,0.7,0.6,1.6,0.6,2.5c0,0.7-0.1,1.3-0.4,1.9c-0.3,0.4-0.7,0.7-1.2,0.7c-0.3,0-0.6-0.1-0.9-0.3c-0.3-0.3-0.4-0.6-0.5-1
				c-0.1,0.2-0.2,0.3-0.3,0.4c-0.1,0.1-0.3,0.2-0.5,0.2c-0.2,0-0.4-0.1-0.6-0.2c-0.2-0.2-0.3-0.4-0.4-0.6c-0.1,0.3-0.4,0.6-0.6,0.7
				c-0.3,0.2-0.6,0.3-1,0.3c-0.6,0-1.1-0.2-1.5-0.6c-0.4-0.5-0.6-1.1-0.5-1.8c0-0.2,0-0.4,0-0.6c0-0.2,0-0.4,0.1-0.4L9,636.6z
				 M15.7,641.2c0.2,0,0.4-0.1,0.5-0.3c0.1-0.3,0.2-0.6,0.2-0.9c0-0.5-0.1-0.9-0.2-1.3c-0.1-0.3-0.4-0.5-0.7-0.5
				c-0.2,0-0.4,0.1-0.4,0.3c-0.1,0.3-0.1,0.6-0.1,0.9v0.8c0,0.3,0.1,0.5,0.2,0.7C15.3,641.1,15.5,641.2,15.7,641.2z M10.9,640.6
				c0.3,0,0.5-0.1,0.8-0.2c0.2-0.2,0.3-0.4,0.3-0.7c0-0.3-0.1-0.5-0.3-0.7c-0.2-0.2-0.5-0.2-0.8-0.2c-0.7,0-1.1,0.3-1.1,0.9
				S10.2,640.6,10.9,640.6z"/>
			<path class="st0" d="M15.4,629.2v4.6h-0.9l-3.7-2.7v2.5H9.5v-4.4h1l3.6,2.6v-2.7L15.4,629.2z"/>
			<path class="st0" d="M14.5,623.1c0-0.3-0.1-0.7-0.2-1h1.2c0.2,0.5,0.3,1,0.3,1.5c0,0.5-0.1,1-0.5,1.4c-0.4,0.3-0.9,0.5-1.4,0.4
				H11v0.8h-0.7l-0.5-0.9l-1.2-0.5v-1h1.2v-1.6H11v1.6h2.8c0.2,0,0.4-0.1,0.5-0.2C14.4,623.5,14.5,623.3,14.5,623.1z"/>
		</g>
		<g>
			<path class="st11" d="M9.1,594.7c0.1,2.3,1.9,4.1,4.2,4c0,0,0,0,0,0c2.1,0.1,3.9-1.6,3.9-3.7c0,0,0-0.1,0-0.1
				c0-1.7-1.2-3.2-2.9-3.5v0.2c0.8,0.4,1.3,1.2,1.3,2.1c0,1.3-1,2.3-3,2.4v-4.7c-1.8-0.1-3.4,1.3-3.5,3.1
				C9.1,594.6,9.1,594.6,9.1,594.7z M12.2,593.8v2.2c-1.8,0-2.8-0.7-2.8-1.3S10.2,593.8,12.2,593.8z"/>
			<path class="st11" d="M15.6,585.4c0,1.5-1.2,2.4-3.4,2.4c-1.8,0-2.8-0.6-2.8-1.2s1.1-0.8,1.7-1c0.5-0.1,0.8-0.6,0.8-1.1
				c0.1-0.5-0.3-1-0.9-1.1c0,0-0.1,0-0.1,0c-0.8,0-1.7,0.9-1.7,2.8c-0.1,2.3,1.7,4.2,4,4.3c0.1,0,0.2,0,0.3,0
				c2.1,0.1,3.8-1.5,3.9-3.6c0-0.1,0-0.1,0-0.2c0-1.7-1.2-3.2-2.8-3.5l-0.1,0.2C15.1,583.8,15.6,584.6,15.6,585.4z"/>
			<path class="st11" d="M8.9,576.5c0.2,1.1,1,2.1,2.1,2.3H9.2v0.1l1,3.7h0.2c0-0.5,0.2-1.1,1.2-1.1h5.9v-0.1l-1-3.7h-0.2
				c0,0.5-0.3,0.9-0.8,1h-3.7c-0.7-0.2-1.1-0.4-1.1-0.8s0.7-0.8,0.7-1.5c0-0.6-0.5-1.2-1.1-1.2c0,0-0.1,0-0.1,0
				c-0.6,0-1.2,0.5-1.2,1.1C8.9,576.4,8.9,576.5,8.9,576.5z"/>
			<path class="st11" d="M15.1,568.1h-3.3c-1.6,0-2.6,1.1-2.6,3.4s0.8,3.2,1.8,3.2c0.5,0.1,1-0.3,1.1-0.9c0-0.1,0-0.1,0-0.2
				c0-0.6-0.4-1.1-1-1.3c-0.8-0.3-1.6-0.1-1.6-0.8c0-0.5,0.4-0.7,1.5-0.7h1.4c0.9,3.4,1.9,4.3,3.1,4.3c1,0,1.8-0.8,1.8-1.8
				c0-0.1,0-0.1,0-0.2c0-0.9-0.4-1.7-1-2.4h1.1v-0.1l-1-3.7h-0.2C16.2,567.6,16,568.1,15.1,568.1z M16.1,571.7c0,0.5-0.4,1-1.3,1
				c-1,0-2-0.7-2.2-1.8h2.6c0.2,0,0.4,0,0.6,0C16,571.1,16.1,571.4,16.1,571.7L16.1,571.7z"/>
			<path class="st11" d="M15.8,599.5c-0.2,0.1-0.3,0.1-0.5,0.1h-4c-1.1-0.1-2,0.7-2.1,1.7c0,0.1,0,0.2,0,0.3c0.1,1,0.6,2,1.4,2.6
				c-0.9,0.2-1.5,1.1-1.4,2c0,1,0.5,2,1.3,2.6H9.2v0.1l1,3.7h0.2c0-0.5,0.2-1.1,1.2-1.1h5.9v-0.1l-1-3.7h-0.2c0,0.4-0.1,0.7-0.5,0.9
				c-0.2,0.1-0.3,0.1-0.5,0.1h-4.4c-0.3-0.3-0.4-0.6-0.5-1c0-0.5,0.4-0.8,1.2-0.8H16v-0.1l-1-3.7h-0.2c0.1,0.4-0.1,0.8-0.5,0.9
				c-0.2,0.1-0.3,0.1-0.5,0.1h-3c-0.3-0.2-0.5-0.6-0.6-1c0-0.5,0.4-0.9,1.2-0.9h5.8v-0.1l-1-3.7h-0.2C16.2,599,16,599.3,15.8,599.5z
				"/>
		</g>
	</g>
</g>
</svg>
